<svg xmlns="http://www.w3.org/2000/svg" xmlns:xlink="http://www.w3.org/1999/xlink" width="600" height="400" viewBox="0 0 2400 1600">
<defs>
  <clipPath id="clip060">
    <rect x="0" y="0" width="2400" height="1600"></rect>
  </clipPath>
</defs>
<path clip-path="url(#clip060)" d="M0 1600 L2400 1600 L2400 8.88178e-14 L0 8.88178e-14  Z" fill="#ffffff" fill-rule="evenodd" fill-opacity="1"></path>
<defs>
  <clipPath id="clip061">
    <rect x="480" y="0" width="1681" height="1600"></rect>
  </clipPath>
</defs>
<path clip-path="url(#clip060)" d="M203.964 1423.18 L2352.76 1423.18 L2352.76 123.472 L203.964 123.472  Z" fill="#ffffff" fill-rule="evenodd" fill-opacity="1"></path>
<defs>
  <clipPath id="clip062">
    <rect x="203" y="123" width="2150" height="1301"></rect>
  </clipPath>
</defs>
<polyline clip-path="url(#clip062)" style="stroke:#000000; stroke-linecap:round; stroke-linejoin:round; stroke-width:2; stroke-opacity:0.1; fill:none" points="691.55,1423.18 691.55,123.472 "></polyline>
<polyline clip-path="url(#clip062)" style="stroke:#000000; stroke-linecap:round; stroke-linejoin:round; stroke-width:2; stroke-opacity:0.1; fill:none" points="1225.01,1423.18 1225.01,123.472 "></polyline>
<polyline clip-path="url(#clip062)" style="stroke:#000000; stroke-linecap:round; stroke-linejoin:round; stroke-width:2; stroke-opacity:0.1; fill:none" points="1758.48,1423.18 1758.48,123.472 "></polyline>
<polyline clip-path="url(#clip062)" style="stroke:#000000; stroke-linecap:round; stroke-linejoin:round; stroke-width:2; stroke-opacity:0.1; fill:none" points="2291.94,1423.18 2291.94,123.472 "></polyline>
<polyline clip-path="url(#clip062)" style="stroke:#000000; stroke-linecap:round; stroke-linejoin:round; stroke-width:2; stroke-opacity:0.1; fill:none" points="203.964,1169.67 2352.76,1169.67 "></polyline>
<polyline clip-path="url(#clip062)" style="stroke:#000000; stroke-linecap:round; stroke-linejoin:round; stroke-width:2; stroke-opacity:0.1; fill:none" points="203.964,882.823 2352.76,882.823 "></polyline>
<polyline clip-path="url(#clip062)" style="stroke:#000000; stroke-linecap:round; stroke-linejoin:round; stroke-width:2; stroke-opacity:0.1; fill:none" points="203.964,595.98 2352.76,595.98 "></polyline>
<polyline clip-path="url(#clip062)" style="stroke:#000000; stroke-linecap:round; stroke-linejoin:round; stroke-width:2; stroke-opacity:0.1; fill:none" points="203.964,309.138 2352.76,309.138 "></polyline>
<polyline clip-path="url(#clip060)" style="stroke:#000000; stroke-linecap:round; stroke-linejoin:round; stroke-width:4; stroke-opacity:1; fill:none" points="203.964,1423.18 2352.76,1423.18 "></polyline>
<polyline clip-path="url(#clip060)" style="stroke:#000000; stroke-linecap:round; stroke-linejoin:round; stroke-width:4; stroke-opacity:1; fill:none" points="691.55,1423.18 691.55,1404.28 "></polyline>
<polyline clip-path="url(#clip060)" style="stroke:#000000; stroke-linecap:round; stroke-linejoin:round; stroke-width:4; stroke-opacity:1; fill:none" points="1225.01,1423.18 1225.01,1404.28 "></polyline>
<polyline clip-path="url(#clip060)" style="stroke:#000000; stroke-linecap:round; stroke-linejoin:round; stroke-width:4; stroke-opacity:1; fill:none" points="1758.48,1423.18 1758.48,1404.28 "></polyline>
<polyline clip-path="url(#clip060)" style="stroke:#000000; stroke-linecap:round; stroke-linejoin:round; stroke-width:4; stroke-opacity:1; fill:none" points="2291.94,1423.18 2291.94,1404.28 "></polyline>
<path clip-path="url(#clip060)" d="M669.432 1454.1 Q665.82 1454.1 663.992 1457.66 Q662.186 1461.2 662.186 1468.33 Q662.186 1475.44 663.992 1479.01 Q665.82 1482.55 669.432 1482.55 Q673.066 1482.55 674.871 1479.01 Q676.7 1475.44 676.7 1468.33 Q676.7 1461.2 674.871 1457.66 Q673.066 1454.1 669.432 1454.1 M669.432 1450.39 Q675.242 1450.39 678.297 1455 Q681.376 1459.58 681.376 1468.33 Q681.376 1477.06 678.297 1481.67 Q675.242 1486.25 669.432 1486.25 Q663.621 1486.25 660.543 1481.67 Q657.487 1477.06 657.487 1468.33 Q657.487 1459.58 660.543 1455 Q663.621 1450.39 669.432 1450.39 Z" fill="#000000" fill-rule="nonzero" fill-opacity="1"></path><path clip-path="url(#clip060)" d="M689.594 1479.7 L694.478 1479.7 L694.478 1485.58 L689.594 1485.58 L689.594 1479.7 Z" fill="#000000" fill-rule="nonzero" fill-opacity="1"></path><path clip-path="url(#clip060)" d="M704.709 1451.02 L723.066 1451.02 L723.066 1454.96 L708.992 1454.96 L708.992 1463.43 Q710.01 1463.08 711.029 1462.92 Q712.047 1462.73 713.066 1462.73 Q718.853 1462.73 722.232 1465.9 Q725.612 1469.08 725.612 1474.49 Q725.612 1480.07 722.14 1483.17 Q718.667 1486.25 712.348 1486.25 Q710.172 1486.25 707.904 1485.88 Q705.658 1485.51 703.251 1484.77 L703.251 1480.07 Q705.334 1481.2 707.556 1481.76 Q709.779 1482.32 712.255 1482.32 Q716.26 1482.32 718.598 1480.21 Q720.936 1478.1 720.936 1474.49 Q720.936 1470.88 718.598 1468.77 Q716.26 1466.67 712.255 1466.67 Q710.38 1466.67 708.505 1467.08 Q706.654 1467.5 704.709 1468.38 L704.709 1451.02 Z" fill="#000000" fill-rule="nonzero" fill-opacity="1"></path><path clip-path="url(#clip060)" d="M1192.17 1481.64 L1199.81 1481.64 L1199.81 1455.28 L1191.5 1456.95 L1191.5 1452.69 L1199.76 1451.02 L1204.43 1451.02 L1204.43 1481.64 L1212.07 1481.64 L1212.07 1485.58 L1192.17 1485.58 L1192.17 1481.64 Z" fill="#000000" fill-rule="nonzero" fill-opacity="1"></path><path clip-path="url(#clip060)" d="M1221.52 1479.7 L1226.4 1479.7 L1226.4 1485.58 L1221.52 1485.58 L1221.52 1479.7 Z" fill="#000000" fill-rule="nonzero" fill-opacity="1"></path><path clip-path="url(#clip060)" d="M1246.59 1454.1 Q1242.98 1454.1 1241.15 1457.66 Q1239.34 1461.2 1239.34 1468.33 Q1239.34 1475.44 1241.15 1479.01 Q1242.98 1482.55 1246.59 1482.55 Q1250.22 1482.55 1252.03 1479.01 Q1253.86 1475.44 1253.86 1468.33 Q1253.86 1461.2 1252.03 1457.66 Q1250.22 1454.1 1246.59 1454.1 M1246.59 1450.39 Q1252.4 1450.39 1255.45 1455 Q1258.53 1459.58 1258.53 1468.33 Q1258.53 1477.06 1255.45 1481.67 Q1252.4 1486.25 1246.59 1486.25 Q1240.78 1486.25 1237.7 1481.67 Q1234.64 1477.06 1234.64 1468.33 Q1234.64 1459.58 1237.7 1455 Q1240.78 1450.39 1246.59 1450.39 Z" fill="#000000" fill-rule="nonzero" fill-opacity="1"></path><path clip-path="url(#clip060)" d="M1726.13 1481.64 L1733.77 1481.64 L1733.77 1455.28 L1725.46 1456.95 L1725.46 1452.69 L1733.72 1451.02 L1738.4 1451.02 L1738.4 1481.64 L1746.04 1481.64 L1746.04 1485.58 L1726.13 1485.58 L1726.13 1481.64 Z" fill="#000000" fill-rule="nonzero" fill-opacity="1"></path><path clip-path="url(#clip060)" d="M1755.48 1479.7 L1760.36 1479.7 L1760.36 1485.58 L1755.48 1485.58 L1755.48 1479.7 Z" fill="#000000" fill-rule="nonzero" fill-opacity="1"></path><path clip-path="url(#clip060)" d="M1770.6 1451.02 L1788.95 1451.02 L1788.95 1454.96 L1774.88 1454.96 L1774.88 1463.43 Q1775.9 1463.08 1776.91 1462.92 Q1777.93 1462.73 1778.95 1462.73 Q1784.74 1462.73 1788.12 1465.9 Q1791.5 1469.08 1791.5 1474.49 Q1791.5 1480.07 1788.03 1483.17 Q1784.55 1486.25 1778.23 1486.25 Q1776.06 1486.25 1773.79 1485.88 Q1771.54 1485.51 1769.14 1484.77 L1769.14 1480.07 Q1771.22 1481.2 1773.44 1481.76 Q1775.66 1482.32 1778.14 1482.32 Q1782.15 1482.32 1784.48 1480.21 Q1786.82 1478.1 1786.82 1474.49 Q1786.82 1470.88 1784.48 1468.77 Q1782.15 1466.67 1778.14 1466.67 Q1776.27 1466.67 1774.39 1467.08 Q1772.54 1467.5 1770.6 1468.38 L1770.6 1451.02 Z" fill="#000000" fill-rule="nonzero" fill-opacity="1"></path><path clip-path="url(#clip060)" d="M2263.18 1481.64 L2279.5 1481.64 L2279.5 1485.58 L2257.55 1485.58 L2257.55 1481.64 Q2260.22 1478.89 2264.8 1474.26 Q2269.41 1469.61 2270.59 1468.27 Q2272.83 1465.74 2273.71 1464.01 Q2274.61 1462.25 2274.61 1460.56 Q2274.61 1457.8 2272.67 1456.07 Q2270.75 1454.33 2267.65 1454.33 Q2265.45 1454.33 2262.99 1455.09 Q2260.56 1455.86 2257.79 1457.41 L2257.79 1452.69 Q2260.61 1451.55 2263.06 1450.97 Q2265.52 1450.39 2267.55 1450.39 Q2272.92 1450.39 2276.12 1453.08 Q2279.31 1455.77 2279.31 1460.26 Q2279.31 1462.39 2278.5 1464.31 Q2277.72 1466.2 2275.61 1468.8 Q2275.03 1469.47 2271.93 1472.69 Q2268.83 1475.88 2263.18 1481.64 Z" fill="#000000" fill-rule="nonzero" fill-opacity="1"></path><path clip-path="url(#clip060)" d="M2289.31 1479.7 L2294.2 1479.7 L2294.2 1485.58 L2289.31 1485.58 L2289.31 1479.7 Z" fill="#000000" fill-rule="nonzero" fill-opacity="1"></path><path clip-path="url(#clip060)" d="M2314.38 1454.1 Q2310.77 1454.1 2308.94 1457.66 Q2307.14 1461.2 2307.14 1468.33 Q2307.14 1475.44 2308.94 1479.01 Q2310.77 1482.55 2314.38 1482.55 Q2318.02 1482.55 2319.82 1479.01 Q2321.65 1475.44 2321.65 1468.33 Q2321.65 1461.2 2319.82 1457.66 Q2318.02 1454.1 2314.38 1454.1 M2314.38 1450.39 Q2320.19 1450.39 2323.25 1455 Q2326.33 1459.58 2326.33 1468.33 Q2326.33 1477.06 2323.25 1481.67 Q2320.19 1486.25 2314.38 1486.25 Q2308.57 1486.25 2305.49 1481.67 Q2302.44 1477.06 2302.44 1468.33 Q2302.44 1459.58 2305.49 1455 Q2308.57 1450.39 2314.38 1450.39 Z" fill="#000000" fill-rule="nonzero" fill-opacity="1"></path><path clip-path="url(#clip060)" d="M1073.54 1520.52 L1113.74 1520.52 L1113.74 1525.93 L1096.87 1525.93 L1096.87 1568.04 L1090.41 1568.04 L1090.41 1525.93 L1073.54 1525.93 L1073.54 1520.52 Z" fill="#000000" fill-rule="nonzero" fill-opacity="1"></path><path clip-path="url(#clip060)" d="M1139.11 1548.76 L1139.11 1551.62 L1112.18 1551.62 Q1112.56 1557.67 1115.81 1560.85 Q1119.09 1564 1124.91 1564 Q1128.29 1564 1131.44 1563.17 Q1134.62 1562.35 1137.74 1560.69 L1137.74 1566.23 Q1134.59 1567.57 1131.28 1568.27 Q1127.97 1568.97 1124.56 1568.97 Q1116.03 1568.97 1111.04 1564 Q1106.07 1559.04 1106.07 1550.57 Q1106.07 1541.82 1110.78 1536.69 Q1115.52 1531.54 1123.55 1531.54 Q1130.74 1531.54 1134.91 1536.18 Q1139.11 1540.8 1139.11 1548.76 M1133.25 1547.04 Q1133.19 1542.23 1130.55 1539.37 Q1127.94 1536.5 1123.61 1536.5 Q1118.71 1536.5 1115.75 1539.27 Q1112.82 1542.04 1112.37 1547.07 L1133.25 1547.04 Z" fill="#000000" fill-rule="nonzero" fill-opacity="1"></path><path clip-path="url(#clip060)" d="M1176.48 1539.24 Q1178.67 1535.29 1181.73 1533.41 Q1184.78 1531.54 1188.92 1531.54 Q1194.49 1531.54 1197.52 1535.45 Q1200.54 1539.33 1200.54 1546.53 L1200.54 1568.04 L1194.65 1568.04 L1194.65 1546.72 Q1194.65 1541.59 1192.84 1539.11 Q1191.02 1536.63 1187.3 1536.63 Q1182.75 1536.63 1180.11 1539.65 Q1177.46 1542.68 1177.46 1547.9 L1177.46 1568.04 L1171.58 1568.04 L1171.58 1546.72 Q1171.58 1541.56 1169.76 1539.11 Q1167.95 1536.63 1164.16 1536.63 Q1159.67 1536.63 1157.03 1539.68 Q1154.39 1542.71 1154.39 1547.9 L1154.39 1568.04 L1148.5 1568.04 L1148.5 1532.4 L1154.39 1532.4 L1154.39 1537.93 Q1156.39 1534.66 1159.19 1533.1 Q1161.99 1531.54 1165.85 1531.54 Q1169.73 1531.54 1172.43 1533.51 Q1175.17 1535.48 1176.48 1539.24 Z" fill="#000000" fill-rule="nonzero" fill-opacity="1"></path><path clip-path="url(#clip060)" d="M1217.89 1562.7 L1217.89 1581.6 L1212 1581.6 L1212 1532.4 L1217.89 1532.4 L1217.89 1537.81 Q1219.73 1534.62 1222.53 1533.1 Q1225.37 1531.54 1229.28 1531.54 Q1235.77 1531.54 1239.82 1536.69 Q1243.89 1541.85 1243.89 1550.25 Q1243.89 1558.65 1239.82 1563.81 Q1235.77 1568.97 1229.28 1568.97 Q1225.37 1568.97 1222.53 1567.44 Q1219.73 1565.88 1217.89 1562.7 M1237.81 1550.25 Q1237.81 1543.79 1235.14 1540.13 Q1232.49 1536.44 1227.85 1536.44 Q1223.2 1536.44 1220.53 1540.13 Q1217.89 1543.79 1217.89 1550.25 Q1217.89 1556.71 1220.53 1560.4 Q1223.2 1564.07 1227.85 1564.07 Q1232.49 1564.07 1235.14 1560.4 Q1237.81 1556.71 1237.81 1550.25 Z" fill="#000000" fill-rule="nonzero" fill-opacity="1"></path><path clip-path="url(#clip060)" d="M1284.09 1548.76 L1284.09 1551.62 L1257.16 1551.62 Q1257.54 1557.67 1260.79 1560.85 Q1264.07 1564 1269.89 1564 Q1273.27 1564 1276.42 1563.17 Q1279.6 1562.35 1282.72 1560.69 L1282.72 1566.23 Q1279.57 1567.57 1276.26 1568.27 Q1272.95 1568.97 1269.54 1568.97 Q1261.01 1568.97 1256.02 1564 Q1251.05 1559.04 1251.05 1550.57 Q1251.05 1541.82 1255.76 1536.69 Q1260.5 1531.54 1268.52 1531.54 Q1275.72 1531.54 1279.89 1536.18 Q1284.09 1540.8 1284.09 1548.76 M1278.23 1547.04 Q1278.17 1542.23 1275.53 1539.37 Q1272.92 1536.5 1268.59 1536.5 Q1263.69 1536.5 1260.73 1539.27 Q1257.8 1542.04 1257.35 1547.07 L1278.23 1547.04 Z" fill="#000000" fill-rule="nonzero" fill-opacity="1"></path><path clip-path="url(#clip060)" d="M1314.36 1537.87 Q1313.37 1537.3 1312.19 1537.04 Q1311.05 1536.76 1309.65 1536.76 Q1304.68 1536.76 1302.01 1540 Q1299.37 1543.22 1299.37 1549.27 L1299.37 1568.04 L1293.48 1568.04 L1293.48 1532.4 L1299.37 1532.4 L1299.37 1537.93 Q1301.21 1534.69 1304.17 1533.13 Q1307.13 1531.54 1311.37 1531.54 Q1311.97 1531.54 1312.7 1531.63 Q1313.43 1531.7 1314.33 1531.85 L1314.36 1537.87 Z" fill="#000000" fill-rule="nonzero" fill-opacity="1"></path><path clip-path="url(#clip060)" d="M1336.7 1550.12 Q1329.6 1550.12 1326.87 1551.75 Q1324.13 1553.37 1324.13 1557.29 Q1324.13 1560.4 1326.17 1562.25 Q1328.24 1564.07 1331.77 1564.07 Q1336.64 1564.07 1339.57 1560.63 Q1342.53 1557.16 1342.53 1551.43 L1342.53 1550.12 L1336.7 1550.12 M1348.38 1547.71 L1348.38 1568.04 L1342.53 1568.04 L1342.53 1562.63 Q1340.52 1565.88 1337.53 1567.44 Q1334.54 1568.97 1330.21 1568.97 Q1324.73 1568.97 1321.49 1565.91 Q1318.27 1562.82 1318.27 1557.67 Q1318.27 1551.65 1322.28 1548.6 Q1326.33 1545.54 1334.31 1545.54 L1342.53 1545.54 L1342.53 1544.97 Q1342.53 1540.93 1339.85 1538.73 Q1337.21 1536.5 1332.4 1536.5 Q1329.35 1536.5 1326.45 1537.23 Q1323.56 1537.97 1320.88 1539.43 L1320.88 1534.02 Q1324.1 1532.78 1327.12 1532.17 Q1330.14 1531.54 1333.01 1531.54 Q1340.74 1531.54 1344.56 1535.55 Q1348.38 1539.56 1348.38 1547.71 Z" fill="#000000" fill-rule="nonzero" fill-opacity="1"></path><path clip-path="url(#clip060)" d="M1366.24 1522.27 L1366.24 1532.4 L1378.3 1532.4 L1378.3 1536.95 L1366.24 1536.95 L1366.24 1556.3 Q1366.24 1560.66 1367.42 1561.9 Q1368.63 1563.14 1372.29 1563.14 L1378.3 1563.14 L1378.3 1568.04 L1372.29 1568.04 Q1365.51 1568.04 1362.93 1565.53 Q1360.35 1562.98 1360.35 1556.3 L1360.35 1536.95 L1356.05 1536.95 L1356.05 1532.4 L1360.35 1532.4 L1360.35 1522.27 L1366.24 1522.27 Z" fill="#000000" fill-rule="nonzero" fill-opacity="1"></path><path clip-path="url(#clip060)" d="M1385.4 1553.98 L1385.4 1532.4 L1391.26 1532.4 L1391.26 1553.75 Q1391.26 1558.81 1393.23 1561.36 Q1395.2 1563.87 1399.15 1563.87 Q1403.89 1563.87 1406.63 1560.85 Q1409.4 1557.83 1409.4 1552.61 L1409.4 1532.4 L1415.25 1532.4 L1415.25 1568.04 L1409.4 1568.04 L1409.4 1562.57 Q1407.27 1565.82 1404.43 1567.41 Q1401.63 1568.97 1397.91 1568.97 Q1391.76 1568.97 1388.58 1565.15 Q1385.4 1561.33 1385.4 1553.98 M1400.14 1531.54 L1400.14 1531.54 Z" fill="#000000" fill-rule="nonzero" fill-opacity="1"></path><path clip-path="url(#clip060)" d="M1447.97 1537.87 Q1446.99 1537.3 1445.81 1537.04 Q1444.66 1536.76 1443.26 1536.76 Q1438.3 1536.76 1435.62 1540 Q1432.98 1543.22 1432.98 1549.27 L1432.98 1568.04 L1427.09 1568.04 L1427.09 1532.4 L1432.98 1532.4 L1432.98 1537.93 Q1434.83 1534.69 1437.79 1533.13 Q1440.75 1531.54 1444.98 1531.54 Q1445.59 1531.54 1446.32 1531.63 Q1447.05 1531.7 1447.94 1531.85 L1447.97 1537.87 Z" fill="#000000" fill-rule="nonzero" fill-opacity="1"></path><path clip-path="url(#clip060)" d="M1483.18 1548.76 L1483.18 1551.62 L1456.25 1551.62 Q1456.63 1557.67 1459.88 1560.85 Q1463.16 1564 1468.98 1564 Q1472.35 1564 1475.51 1563.17 Q1478.69 1562.35 1481.81 1560.69 L1481.81 1566.23 Q1478.66 1567.57 1475.35 1568.27 Q1472.04 1568.97 1468.63 1568.97 Q1460.1 1568.97 1455.1 1564 Q1450.14 1559.04 1450.14 1550.57 Q1450.14 1541.82 1454.85 1536.69 Q1459.59 1531.54 1467.61 1531.54 Q1474.81 1531.54 1478.97 1536.18 Q1483.18 1540.8 1483.18 1548.76 M1477.32 1547.04 Q1477.26 1542.23 1474.61 1539.37 Q1472 1536.5 1467.68 1536.5 Q1462.77 1536.5 1459.81 1539.27 Q1456.89 1542.04 1456.44 1547.07 L1477.32 1547.04 Z" fill="#000000" fill-rule="nonzero" fill-opacity="1"></path><polyline clip-path="url(#clip060)" style="stroke:#000000; stroke-linecap:round; stroke-linejoin:round; stroke-width:4; stroke-opacity:1; fill:none" points="203.964,1423.18 203.964,123.472 "></polyline>
<polyline clip-path="url(#clip060)" style="stroke:#000000; stroke-linecap:round; stroke-linejoin:round; stroke-width:4; stroke-opacity:1; fill:none" points="203.964,1169.67 222.861,1169.67 "></polyline>
<polyline clip-path="url(#clip060)" style="stroke:#000000; stroke-linecap:round; stroke-linejoin:round; stroke-width:4; stroke-opacity:1; fill:none" points="203.964,882.823 222.861,882.823 "></polyline>
<polyline clip-path="url(#clip060)" style="stroke:#000000; stroke-linecap:round; stroke-linejoin:round; stroke-width:4; stroke-opacity:1; fill:none" points="203.964,595.98 222.861,595.98 "></polyline>
<polyline clip-path="url(#clip060)" style="stroke:#000000; stroke-linecap:round; stroke-linejoin:round; stroke-width:4; stroke-opacity:1; fill:none" points="203.964,309.138 222.861,309.138 "></polyline>
<path clip-path="url(#clip060)" d="M116.668 1183.01 L124.306 1183.01 L124.306 1156.65 L115.996 1158.31 L115.996 1154.05 L124.26 1152.39 L128.936 1152.39 L128.936 1183.01 L136.575 1183.01 L136.575 1186.95 L116.668 1186.95 L116.668 1183.01 Z" fill="#000000" fill-rule="nonzero" fill-opacity="1"></path><path clip-path="url(#clip060)" d="M156.019 1155.46 Q152.408 1155.46 150.579 1159.03 Q148.774 1162.57 148.774 1169.7 Q148.774 1176.81 150.579 1180.37 Q152.408 1183.91 156.019 1183.91 Q159.653 1183.91 161.459 1180.37 Q163.288 1176.81 163.288 1169.7 Q163.288 1162.57 161.459 1159.03 Q159.653 1155.46 156.019 1155.46 M156.019 1151.76 Q161.829 1151.76 164.885 1156.37 Q167.964 1160.95 167.964 1169.7 Q167.964 1178.43 164.885 1183.03 Q161.829 1187.62 156.019 1187.62 Q150.209 1187.62 147.13 1183.03 Q144.075 1178.43 144.075 1169.7 Q144.075 1160.95 147.13 1156.37 Q150.209 1151.76 156.019 1151.76 Z" fill="#000000" fill-rule="nonzero" fill-opacity="1"></path><path clip-path="url(#clip060)" d="M117.663 896.168 L125.302 896.168 L125.302 869.802 L116.992 871.469 L116.992 867.21 L125.255 865.543 L129.931 865.543 L129.931 896.168 L137.57 896.168 L137.57 900.103 L117.663 900.103 L117.663 896.168 Z" fill="#000000" fill-rule="nonzero" fill-opacity="1"></path><path clip-path="url(#clip060)" d="M147.061 865.543 L165.417 865.543 L165.417 869.478 L151.343 869.478 L151.343 877.95 Q152.362 877.603 153.38 877.441 Q154.399 877.256 155.417 877.256 Q161.204 877.256 164.584 880.427 Q167.964 883.599 167.964 889.015 Q167.964 894.594 164.491 897.696 Q161.019 900.774 154.7 900.774 Q152.524 900.774 150.255 900.404 Q148.01 900.034 145.603 899.293 L145.603 894.594 Q147.686 895.728 149.908 896.284 Q152.13 896.839 154.607 896.839 Q158.612 896.839 160.95 894.733 Q163.288 892.626 163.288 889.015 Q163.288 885.404 160.95 883.298 Q158.612 881.191 154.607 881.191 Q152.732 881.191 150.857 881.608 Q149.005 882.025 147.061 882.904 L147.061 865.543 Z" fill="#000000" fill-rule="nonzero" fill-opacity="1"></path><path clip-path="url(#clip060)" d="M119.885 609.325 L136.204 609.325 L136.204 613.26 L114.26 613.26 L114.26 609.325 Q116.922 606.571 121.505 601.941 Q126.112 597.288 127.292 595.946 Q129.538 593.422 130.417 591.686 Q131.32 589.927 131.32 588.237 Q131.32 585.483 129.376 583.747 Q127.455 582.011 124.353 582.011 Q122.154 582.011 119.7 582.774 Q117.269 583.538 114.492 585.089 L114.492 580.367 Q117.316 579.233 119.769 578.654 Q122.223 578.075 124.26 578.075 Q129.63 578.075 132.825 580.761 Q136.019 583.446 136.019 587.936 Q136.019 590.066 135.209 591.987 Q134.422 593.885 132.316 596.478 Q131.737 597.149 128.635 600.367 Q125.533 603.561 119.885 609.325 Z" fill="#000000" fill-rule="nonzero" fill-opacity="1"></path><path clip-path="url(#clip060)" d="M156.019 581.779 Q152.408 581.779 150.579 585.344 Q148.774 588.885 148.774 596.015 Q148.774 603.122 150.579 606.686 Q152.408 610.228 156.019 610.228 Q159.653 610.228 161.459 606.686 Q163.288 603.122 163.288 596.015 Q163.288 588.885 161.459 585.344 Q159.653 581.779 156.019 581.779 M156.019 578.075 Q161.829 578.075 164.885 582.682 Q167.964 587.265 167.964 596.015 Q167.964 604.742 164.885 609.348 Q161.829 613.932 156.019 613.932 Q150.209 613.932 147.13 609.348 Q144.075 604.742 144.075 596.015 Q144.075 587.265 147.13 582.682 Q150.209 578.075 156.019 578.075 Z" fill="#000000" fill-rule="nonzero" fill-opacity="1"></path><path clip-path="url(#clip060)" d="M120.88 322.482 L137.2 322.482 L137.2 326.418 L115.256 326.418 L115.256 322.482 Q117.918 319.728 122.501 315.098 Q127.107 310.445 128.288 309.103 Q130.533 306.58 131.413 304.844 Q132.316 303.084 132.316 301.395 Q132.316 298.64 130.371 296.904 Q128.45 295.168 125.348 295.168 Q123.149 295.168 120.695 295.932 Q118.265 296.695 115.487 298.246 L115.487 293.524 Q118.311 292.39 120.765 291.811 Q123.218 291.233 125.255 291.233 Q130.626 291.233 133.82 293.918 Q137.015 296.603 137.015 301.094 Q137.015 303.223 136.204 305.145 Q135.417 307.043 133.311 309.635 Q132.732 310.307 129.63 313.524 Q126.529 316.719 120.88 322.482 Z" fill="#000000" fill-rule="nonzero" fill-opacity="1"></path><path clip-path="url(#clip060)" d="M147.061 291.858 L165.417 291.858 L165.417 295.793 L151.343 295.793 L151.343 304.265 Q152.362 303.918 153.38 303.756 Q154.399 303.57 155.417 303.57 Q161.204 303.57 164.584 306.742 Q167.964 309.913 167.964 315.33 Q167.964 320.908 164.491 324.01 Q161.019 327.089 154.7 327.089 Q152.524 327.089 150.255 326.718 Q148.01 326.348 145.603 325.607 L145.603 320.908 Q147.686 322.043 149.908 322.598 Q152.13 323.154 154.607 323.154 Q158.612 323.154 160.95 321.047 Q163.288 318.941 163.288 315.33 Q163.288 311.719 160.95 309.612 Q158.612 307.506 154.607 307.506 Q152.732 307.506 150.857 307.922 Q149.005 308.339 147.061 309.219 L147.061 291.858 Z" fill="#000000" fill-rule="nonzero" fill-opacity="1"></path><path clip-path="url(#clip060)" d="M16.4842 954.16 L16.4842 924.114 L21.895 924.114 L21.895 947.73 L35.9632 947.73 L35.9632 925.1 L41.3741 925.1 L41.3741 947.73 L58.5933 947.73 L58.5933 923.541 L64.0042 923.541 L64.0042 954.16 L16.4842 954.16 Z" fill="#000000" fill-rule="nonzero" fill-opacity="1"></path><path clip-path="url(#clip060)" d="M42.4881 883.596 L64.0042 883.596 L64.0042 889.452 L42.679 889.452 Q37.6183 889.452 35.1038 891.426 Q32.5894 893.399 32.5894 897.346 Q32.5894 902.088 35.6131 904.826 Q38.6368 907.563 43.8567 907.563 L64.0042 907.563 L64.0042 913.451 L28.3562 913.451 L28.3562 907.563 L33.8944 907.563 Q30.6797 905.462 29.0883 902.629 Q27.4968 899.765 27.4968 896.041 Q27.4968 889.898 31.3163 886.747 Q35.1038 883.596 42.4881 883.596 Z" fill="#000000" fill-rule="nonzero" fill-opacity="1"></path><path clip-path="url(#clip060)" d="M44.7161 841.423 L47.5806 841.423 L47.5806 868.35 Q53.6281 867.968 56.8109 864.722 Q59.9619 861.443 59.9619 855.619 Q59.9619 852.245 59.1344 849.094 Q58.3069 845.911 56.6518 842.792 L62.1899 842.792 Q63.5267 845.943 64.227 849.253 Q64.9272 852.563 64.9272 855.969 Q64.9272 864.499 59.9619 869.496 Q54.9967 874.461 46.5303 874.461 Q37.7774 874.461 32.6531 869.751 Q27.4968 865.008 27.4968 856.987 Q27.4968 849.794 32.1438 845.624 Q36.7589 841.423 44.7161 841.423 M42.9973 847.28 Q38.1912 847.343 35.3266 849.985 Q32.4621 852.595 32.4621 856.924 Q32.4621 861.825 35.2312 864.785 Q38.0002 867.713 43.0292 868.159 L42.9973 847.28 Z" fill="#000000" fill-rule="nonzero" fill-opacity="1"></path><path clip-path="url(#clip060)" d="M33.8307 811.154 Q33.2578 812.141 33.0032 813.319 Q32.7167 814.464 32.7167 815.865 Q32.7167 820.83 35.9632 823.504 Q39.1779 826.145 45.2253 826.145 L64.0042 826.145 L64.0042 832.034 L28.3562 832.034 L28.3562 826.145 L33.8944 826.145 Q30.6479 824.299 29.0883 821.339 Q27.4968 818.379 27.4968 814.146 Q27.4968 813.541 27.5923 812.809 Q27.656 812.077 27.8151 811.186 L33.8307 811.154 Z" fill="#000000" fill-rule="nonzero" fill-opacity="1"></path><path clip-path="url(#clip060)" d="M45.7664 782.699 Q39.4007 782.699 35.8996 785.341 Q32.3984 787.951 32.3984 792.694 Q32.3984 797.404 35.8996 800.046 Q39.4007 802.656 45.7664 802.656 Q52.1003 802.656 55.6014 800.046 Q59.1026 797.404 59.1026 792.694 Q59.1026 787.951 55.6014 785.341 Q52.1003 782.699 45.7664 782.699 M59.58 776.843 Q68.683 776.843 73.1071 780.885 Q77.5631 784.927 77.5631 793.267 Q77.5631 796.354 77.0857 799.091 Q76.6401 801.828 75.6852 804.407 L69.9879 804.407 Q71.3884 801.828 72.0568 799.314 Q72.7252 796.8 72.7252 794.19 Q72.7252 788.429 69.7015 785.564 Q66.7096 782.699 60.6303 782.699 L57.7339 782.699 Q60.885 784.514 62.4446 787.346 Q64.0042 790.179 64.0042 794.126 Q64.0042 800.683 59.0071 804.693 Q54.01 808.703 45.7664 808.703 Q37.491 808.703 32.4939 804.693 Q27.4968 800.683 27.4968 794.126 Q27.4968 790.179 29.0564 787.346 Q30.616 784.514 33.7671 782.699 L28.3562 782.699 L28.3562 776.843 L59.58 776.843 Z" fill="#000000" fill-rule="nonzero" fill-opacity="1"></path><path clip-path="url(#clip060)" d="M67.3143 749.948 Q73.68 752.431 75.6216 754.786 Q77.5631 757.141 77.5631 761.088 L77.5631 765.767 L72.6615 765.767 L72.6615 762.329 Q72.6615 759.91 71.5157 758.573 Q70.3699 757.237 66.1048 755.613 L63.4312 754.563 L28.3562 768.981 L28.3562 762.775 L56.238 751.635 L28.3562 740.495 L28.3562 734.288 L67.3143 749.948 Z" fill="#000000" fill-rule="nonzero" fill-opacity="1"></path><path clip-path="url(#clip060)" d="M45.7664 682.026 Q39.4007 682.026 35.8996 684.668 Q32.3984 687.278 32.3984 692.02 Q32.3984 696.731 35.8996 699.372 Q39.4007 701.982 45.7664 701.982 Q52.1003 701.982 55.6014 699.372 Q59.1026 696.731 59.1026 692.02 Q59.1026 687.278 55.6014 684.668 Q52.1003 682.026 45.7664 682.026 M59.58 676.169 Q68.683 676.169 73.1071 680.212 Q77.5631 684.254 77.5631 692.593 Q77.5631 695.68 77.0857 698.418 Q76.6401 701.155 75.6852 703.733 L69.9879 703.733 Q71.3884 701.155 72.0568 698.64 Q72.7252 696.126 72.7252 693.516 Q72.7252 687.755 69.7015 684.89 Q66.7096 682.026 60.6303 682.026 L57.7339 682.026 Q60.885 683.84 62.4446 686.673 Q64.0042 689.506 64.0042 693.452 Q64.0042 700.009 59.0071 704.019 Q54.01 708.03 45.7664 708.03 Q37.491 708.03 32.4939 704.019 Q27.4968 700.009 27.4968 693.452 Q27.4968 689.506 29.0564 686.673 Q30.616 683.84 33.7671 682.026 L28.3562 682.026 L28.3562 676.169 L59.58 676.169 Z" fill="#000000" fill-rule="nonzero" fill-opacity="1"></path><path clip-path="url(#clip060)" d="M46.0847 647.906 Q46.0847 655.003 47.7079 657.741 Q49.3312 660.478 53.2461 660.478 Q56.3653 660.478 58.2114 658.441 Q60.0256 656.372 60.0256 652.839 Q60.0256 647.969 56.5881 645.041 Q53.1188 642.081 47.3897 642.081 L46.0847 642.081 L46.0847 647.906 M43.6657 636.225 L64.0042 636.225 L64.0042 642.081 L58.5933 642.081 Q61.8398 644.086 63.3994 647.078 Q64.9272 650.07 64.9272 654.399 Q64.9272 659.873 61.8716 663.12 Q58.7843 666.334 53.6281 666.334 Q47.6125 666.334 44.5569 662.324 Q41.5014 658.282 41.5014 650.293 L41.5014 642.081 L40.9285 642.081 Q36.8862 642.081 34.6901 644.755 Q32.4621 647.396 32.4621 652.203 Q32.4621 655.258 33.1941 658.154 Q33.9262 661.051 35.3903 663.724 L29.9795 663.724 Q28.7381 660.51 28.1334 657.486 Q27.4968 654.462 27.4968 651.598 Q27.4968 643.863 31.5072 640.044 Q35.5176 636.225 43.6657 636.225 Z" fill="#000000" fill-rule="nonzero" fill-opacity="1"></path><path clip-path="url(#clip060)" d="M58.657 618.496 L77.5631 618.496 L77.5631 624.384 L28.3562 624.384 L28.3562 618.496 L33.7671 618.496 Q30.5842 616.65 29.0564 613.849 Q27.4968 611.016 27.4968 607.101 Q27.4968 600.608 32.6531 596.566 Q37.8093 592.492 46.212 592.492 Q54.6147 592.492 59.771 596.566 Q64.9272 600.608 64.9272 607.101 Q64.9272 611.016 63.3994 613.849 Q61.8398 616.65 58.657 618.496 M46.212 598.571 Q39.7508 598.571 36.0905 601.245 Q32.3984 603.887 32.3984 608.534 Q32.3984 613.181 36.0905 615.854 Q39.7508 618.496 46.212 618.496 Q52.6732 618.496 56.3653 615.854 Q60.0256 613.181 60.0256 608.534 Q60.0256 603.887 56.3653 601.245 Q52.6732 598.571 46.212 598.571 Z" fill="#000000" fill-rule="nonzero" fill-opacity="1"></path><path clip-path="url(#clip060)" d="M712.854 12.096 L751.094 12.096 L751.094 18.9825 L721.036 18.9825 L721.036 36.8875 L749.838 36.8875 L749.838 43.7741 L721.036 43.7741 L721.036 65.6895 L751.823 65.6895 L751.823 72.576 L712.854 72.576 L712.854 12.096 Z" fill="#000000" fill-rule="nonzero" fill-opacity="1"></path><path clip-path="url(#clip060)" d="M802.662 45.1919 L802.662 72.576 L795.208 72.576 L795.208 45.4349 Q795.208 38.994 792.697 35.7938 Q790.185 32.5936 785.162 32.5936 Q779.126 32.5936 775.643 36.4419 Q772.159 40.2903 772.159 46.9338 L772.159 72.576 L764.665 72.576 L764.665 27.2059 L772.159 27.2059 L772.159 34.2544 Q774.832 30.163 778.438 28.1376 Q782.083 26.1121 786.823 26.1121 Q794.641 26.1121 798.652 30.9732 Q802.662 35.7938 802.662 45.1919 Z" fill="#000000" fill-rule="nonzero" fill-opacity="1"></path><path clip-path="url(#clip060)" d="M856.337 48.0275 L856.337 51.6733 L822.066 51.6733 Q822.552 59.3701 826.684 63.421 Q830.856 67.4314 838.27 67.4314 Q842.563 67.4314 846.574 66.3781 Q850.625 65.3249 854.595 63.2184 L854.595 70.267 Q850.584 71.9684 846.371 72.8596 Q842.158 73.7508 837.824 73.7508 Q826.967 73.7508 820.608 67.4314 Q814.288 61.1119 814.288 50.3365 Q814.288 39.1965 820.283 32.6746 Q826.319 26.1121 836.528 26.1121 Q845.683 26.1121 850.989 32.0264 Q856.337 37.9003 856.337 48.0275 M848.883 45.84 Q848.802 39.7232 845.44 36.0774 Q842.118 32.4315 836.609 32.4315 Q830.37 32.4315 826.603 35.9558 Q822.876 39.4801 822.309 45.8805 L848.883 45.84 Z" fill="#000000" fill-rule="nonzero" fill-opacity="1"></path><path clip-path="url(#clip060)" d="M894.861 34.1734 Q893.605 33.4443 892.106 33.1202 Q890.648 32.7556 888.865 32.7556 Q882.546 32.7556 879.143 36.8875 Q875.781 40.9789 875.781 48.6757 L875.781 72.576 L868.287 72.576 L868.287 27.2059 L875.781 27.2059 L875.781 34.2544 Q878.13 30.1225 881.898 28.1376 Q885.665 26.1121 891.053 26.1121 Q891.822 26.1121 892.754 26.2337 Q893.686 26.3147 894.82 26.5172 L894.861 34.1734 Z" fill="#000000" fill-rule="nonzero" fill-opacity="1"></path><path clip-path="url(#clip060)" d="M931.076 49.3643 Q931.076 41.2625 927.713 36.8065 Q924.392 32.3505 918.356 32.3505 Q912.361 32.3505 908.998 36.8065 Q905.677 41.2625 905.677 49.3643 Q905.677 57.4256 908.998 61.8816 Q912.361 66.3376 918.356 66.3376 Q924.392 66.3376 927.713 61.8816 Q931.076 57.4256 931.076 49.3643 M938.529 66.9452 Q938.529 78.5308 933.385 84.1616 Q928.24 89.8329 917.627 89.8329 Q913.697 89.8329 910.214 89.2252 Q906.73 88.6581 903.449 87.4428 L903.449 80.1917 Q906.73 81.9741 909.93 82.8248 Q913.13 83.6755 916.452 83.6755 Q923.784 83.6755 927.43 79.8271 Q931.076 76.0193 931.076 68.282 L931.076 64.5957 Q928.767 68.6061 925.161 70.5911 Q921.556 72.576 916.533 72.576 Q908.188 72.576 903.084 66.2161 Q897.98 59.8562 897.98 49.3643 Q897.98 38.832 903.084 32.472 Q908.188 26.1121 916.533 26.1121 Q921.556 26.1121 925.161 28.0971 Q928.767 30.082 931.076 34.0924 L931.076 27.2059 L938.529 27.2059 L938.529 66.9452 Z" fill="#000000" fill-rule="nonzero" fill-opacity="1"></path><path clip-path="url(#clip060)" d="M972.76 76.7889 Q969.6 84.8907 966.602 87.3618 Q963.604 89.8329 958.581 89.8329 L952.627 89.8329 L952.627 83.5945 L957.002 83.5945 Q960.08 83.5945 961.782 82.1361 Q963.483 80.6778 965.549 75.2496 L966.886 71.8468 L948.535 27.2059 L956.434 27.2059 L970.613 62.6918 L984.791 27.2059 L992.69 27.2059 L972.76 76.7889 Z" fill="#000000" fill-rule="nonzero" fill-opacity="1"></path><path clip-path="url(#clip060)" d="M1059.21 49.3643 Q1059.21 41.2625 1055.84 36.8065 Q1052.52 32.3505 1046.49 32.3505 Q1040.49 32.3505 1037.13 36.8065 Q1033.81 41.2625 1033.81 49.3643 Q1033.81 57.4256 1037.13 61.8816 Q1040.49 66.3376 1046.49 66.3376 Q1052.52 66.3376 1055.84 61.8816 Q1059.21 57.4256 1059.21 49.3643 M1066.66 66.9452 Q1066.66 78.5308 1061.51 84.1616 Q1056.37 89.8329 1045.76 89.8329 Q1041.83 89.8329 1038.34 89.2252 Q1034.86 88.6581 1031.58 87.4428 L1031.58 80.1917 Q1034.86 81.9741 1038.06 82.8248 Q1041.26 83.6755 1044.58 83.6755 Q1051.91 83.6755 1055.56 79.8271 Q1059.21 76.0193 1059.21 68.282 L1059.21 64.5957 Q1056.9 68.6061 1053.29 70.5911 Q1049.69 72.576 1044.66 72.576 Q1036.32 72.576 1031.21 66.2161 Q1026.11 59.8562 1026.11 49.3643 Q1026.11 38.832 1031.21 32.472 Q1036.32 26.1121 1044.66 26.1121 Q1049.69 26.1121 1053.29 28.0971 Q1056.9 30.082 1059.21 34.0924 L1059.21 27.2059 L1066.66 27.2059 L1066.66 66.9452 Z" fill="#000000" fill-rule="nonzero" fill-opacity="1"></path><path clip-path="url(#clip060)" d="M1102.63 49.7694 Q1093.6 49.7694 1090.11 51.8354 Q1086.63 53.9013 1086.63 58.8839 Q1086.63 62.8538 1089.22 65.2034 Q1091.86 67.5124 1096.35 67.5124 Q1102.55 67.5124 1106.28 63.1374 Q1110.04 58.7219 1110.04 51.4303 L1110.04 49.7694 L1102.63 49.7694 M1117.5 46.6907 L1117.5 72.576 L1110.04 72.576 L1110.04 65.6895 Q1107.49 69.8214 1103.68 71.8063 Q1099.88 73.7508 1094.37 73.7508 Q1087.4 73.7508 1083.27 69.8619 Q1079.18 65.9325 1079.18 59.3701 Q1079.18 51.7138 1084.28 47.825 Q1089.43 43.9361 1099.59 43.9361 L1110.04 43.9361 L1110.04 43.2069 Q1110.04 38.0623 1106.64 35.2672 Q1103.28 32.4315 1097.16 32.4315 Q1093.27 32.4315 1089.59 33.3632 Q1085.9 34.295 1082.5 36.1584 L1082.5 29.2718 Q1086.59 27.692 1090.44 26.9223 Q1094.29 26.1121 1097.93 26.1121 Q1107.78 26.1121 1112.64 31.2163 Q1117.5 36.3204 1117.5 46.6907 Z" fill="#000000" fill-rule="nonzero" fill-opacity="1"></path><path clip-path="url(#clip060)" d="M1140.06 65.7705 L1140.06 89.8329 L1132.57 89.8329 L1132.57 27.2059 L1140.06 27.2059 L1140.06 34.0924 Q1142.41 30.0415 1145.98 28.0971 Q1149.58 26.1121 1154.56 26.1121 Q1162.83 26.1121 1167.97 32.6746 Q1173.16 39.2371 1173.16 49.9314 Q1173.16 60.6258 1167.97 67.1883 Q1162.83 73.7508 1154.56 73.7508 Q1149.58 73.7508 1145.98 71.8063 Q1142.41 69.8214 1140.06 65.7705 M1165.42 49.9314 Q1165.42 41.7081 1162.02 37.0496 Q1158.66 32.3505 1152.74 32.3505 Q1146.83 32.3505 1143.42 37.0496 Q1140.06 41.7081 1140.06 49.9314 Q1140.06 58.1548 1143.42 62.8538 Q1146.83 67.5124 1152.74 67.5124 Q1158.66 67.5124 1162.02 62.8538 Q1165.42 58.1548 1165.42 49.9314 Z" fill="#000000" fill-rule="nonzero" fill-opacity="1"></path><path clip-path="url(#clip060)" d="M1206.54 27.2059 L1214.44 27.2059 L1228.61 65.2844 L1242.79 27.2059 L1250.69 27.2059 L1233.68 72.576 L1223.55 72.576 L1206.54 27.2059 Z" fill="#000000" fill-rule="nonzero" fill-opacity="1"></path><path clip-path="url(#clip060)" d="M1289.9 28.5427 L1289.9 35.5912 Q1286.75 33.9709 1283.34 33.1607 Q1279.94 32.3505 1276.29 32.3505 Q1270.74 32.3505 1267.95 34.0519 Q1265.19 35.7533 1265.19 39.156 Q1265.19 41.7486 1267.18 43.2475 Q1269.16 44.7058 1275.16 46.0426 L1277.71 46.6097 Q1285.65 48.3111 1288.97 51.4303 Q1292.34 54.509 1292.34 60.0587 Q1292.34 66.3781 1287.31 70.0644 Q1282.33 73.7508 1273.58 73.7508 Q1269.93 73.7508 1265.96 73.0216 Q1262.03 72.3329 1257.66 70.9151 L1257.66 63.2184 Q1261.79 65.3654 1265.8 66.4591 Q1269.81 67.5124 1273.74 67.5124 Q1279.01 67.5124 1281.84 65.73 Q1284.68 63.9071 1284.68 60.6258 Q1284.68 57.5877 1282.61 55.9673 Q1280.59 54.3469 1273.66 52.8481 L1271.07 52.2405 Q1264.14 50.7821 1261.06 47.7845 Q1257.98 44.7463 1257.98 39.4801 Q1257.98 33.0797 1262.52 29.5959 Q1267.06 26.1121 1275.4 26.1121 Q1279.53 26.1121 1283.18 26.7198 Q1286.83 27.3274 1289.9 28.5427 Z" fill="#000000" fill-rule="nonzero" fill-opacity="1"></path><path clip-path="url(#clip060)" d="M1322.51 12.096 L1373.68 12.096 L1373.68 18.9825 L1352.21 18.9825 L1352.21 72.576 L1343.98 72.576 L1343.98 18.9825 L1322.51 18.9825 L1322.51 12.096 Z" fill="#000000" fill-rule="nonzero" fill-opacity="1"></path><path clip-path="url(#clip060)" d="M1405.96 48.0275 L1405.96 51.6733 L1371.69 51.6733 Q1372.18 59.3701 1376.31 63.421 Q1380.48 67.4314 1387.9 67.4314 Q1392.19 67.4314 1396.2 66.3781 Q1400.25 65.3249 1404.22 63.2184 L1404.22 70.267 Q1400.21 71.9684 1396 72.8596 Q1391.79 73.7508 1387.45 73.7508 Q1376.59 73.7508 1370.23 67.4314 Q1363.91 61.1119 1363.91 50.3365 Q1363.91 39.1965 1369.91 32.6746 Q1375.95 26.1121 1386.15 26.1121 Q1395.31 26.1121 1400.62 32.0264 Q1405.96 37.9003 1405.96 48.0275 M1398.51 45.84 Q1398.43 39.7232 1395.07 36.0774 Q1391.74 32.4315 1386.24 32.4315 Q1380 32.4315 1376.23 35.9558 Q1372.5 39.4801 1371.94 45.8805 L1398.51 45.84 Z" fill="#000000" fill-rule="nonzero" fill-opacity="1"></path><path clip-path="url(#clip060)" d="M1453.52 35.9153 Q1456.32 30.8922 1460.2 28.5022 Q1464.09 26.1121 1469.36 26.1121 Q1476.45 26.1121 1480.3 31.0947 Q1484.15 36.0368 1484.15 45.1919 L1484.15 72.576 L1476.65 72.576 L1476.65 45.4349 Q1476.65 38.913 1474.34 35.7533 Q1472.03 32.5936 1467.29 32.5936 Q1461.5 32.5936 1458.14 36.4419 Q1454.78 40.2903 1454.78 46.9338 L1454.78 72.576 L1447.28 72.576 L1447.28 45.4349 Q1447.28 38.8725 1444.97 35.7533 Q1442.66 32.5936 1437.84 32.5936 Q1432.13 32.5936 1428.77 36.4824 Q1425.41 40.3308 1425.41 46.9338 L1425.41 72.576 L1417.91 72.576 L1417.91 27.2059 L1425.41 27.2059 L1425.41 34.2544 Q1427.96 30.082 1431.52 28.0971 Q1435.09 26.1121 1439.99 26.1121 Q1444.93 26.1121 1448.38 28.6237 Q1451.86 31.1352 1453.52 35.9153 Z" fill="#000000" fill-rule="nonzero" fill-opacity="1"></path><path clip-path="url(#clip060)" d="M1506.22 65.7705 L1506.22 89.8329 L1498.73 89.8329 L1498.73 27.2059 L1506.22 27.2059 L1506.22 34.0924 Q1508.57 30.0415 1512.14 28.0971 Q1515.74 26.1121 1520.73 26.1121 Q1528.99 26.1121 1534.13 32.6746 Q1539.32 39.2371 1539.32 49.9314 Q1539.32 60.6258 1534.13 67.1883 Q1528.99 73.7508 1520.73 73.7508 Q1515.74 73.7508 1512.14 71.8063 Q1508.57 69.8214 1506.22 65.7705 M1531.58 49.9314 Q1531.58 41.7081 1528.18 37.0496 Q1524.82 32.3505 1518.9 32.3505 Q1512.99 32.3505 1509.59 37.0496 Q1506.22 41.7081 1506.22 49.9314 Q1506.22 58.1548 1509.59 62.8538 Q1512.99 67.5124 1518.9 67.5124 Q1524.82 67.5124 1528.18 62.8538 Q1531.58 58.1548 1531.58 49.9314 Z" fill="#000000" fill-rule="nonzero" fill-opacity="1"></path><path clip-path="url(#clip060)" d="M1590.48 48.0275 L1590.48 51.6733 L1556.21 51.6733 Q1556.7 59.3701 1560.83 63.421 Q1565 67.4314 1572.41 67.4314 Q1576.71 67.4314 1580.72 66.3781 Q1584.77 65.3249 1588.74 63.2184 L1588.74 70.267 Q1584.73 71.9684 1580.52 72.8596 Q1576.3 73.7508 1571.97 73.7508 Q1561.11 73.7508 1554.75 67.4314 Q1548.43 61.1119 1548.43 50.3365 Q1548.43 39.1965 1554.43 32.6746 Q1560.46 26.1121 1570.67 26.1121 Q1579.83 26.1121 1585.13 32.0264 Q1590.48 37.9003 1590.48 48.0275 M1583.03 45.84 Q1582.95 39.7232 1579.58 36.0774 Q1576.26 32.4315 1570.75 32.4315 Q1564.52 32.4315 1560.75 35.9558 Q1557.02 39.4801 1556.45 45.8805 L1583.03 45.84 Z" fill="#000000" fill-rule="nonzero" fill-opacity="1"></path><path clip-path="url(#clip060)" d="M1629.01 34.1734 Q1627.75 33.4443 1626.25 33.1202 Q1624.79 32.7556 1623.01 32.7556 Q1616.69 32.7556 1613.29 36.8875 Q1609.93 40.9789 1609.93 48.6757 L1609.93 72.576 L1602.43 72.576 L1602.43 27.2059 L1609.93 27.2059 L1609.93 34.2544 Q1612.28 30.1225 1616.04 28.1376 Q1619.81 26.1121 1625.2 26.1121 Q1625.97 26.1121 1626.9 26.2337 Q1627.83 26.3147 1628.97 26.5172 L1629.01 34.1734 Z" fill="#000000" fill-rule="nonzero" fill-opacity="1"></path><path clip-path="url(#clip060)" d="M1657.44 49.7694 Q1648.41 49.7694 1644.93 51.8354 Q1641.44 53.9013 1641.44 58.8839 Q1641.44 62.8538 1644.03 65.2034 Q1646.67 67.5124 1651.16 67.5124 Q1657.36 67.5124 1661.09 63.1374 Q1664.86 58.7219 1664.86 51.4303 L1664.86 49.7694 L1657.44 49.7694 M1672.31 46.6907 L1672.31 72.576 L1664.86 72.576 L1664.86 65.6895 Q1662.3 69.8214 1658.5 71.8063 Q1654.69 73.7508 1649.18 73.7508 Q1642.21 73.7508 1638.08 69.8619 Q1633.99 65.9325 1633.99 59.3701 Q1633.99 51.7138 1639.09 47.825 Q1644.24 43.9361 1654.41 43.9361 L1664.86 43.9361 L1664.86 43.2069 Q1664.86 38.0623 1661.45 35.2672 Q1658.09 32.4315 1651.97 32.4315 Q1648.09 32.4315 1644.4 33.3632 Q1640.71 34.295 1637.31 36.1584 L1637.31 29.2718 Q1641.4 27.692 1645.25 26.9223 Q1649.1 26.1121 1652.74 26.1121 Q1662.59 26.1121 1667.45 31.2163 Q1672.31 36.3204 1672.31 46.6907 Z" fill="#000000" fill-rule="nonzero" fill-opacity="1"></path><path clip-path="url(#clip060)" d="M1695.04 14.324 L1695.04 27.2059 L1710.39 27.2059 L1710.39 32.9987 L1695.04 32.9987 L1695.04 57.6282 Q1695.04 63.1779 1696.53 64.7578 Q1698.07 66.3376 1702.73 66.3376 L1710.39 66.3376 L1710.39 72.576 L1702.73 72.576 Q1694.1 72.576 1690.82 69.3758 Q1687.54 66.1351 1687.54 57.6282 L1687.54 32.9987 L1682.07 32.9987 L1682.07 27.2059 L1687.54 27.2059 L1687.54 14.324 L1695.04 14.324 Z" fill="#000000" fill-rule="nonzero" fill-opacity="1"></path><path clip-path="url(#clip060)" d="M1719.42 54.671 L1719.42 27.2059 L1726.88 27.2059 L1726.88 54.3874 Q1726.88 60.8284 1729.39 64.0691 Q1731.9 67.2693 1736.92 67.2693 Q1742.96 67.2693 1746.44 63.421 Q1749.97 59.5726 1749.97 52.9291 L1749.97 27.2059 L1757.42 27.2059 L1757.42 72.576 L1749.97 72.576 L1749.97 65.6084 Q1747.25 69.7404 1743.65 71.7658 Q1740.08 73.7508 1735.34 73.7508 Q1727.52 73.7508 1723.47 68.8897 Q1719.42 64.0286 1719.42 54.671 M1738.18 26.1121 L1738.18 26.1121 Z" fill="#000000" fill-rule="nonzero" fill-opacity="1"></path><path clip-path="url(#clip060)" d="M1799.06 34.1734 Q1797.81 33.4443 1796.31 33.1202 Q1794.85 32.7556 1793.07 32.7556 Q1786.75 32.7556 1783.35 36.8875 Q1779.98 40.9789 1779.98 48.6757 L1779.98 72.576 L1772.49 72.576 L1772.49 27.2059 L1779.98 27.2059 L1779.98 34.2544 Q1782.33 30.1225 1786.1 28.1376 Q1789.87 26.1121 1795.26 26.1121 Q1796.02 26.1121 1796.96 26.2337 Q1797.89 26.3147 1799.02 26.5172 L1799.06 34.1734 Z" fill="#000000" fill-rule="nonzero" fill-opacity="1"></path><path clip-path="url(#clip060)" d="M1843.87 48.0275 L1843.87 51.6733 L1809.6 51.6733 Q1810.08 59.3701 1814.21 63.421 Q1818.39 67.4314 1825.8 67.4314 Q1830.09 67.4314 1834.1 66.3781 Q1838.15 65.3249 1842.12 63.2184 L1842.12 70.267 Q1838.11 71.9684 1833.9 72.8596 Q1829.69 73.7508 1825.35 73.7508 Q1814.5 73.7508 1808.14 67.4314 Q1801.82 61.1119 1801.82 50.3365 Q1801.82 39.1965 1807.81 32.6746 Q1813.85 26.1121 1824.06 26.1121 Q1833.21 26.1121 1838.52 32.0264 Q1843.87 37.9003 1843.87 48.0275 M1836.41 45.84 Q1836.33 39.7232 1832.97 36.0774 Q1829.65 32.4315 1824.14 32.4315 Q1817.9 32.4315 1814.13 35.9558 Q1810.41 39.4801 1809.84 45.8805 L1836.41 45.84 Z" fill="#000000" fill-rule="nonzero" fill-opacity="1"></path><polyline clip-path="url(#clip062)" style="stroke:#009af9; stroke-linecap:round; stroke-linejoin:round; stroke-width:4; stroke-opacity:1; fill:none" points="264.778,690.455 371.471,690.433 478.164,689.839 584.857,687.297 691.55,682.074 798.242,674.076 904.935,663.413 1011.63,650.363 1118.32,635.327 1225.01,618.755 1331.71,601.082 1438.4,582.69 1545.09,563.9 1651.78,544.967 1758.48,526.089 1865.17,507.416 1971.86,489.056 2078.56,471.09 2185.25,453.57 2291.94,436.533 "></polyline>
<polyline clip-path="url(#clip062)" style="stroke:#e26f46; stroke-linecap:round; stroke-linejoin:round; stroke-width:4; stroke-opacity:1; fill:none" points="264.778,1386.4 371.471,1385.79 478.164,1372.08 584.857,1314.37 691.55,1245.74 798.242,1175.73 904.935,1108.14 1011.63,1044.47 1118.32,985.166 1225.01,930.177 1331.71,879.251 1438.4,832.068 1545.09,788.293 1651.78,747.61 1758.48,709.726 1865.17,674.378 1971.86,641.329 2078.56,610.369 2185.25,581.312 2291.94,553.991 "></polyline>
<polyline clip-path="url(#clip062)" style="stroke:#3da44d; stroke-linecap:round; stroke-linejoin:round; stroke-width:4; stroke-opacity:1; fill:none" points="264.778,247.129 371.471,247.129 478.164,247.128 584.857,247.105 691.55,246.953 798.242,246.46 904.935,245.388 1011.63,243.55 1118.32,240.833 1225.01,237.191 1331.71,232.624 1438.4,227.163 1545.09,220.862 1651.78,213.789 1758.48,206.028 1865.17,197.669 1971.86,188.814 2078.56,179.562 2185.25,170.012 2291.94,160.256 "></polyline>
<path clip-path="url(#clip060)" d="M1614.42 1379.86 L2281.13 1379.86 L2281.13 1172.5 L1614.42 1172.5  Z" fill="#ffffff" fill-rule="evenodd" fill-opacity="1"></path>
<polyline clip-path="url(#clip060)" style="stroke:#000000; stroke-linecap:round; stroke-linejoin:round; stroke-width:4; stroke-opacity:1; fill:none" points="1614.42,1379.86 2281.13,1379.86 2281.13,1172.5 1614.42,1172.5 1614.42,1379.86 "></polyline>
<polyline clip-path="url(#clip060)" style="stroke:#009af9; stroke-linecap:round; stroke-linejoin:round; stroke-width:4; stroke-opacity:1; fill:none" points="1638.3,1224.34 1781.55,1224.34 "></polyline>
<path clip-path="url(#clip060)" d="M1812.84 1208.33 L1812.84 1215.69 L1821.61 1215.69 L1821.61 1219 L1812.84 1219 L1812.84 1233.07 Q1812.84 1236.25 1813.69 1237.15 Q1814.57 1238.05 1817.23 1238.05 L1821.61 1238.05 L1821.61 1241.62 L1817.23 1241.62 Q1812.3 1241.62 1810.43 1239.79 Q1808.55 1237.94 1808.55 1233.07 L1808.55 1219 L1805.43 1219 L1805.43 1215.69 L1808.55 1215.69 L1808.55 1208.33 L1812.84 1208.33 Z" fill="#000000" fill-rule="nonzero" fill-opacity="1"></path><path clip-path="url(#clip060)" d="M1842.23 1219.67 Q1841.52 1219.26 1840.66 1219.07 Q1839.83 1218.86 1838.81 1218.86 Q1835.2 1218.86 1833.25 1221.22 Q1831.33 1223.56 1831.33 1227.96 L1831.33 1241.62 L1827.05 1241.62 L1827.05 1215.69 L1831.33 1215.69 L1831.33 1219.72 Q1832.67 1217.36 1834.83 1216.22 Q1836.98 1215.07 1840.06 1215.07 Q1840.5 1215.07 1841.03 1215.13 Q1841.56 1215.18 1842.21 1215.3 L1842.23 1219.67 Z" fill="#000000" fill-rule="nonzero" fill-opacity="1"></path><path clip-path="url(#clip060)" d="M1846.7 1215.69 L1850.96 1215.69 L1850.96 1241.62 L1846.7 1241.62 L1846.7 1215.69 M1846.7 1205.6 L1850.96 1205.6 L1850.96 1210.99 L1846.7 1210.99 L1846.7 1205.6 Z" fill="#000000" fill-rule="nonzero" fill-opacity="1"></path><path clip-path="url(#clip060)" d="M1871.65 1228.58 Q1866.49 1228.58 1864.5 1229.76 Q1862.51 1230.95 1862.51 1233.79 Q1862.51 1236.06 1863.99 1237.4 Q1865.5 1238.72 1868.07 1238.72 Q1871.61 1238.72 1873.74 1236.22 Q1875.89 1233.7 1875.89 1229.53 L1875.89 1228.58 L1871.65 1228.58 M1880.15 1226.82 L1880.15 1241.62 L1875.89 1241.62 L1875.89 1237.68 Q1874.43 1240.04 1872.26 1241.18 Q1870.08 1242.29 1866.93 1242.29 Q1862.95 1242.29 1860.59 1240.07 Q1858.25 1237.82 1858.25 1234.07 Q1858.25 1229.7 1861.17 1227.47 Q1864.11 1225.25 1869.92 1225.25 L1875.89 1225.25 L1875.89 1224.83 Q1875.89 1221.89 1873.95 1220.3 Q1872.02 1218.68 1868.53 1218.68 Q1866.31 1218.68 1864.2 1219.21 Q1862.09 1219.74 1860.15 1220.81 L1860.15 1216.87 Q1862.49 1215.97 1864.69 1215.53 Q1866.89 1215.07 1868.97 1215.07 Q1874.59 1215.07 1877.37 1217.98 Q1880.15 1220.9 1880.15 1226.82 Z" fill="#000000" fill-rule="nonzero" fill-opacity="1"></path><path clip-path="url(#clip060)" d="M1910.47 1225.97 L1910.47 1241.62 L1906.21 1241.62 L1906.21 1226.11 Q1906.21 1222.43 1904.78 1220.6 Q1903.34 1218.77 1900.47 1218.77 Q1897.02 1218.77 1895.03 1220.97 Q1893.04 1223.17 1893.04 1226.96 L1893.04 1241.62 L1888.76 1241.62 L1888.76 1215.69 L1893.04 1215.69 L1893.04 1219.72 Q1894.57 1217.38 1896.63 1216.22 Q1898.71 1215.07 1901.42 1215.07 Q1905.89 1215.07 1908.18 1217.84 Q1910.47 1220.6 1910.47 1225.97 Z" fill="#000000" fill-rule="nonzero" fill-opacity="1"></path><path clip-path="url(#clip060)" d="M1936.03 1228.35 Q1936.03 1223.72 1934.11 1221.18 Q1932.21 1218.63 1928.76 1218.63 Q1925.33 1218.63 1923.41 1221.18 Q1921.52 1223.72 1921.52 1228.35 Q1921.52 1232.96 1923.41 1235.51 Q1925.33 1238.05 1928.76 1238.05 Q1932.21 1238.05 1934.11 1235.51 Q1936.03 1232.96 1936.03 1228.35 M1940.29 1238.4 Q1940.29 1245.02 1937.35 1248.24 Q1934.41 1251.48 1928.34 1251.48 Q1926.1 1251.48 1924.11 1251.13 Q1922.12 1250.81 1920.24 1250.11 L1920.24 1245.97 Q1922.12 1246.99 1923.95 1247.47 Q1925.77 1247.96 1927.67 1247.96 Q1931.86 1247.96 1933.95 1245.76 Q1936.03 1243.58 1936.03 1239.16 L1936.03 1237.06 Q1934.71 1239.35 1932.65 1240.48 Q1930.59 1241.62 1927.72 1241.62 Q1922.95 1241.62 1920.03 1237.98 Q1917.12 1234.35 1917.12 1228.35 Q1917.12 1222.33 1920.03 1218.7 Q1922.95 1215.07 1927.72 1215.07 Q1930.59 1215.07 1932.65 1216.2 Q1934.71 1217.33 1936.03 1219.63 L1936.03 1215.69 L1940.29 1215.69 L1940.29 1238.4 Z" fill="#000000" fill-rule="nonzero" fill-opacity="1"></path><path clip-path="url(#clip060)" d="M1949.06 1205.6 L1953.32 1205.6 L1953.32 1241.62 L1949.06 1241.62 L1949.06 1205.6 Z" fill="#000000" fill-rule="nonzero" fill-opacity="1"></path><path clip-path="url(#clip060)" d="M1984.41 1227.59 L1984.41 1229.67 L1964.83 1229.67 Q1965.1 1234.07 1967.46 1236.38 Q1969.85 1238.68 1974.08 1238.68 Q1976.54 1238.68 1978.83 1238.07 Q1981.14 1237.47 1983.41 1236.27 L1983.41 1240.3 Q1981.12 1241.27 1978.71 1241.78 Q1976.31 1242.29 1973.83 1242.29 Q1967.63 1242.29 1963.99 1238.68 Q1960.38 1235.07 1960.38 1228.91 Q1960.38 1222.54 1963.81 1218.82 Q1967.26 1215.07 1973.09 1215.07 Q1978.32 1215.07 1981.35 1218.45 Q1984.41 1221.8 1984.41 1227.59 M1980.15 1226.34 Q1980.1 1222.84 1978.18 1220.76 Q1976.28 1218.68 1973.14 1218.68 Q1969.57 1218.68 1967.42 1220.69 Q1965.29 1222.7 1964.96 1226.36 L1980.15 1226.34 Z" fill="#000000" fill-rule="nonzero" fill-opacity="1"></path><path clip-path="url(#clip060)" d="M2007.93 1216.45 L2007.93 1220.48 Q2006.12 1219.56 2004.18 1219.09 Q2002.23 1218.63 2000.15 1218.63 Q1996.98 1218.63 1995.38 1219.6 Q1993.81 1220.57 1993.81 1222.52 Q1993.81 1224 1994.94 1224.86 Q1996.07 1225.69 1999.5 1226.45 L2000.96 1226.78 Q2005.5 1227.75 2007.39 1229.53 Q2009.32 1231.29 2009.32 1234.46 Q2009.32 1238.07 2006.45 1240.18 Q2003.6 1242.29 1998.6 1242.29 Q1996.51 1242.29 1994.25 1241.87 Q1992 1241.48 1989.5 1240.67 L1989.5 1236.27 Q1991.86 1237.5 1994.15 1238.12 Q1996.45 1238.72 1998.69 1238.72 Q2001.7 1238.72 2003.32 1237.7 Q2004.94 1236.66 2004.94 1234.79 Q2004.94 1233.05 2003.76 1232.13 Q2002.6 1231.2 1998.64 1230.34 L1997.16 1230 Q1993.2 1229.16 1991.45 1227.45 Q1989.69 1225.71 1989.69 1222.7 Q1989.69 1219.05 1992.28 1217.06 Q1994.87 1215.07 1999.64 1215.07 Q2002 1215.07 2004.08 1215.41 Q2006.17 1215.76 2007.93 1216.45 Z" fill="#000000" fill-rule="nonzero" fill-opacity="1"></path><path clip-path="url(#clip060)" d="M2017.19 1235.74 L2022.07 1235.74 L2022.07 1239.72 L2018.27 1247.13 L2015.29 1247.13 L2017.19 1239.72 L2017.19 1235.74 Z" fill="#000000" fill-rule="nonzero" fill-opacity="1"></path><path clip-path="url(#clip060)" d="M2047.69 1216.45 L2047.69 1220.48 Q2045.89 1219.56 2043.94 1219.09 Q2042 1218.63 2039.92 1218.63 Q2036.75 1218.63 2035.15 1219.6 Q2033.57 1220.57 2033.57 1222.52 Q2033.57 1224 2034.71 1224.86 Q2035.84 1225.69 2039.27 1226.45 L2040.73 1226.78 Q2045.26 1227.75 2047.16 1229.53 Q2049.08 1231.29 2049.08 1234.46 Q2049.08 1238.07 2046.21 1240.18 Q2043.37 1242.29 2038.37 1242.29 Q2036.28 1242.29 2034.01 1241.87 Q2031.77 1241.48 2029.27 1240.67 L2029.27 1236.27 Q2031.63 1237.5 2033.92 1238.12 Q2036.21 1238.72 2038.46 1238.72 Q2041.47 1238.72 2043.09 1237.7 Q2044.71 1236.66 2044.71 1234.79 Q2044.71 1233.05 2043.53 1232.13 Q2042.37 1231.2 2038.41 1230.34 L2036.93 1230 Q2032.97 1229.16 2031.21 1227.45 Q2029.45 1225.71 2029.45 1222.7 Q2029.45 1219.05 2032.05 1217.06 Q2034.64 1215.07 2039.41 1215.07 Q2041.77 1215.07 2043.85 1215.41 Q2045.94 1215.76 2047.69 1216.45 Z" fill="#000000" fill-rule="nonzero" fill-opacity="1"></path><path clip-path="url(#clip060)" d="M2055.87 1215.69 L2060.13 1215.69 L2060.13 1241.62 L2055.87 1241.62 L2055.87 1215.69 M2055.87 1205.6 L2060.13 1205.6 L2060.13 1210.99 L2055.87 1210.99 L2055.87 1205.6 Z" fill="#000000" fill-rule="nonzero" fill-opacity="1"></path><path clip-path="url(#clip060)" d="M2073.25 1208.33 L2073.25 1215.69 L2082.02 1215.69 L2082.02 1219 L2073.25 1219 L2073.25 1233.07 Q2073.25 1236.25 2074.11 1237.15 Q2074.99 1238.05 2077.65 1238.05 L2082.02 1238.05 L2082.02 1241.62 L2077.65 1241.62 Q2072.72 1241.62 2070.84 1239.79 Q2068.97 1237.94 2068.97 1233.07 L2068.97 1219 L2065.84 1219 L2065.84 1215.69 L2068.97 1215.69 L2068.97 1208.33 L2073.25 1208.33 Z" fill="#000000" fill-rule="nonzero" fill-opacity="1"></path><path clip-path="url(#clip060)" d="M2109.8 1227.59 L2109.8 1229.67 L2090.22 1229.67 Q2090.5 1234.07 2092.86 1236.38 Q2095.24 1238.68 2099.48 1238.68 Q2101.93 1238.68 2104.22 1238.07 Q2106.54 1237.47 2108.81 1236.27 L2108.81 1240.3 Q2106.51 1241.27 2104.11 1241.78 Q2101.7 1242.29 2099.22 1242.29 Q2093.02 1242.29 2089.38 1238.68 Q2085.77 1235.07 2085.77 1228.91 Q2085.77 1222.54 2089.2 1218.82 Q2092.65 1215.07 2098.48 1215.07 Q2103.71 1215.07 2106.75 1218.45 Q2109.8 1221.8 2109.8 1227.59 M2105.54 1226.34 Q2105.5 1222.84 2103.57 1220.76 Q2101.68 1218.68 2098.53 1218.68 Q2094.96 1218.68 2092.81 1220.69 Q2090.68 1222.7 2090.36 1226.36 L2105.54 1226.34 Z" fill="#000000" fill-rule="nonzero" fill-opacity="1"></path><path clip-path="url(#clip060)" d="M2133.32 1216.45 L2133.32 1220.48 Q2131.51 1219.56 2129.57 1219.09 Q2127.63 1218.63 2125.54 1218.63 Q2122.37 1218.63 2120.77 1219.6 Q2119.2 1220.57 2119.2 1222.52 Q2119.2 1224 2120.33 1224.86 Q2121.47 1225.69 2124.89 1226.45 L2126.35 1226.78 Q2130.89 1227.75 2132.79 1229.53 Q2134.71 1231.29 2134.71 1234.46 Q2134.71 1238.07 2131.84 1240.18 Q2128.99 1242.29 2123.99 1242.29 Q2121.91 1242.29 2119.64 1241.87 Q2117.39 1241.48 2114.89 1240.67 L2114.89 1236.27 Q2117.25 1237.5 2119.55 1238.12 Q2121.84 1238.72 2124.08 1238.72 Q2127.09 1238.72 2128.71 1237.7 Q2130.33 1236.66 2130.33 1234.79 Q2130.33 1233.05 2129.15 1232.13 Q2128 1231.2 2124.04 1230.34 L2122.56 1230 Q2118.6 1229.16 2116.84 1227.45 Q2115.08 1225.71 2115.08 1222.7 Q2115.08 1219.05 2117.67 1217.06 Q2120.26 1215.07 2125.03 1215.07 Q2127.39 1215.07 2129.48 1215.41 Q2131.56 1215.76 2133.32 1216.45 Z" fill="#000000" fill-rule="nonzero" fill-opacity="1"></path><path clip-path="url(#clip060)" d="M2142.05 1220.09 L2171.72 1220.09 L2171.72 1223.98 L2142.05 1223.98 L2142.05 1220.09 M2142.05 1229.53 L2171.72 1229.53 L2171.72 1233.47 L2142.05 1233.47 L2142.05 1229.53 Z" fill="#000000" fill-rule="nonzero" fill-opacity="1"></path><path clip-path="url(#clip060)" d="M2182.62 1237.68 L2190.26 1237.68 L2190.26 1211.32 L2181.95 1212.98 L2181.95 1208.72 L2190.22 1207.06 L2194.89 1207.06 L2194.89 1237.68 L2202.53 1237.68 L2202.53 1241.62 L2182.62 1241.62 L2182.62 1237.68 Z" fill="#000000" fill-rule="nonzero" fill-opacity="1"></path><path clip-path="url(#clip060)" d="M2221.98 1225.2 Q2218.64 1225.2 2216.72 1226.99 Q2214.82 1228.77 2214.82 1231.89 Q2214.82 1235.02 2216.72 1236.8 Q2218.64 1238.58 2221.98 1238.58 Q2225.31 1238.58 2227.23 1236.8 Q2229.15 1235 2229.15 1231.89 Q2229.15 1228.77 2227.23 1226.99 Q2225.33 1225.2 2221.98 1225.2 M2217.3 1223.21 Q2214.29 1222.47 2212.6 1220.41 Q2210.93 1218.35 2210.93 1215.39 Q2210.93 1211.25 2213.87 1208.84 Q2216.84 1206.43 2221.98 1206.43 Q2227.14 1206.43 2230.08 1208.84 Q2233.02 1211.25 2233.02 1215.39 Q2233.02 1218.35 2231.33 1220.41 Q2229.66 1222.47 2226.68 1223.21 Q2230.06 1224 2231.93 1226.29 Q2233.83 1228.58 2233.83 1231.89 Q2233.83 1236.92 2230.75 1239.6 Q2227.69 1242.29 2221.98 1242.29 Q2216.26 1242.29 2213.18 1239.6 Q2210.12 1236.92 2210.12 1231.89 Q2210.12 1228.58 2212.02 1226.29 Q2213.92 1224 2217.3 1223.21 M2215.59 1215.83 Q2215.59 1218.51 2217.25 1220.02 Q2218.94 1221.52 2221.98 1221.52 Q2224.99 1221.52 2226.68 1220.02 Q2228.39 1218.51 2228.39 1215.83 Q2228.39 1213.14 2226.68 1211.64 Q2224.99 1210.13 2221.98 1210.13 Q2218.94 1210.13 2217.25 1211.64 Q2215.59 1213.14 2215.59 1215.83 Z" fill="#000000" fill-rule="nonzero" fill-opacity="1"></path><polyline clip-path="url(#clip060)" style="stroke:#e26f46; stroke-linecap:round; stroke-linejoin:round; stroke-width:4; stroke-opacity:1; fill:none" points="1638.3,1276.18 1781.55,1276.18 "></polyline>
<path clip-path="url(#clip060)" d="M1823.85 1268.29 L1823.85 1272.32 Q1822.05 1271.4 1820.1 1270.93 Q1818.16 1270.47 1816.08 1270.47 Q1812.9 1270.47 1811.31 1271.44 Q1809.73 1272.41 1809.73 1274.36 Q1809.73 1275.84 1810.87 1276.7 Q1812 1277.53 1815.43 1278.29 L1816.89 1278.62 Q1821.42 1279.59 1823.32 1281.37 Q1825.24 1283.13 1825.24 1286.3 Q1825.24 1289.91 1822.37 1292.02 Q1819.52 1294.13 1814.52 1294.13 Q1812.44 1294.13 1810.17 1293.71 Q1807.93 1293.32 1805.43 1292.51 L1805.43 1288.11 Q1807.79 1289.34 1810.08 1289.96 Q1812.37 1290.56 1814.62 1290.56 Q1817.63 1290.56 1819.25 1289.54 Q1820.87 1288.5 1820.87 1286.63 Q1820.87 1284.89 1819.69 1283.97 Q1818.53 1283.04 1814.57 1282.18 L1813.09 1281.84 Q1809.13 1281 1807.37 1279.29 Q1805.61 1277.55 1805.61 1274.54 Q1805.61 1270.89 1808.21 1268.9 Q1810.8 1266.91 1815.57 1266.91 Q1817.93 1266.91 1820.01 1267.25 Q1822.09 1267.6 1823.85 1268.29 Z" fill="#000000" fill-rule="nonzero" fill-opacity="1"></path><path clip-path="url(#clip060)" d="M1834.57 1280.52 Q1834.57 1285.22 1836.49 1287.9 Q1838.44 1290.56 1841.82 1290.56 Q1845.2 1290.56 1847.14 1287.9 Q1849.08 1285.22 1849.08 1280.52 Q1849.08 1275.82 1847.14 1273.16 Q1845.2 1270.47 1841.82 1270.47 Q1838.44 1270.47 1836.49 1273.16 Q1834.57 1275.82 1834.57 1280.52 M1849.08 1289.57 Q1847.74 1291.88 1845.68 1293.02 Q1843.65 1294.13 1840.77 1294.13 Q1836.08 1294.13 1833.11 1290.38 Q1830.17 1286.63 1830.17 1280.52 Q1830.17 1274.41 1833.11 1270.66 Q1836.08 1266.91 1840.77 1266.91 Q1843.65 1266.91 1845.68 1268.04 Q1847.74 1269.15 1849.08 1271.47 L1849.08 1267.53 L1853.34 1267.53 L1853.34 1303.32 L1849.08 1303.32 L1849.08 1289.57 Z" fill="#000000" fill-rule="nonzero" fill-opacity="1"></path><path clip-path="url(#clip060)" d="M1861.68 1283.22 L1861.68 1267.53 L1865.94 1267.53 L1865.94 1283.06 Q1865.94 1286.74 1867.37 1288.6 Q1868.81 1290.42 1871.68 1290.42 Q1875.13 1290.42 1877.12 1288.22 Q1879.13 1286.03 1879.13 1282.23 L1879.13 1267.53 L1883.39 1267.53 L1883.39 1293.46 L1879.13 1293.46 L1879.13 1289.47 Q1877.58 1291.84 1875.52 1292.99 Q1873.48 1294.13 1870.77 1294.13 Q1866.31 1294.13 1863.99 1291.35 Q1861.68 1288.57 1861.68 1283.22 M1872.39 1266.91 L1872.39 1266.91 Z" fill="#000000" fill-rule="nonzero" fill-opacity="1"></path><path clip-path="url(#clip060)" d="M1903.95 1280.42 Q1898.78 1280.42 1896.79 1281.6 Q1894.8 1282.79 1894.8 1285.63 Q1894.8 1287.9 1896.28 1289.24 Q1897.79 1290.56 1900.36 1290.56 Q1903.9 1290.56 1906.03 1288.06 Q1908.18 1285.54 1908.18 1281.37 L1908.18 1280.42 L1903.95 1280.42 M1912.44 1278.66 L1912.44 1293.46 L1908.18 1293.46 L1908.18 1289.52 Q1906.72 1291.88 1904.55 1293.02 Q1902.37 1294.13 1899.22 1294.13 Q1895.24 1294.13 1892.88 1291.91 Q1890.54 1289.66 1890.54 1285.91 Q1890.54 1281.54 1893.46 1279.31 Q1896.4 1277.09 1902.21 1277.09 L1908.18 1277.09 L1908.18 1276.67 Q1908.18 1273.73 1906.24 1272.14 Q1904.32 1270.52 1900.82 1270.52 Q1898.6 1270.52 1896.49 1271.05 Q1894.39 1271.58 1892.44 1272.65 L1892.44 1268.71 Q1894.78 1267.81 1896.98 1267.37 Q1899.18 1266.91 1901.26 1266.91 Q1906.89 1266.91 1909.66 1269.82 Q1912.44 1272.74 1912.44 1278.66 Z" fill="#000000" fill-rule="nonzero" fill-opacity="1"></path><path clip-path="url(#clip060)" d="M1936.24 1271.51 Q1935.52 1271.1 1934.66 1270.91 Q1933.83 1270.7 1932.81 1270.7 Q1929.2 1270.7 1927.26 1273.06 Q1925.33 1275.4 1925.33 1279.8 L1925.33 1293.46 L1921.05 1293.46 L1921.05 1267.53 L1925.33 1267.53 L1925.33 1271.56 Q1926.68 1269.2 1928.83 1268.06 Q1930.98 1266.91 1934.06 1266.91 Q1934.5 1266.91 1935.03 1266.97 Q1935.57 1267.02 1936.21 1267.14 L1936.24 1271.51 Z" fill="#000000" fill-rule="nonzero" fill-opacity="1"></path><path clip-path="url(#clip060)" d="M1961.84 1279.43 L1961.84 1281.51 L1942.26 1281.51 Q1942.53 1285.91 1944.89 1288.22 Q1947.28 1290.52 1951.51 1290.52 Q1953.97 1290.52 1956.26 1289.91 Q1958.58 1289.31 1960.84 1288.11 L1960.84 1292.14 Q1958.55 1293.11 1956.14 1293.62 Q1953.74 1294.13 1951.26 1294.13 Q1945.06 1294.13 1941.42 1290.52 Q1937.81 1286.91 1937.81 1280.75 Q1937.81 1274.38 1941.24 1270.66 Q1944.69 1266.91 1950.52 1266.91 Q1955.75 1266.91 1958.78 1270.29 Q1961.84 1273.64 1961.84 1279.43 M1957.58 1278.18 Q1957.53 1274.68 1955.61 1272.6 Q1953.71 1270.52 1950.57 1270.52 Q1947 1270.52 1944.85 1272.53 Q1942.72 1274.54 1942.39 1278.2 L1957.58 1278.18 Z" fill="#000000" fill-rule="nonzero" fill-opacity="1"></path><path clip-path="url(#clip060)" d="M1985.36 1268.29 L1985.36 1272.32 Q1983.55 1271.4 1981.61 1270.93 Q1979.66 1270.47 1977.58 1270.47 Q1974.41 1270.47 1972.81 1271.44 Q1971.24 1272.41 1971.24 1274.36 Q1971.24 1275.84 1972.37 1276.7 Q1973.51 1277.53 1976.93 1278.29 L1978.39 1278.62 Q1982.93 1279.59 1984.82 1281.37 Q1986.75 1283.13 1986.75 1286.3 Q1986.75 1289.91 1983.88 1292.02 Q1981.03 1294.13 1976.03 1294.13 Q1973.95 1294.13 1971.68 1293.71 Q1969.43 1293.32 1966.93 1292.51 L1966.93 1288.11 Q1969.29 1289.34 1971.58 1289.96 Q1973.88 1290.56 1976.12 1290.56 Q1979.13 1290.56 1980.75 1289.54 Q1982.37 1288.5 1982.37 1286.63 Q1982.37 1284.89 1981.19 1283.97 Q1980.03 1283.04 1976.07 1282.18 L1974.59 1281.84 Q1970.64 1281 1968.88 1279.29 Q1967.12 1277.55 1967.12 1274.54 Q1967.12 1270.89 1969.71 1268.9 Q1972.3 1266.91 1977.07 1266.91 Q1979.43 1266.91 1981.51 1267.25 Q1983.6 1267.6 1985.36 1268.29 Z" fill="#000000" fill-rule="nonzero" fill-opacity="1"></path><path clip-path="url(#clip060)" d="M1994.62 1287.58 L1999.5 1287.58 L1999.5 1291.56 L1995.7 1298.97 L1992.72 1298.97 L1994.62 1291.56 L1994.62 1287.58 Z" fill="#000000" fill-rule="nonzero" fill-opacity="1"></path><path clip-path="url(#clip060)" d="M2025.13 1268.29 L2025.13 1272.32 Q2023.32 1271.4 2021.38 1270.93 Q2019.43 1270.47 2017.35 1270.47 Q2014.18 1270.47 2012.58 1271.44 Q2011.01 1272.41 2011.01 1274.36 Q2011.01 1275.84 2012.14 1276.7 Q2013.27 1277.53 2016.7 1278.29 L2018.16 1278.62 Q2022.7 1279.59 2024.59 1281.37 Q2026.51 1283.13 2026.51 1286.3 Q2026.51 1289.91 2023.64 1292.02 Q2020.8 1294.13 2015.8 1294.13 Q2013.71 1294.13 2011.45 1293.71 Q2009.2 1293.32 2006.7 1292.51 L2006.7 1288.11 Q2009.06 1289.34 2011.35 1289.96 Q2013.64 1290.56 2015.89 1290.56 Q2018.9 1290.56 2020.52 1289.54 Q2022.14 1288.5 2022.14 1286.63 Q2022.14 1284.89 2020.96 1283.97 Q2019.8 1283.04 2015.84 1282.18 L2014.36 1281.84 Q2010.4 1281 2008.64 1279.29 Q2006.88 1277.55 2006.88 1274.54 Q2006.88 1270.89 2009.48 1268.9 Q2012.07 1266.91 2016.84 1266.91 Q2019.2 1266.91 2021.28 1267.25 Q2023.37 1267.6 2025.13 1268.29 Z" fill="#000000" fill-rule="nonzero" fill-opacity="1"></path><path clip-path="url(#clip060)" d="M2033.3 1267.53 L2037.56 1267.53 L2037.56 1293.46 L2033.3 1293.46 L2033.3 1267.53 M2033.3 1257.44 L2037.56 1257.44 L2037.56 1262.83 L2033.3 1262.83 L2033.3 1257.44 Z" fill="#000000" fill-rule="nonzero" fill-opacity="1"></path><path clip-path="url(#clip060)" d="M2050.68 1260.17 L2050.68 1267.53 L2059.45 1267.53 L2059.45 1270.84 L2050.68 1270.84 L2050.68 1284.91 Q2050.68 1288.09 2051.54 1288.99 Q2052.42 1289.89 2055.08 1289.89 L2059.45 1289.89 L2059.45 1293.46 L2055.08 1293.46 Q2050.15 1293.46 2048.27 1291.63 Q2046.4 1289.78 2046.4 1284.91 L2046.4 1270.84 L2043.27 1270.84 L2043.27 1267.53 L2046.4 1267.53 L2046.4 1260.17 L2050.68 1260.17 Z" fill="#000000" fill-rule="nonzero" fill-opacity="1"></path><path clip-path="url(#clip060)" d="M2087.23 1279.43 L2087.23 1281.51 L2067.65 1281.51 Q2067.93 1285.91 2070.29 1288.22 Q2072.67 1290.52 2076.91 1290.52 Q2079.36 1290.52 2081.65 1289.91 Q2083.97 1289.31 2086.24 1288.11 L2086.24 1292.14 Q2083.94 1293.11 2081.54 1293.62 Q2079.13 1294.13 2076.65 1294.13 Q2070.45 1294.13 2066.82 1290.52 Q2063.2 1286.91 2063.2 1280.75 Q2063.2 1274.38 2066.63 1270.66 Q2070.08 1266.91 2075.91 1266.91 Q2081.14 1266.91 2084.18 1270.29 Q2087.23 1273.64 2087.23 1279.43 M2082.97 1278.18 Q2082.93 1274.68 2081 1272.6 Q2079.11 1270.52 2075.96 1270.52 Q2072.39 1270.52 2070.24 1272.53 Q2068.11 1274.54 2067.79 1278.2 L2082.97 1278.18 Z" fill="#000000" fill-rule="nonzero" fill-opacity="1"></path><path clip-path="url(#clip060)" d="M2110.75 1268.29 L2110.75 1272.32 Q2108.94 1271.4 2107 1270.93 Q2105.06 1270.47 2102.97 1270.47 Q2099.8 1270.47 2098.2 1271.44 Q2096.63 1272.41 2096.63 1274.36 Q2096.63 1275.84 2097.76 1276.7 Q2098.9 1277.53 2102.32 1278.29 L2103.78 1278.62 Q2108.32 1279.59 2110.22 1281.37 Q2112.14 1283.13 2112.14 1286.3 Q2112.14 1289.91 2109.27 1292.02 Q2106.42 1294.13 2101.42 1294.13 Q2099.34 1294.13 2097.07 1293.71 Q2094.82 1293.32 2092.32 1292.51 L2092.32 1288.11 Q2094.69 1289.34 2096.98 1289.96 Q2099.27 1290.56 2101.51 1290.56 Q2104.52 1290.56 2106.14 1289.54 Q2107.76 1288.5 2107.76 1286.63 Q2107.76 1284.89 2106.58 1283.97 Q2105.43 1283.04 2101.47 1282.18 L2099.99 1281.84 Q2096.03 1281 2094.27 1279.29 Q2092.51 1277.55 2092.51 1274.54 Q2092.51 1270.89 2095.1 1268.9 Q2097.69 1266.91 2102.46 1266.91 Q2104.82 1266.91 2106.91 1267.25 Q2108.99 1267.6 2110.75 1268.29 Z" fill="#000000" fill-rule="nonzero" fill-opacity="1"></path><path clip-path="url(#clip060)" d="M2119.48 1271.93 L2149.15 1271.93 L2149.15 1275.82 L2119.48 1275.82 L2119.48 1271.93 M2119.48 1281.37 L2149.15 1281.37 L2149.15 1285.31 L2119.48 1285.31 L2119.48 1281.37 Z" fill="#000000" fill-rule="nonzero" fill-opacity="1"></path><path clip-path="url(#clip060)" d="M2160.06 1289.52 L2167.69 1289.52 L2167.69 1263.16 L2159.38 1264.82 L2159.38 1260.56 L2167.65 1258.9 L2172.32 1258.9 L2172.32 1289.52 L2179.96 1289.52 L2179.96 1293.46 L2160.06 1293.46 L2160.06 1289.52 Z" fill="#000000" fill-rule="nonzero" fill-opacity="1"></path><path clip-path="url(#clip060)" d="M2199.41 1277.04 Q2196.07 1277.04 2194.15 1278.83 Q2192.25 1280.61 2192.25 1283.73 Q2192.25 1286.86 2194.15 1288.64 Q2196.07 1290.42 2199.41 1290.42 Q2202.74 1290.42 2204.66 1288.64 Q2206.58 1286.84 2206.58 1283.73 Q2206.58 1280.61 2204.66 1278.83 Q2202.76 1277.04 2199.41 1277.04 M2194.73 1275.05 Q2191.72 1274.31 2190.03 1272.25 Q2188.37 1270.19 2188.37 1267.23 Q2188.37 1263.09 2191.31 1260.68 Q2194.27 1258.27 2199.41 1258.27 Q2204.57 1258.27 2207.51 1260.68 Q2210.45 1263.09 2210.45 1267.23 Q2210.45 1270.19 2208.76 1272.25 Q2207.09 1274.31 2204.11 1275.05 Q2207.49 1275.84 2209.36 1278.13 Q2211.26 1280.42 2211.26 1283.73 Q2211.26 1288.76 2208.18 1291.44 Q2205.12 1294.13 2199.41 1294.13 Q2193.69 1294.13 2190.61 1291.44 Q2187.56 1288.76 2187.56 1283.73 Q2187.56 1280.42 2189.45 1278.13 Q2191.35 1275.84 2194.73 1275.05 M2193.02 1267.67 Q2193.02 1270.35 2194.68 1271.86 Q2196.37 1273.36 2199.41 1273.36 Q2202.42 1273.36 2204.11 1271.86 Q2205.82 1270.35 2205.82 1267.67 Q2205.82 1264.98 2204.11 1263.48 Q2202.42 1261.97 2199.41 1261.97 Q2196.37 1261.97 2194.68 1263.48 Q2193.02 1264.98 2193.02 1267.67 Z" fill="#000000" fill-rule="nonzero" fill-opacity="1"></path><polyline clip-path="url(#clip060)" style="stroke:#3da44d; stroke-linecap:round; stroke-linejoin:round; stroke-width:4; stroke-opacity:1; fill:none" points="1638.3,1328.02 1781.55,1328.02 "></polyline>
<path clip-path="url(#clip060)" d="M1824.34 1323.31 L1824.34 1309.28 L1828.6 1309.28 L1828.6 1345.3 L1824.34 1345.3 L1824.34 1341.41 Q1823 1343.72 1820.94 1344.86 Q1818.9 1345.97 1816.03 1345.97 Q1811.33 1345.97 1808.37 1342.22 Q1805.43 1338.47 1805.43 1332.36 Q1805.43 1326.25 1808.37 1322.5 Q1811.33 1318.75 1816.03 1318.75 Q1818.9 1318.75 1820.94 1319.88 Q1823 1320.99 1824.34 1323.31 M1809.83 1332.36 Q1809.83 1337.06 1811.75 1339.74 Q1813.69 1342.4 1817.07 1342.4 Q1820.45 1342.4 1822.4 1339.74 Q1824.34 1337.06 1824.34 1332.36 Q1824.34 1327.66 1822.4 1325 Q1820.45 1322.31 1817.07 1322.31 Q1813.69 1322.31 1811.75 1325 Q1809.83 1327.66 1809.83 1332.36 Z" fill="#000000" fill-rule="nonzero" fill-opacity="1"></path><path clip-path="url(#clip060)" d="M1837.37 1319.37 L1841.63 1319.37 L1841.63 1345.3 L1837.37 1345.3 L1837.37 1319.37 M1837.37 1309.28 L1841.63 1309.28 L1841.63 1314.67 L1837.37 1314.67 L1837.37 1309.28 Z" fill="#000000" fill-rule="nonzero" fill-opacity="1"></path><path clip-path="url(#clip060)" d="M1862.33 1332.26 Q1857.16 1332.26 1855.17 1333.44 Q1853.18 1334.63 1853.18 1337.47 Q1853.18 1339.74 1854.66 1341.08 Q1856.17 1342.4 1858.74 1342.4 Q1862.28 1342.4 1864.41 1339.9 Q1866.56 1337.38 1866.56 1333.21 L1866.56 1332.26 L1862.33 1332.26 M1870.82 1330.5 L1870.82 1345.3 L1866.56 1345.3 L1866.56 1341.36 Q1865.1 1343.72 1862.93 1344.86 Q1860.75 1345.97 1857.6 1345.97 Q1853.62 1345.97 1851.26 1343.75 Q1848.92 1341.5 1848.92 1337.75 Q1848.92 1333.38 1851.84 1331.15 Q1854.78 1328.93 1860.59 1328.93 L1866.56 1328.93 L1866.56 1328.51 Q1866.56 1325.57 1864.62 1323.98 Q1862.7 1322.36 1859.2 1322.36 Q1856.98 1322.36 1854.87 1322.89 Q1852.77 1323.42 1850.82 1324.49 L1850.82 1320.55 Q1853.16 1319.65 1855.36 1319.21 Q1857.56 1318.75 1859.64 1318.75 Q1865.27 1318.75 1868.04 1321.66 Q1870.82 1324.58 1870.82 1330.5 Z" fill="#000000" fill-rule="nonzero" fill-opacity="1"></path><path clip-path="url(#clip060)" d="M1899.78 1324.35 Q1901.38 1321.48 1903.6 1320.11 Q1905.82 1318.75 1908.83 1318.75 Q1912.88 1318.75 1915.08 1321.59 Q1917.28 1324.42 1917.28 1329.65 L1917.28 1345.3 L1913 1345.3 L1913 1329.79 Q1913 1326.06 1911.68 1324.25 Q1910.36 1322.45 1907.65 1322.45 Q1904.34 1322.45 1902.42 1324.65 Q1900.5 1326.85 1900.5 1330.64 L1900.5 1345.3 L1896.21 1345.3 L1896.21 1329.79 Q1896.21 1326.04 1894.89 1324.25 Q1893.58 1322.45 1890.82 1322.45 Q1887.56 1322.45 1885.64 1324.67 Q1883.71 1326.87 1883.71 1330.64 L1883.71 1345.3 L1879.43 1345.3 L1879.43 1319.37 L1883.71 1319.37 L1883.71 1323.4 Q1885.17 1321.01 1887.21 1319.88 Q1889.25 1318.75 1892.05 1318.75 Q1894.87 1318.75 1896.84 1320.18 Q1898.83 1321.62 1899.78 1324.35 Z" fill="#000000" fill-rule="nonzero" fill-opacity="1"></path><path clip-path="url(#clip060)" d="M1935.82 1322.36 Q1932.39 1322.36 1930.4 1325.04 Q1928.41 1327.7 1928.41 1332.36 Q1928.41 1337.01 1930.38 1339.69 Q1932.37 1342.36 1935.82 1342.36 Q1939.22 1342.36 1941.21 1339.67 Q1943.2 1336.99 1943.2 1332.36 Q1943.2 1327.75 1941.21 1325.06 Q1939.22 1322.36 1935.82 1322.36 M1935.82 1318.75 Q1941.38 1318.75 1944.55 1322.36 Q1947.72 1325.97 1947.72 1332.36 Q1947.72 1338.72 1944.55 1342.36 Q1941.38 1345.97 1935.82 1345.97 Q1930.24 1345.97 1927.07 1342.36 Q1923.92 1338.72 1923.92 1332.36 Q1923.92 1325.97 1927.07 1322.36 Q1930.24 1318.75 1935.82 1318.75 Z" fill="#000000" fill-rule="nonzero" fill-opacity="1"></path><path clip-path="url(#clip060)" d="M1976.33 1329.65 L1976.33 1345.3 L1972.07 1345.3 L1972.07 1329.79 Q1972.07 1326.11 1970.64 1324.28 Q1969.2 1322.45 1966.33 1322.45 Q1962.88 1322.45 1960.89 1324.65 Q1958.9 1326.85 1958.9 1330.64 L1958.9 1345.3 L1954.62 1345.3 L1954.62 1319.37 L1958.9 1319.37 L1958.9 1323.4 Q1960.43 1321.06 1962.49 1319.9 Q1964.57 1318.75 1967.28 1318.75 Q1971.75 1318.75 1974.04 1321.52 Q1976.33 1324.28 1976.33 1329.65 Z" fill="#000000" fill-rule="nonzero" fill-opacity="1"></path><path clip-path="url(#clip060)" d="M2001.89 1323.31 L2001.89 1309.28 L2006.14 1309.28 L2006.14 1345.3 L2001.89 1345.3 L2001.89 1341.41 Q2000.54 1343.72 1998.48 1344.86 Q1996.45 1345.97 1993.57 1345.97 Q1988.88 1345.97 1985.91 1342.22 Q1982.97 1338.47 1982.97 1332.36 Q1982.97 1326.25 1985.91 1322.5 Q1988.88 1318.75 1993.57 1318.75 Q1996.45 1318.75 1998.48 1319.88 Q2000.54 1320.99 2001.89 1323.31 M1987.37 1332.36 Q1987.37 1337.06 1989.29 1339.74 Q1991.24 1342.4 1994.62 1342.4 Q1998 1342.4 1999.94 1339.74 Q2001.89 1337.06 2001.89 1332.36 Q2001.89 1327.66 1999.94 1325 Q1998 1322.31 1994.62 1322.31 Q1991.24 1322.31 1989.29 1325 Q1987.37 1327.66 1987.37 1332.36 Z" fill="#000000" fill-rule="nonzero" fill-opacity="1"></path><path clip-path="url(#clip060)" d="M2031.45 1320.13 L2031.45 1324.16 Q2029.64 1323.24 2027.7 1322.77 Q2025.75 1322.31 2023.67 1322.31 Q2020.5 1322.31 2018.9 1323.28 Q2017.32 1324.25 2017.32 1326.2 Q2017.32 1327.68 2018.46 1328.54 Q2019.59 1329.37 2023.02 1330.13 L2024.48 1330.46 Q2029.01 1331.43 2030.91 1333.21 Q2032.83 1334.97 2032.83 1338.14 Q2032.83 1341.75 2029.96 1343.86 Q2027.12 1345.97 2022.12 1345.97 Q2020.03 1345.97 2017.76 1345.55 Q2015.52 1345.16 2013.02 1344.35 L2013.02 1339.95 Q2015.38 1341.18 2017.67 1341.8 Q2019.96 1342.4 2022.21 1342.4 Q2025.22 1342.4 2026.84 1341.38 Q2028.46 1340.34 2028.46 1338.47 Q2028.46 1336.73 2027.28 1335.81 Q2026.12 1334.88 2022.16 1334.02 L2020.68 1333.68 Q2016.72 1332.84 2014.96 1331.13 Q2013.2 1329.39 2013.2 1326.38 Q2013.2 1322.73 2015.8 1320.74 Q2018.39 1318.75 2023.16 1318.75 Q2025.52 1318.75 2027.6 1319.09 Q2029.69 1319.44 2031.45 1320.13 Z" fill="#000000" fill-rule="nonzero" fill-opacity="1"></path><path clip-path="url(#clip060)" d="M2040.7 1339.42 L2045.59 1339.42 L2045.59 1343.4 L2041.79 1350.81 L2038.81 1350.81 L2040.7 1343.4 L2040.7 1339.42 Z" fill="#000000" fill-rule="nonzero" fill-opacity="1"></path><path clip-path="url(#clip060)" d="M2071.21 1320.13 L2071.21 1324.16 Q2069.41 1323.24 2067.46 1322.77 Q2065.52 1322.31 2063.44 1322.31 Q2060.26 1322.31 2058.67 1323.28 Q2057.09 1324.25 2057.09 1326.2 Q2057.09 1327.68 2058.23 1328.54 Q2059.36 1329.37 2062.79 1330.13 L2064.25 1330.46 Q2068.78 1331.43 2070.68 1333.21 Q2072.6 1334.97 2072.6 1338.14 Q2072.6 1341.75 2069.73 1343.86 Q2066.88 1345.97 2061.88 1345.97 Q2059.8 1345.97 2057.53 1345.55 Q2055.29 1345.16 2052.79 1344.35 L2052.79 1339.95 Q2055.15 1341.18 2057.44 1341.8 Q2059.73 1342.4 2061.98 1342.4 Q2064.99 1342.4 2066.61 1341.38 Q2068.23 1340.34 2068.23 1338.47 Q2068.23 1336.73 2067.05 1335.81 Q2065.89 1334.88 2061.93 1334.02 L2060.45 1333.68 Q2056.49 1332.84 2054.73 1331.13 Q2052.97 1329.39 2052.97 1326.38 Q2052.97 1322.73 2055.57 1320.74 Q2058.16 1318.75 2062.93 1318.75 Q2065.29 1318.75 2067.37 1319.09 Q2069.45 1319.44 2071.21 1320.13 Z" fill="#000000" fill-rule="nonzero" fill-opacity="1"></path><path clip-path="url(#clip060)" d="M2079.38 1319.37 L2083.64 1319.37 L2083.64 1345.3 L2079.38 1345.3 L2079.38 1319.37 M2079.38 1309.28 L2083.64 1309.28 L2083.64 1314.67 L2079.38 1314.67 L2079.38 1309.28 Z" fill="#000000" fill-rule="nonzero" fill-opacity="1"></path><path clip-path="url(#clip060)" d="M2096.77 1312.01 L2096.77 1319.37 L2105.54 1319.37 L2105.54 1322.68 L2096.77 1322.68 L2096.77 1336.75 Q2096.77 1339.93 2097.63 1340.83 Q2098.5 1341.73 2101.17 1341.73 L2105.54 1341.73 L2105.54 1345.3 L2101.17 1345.3 Q2096.24 1345.3 2094.36 1343.47 Q2092.49 1341.62 2092.49 1336.75 L2092.49 1322.68 L2089.36 1322.68 L2089.36 1319.37 L2092.49 1319.37 L2092.49 1312.01 L2096.77 1312.01 Z" fill="#000000" fill-rule="nonzero" fill-opacity="1"></path><path clip-path="url(#clip060)" d="M2133.32 1331.27 L2133.32 1333.35 L2113.74 1333.35 Q2114.01 1337.75 2116.38 1340.06 Q2118.76 1342.36 2123 1342.36 Q2125.45 1342.36 2127.74 1341.75 Q2130.06 1341.15 2132.32 1339.95 L2132.32 1343.98 Q2130.03 1344.95 2127.63 1345.46 Q2125.22 1345.97 2122.74 1345.97 Q2116.54 1345.97 2112.9 1342.36 Q2109.29 1338.75 2109.29 1332.59 Q2109.29 1326.22 2112.72 1322.5 Q2116.17 1318.75 2122 1318.75 Q2127.23 1318.75 2130.26 1322.13 Q2133.32 1325.48 2133.32 1331.27 M2129.06 1330.02 Q2129.01 1326.52 2127.09 1324.44 Q2125.19 1322.36 2122.05 1322.36 Q2118.48 1322.36 2116.33 1324.37 Q2114.2 1326.38 2113.88 1330.04 L2129.06 1330.02 Z" fill="#000000" fill-rule="nonzero" fill-opacity="1"></path><path clip-path="url(#clip060)" d="M2156.84 1320.13 L2156.84 1324.16 Q2155.03 1323.24 2153.09 1322.77 Q2151.14 1322.31 2149.06 1322.31 Q2145.89 1322.31 2144.29 1323.28 Q2142.72 1324.25 2142.72 1326.2 Q2142.72 1327.68 2143.85 1328.54 Q2144.99 1329.37 2148.41 1330.13 L2149.87 1330.46 Q2154.41 1331.43 2156.31 1333.21 Q2158.23 1334.97 2158.23 1338.14 Q2158.23 1341.75 2155.36 1343.86 Q2152.51 1345.97 2147.51 1345.97 Q2145.43 1345.97 2143.16 1345.55 Q2140.91 1345.16 2138.41 1344.35 L2138.41 1339.95 Q2140.77 1341.18 2143.06 1341.8 Q2145.36 1342.4 2147.6 1342.4 Q2150.61 1342.4 2152.23 1341.38 Q2153.85 1340.34 2153.85 1338.47 Q2153.85 1336.73 2152.67 1335.81 Q2151.51 1334.88 2147.56 1334.02 L2146.07 1333.68 Q2142.12 1332.84 2140.36 1331.13 Q2138.6 1329.39 2138.6 1326.38 Q2138.6 1322.73 2141.19 1320.74 Q2143.78 1318.75 2148.55 1318.75 Q2150.91 1318.75 2153 1319.09 Q2155.08 1319.44 2156.84 1320.13 Z" fill="#000000" fill-rule="nonzero" fill-opacity="1"></path><path clip-path="url(#clip060)" d="M2165.56 1323.77 L2195.24 1323.77 L2195.24 1327.66 L2165.56 1327.66 L2165.56 1323.77 M2165.56 1333.21 L2195.24 1333.21 L2195.24 1337.15 L2165.56 1337.15 L2165.56 1333.21 Z" fill="#000000" fill-rule="nonzero" fill-opacity="1"></path><path clip-path="url(#clip060)" d="M2206.14 1341.36 L2213.78 1341.36 L2213.78 1315 L2205.47 1316.66 L2205.47 1312.4 L2213.74 1310.74 L2218.41 1310.74 L2218.41 1341.36 L2226.05 1341.36 L2226.05 1345.3 L2206.14 1345.3 L2206.14 1341.36 Z" fill="#000000" fill-rule="nonzero" fill-opacity="1"></path><path clip-path="url(#clip060)" d="M2235.63 1344.58 L2235.63 1340.32 Q2237.39 1341.15 2239.2 1341.59 Q2241 1342.03 2242.74 1342.03 Q2247.37 1342.03 2249.8 1338.93 Q2252.25 1335.81 2252.6 1329.46 Q2251.26 1331.45 2249.2 1332.52 Q2247.14 1333.58 2244.64 1333.58 Q2239.45 1333.58 2236.42 1330.46 Q2233.41 1327.31 2233.41 1321.87 Q2233.41 1316.55 2236.56 1313.33 Q2239.71 1310.11 2244.94 1310.11 Q2250.93 1310.11 2254.08 1314.72 Q2257.25 1319.3 2257.25 1328.05 Q2257.25 1336.22 2253.37 1341.11 Q2249.5 1345.97 2242.95 1345.97 Q2241.19 1345.97 2239.38 1345.62 Q2237.58 1345.27 2235.63 1344.58 M2244.94 1329.93 Q2248.09 1329.93 2249.92 1327.77 Q2251.77 1325.62 2251.77 1321.87 Q2251.77 1318.14 2249.92 1315.99 Q2248.09 1313.81 2244.94 1313.81 Q2241.79 1313.81 2239.94 1315.99 Q2238.11 1318.14 2238.11 1321.87 Q2238.11 1325.62 2239.94 1327.77 Q2241.79 1329.93 2244.94 1329.93 Z" fill="#000000" fill-rule="nonzero" fill-opacity="1"></path></svg>