<svg xmlns="http://www.w3.org/2000/svg" xmlns:xlink="http://www.w3.org/1999/xlink" width="600" height="400" viewBox="0 0 2400 1600">
<defs>
  <clipPath id="clip020">
    <rect x="0" y="0" width="2400" height="1600"></rect>
  </clipPath>
</defs>
<path clip-path="url(#clip020)" d="M0 1600 L2400 1600 L2400 8.88178e-14 L0 8.88178e-14  Z" fill="#ffffff" fill-rule="evenodd" fill-opacity="1"></path>
<defs>
  <clipPath id="clip021">
    <rect x="480" y="0" width="1681" height="1600"></rect>
  </clipPath>
</defs>
<path clip-path="url(#clip020)" d="M203.964 1423.18 L2352.76 1423.18 L2352.76 123.472 L203.964 123.472  Z" fill="#ffffff" fill-rule="evenodd" fill-opacity="1"></path>
<defs>
  <clipPath id="clip022">
    <rect x="203" y="123" width="2150" height="1301"></rect>
  </clipPath>
</defs>
<polyline clip-path="url(#clip022)" style="stroke:#000000; stroke-linecap:round; stroke-linejoin:round; stroke-width:2; stroke-opacity:0.1; fill:none" points="498.682,1423.18 498.682,123.472 "></polyline>
<polyline clip-path="url(#clip022)" style="stroke:#000000; stroke-linecap:round; stroke-linejoin:round; stroke-width:2; stroke-opacity:0.1; fill:none" points="888.521,1423.18 888.521,123.472 "></polyline>
<polyline clip-path="url(#clip022)" style="stroke:#000000; stroke-linecap:round; stroke-linejoin:round; stroke-width:2; stroke-opacity:0.1; fill:none" points="1278.36,1423.18 1278.36,123.472 "></polyline>
<polyline clip-path="url(#clip022)" style="stroke:#000000; stroke-linecap:round; stroke-linejoin:round; stroke-width:2; stroke-opacity:0.1; fill:none" points="1668.2,1423.18 1668.2,123.472 "></polyline>
<polyline clip-path="url(#clip022)" style="stroke:#000000; stroke-linecap:round; stroke-linejoin:round; stroke-width:2; stroke-opacity:0.1; fill:none" points="2058.04,1423.18 2058.04,123.472 "></polyline>
<polyline clip-path="url(#clip022)" style="stroke:#000000; stroke-linecap:round; stroke-linejoin:round; stroke-width:2; stroke-opacity:0.1; fill:none" points="203.964,1414 2352.76,1414 "></polyline>
<polyline clip-path="url(#clip022)" style="stroke:#000000; stroke-linecap:round; stroke-linejoin:round; stroke-width:2; stroke-opacity:0.1; fill:none" points="203.964,1116.63 2352.76,1116.63 "></polyline>
<polyline clip-path="url(#clip022)" style="stroke:#000000; stroke-linecap:round; stroke-linejoin:round; stroke-width:2; stroke-opacity:0.1; fill:none" points="203.964,819.268 2352.76,819.268 "></polyline>
<polyline clip-path="url(#clip022)" style="stroke:#000000; stroke-linecap:round; stroke-linejoin:round; stroke-width:2; stroke-opacity:0.1; fill:none" points="203.964,521.904 2352.76,521.904 "></polyline>
<polyline clip-path="url(#clip022)" style="stroke:#000000; stroke-linecap:round; stroke-linejoin:round; stroke-width:2; stroke-opacity:0.1; fill:none" points="203.964,224.539 2352.76,224.539 "></polyline>
<polyline clip-path="url(#clip020)" style="stroke:#000000; stroke-linecap:round; stroke-linejoin:round; stroke-width:4; stroke-opacity:1; fill:none" points="203.964,1423.18 2352.76,1423.18 "></polyline>
<polyline clip-path="url(#clip020)" style="stroke:#000000; stroke-linecap:round; stroke-linejoin:round; stroke-width:4; stroke-opacity:1; fill:none" points="498.682,1423.18 498.682,1404.28 "></polyline>
<polyline clip-path="url(#clip020)" style="stroke:#000000; stroke-linecap:round; stroke-linejoin:round; stroke-width:4; stroke-opacity:1; fill:none" points="888.521,1423.18 888.521,1404.28 "></polyline>
<polyline clip-path="url(#clip020)" style="stroke:#000000; stroke-linecap:round; stroke-linejoin:round; stroke-width:4; stroke-opacity:1; fill:none" points="1278.36,1423.18 1278.36,1404.28 "></polyline>
<polyline clip-path="url(#clip020)" style="stroke:#000000; stroke-linecap:round; stroke-linejoin:round; stroke-width:4; stroke-opacity:1; fill:none" points="1668.2,1423.18 1668.2,1404.28 "></polyline>
<polyline clip-path="url(#clip020)" style="stroke:#000000; stroke-linecap:round; stroke-linejoin:round; stroke-width:4; stroke-opacity:1; fill:none" points="2058.04,1423.18 2058.04,1404.28 "></polyline>
<path clip-path="url(#clip020)" d="M465.001 1451.02 L487.224 1451.02 L487.224 1453.01 L474.677 1485.58 L469.793 1485.58 L481.599 1454.96 L465.001 1454.96 L465.001 1451.02 Z" fill="#000000" fill-rule="nonzero" fill-opacity="1"></path><path clip-path="url(#clip020)" d="M496.344 1479.7 L501.228 1479.7 L501.228 1485.58 L496.344 1485.58 L496.344 1479.7 Z" fill="#000000" fill-rule="nonzero" fill-opacity="1"></path><path clip-path="url(#clip020)" d="M511.46 1451.02 L529.816 1451.02 L529.816 1454.96 L515.742 1454.96 L515.742 1463.43 Q516.76 1463.08 517.779 1462.92 Q518.797 1462.73 519.816 1462.73 Q525.603 1462.73 528.983 1465.9 Q532.362 1469.08 532.362 1474.49 Q532.362 1480.07 528.89 1483.17 Q525.418 1486.25 519.098 1486.25 Q516.922 1486.25 514.654 1485.88 Q512.409 1485.51 510.001 1484.77 L510.001 1480.07 Q512.085 1481.2 514.307 1481.76 Q516.529 1482.32 519.006 1482.32 Q523.01 1482.32 525.348 1480.21 Q527.686 1478.1 527.686 1474.49 Q527.686 1470.88 525.348 1468.77 Q523.01 1466.67 519.006 1466.67 Q517.131 1466.67 515.256 1467.08 Q513.404 1467.5 511.46 1468.38 L511.46 1451.02 Z" fill="#000000" fill-rule="nonzero" fill-opacity="1"></path><path clip-path="url(#clip020)" d="M840.593 1481.64 L848.232 1481.64 L848.232 1455.28 L839.922 1456.95 L839.922 1452.69 L848.185 1451.02 L852.861 1451.02 L852.861 1481.64 L860.5 1481.64 L860.5 1485.58 L840.593 1485.58 L840.593 1481.64 Z" fill="#000000" fill-rule="nonzero" fill-opacity="1"></path><path clip-path="url(#clip020)" d="M879.944 1454.1 Q876.333 1454.1 874.505 1457.66 Q872.699 1461.2 872.699 1468.33 Q872.699 1475.44 874.505 1479.01 Q876.333 1482.55 879.944 1482.55 Q883.579 1482.55 885.384 1479.01 Q887.213 1475.44 887.213 1468.33 Q887.213 1461.2 885.384 1457.66 Q883.579 1454.1 879.944 1454.1 M879.944 1450.39 Q885.755 1450.39 888.81 1455 Q891.889 1459.58 891.889 1468.33 Q891.889 1477.06 888.81 1481.67 Q885.755 1486.25 879.944 1486.25 Q874.134 1486.25 871.056 1481.67 Q868 1477.06 868 1468.33 Q868 1459.58 871.056 1455 Q874.134 1450.39 879.944 1450.39 Z" fill="#000000" fill-rule="nonzero" fill-opacity="1"></path><path clip-path="url(#clip020)" d="M900.106 1479.7 L904.991 1479.7 L904.991 1485.58 L900.106 1485.58 L900.106 1479.7 Z" fill="#000000" fill-rule="nonzero" fill-opacity="1"></path><path clip-path="url(#clip020)" d="M925.176 1454.1 Q921.565 1454.1 919.736 1457.66 Q917.93 1461.2 917.93 1468.33 Q917.93 1475.44 919.736 1479.01 Q921.565 1482.55 925.176 1482.55 Q928.81 1482.55 930.615 1479.01 Q932.444 1475.44 932.444 1468.33 Q932.444 1461.2 930.615 1457.66 Q928.81 1454.1 925.176 1454.1 M925.176 1450.39 Q930.986 1450.39 934.041 1455 Q937.12 1459.58 937.12 1468.33 Q937.12 1477.06 934.041 1481.67 Q930.986 1486.25 925.176 1486.25 Q919.366 1486.25 916.287 1481.67 Q913.231 1477.06 913.231 1468.33 Q913.231 1459.58 916.287 1455 Q919.366 1450.39 925.176 1450.39 Z" fill="#000000" fill-rule="nonzero" fill-opacity="1"></path><path clip-path="url(#clip020)" d="M1230.93 1481.64 L1238.57 1481.64 L1238.57 1455.28 L1230.26 1456.95 L1230.26 1452.69 L1238.52 1451.02 L1243.2 1451.02 L1243.2 1481.64 L1250.84 1481.64 L1250.84 1485.58 L1230.93 1485.58 L1230.93 1481.64 Z" fill="#000000" fill-rule="nonzero" fill-opacity="1"></path><path clip-path="url(#clip020)" d="M1264.31 1481.64 L1280.63 1481.64 L1280.63 1485.58 L1258.68 1485.58 L1258.68 1481.64 Q1261.35 1478.89 1265.93 1474.26 Q1270.54 1469.61 1271.72 1468.27 Q1273.96 1465.74 1274.84 1464.01 Q1275.74 1462.25 1275.74 1460.56 Q1275.74 1457.8 1273.8 1456.07 Q1271.88 1454.33 1268.78 1454.33 Q1266.58 1454.33 1264.12 1455.09 Q1261.69 1455.86 1258.92 1457.41 L1258.92 1452.69 Q1261.74 1451.55 1264.19 1450.97 Q1266.65 1450.39 1268.68 1450.39 Q1274.05 1450.39 1277.25 1453.08 Q1280.44 1455.77 1280.44 1460.26 Q1280.44 1462.39 1279.63 1464.31 Q1278.85 1466.2 1276.74 1468.8 Q1276.16 1469.47 1273.06 1472.69 Q1269.96 1475.88 1264.31 1481.64 Z" fill="#000000" fill-rule="nonzero" fill-opacity="1"></path><path clip-path="url(#clip020)" d="M1290.44 1479.7 L1295.33 1479.7 L1295.33 1485.58 L1290.44 1485.58 L1290.44 1479.7 Z" fill="#000000" fill-rule="nonzero" fill-opacity="1"></path><path clip-path="url(#clip020)" d="M1305.56 1451.02 L1323.92 1451.02 L1323.92 1454.96 L1309.84 1454.96 L1309.84 1463.43 Q1310.86 1463.08 1311.88 1462.92 Q1312.9 1462.73 1313.92 1462.73 Q1319.7 1462.73 1323.08 1465.9 Q1326.46 1469.08 1326.46 1474.49 Q1326.46 1480.07 1322.99 1483.17 Q1319.52 1486.25 1313.2 1486.25 Q1311.02 1486.25 1308.75 1485.88 Q1306.51 1485.51 1304.1 1484.77 L1304.1 1480.07 Q1306.18 1481.2 1308.41 1481.76 Q1310.63 1482.32 1313.1 1482.32 Q1317.11 1482.32 1319.45 1480.21 Q1321.79 1478.1 1321.79 1474.49 Q1321.79 1470.88 1319.45 1468.77 Q1317.11 1466.67 1313.1 1466.67 Q1311.23 1466.67 1309.35 1467.08 Q1307.5 1467.5 1305.56 1468.38 L1305.56 1451.02 Z" fill="#000000" fill-rule="nonzero" fill-opacity="1"></path><path clip-path="url(#clip020)" d="M1620.27 1481.64 L1627.91 1481.64 L1627.91 1455.28 L1619.6 1456.95 L1619.6 1452.69 L1627.86 1451.02 L1632.54 1451.02 L1632.54 1481.64 L1640.18 1481.64 L1640.18 1485.58 L1620.27 1485.58 L1620.27 1481.64 Z" fill="#000000" fill-rule="nonzero" fill-opacity="1"></path><path clip-path="url(#clip020)" d="M1649.67 1451.02 L1668.03 1451.02 L1668.03 1454.96 L1653.95 1454.96 L1653.95 1463.43 Q1654.97 1463.08 1655.99 1462.92 Q1657.01 1462.73 1658.03 1462.73 Q1663.81 1462.73 1667.19 1465.9 Q1670.57 1469.08 1670.57 1474.49 Q1670.57 1480.07 1667.1 1483.17 Q1663.63 1486.25 1657.31 1486.25 Q1655.13 1486.25 1652.86 1485.88 Q1650.62 1485.51 1648.21 1484.77 L1648.21 1480.07 Q1650.29 1481.2 1652.52 1481.76 Q1654.74 1482.32 1657.21 1482.32 Q1661.22 1482.32 1663.56 1480.21 Q1665.9 1478.1 1665.9 1474.49 Q1665.9 1470.88 1663.56 1468.77 Q1661.22 1466.67 1657.21 1466.67 Q1655.34 1466.67 1653.46 1467.08 Q1651.61 1467.5 1649.67 1468.38 L1649.67 1451.02 Z" fill="#000000" fill-rule="nonzero" fill-opacity="1"></path><path clip-path="url(#clip020)" d="M1679.78 1479.7 L1684.67 1479.7 L1684.67 1485.58 L1679.78 1485.58 L1679.78 1479.7 Z" fill="#000000" fill-rule="nonzero" fill-opacity="1"></path><path clip-path="url(#clip020)" d="M1704.85 1454.1 Q1701.24 1454.1 1699.41 1457.66 Q1697.61 1461.2 1697.61 1468.33 Q1697.61 1475.44 1699.41 1479.01 Q1701.24 1482.55 1704.85 1482.55 Q1708.49 1482.55 1710.29 1479.01 Q1712.12 1475.44 1712.12 1468.33 Q1712.12 1461.2 1710.29 1457.66 Q1708.49 1454.1 1704.85 1454.1 M1704.85 1450.39 Q1710.66 1450.39 1713.72 1455 Q1716.8 1459.58 1716.8 1468.33 Q1716.8 1477.06 1713.72 1481.67 Q1710.66 1486.25 1704.85 1486.25 Q1699.04 1486.25 1695.96 1481.67 Q1692.91 1477.06 1692.91 1468.33 Q1692.91 1459.58 1695.96 1455 Q1699.04 1450.39 1704.85 1450.39 Z" fill="#000000" fill-rule="nonzero" fill-opacity="1"></path><path clip-path="url(#clip020)" d="M2010.61 1481.64 L2018.25 1481.64 L2018.25 1455.28 L2009.94 1456.95 L2009.94 1452.69 L2018.2 1451.02 L2022.88 1451.02 L2022.88 1481.64 L2030.51 1481.64 L2030.51 1485.58 L2010.61 1485.58 L2010.61 1481.64 Z" fill="#000000" fill-rule="nonzero" fill-opacity="1"></path><path clip-path="url(#clip020)" d="M2038.78 1451.02 L2061 1451.02 L2061 1453.01 L2048.45 1485.58 L2043.57 1485.58 L2055.38 1454.96 L2038.78 1454.96 L2038.78 1451.02 Z" fill="#000000" fill-rule="nonzero" fill-opacity="1"></path><path clip-path="url(#clip020)" d="M2070.12 1479.7 L2075.01 1479.7 L2075.01 1485.58 L2070.12 1485.58 L2070.12 1479.7 Z" fill="#000000" fill-rule="nonzero" fill-opacity="1"></path><path clip-path="url(#clip020)" d="M2085.24 1451.02 L2103.59 1451.02 L2103.59 1454.96 L2089.52 1454.96 L2089.52 1463.43 Q2090.54 1463.08 2091.56 1462.92 Q2092.57 1462.73 2093.59 1462.73 Q2099.38 1462.73 2102.76 1465.9 Q2106.14 1469.08 2106.14 1474.49 Q2106.14 1480.07 2102.67 1483.17 Q2099.19 1486.25 2092.88 1486.25 Q2090.7 1486.25 2088.43 1485.88 Q2086.19 1485.51 2083.78 1484.77 L2083.78 1480.07 Q2085.86 1481.2 2088.08 1481.76 Q2090.31 1482.32 2092.78 1482.32 Q2096.79 1482.32 2099.13 1480.21 Q2101.46 1478.1 2101.46 1474.49 Q2101.46 1470.88 2099.13 1468.77 Q2096.79 1466.67 2092.78 1466.67 Q2090.91 1466.67 2089.03 1467.08 Q2087.18 1467.5 2085.24 1468.38 L2085.24 1451.02 Z" fill="#000000" fill-rule="nonzero" fill-opacity="1"></path><path clip-path="url(#clip020)" d="M1024.24 1520.52 L1032.9 1520.52 L1053.97 1560.28 L1053.97 1520.52 L1060.21 1520.52 L1060.21 1568.04 L1051.55 1568.04 L1030.48 1528.29 L1030.48 1568.04 L1024.24 1568.04 L1024.24 1520.52 Z" fill="#000000" fill-rule="nonzero" fill-opacity="1"></path><path clip-path="url(#clip020)" d="M1072.14 1553.98 L1072.14 1532.4 L1078 1532.4 L1078 1553.75 Q1078 1558.81 1079.97 1561.36 Q1081.95 1563.87 1085.89 1563.87 Q1090.64 1563.87 1093.37 1560.85 Q1096.14 1557.83 1096.14 1552.61 L1096.14 1532.4 L1102 1532.4 L1102 1568.04 L1096.14 1568.04 L1096.14 1562.57 Q1094.01 1565.82 1091.18 1567.41 Q1088.38 1568.97 1084.65 1568.97 Q1078.51 1568.97 1075.33 1565.15 Q1072.14 1561.33 1072.14 1553.98 M1086.88 1531.54 L1086.88 1531.54 Z" fill="#000000" fill-rule="nonzero" fill-opacity="1"></path><path clip-path="url(#clip020)" d="M1141.82 1539.24 Q1144.01 1535.29 1147.07 1533.41 Q1150.12 1531.54 1154.26 1531.54 Q1159.83 1531.54 1162.85 1535.45 Q1165.88 1539.33 1165.88 1546.53 L1165.88 1568.04 L1159.99 1568.04 L1159.99 1546.72 Q1159.99 1541.59 1158.18 1539.11 Q1156.36 1536.63 1152.64 1536.63 Q1148.09 1536.63 1145.44 1539.65 Q1142.8 1542.68 1142.8 1547.9 L1142.8 1568.04 L1136.91 1568.04 L1136.91 1546.72 Q1136.91 1541.56 1135.1 1539.11 Q1133.29 1536.63 1129.5 1536.63 Q1125.01 1536.63 1122.37 1539.68 Q1119.73 1542.71 1119.73 1547.9 L1119.73 1568.04 L1113.84 1568.04 L1113.84 1532.4 L1119.73 1532.4 L1119.73 1537.93 Q1121.73 1534.66 1124.53 1533.1 Q1127.33 1531.54 1131.18 1531.54 Q1135.07 1531.54 1137.77 1533.51 Q1140.51 1535.48 1141.82 1539.24 Z" fill="#000000" fill-rule="nonzero" fill-opacity="1"></path><path clip-path="url(#clip020)" d="M1203.15 1550.25 Q1203.15 1543.79 1200.48 1540.13 Q1197.83 1536.44 1193.19 1536.44 Q1188.54 1536.44 1185.87 1540.13 Q1183.22 1543.79 1183.22 1550.25 Q1183.22 1556.71 1185.87 1560.4 Q1188.54 1564.07 1193.19 1564.07 Q1197.83 1564.07 1200.48 1560.4 Q1203.15 1556.71 1203.15 1550.25 M1183.22 1537.81 Q1185.07 1534.62 1187.87 1533.1 Q1190.7 1531.54 1194.62 1531.54 Q1201.11 1531.54 1205.15 1536.69 Q1209.23 1541.85 1209.23 1550.25 Q1209.23 1558.65 1205.15 1563.81 Q1201.11 1568.97 1194.62 1568.97 Q1190.7 1568.97 1187.87 1567.44 Q1185.07 1565.88 1183.22 1562.7 L1183.22 1568.04 L1177.34 1568.04 L1177.34 1518.52 L1183.22 1518.52 L1183.22 1537.81 Z" fill="#000000" fill-rule="nonzero" fill-opacity="1"></path><path clip-path="url(#clip020)" d="M1249.43 1548.76 L1249.43 1551.62 L1222.5 1551.62 Q1222.88 1557.67 1226.13 1560.85 Q1229.41 1564 1235.23 1564 Q1238.61 1564 1241.76 1563.17 Q1244.94 1562.35 1248.06 1560.69 L1248.06 1566.23 Q1244.91 1567.57 1241.6 1568.27 Q1238.29 1568.97 1234.88 1568.97 Q1226.35 1568.97 1221.35 1564 Q1216.39 1559.04 1216.39 1550.57 Q1216.39 1541.82 1221.1 1536.69 Q1225.84 1531.54 1233.86 1531.54 Q1241.06 1531.54 1245.23 1536.18 Q1249.43 1540.8 1249.43 1548.76 M1243.57 1547.04 Q1243.51 1542.23 1240.87 1539.37 Q1238.26 1536.5 1233.93 1536.5 Q1229.03 1536.5 1226.07 1539.27 Q1223.14 1542.04 1222.69 1547.07 L1243.57 1547.04 Z" fill="#000000" fill-rule="nonzero" fill-opacity="1"></path><path clip-path="url(#clip020)" d="M1279.7 1537.87 Q1278.71 1537.3 1277.53 1537.04 Q1276.39 1536.76 1274.99 1536.76 Q1270.02 1536.76 1267.35 1540 Q1264.71 1543.22 1264.71 1549.27 L1264.71 1568.04 L1258.82 1568.04 L1258.82 1532.4 L1264.71 1532.4 L1264.71 1537.93 Q1266.55 1534.69 1269.51 1533.13 Q1272.47 1531.54 1276.7 1531.54 Q1277.31 1531.54 1278.04 1531.63 Q1278.77 1531.7 1279.66 1531.85 L1279.7 1537.87 Z" fill="#000000" fill-rule="nonzero" fill-opacity="1"></path><path clip-path="url(#clip020)" d="M1320.37 1536.5 Q1315.66 1536.5 1312.93 1540.19 Q1310.19 1543.85 1310.19 1550.25 Q1310.19 1556.65 1312.89 1560.34 Q1315.63 1564 1320.37 1564 Q1325.05 1564 1327.79 1560.31 Q1330.53 1556.62 1330.53 1550.25 Q1330.53 1543.92 1327.79 1540.23 Q1325.05 1536.5 1320.37 1536.5 M1320.37 1531.54 Q1328.01 1531.54 1332.37 1536.5 Q1336.73 1541.47 1336.73 1550.25 Q1336.73 1559 1332.37 1564 Q1328.01 1568.97 1320.37 1568.97 Q1312.7 1568.97 1308.34 1564 Q1304.01 1559 1304.01 1550.25 Q1304.01 1541.47 1308.34 1536.5 Q1312.7 1531.54 1320.37 1531.54 Z" fill="#000000" fill-rule="nonzero" fill-opacity="1"></path><path clip-path="url(#clip020)" d="M1364.49 1518.52 L1364.49 1523.39 L1358.89 1523.39 Q1355.73 1523.39 1354.49 1524.66 Q1353.28 1525.93 1353.28 1529.24 L1353.28 1532.4 L1362.93 1532.4 L1362.93 1536.95 L1353.28 1536.95 L1353.28 1568.04 L1347.4 1568.04 L1347.4 1536.95 L1341.79 1536.95 L1341.79 1532.4 L1347.4 1532.4 L1347.4 1529.91 Q1347.4 1523.96 1350.16 1521.26 Q1352.93 1518.52 1358.95 1518.52 L1364.49 1518.52 Z" fill="#000000" fill-rule="nonzero" fill-opacity="1"></path><path clip-path="url(#clip020)" d="M1412.84 1533.45 L1412.84 1538.98 Q1410.35 1537.71 1407.68 1537.07 Q1405.01 1536.44 1402.14 1536.44 Q1397.78 1536.44 1395.58 1537.77 Q1393.42 1539.11 1393.42 1541.79 Q1393.42 1543.82 1394.98 1545 Q1396.54 1546.15 1401.25 1547.2 L1403.25 1547.64 Q1409.49 1548.98 1412.1 1551.43 Q1414.75 1553.85 1414.75 1558.21 Q1414.75 1563.17 1410.8 1566.07 Q1406.88 1568.97 1400.01 1568.97 Q1397.14 1568.97 1394.02 1568.39 Q1390.94 1567.85 1387.5 1566.74 L1387.5 1560.69 Q1390.75 1562.38 1393.9 1563.24 Q1397.05 1564.07 1400.14 1564.07 Q1404.27 1564.07 1406.5 1562.66 Q1408.73 1561.23 1408.73 1558.65 Q1408.73 1556.27 1407.11 1554.99 Q1405.51 1553.72 1400.07 1552.54 L1398.04 1552.07 Q1392.59 1550.92 1390.17 1548.56 Q1387.75 1546.18 1387.75 1542.04 Q1387.75 1537.01 1391.32 1534.27 Q1394.88 1531.54 1401.44 1531.54 Q1404.69 1531.54 1407.55 1532.01 Q1410.42 1532.49 1412.84 1533.45 Z" fill="#000000" fill-rule="nonzero" fill-opacity="1"></path><path clip-path="url(#clip020)" d="M1424.07 1532.4 L1429.93 1532.4 L1429.93 1568.04 L1424.07 1568.04 L1424.07 1532.4 M1424.07 1518.52 L1429.93 1518.52 L1429.93 1525.93 L1424.07 1525.93 L1424.07 1518.52 Z" fill="#000000" fill-rule="nonzero" fill-opacity="1"></path><path clip-path="url(#clip020)" d="M1447.97 1522.27 L1447.97 1532.4 L1460.04 1532.4 L1460.04 1536.95 L1447.97 1536.95 L1447.97 1556.3 Q1447.97 1560.66 1449.15 1561.9 Q1450.36 1563.14 1454.02 1563.14 L1460.04 1563.14 L1460.04 1568.04 L1454.02 1568.04 Q1447.24 1568.04 1444.66 1565.53 Q1442.09 1562.98 1442.09 1556.3 L1442.09 1536.95 L1437.79 1536.95 L1437.79 1532.4 L1442.09 1532.4 L1442.09 1522.27 L1447.97 1522.27 Z" fill="#000000" fill-rule="nonzero" fill-opacity="1"></path><path clip-path="url(#clip020)" d="M1498.23 1548.76 L1498.23 1551.62 L1471.3 1551.62 Q1471.69 1557.67 1474.93 1560.85 Q1478.21 1564 1484.04 1564 Q1487.41 1564 1490.56 1563.17 Q1493.74 1562.35 1496.86 1560.69 L1496.86 1566.23 Q1493.71 1567.57 1490.4 1568.27 Q1487.09 1568.97 1483.69 1568.97 Q1475.16 1568.97 1470.16 1564 Q1465.19 1559.04 1465.19 1550.57 Q1465.19 1541.82 1469.9 1536.69 Q1474.65 1531.54 1482.67 1531.54 Q1489.86 1531.54 1494.03 1536.18 Q1498.23 1540.8 1498.23 1548.76 M1492.37 1547.04 Q1492.31 1542.23 1489.67 1539.37 Q1487.06 1536.5 1482.73 1536.5 Q1477.83 1536.5 1474.87 1539.27 Q1471.94 1542.04 1471.5 1547.07 L1492.37 1547.04 Z" fill="#000000" fill-rule="nonzero" fill-opacity="1"></path><path clip-path="url(#clip020)" d="M1530.57 1533.45 L1530.57 1538.98 Q1528.09 1537.71 1525.41 1537.07 Q1522.74 1536.44 1519.87 1536.44 Q1515.51 1536.44 1513.32 1537.77 Q1511.15 1539.11 1511.15 1541.79 Q1511.15 1543.82 1512.71 1545 Q1514.27 1546.15 1518.98 1547.2 L1520.99 1547.64 Q1527.23 1548.98 1529.84 1551.43 Q1532.48 1553.85 1532.48 1558.21 Q1532.48 1563.17 1528.53 1566.07 Q1524.62 1568.97 1517.74 1568.97 Q1514.88 1568.97 1511.76 1568.39 Q1508.67 1567.85 1505.23 1566.74 L1505.23 1560.69 Q1508.48 1562.38 1511.63 1563.24 Q1514.78 1564.07 1517.87 1564.07 Q1522.01 1564.07 1524.24 1562.66 Q1526.46 1561.23 1526.46 1558.65 Q1526.46 1556.27 1524.84 1554.99 Q1523.25 1553.72 1517.81 1552.54 L1515.77 1552.07 Q1510.33 1550.92 1507.91 1548.56 Q1505.49 1546.18 1505.49 1542.04 Q1505.49 1537.01 1509.05 1534.27 Q1512.62 1531.54 1519.17 1531.54 Q1522.42 1531.54 1525.29 1532.01 Q1528.15 1532.49 1530.57 1533.45 Z" fill="#000000" fill-rule="nonzero" fill-opacity="1"></path><polyline clip-path="url(#clip020)" style="stroke:#000000; stroke-linecap:round; stroke-linejoin:round; stroke-width:4; stroke-opacity:1; fill:none" points="203.964,1423.18 203.964,123.472 "></polyline>
<polyline clip-path="url(#clip020)" style="stroke:#000000; stroke-linecap:round; stroke-linejoin:round; stroke-width:4; stroke-opacity:1; fill:none" points="203.964,1414 222.861,1414 "></polyline>
<polyline clip-path="url(#clip020)" style="stroke:#000000; stroke-linecap:round; stroke-linejoin:round; stroke-width:4; stroke-opacity:1; fill:none" points="203.964,1116.63 222.861,1116.63 "></polyline>
<polyline clip-path="url(#clip020)" style="stroke:#000000; stroke-linecap:round; stroke-linejoin:round; stroke-width:4; stroke-opacity:1; fill:none" points="203.964,819.268 222.861,819.268 "></polyline>
<polyline clip-path="url(#clip020)" style="stroke:#000000; stroke-linecap:round; stroke-linejoin:round; stroke-width:4; stroke-opacity:1; fill:none" points="203.964,521.904 222.861,521.904 "></polyline>
<polyline clip-path="url(#clip020)" style="stroke:#000000; stroke-linecap:round; stroke-linejoin:round; stroke-width:4; stroke-opacity:1; fill:none" points="203.964,224.539 222.861,224.539 "></polyline>
<path clip-path="url(#clip020)" d="M147.061 1396.72 L165.417 1396.72 L165.417 1400.65 L151.343 1400.65 L151.343 1409.12 Q152.362 1408.78 153.38 1408.62 Q154.399 1408.43 155.417 1408.43 Q161.204 1408.43 164.584 1411.6 Q167.964 1414.77 167.964 1420.19 Q167.964 1425.77 164.491 1428.87 Q161.019 1431.95 154.7 1431.95 Q152.524 1431.95 150.255 1431.58 Q148.01 1431.21 145.603 1430.47 L145.603 1425.77 Q147.686 1426.9 149.908 1427.46 Q152.13 1428.01 154.607 1428.01 Q158.612 1428.01 160.95 1425.91 Q163.288 1423.8 163.288 1420.19 Q163.288 1416.58 160.95 1414.47 Q158.612 1412.37 154.607 1412.37 Q152.732 1412.37 150.857 1412.78 Q149.005 1413.2 147.061 1414.08 L147.061 1396.72 Z" fill="#000000" fill-rule="nonzero" fill-opacity="1"></path><path clip-path="url(#clip020)" d="M116.668 1129.98 L124.306 1129.98 L124.306 1103.61 L115.996 1105.28 L115.996 1101.02 L124.26 1099.35 L128.936 1099.35 L128.936 1129.98 L136.575 1129.98 L136.575 1133.91 L116.668 1133.91 L116.668 1129.98 Z" fill="#000000" fill-rule="nonzero" fill-opacity="1"></path><path clip-path="url(#clip020)" d="M156.019 1102.43 Q152.408 1102.43 150.579 1106 Q148.774 1109.54 148.774 1116.67 Q148.774 1123.77 150.579 1127.34 Q152.408 1130.88 156.019 1130.88 Q159.653 1130.88 161.459 1127.34 Q163.288 1123.77 163.288 1116.67 Q163.288 1109.54 161.459 1106 Q159.653 1102.43 156.019 1102.43 M156.019 1098.73 Q161.829 1098.73 164.885 1103.33 Q167.964 1107.92 167.964 1116.67 Q167.964 1125.39 164.885 1130 Q161.829 1134.58 156.019 1134.58 Q150.209 1134.58 147.13 1130 Q144.075 1125.39 144.075 1116.67 Q144.075 1107.92 147.13 1103.33 Q150.209 1098.73 156.019 1098.73 Z" fill="#000000" fill-rule="nonzero" fill-opacity="1"></path><path clip-path="url(#clip020)" d="M117.663 832.613 L125.302 832.613 L125.302 806.247 L116.992 807.914 L116.992 803.655 L125.255 801.988 L129.931 801.988 L129.931 832.613 L137.57 832.613 L137.57 836.548 L117.663 836.548 L117.663 832.613 Z" fill="#000000" fill-rule="nonzero" fill-opacity="1"></path><path clip-path="url(#clip020)" d="M147.061 801.988 L165.417 801.988 L165.417 805.923 L151.343 805.923 L151.343 814.396 Q152.362 814.048 153.38 813.886 Q154.399 813.701 155.417 813.701 Q161.204 813.701 164.584 816.872 Q167.964 820.044 167.964 825.46 Q167.964 831.039 164.491 834.141 Q161.019 837.219 154.7 837.219 Q152.524 837.219 150.255 836.849 Q148.01 836.479 145.603 835.738 L145.603 831.039 Q147.686 832.173 149.908 832.729 Q152.13 833.284 154.607 833.284 Q158.612 833.284 160.95 831.178 Q163.288 829.071 163.288 825.46 Q163.288 821.849 160.95 819.743 Q158.612 817.636 154.607 817.636 Q152.732 817.636 150.857 818.053 Q149.005 818.47 147.061 819.349 L147.061 801.988 Z" fill="#000000" fill-rule="nonzero" fill-opacity="1"></path><path clip-path="url(#clip020)" d="M119.885 535.249 L136.204 535.249 L136.204 539.184 L114.26 539.184 L114.26 535.249 Q116.922 532.494 121.505 527.864 Q126.112 523.212 127.292 521.869 Q129.538 519.346 130.417 517.61 Q131.32 515.851 131.32 514.161 Q131.32 511.406 129.376 509.67 Q127.455 507.934 124.353 507.934 Q122.154 507.934 119.7 508.698 Q117.269 509.462 114.492 511.013 L114.492 506.29 Q117.316 505.156 119.769 504.577 Q122.223 503.999 124.26 503.999 Q129.63 503.999 132.825 506.684 Q136.019 509.369 136.019 513.86 Q136.019 515.989 135.209 517.911 Q134.422 519.809 132.316 522.401 Q131.737 523.073 128.635 526.29 Q125.533 529.485 119.885 535.249 Z" fill="#000000" fill-rule="nonzero" fill-opacity="1"></path><path clip-path="url(#clip020)" d="M156.019 507.702 Q152.408 507.702 150.579 511.267 Q148.774 514.809 148.774 521.938 Q148.774 529.045 150.579 532.61 Q152.408 536.151 156.019 536.151 Q159.653 536.151 161.459 532.61 Q163.288 529.045 163.288 521.938 Q163.288 514.809 161.459 511.267 Q159.653 507.702 156.019 507.702 M156.019 503.999 Q161.829 503.999 164.885 508.605 Q167.964 513.188 167.964 521.938 Q167.964 530.665 164.885 535.272 Q161.829 539.855 156.019 539.855 Q150.209 539.855 147.13 535.272 Q144.075 530.665 144.075 521.938 Q144.075 513.188 147.13 508.605 Q150.209 503.999 156.019 503.999 Z" fill="#000000" fill-rule="nonzero" fill-opacity="1"></path><path clip-path="url(#clip020)" d="M120.88 237.884 L137.2 237.884 L137.2 241.819 L115.256 241.819 L115.256 237.884 Q117.918 235.129 122.501 230.5 Q127.107 225.847 128.288 224.505 Q130.533 221.981 131.413 220.245 Q132.316 218.486 132.316 216.796 Q132.316 214.042 130.371 212.306 Q128.45 210.569 125.348 210.569 Q123.149 210.569 120.695 211.333 Q118.265 212.097 115.487 213.648 L115.487 208.926 Q118.311 207.792 120.765 207.213 Q123.218 206.634 125.255 206.634 Q130.626 206.634 133.82 209.319 Q137.015 212.005 137.015 216.495 Q137.015 218.625 136.204 220.546 Q135.417 222.444 133.311 225.037 Q132.732 225.708 129.63 228.926 Q126.529 232.12 120.88 237.884 Z" fill="#000000" fill-rule="nonzero" fill-opacity="1"></path><path clip-path="url(#clip020)" d="M147.061 207.259 L165.417 207.259 L165.417 211.194 L151.343 211.194 L151.343 219.667 Q152.362 219.319 153.38 219.157 Q154.399 218.972 155.417 218.972 Q161.204 218.972 164.584 222.143 Q167.964 225.315 167.964 230.731 Q167.964 236.31 164.491 239.412 Q161.019 242.491 154.7 242.491 Q152.524 242.491 150.255 242.12 Q148.01 241.75 145.603 241.009 L145.603 236.31 Q147.686 237.444 149.908 238 Q152.13 238.555 154.607 238.555 Q158.612 238.555 160.95 236.449 Q163.288 234.342 163.288 230.731 Q163.288 227.12 160.95 225.014 Q158.612 222.907 154.607 222.907 Q152.732 222.907 150.857 223.324 Q149.005 223.741 147.061 224.62 L147.061 207.259 Z" fill="#000000" fill-rule="nonzero" fill-opacity="1"></path><path clip-path="url(#clip020)" d="M16.4842 954.16 L16.4842 924.114 L21.895 924.114 L21.895 947.73 L35.9632 947.73 L35.9632 925.1 L41.3741 925.1 L41.3741 947.73 L58.5933 947.73 L58.5933 923.541 L64.0042 923.541 L64.0042 954.16 L16.4842 954.16 Z" fill="#000000" fill-rule="nonzero" fill-opacity="1"></path><path clip-path="url(#clip020)" d="M42.4881 883.596 L64.0042 883.596 L64.0042 889.452 L42.679 889.452 Q37.6183 889.452 35.1038 891.426 Q32.5894 893.399 32.5894 897.346 Q32.5894 902.088 35.6131 904.826 Q38.6368 907.563 43.8567 907.563 L64.0042 907.563 L64.0042 913.451 L28.3562 913.451 L28.3562 907.563 L33.8944 907.563 Q30.6797 905.462 29.0883 902.629 Q27.4968 899.765 27.4968 896.041 Q27.4968 889.898 31.3163 886.747 Q35.1038 883.596 42.4881 883.596 Z" fill="#000000" fill-rule="nonzero" fill-opacity="1"></path><path clip-path="url(#clip020)" d="M44.7161 841.423 L47.5806 841.423 L47.5806 868.35 Q53.6281 867.968 56.8109 864.722 Q59.9619 861.443 59.9619 855.619 Q59.9619 852.245 59.1344 849.094 Q58.3069 845.911 56.6518 842.792 L62.1899 842.792 Q63.5267 845.943 64.227 849.253 Q64.9272 852.563 64.9272 855.969 Q64.9272 864.499 59.9619 869.496 Q54.9967 874.461 46.5303 874.461 Q37.7774 874.461 32.6531 869.751 Q27.4968 865.008 27.4968 856.987 Q27.4968 849.794 32.1438 845.624 Q36.7589 841.423 44.7161 841.423 M42.9973 847.28 Q38.1912 847.343 35.3266 849.985 Q32.4621 852.595 32.4621 856.924 Q32.4621 861.825 35.2312 864.785 Q38.0002 867.713 43.0292 868.159 L42.9973 847.28 Z" fill="#000000" fill-rule="nonzero" fill-opacity="1"></path><path clip-path="url(#clip020)" d="M33.8307 811.154 Q33.2578 812.141 33.0032 813.319 Q32.7167 814.464 32.7167 815.865 Q32.7167 820.83 35.9632 823.504 Q39.1779 826.145 45.2253 826.145 L64.0042 826.145 L64.0042 832.034 L28.3562 832.034 L28.3562 826.145 L33.8944 826.145 Q30.6479 824.299 29.0883 821.339 Q27.4968 818.379 27.4968 814.146 Q27.4968 813.541 27.5923 812.809 Q27.656 812.077 27.8151 811.186 L33.8307 811.154 Z" fill="#000000" fill-rule="nonzero" fill-opacity="1"></path><path clip-path="url(#clip020)" d="M45.7664 782.699 Q39.4007 782.699 35.8996 785.341 Q32.3984 787.951 32.3984 792.694 Q32.3984 797.404 35.8996 800.046 Q39.4007 802.656 45.7664 802.656 Q52.1003 802.656 55.6014 800.046 Q59.1026 797.404 59.1026 792.694 Q59.1026 787.951 55.6014 785.341 Q52.1003 782.699 45.7664 782.699 M59.58 776.843 Q68.683 776.843 73.1071 780.885 Q77.5631 784.927 77.5631 793.267 Q77.5631 796.354 77.0857 799.091 Q76.6401 801.828 75.6852 804.407 L69.9879 804.407 Q71.3884 801.828 72.0568 799.314 Q72.7252 796.8 72.7252 794.19 Q72.7252 788.429 69.7015 785.564 Q66.7096 782.699 60.6303 782.699 L57.7339 782.699 Q60.885 784.514 62.4446 787.346 Q64.0042 790.179 64.0042 794.126 Q64.0042 800.683 59.0071 804.693 Q54.01 808.703 45.7664 808.703 Q37.491 808.703 32.4939 804.693 Q27.4968 800.683 27.4968 794.126 Q27.4968 790.179 29.0564 787.346 Q30.616 784.514 33.7671 782.699 L28.3562 782.699 L28.3562 776.843 L59.58 776.843 Z" fill="#000000" fill-rule="nonzero" fill-opacity="1"></path><path clip-path="url(#clip020)" d="M67.3143 749.948 Q73.68 752.431 75.6216 754.786 Q77.5631 757.141 77.5631 761.088 L77.5631 765.767 L72.6615 765.767 L72.6615 762.329 Q72.6615 759.91 71.5157 758.573 Q70.3699 757.237 66.1048 755.613 L63.4312 754.563 L28.3562 768.981 L28.3562 762.775 L56.238 751.635 L28.3562 740.495 L28.3562 734.288 L67.3143 749.948 Z" fill="#000000" fill-rule="nonzero" fill-opacity="1"></path><path clip-path="url(#clip020)" d="M45.7664 682.026 Q39.4007 682.026 35.8996 684.668 Q32.3984 687.278 32.3984 692.02 Q32.3984 696.731 35.8996 699.372 Q39.4007 701.982 45.7664 701.982 Q52.1003 701.982 55.6014 699.372 Q59.1026 696.731 59.1026 692.02 Q59.1026 687.278 55.6014 684.668 Q52.1003 682.026 45.7664 682.026 M59.58 676.169 Q68.683 676.169 73.1071 680.212 Q77.5631 684.254 77.5631 692.593 Q77.5631 695.68 77.0857 698.418 Q76.6401 701.155 75.6852 703.733 L69.9879 703.733 Q71.3884 701.155 72.0568 698.64 Q72.7252 696.126 72.7252 693.516 Q72.7252 687.755 69.7015 684.89 Q66.7096 682.026 60.6303 682.026 L57.7339 682.026 Q60.885 683.84 62.4446 686.673 Q64.0042 689.506 64.0042 693.452 Q64.0042 700.009 59.0071 704.019 Q54.01 708.03 45.7664 708.03 Q37.491 708.03 32.4939 704.019 Q27.4968 700.009 27.4968 693.452 Q27.4968 689.506 29.0564 686.673 Q30.616 683.84 33.7671 682.026 L28.3562 682.026 L28.3562 676.169 L59.58 676.169 Z" fill="#000000" fill-rule="nonzero" fill-opacity="1"></path><path clip-path="url(#clip020)" d="M46.0847 647.906 Q46.0847 655.003 47.7079 657.741 Q49.3312 660.478 53.2461 660.478 Q56.3653 660.478 58.2114 658.441 Q60.0256 656.372 60.0256 652.839 Q60.0256 647.969 56.5881 645.041 Q53.1188 642.081 47.3897 642.081 L46.0847 642.081 L46.0847 647.906 M43.6657 636.225 L64.0042 636.225 L64.0042 642.081 L58.5933 642.081 Q61.8398 644.086 63.3994 647.078 Q64.9272 650.07 64.9272 654.399 Q64.9272 659.873 61.8716 663.12 Q58.7843 666.334 53.6281 666.334 Q47.6125 666.334 44.5569 662.324 Q41.5014 658.282 41.5014 650.293 L41.5014 642.081 L40.9285 642.081 Q36.8862 642.081 34.6901 644.755 Q32.4621 647.396 32.4621 652.203 Q32.4621 655.258 33.1941 658.154 Q33.9262 661.051 35.3903 663.724 L29.9795 663.724 Q28.7381 660.51 28.1334 657.486 Q27.4968 654.462 27.4968 651.598 Q27.4968 643.863 31.5072 640.044 Q35.5176 636.225 43.6657 636.225 Z" fill="#000000" fill-rule="nonzero" fill-opacity="1"></path><path clip-path="url(#clip020)" d="M58.657 618.496 L77.5631 618.496 L77.5631 624.384 L28.3562 624.384 L28.3562 618.496 L33.7671 618.496 Q30.5842 616.65 29.0564 613.849 Q27.4968 611.016 27.4968 607.101 Q27.4968 600.608 32.6531 596.566 Q37.8093 592.492 46.212 592.492 Q54.6147 592.492 59.771 596.566 Q64.9272 600.608 64.9272 607.101 Q64.9272 611.016 63.3994 613.849 Q61.8398 616.65 58.657 618.496 M46.212 598.571 Q39.7508 598.571 36.0905 601.245 Q32.3984 603.887 32.3984 608.534 Q32.3984 613.181 36.0905 615.854 Q39.7508 618.496 46.212 618.496 Q52.6732 618.496 56.3653 615.854 Q60.0256 613.181 60.0256 608.534 Q60.0256 603.887 56.3653 601.245 Q52.6732 598.571 46.212 598.571 Z" fill="#000000" fill-rule="nonzero" fill-opacity="1"></path><path clip-path="url(#clip020)" d="M407.274 12.096 L445.514 12.096 L445.514 18.9825 L415.456 18.9825 L415.456 36.8875 L444.258 36.8875 L444.258 43.7741 L415.456 43.7741 L415.456 65.6895 L446.243 65.6895 L446.243 72.576 L407.274 72.576 L407.274 12.096 Z" fill="#000000" fill-rule="nonzero" fill-opacity="1"></path><path clip-path="url(#clip020)" d="M497.082 45.1919 L497.082 72.576 L489.628 72.576 L489.628 45.4349 Q489.628 38.994 487.117 35.7938 Q484.605 32.5936 479.582 32.5936 Q473.546 32.5936 470.063 36.4419 Q466.579 40.2903 466.579 46.9338 L466.579 72.576 L459.085 72.576 L459.085 27.2059 L466.579 27.2059 L466.579 34.2544 Q469.252 30.163 472.858 28.1376 Q476.504 26.1121 481.243 26.1121 Q489.061 26.1121 493.072 30.9732 Q497.082 35.7938 497.082 45.1919 Z" fill="#000000" fill-rule="nonzero" fill-opacity="1"></path><path clip-path="url(#clip020)" d="M550.757 48.0275 L550.757 51.6733 L516.486 51.6733 Q516.972 59.3701 521.104 63.421 Q525.276 67.4314 532.69 67.4314 Q536.984 67.4314 540.994 66.3781 Q545.045 65.3249 549.015 63.2184 L549.015 70.267 Q545.004 71.9684 540.791 72.8596 Q536.578 73.7508 532.244 73.7508 Q521.388 73.7508 515.028 67.4314 Q508.708 61.1119 508.708 50.3365 Q508.708 39.1965 514.704 32.6746 Q520.739 26.1121 530.948 26.1121 Q540.103 26.1121 545.409 32.0264 Q550.757 37.9003 550.757 48.0275 M543.303 45.84 Q543.222 39.7232 539.86 36.0774 Q536.538 32.4315 531.029 32.4315 Q524.79 32.4315 521.023 35.9558 Q517.296 39.4801 516.729 45.8805 L543.303 45.84 Z" fill="#000000" fill-rule="nonzero" fill-opacity="1"></path><path clip-path="url(#clip020)" d="M589.281 34.1734 Q588.025 33.4443 586.526 33.1202 Q585.068 32.7556 583.285 32.7556 Q576.966 32.7556 573.563 36.8875 Q570.201 40.9789 570.201 48.6757 L570.201 72.576 L562.707 72.576 L562.707 27.2059 L570.201 27.2059 L570.201 34.2544 Q572.55 30.1225 576.318 28.1376 Q580.085 26.1121 585.473 26.1121 Q586.242 26.1121 587.174 26.2337 Q588.106 26.3147 589.24 26.5172 L589.281 34.1734 Z" fill="#000000" fill-rule="nonzero" fill-opacity="1"></path><path clip-path="url(#clip020)" d="M625.496 49.3643 Q625.496 41.2625 622.134 36.8065 Q618.812 32.3505 612.776 32.3505 Q606.781 32.3505 603.418 36.8065 Q600.097 41.2625 600.097 49.3643 Q600.097 57.4256 603.418 61.8816 Q606.781 66.3376 612.776 66.3376 Q618.812 66.3376 622.134 61.8816 Q625.496 57.4256 625.496 49.3643 M632.949 66.9452 Q632.949 78.5308 627.805 84.1616 Q622.66 89.8329 612.047 89.8329 Q608.117 89.8329 604.634 89.2252 Q601.15 88.6581 597.869 87.4428 L597.869 80.1917 Q601.15 81.9741 604.35 82.8248 Q607.55 83.6755 610.872 83.6755 Q618.204 83.6755 621.85 79.8271 Q625.496 76.0193 625.496 68.282 L625.496 64.5957 Q623.187 68.6061 619.581 70.5911 Q615.976 72.576 610.953 72.576 Q602.608 72.576 597.504 66.2161 Q592.4 59.8562 592.4 49.3643 Q592.4 38.832 597.504 32.472 Q602.608 26.1121 610.953 26.1121 Q615.976 26.1121 619.581 28.0971 Q623.187 30.082 625.496 34.0924 L625.496 27.2059 L632.949 27.2059 L632.949 66.9452 Z" fill="#000000" fill-rule="nonzero" fill-opacity="1"></path><path clip-path="url(#clip020)" d="M667.18 76.7889 Q664.02 84.8907 661.022 87.3618 Q658.025 89.8329 653.001 89.8329 L647.047 89.8329 L647.047 83.5945 L651.422 83.5945 Q654.5 83.5945 656.202 82.1361 Q657.903 80.6778 659.969 75.2496 L661.306 71.8468 L642.955 27.2059 L650.854 27.2059 L665.033 62.6918 L679.211 27.2059 L687.11 27.2059 L667.18 76.7889 Z" fill="#000000" fill-rule="nonzero" fill-opacity="1"></path><path clip-path="url(#clip020)" d="M753.626 49.3643 Q753.626 41.2625 750.264 36.8065 Q746.942 32.3505 740.906 32.3505 Q734.911 32.3505 731.548 36.8065 Q728.227 41.2625 728.227 49.3643 Q728.227 57.4256 731.548 61.8816 Q734.911 66.3376 740.906 66.3376 Q746.942 66.3376 750.264 61.8816 Q753.626 57.4256 753.626 49.3643 M761.08 66.9452 Q761.08 78.5308 755.935 84.1616 Q750.79 89.8329 740.177 89.8329 Q736.247 89.8329 732.764 89.2252 Q729.28 88.6581 725.999 87.4428 L725.999 80.1917 Q729.28 81.9741 732.48 82.8248 Q735.68 83.6755 739.002 83.6755 Q746.334 83.6755 749.98 79.8271 Q753.626 76.0193 753.626 68.282 L753.626 64.5957 Q751.317 68.6061 747.712 70.5911 Q744.106 72.576 739.083 72.576 Q730.738 72.576 725.634 66.2161 Q720.53 59.8562 720.53 49.3643 Q720.53 38.832 725.634 32.472 Q730.738 26.1121 739.083 26.1121 Q744.106 26.1121 747.712 28.0971 Q751.317 30.082 753.626 34.0924 L753.626 27.2059 L761.08 27.2059 L761.08 66.9452 Z" fill="#000000" fill-rule="nonzero" fill-opacity="1"></path><path clip-path="url(#clip020)" d="M797.052 49.7694 Q788.018 49.7694 784.534 51.8354 Q781.05 53.9013 781.05 58.8839 Q781.05 62.8538 783.643 65.2034 Q786.276 67.5124 790.773 67.5124 Q796.971 67.5124 800.697 63.1374 Q804.465 58.7219 804.465 51.4303 L804.465 49.7694 L797.052 49.7694 M811.918 46.6907 L811.918 72.576 L804.465 72.576 L804.465 65.6895 Q801.913 69.8214 798.105 71.8063 Q794.297 73.7508 788.788 73.7508 Q781.82 73.7508 777.688 69.8619 Q773.597 65.9325 773.597 59.3701 Q773.597 51.7138 778.701 47.825 Q783.846 43.9361 794.013 43.9361 L804.465 43.9361 L804.465 43.2069 Q804.465 38.0623 801.062 35.2672 Q797.7 32.4315 791.583 32.4315 Q787.694 32.4315 784.008 33.3632 Q780.321 34.295 776.919 36.1584 L776.919 29.2718 Q781.01 27.692 784.858 26.9223 Q788.707 26.1121 792.353 26.1121 Q802.196 26.1121 807.057 31.2163 Q811.918 36.3204 811.918 46.6907 Z" fill="#000000" fill-rule="nonzero" fill-opacity="1"></path><path clip-path="url(#clip020)" d="M834.482 65.7705 L834.482 89.8329 L826.988 89.8329 L826.988 27.2059 L834.482 27.2059 L834.482 34.0924 Q836.831 30.0415 840.396 28.0971 Q844.002 26.1121 848.984 26.1121 Q857.248 26.1121 862.393 32.6746 Q867.578 39.2371 867.578 49.9314 Q867.578 60.6258 862.393 67.1883 Q857.248 73.7508 848.984 73.7508 Q844.002 73.7508 840.396 71.8063 Q836.831 69.8214 834.482 65.7705 M859.841 49.9314 Q859.841 41.7081 856.438 37.0496 Q853.076 32.3505 847.161 32.3505 Q841.247 32.3505 837.844 37.0496 Q834.482 41.7081 834.482 49.9314 Q834.482 58.1548 837.844 62.8538 Q841.247 67.5124 847.161 67.5124 Q853.076 67.5124 856.438 62.8538 Q859.841 58.1548 859.841 49.9314 Z" fill="#000000" fill-rule="nonzero" fill-opacity="1"></path><path clip-path="url(#clip020)" d="M900.957 27.2059 L908.857 27.2059 L923.035 65.2844 L937.213 27.2059 L945.112 27.2059 L928.098 72.576 L917.971 72.576 L900.957 27.2059 Z" fill="#000000" fill-rule="nonzero" fill-opacity="1"></path><path clip-path="url(#clip020)" d="M984.325 28.5427 L984.325 35.5912 Q981.165 33.9709 977.762 33.1607 Q974.36 32.3505 970.714 32.3505 Q965.164 32.3505 962.369 34.0519 Q959.614 35.7533 959.614 39.156 Q959.614 41.7486 961.599 43.2475 Q963.584 44.7058 969.58 46.0426 L972.132 46.6097 Q980.071 48.3111 983.393 51.4303 Q986.755 54.509 986.755 60.0587 Q986.755 66.3781 981.732 70.0644 Q976.75 73.7508 968 73.7508 Q964.354 73.7508 960.384 73.0216 Q956.455 72.3329 952.08 70.9151 L952.08 63.2184 Q956.212 65.3654 960.222 66.4591 Q964.232 67.5124 968.162 67.5124 Q973.428 67.5124 976.264 65.73 Q979.099 63.9071 979.099 60.6258 Q979.099 57.5877 977.033 55.9673 Q975.008 54.3469 968.081 52.8481 L965.488 52.2405 Q958.561 50.7821 955.482 47.7845 Q952.404 44.7463 952.404 39.4801 Q952.404 33.0797 956.941 29.5959 Q961.478 26.1121 969.823 26.1121 Q973.955 26.1121 977.6 26.7198 Q981.246 27.3274 984.325 28.5427 Z" fill="#000000" fill-rule="nonzero" fill-opacity="1"></path><path clip-path="url(#clip020)" d="M1025.32 12.096 L1036.34 12.096 L1063.16 62.6918 L1063.16 12.096 L1071.1 12.096 L1071.1 72.576 L1060.08 72.576 L1033.26 21.9802 L1033.26 72.576 L1025.32 72.576 L1025.32 12.096 Z" fill="#000000" fill-rule="nonzero" fill-opacity="1"></path><path clip-path="url(#clip020)" d="M1086.29 54.671 L1086.29 27.2059 L1093.74 27.2059 L1093.74 54.3874 Q1093.74 60.8284 1096.25 64.0691 Q1098.76 67.2693 1103.79 67.2693 Q1109.82 67.2693 1113.31 63.421 Q1116.83 59.5726 1116.83 52.9291 L1116.83 27.2059 L1124.28 27.2059 L1124.28 72.576 L1116.83 72.576 L1116.83 65.6084 Q1114.12 69.7404 1110.51 71.7658 Q1106.95 73.7508 1102.21 73.7508 Q1094.39 73.7508 1090.34 68.8897 Q1086.29 64.0286 1086.29 54.671 M1105.04 26.1121 L1105.04 26.1121 Z" fill="#000000" fill-rule="nonzero" fill-opacity="1"></path><path clip-path="url(#clip020)" d="M1174.96 35.9153 Q1177.76 30.8922 1181.64 28.5022 Q1185.53 26.1121 1190.8 26.1121 Q1197.89 26.1121 1201.74 31.0947 Q1205.59 36.0368 1205.59 45.1919 L1205.59 72.576 L1198.09 72.576 L1198.09 45.4349 Q1198.09 38.913 1195.78 35.7533 Q1193.47 32.5936 1188.73 32.5936 Q1182.94 32.5936 1179.58 36.4419 Q1176.22 40.2903 1176.22 46.9338 L1176.22 72.576 L1168.72 72.576 L1168.72 45.4349 Q1168.72 38.8725 1166.41 35.7533 Q1164.1 32.5936 1159.28 32.5936 Q1153.57 32.5936 1150.21 36.4824 Q1146.85 40.3308 1146.85 46.9338 L1146.85 72.576 L1139.35 72.576 L1139.35 27.2059 L1146.85 27.2059 L1146.85 34.2544 Q1149.4 30.082 1152.96 28.0971 Q1156.53 26.1121 1161.43 26.1121 Q1166.37 26.1121 1169.82 28.6237 Q1173.3 31.1352 1174.96 35.9153 Z" fill="#000000" fill-rule="nonzero" fill-opacity="1"></path><path clip-path="url(#clip020)" d="M1253.02 49.9314 Q1253.02 41.7081 1249.62 37.0496 Q1246.26 32.3505 1240.34 32.3505 Q1234.43 32.3505 1231.02 37.0496 Q1227.66 41.7081 1227.66 49.9314 Q1227.66 58.1548 1231.02 62.8538 Q1234.43 67.5124 1240.34 67.5124 Q1246.26 67.5124 1249.62 62.8538 Q1253.02 58.1548 1253.02 49.9314 M1227.66 34.0924 Q1230.01 30.0415 1233.58 28.0971 Q1237.18 26.1121 1242.16 26.1121 Q1250.43 26.1121 1255.57 32.6746 Q1260.76 39.2371 1260.76 49.9314 Q1260.76 60.6258 1255.57 67.1883 Q1250.43 73.7508 1242.16 73.7508 Q1237.18 73.7508 1233.58 71.8063 Q1230.01 69.8214 1227.66 65.7705 L1227.66 72.576 L1220.17 72.576 L1220.17 9.54393 L1227.66 9.54393 L1227.66 34.0924 Z" fill="#000000" fill-rule="nonzero" fill-opacity="1"></path><path clip-path="url(#clip020)" d="M1311.92 48.0275 L1311.92 51.6733 L1277.65 51.6733 Q1278.14 59.3701 1282.27 63.421 Q1286.44 67.4314 1293.85 67.4314 Q1298.15 67.4314 1302.16 66.3781 Q1306.21 65.3249 1310.18 63.2184 L1310.18 70.267 Q1306.17 71.9684 1301.96 72.8596 Q1297.74 73.7508 1293.41 73.7508 Q1282.55 73.7508 1276.19 67.4314 Q1269.87 61.1119 1269.87 50.3365 Q1269.87 39.1965 1275.87 32.6746 Q1281.9 26.1121 1292.11 26.1121 Q1301.27 26.1121 1306.57 32.0264 Q1311.92 37.9003 1311.92 48.0275 M1304.47 45.84 Q1304.39 39.7232 1301.02 36.0774 Q1297.7 32.4315 1292.19 32.4315 Q1285.96 32.4315 1282.19 35.9558 Q1278.46 39.4801 1277.89 45.8805 L1304.47 45.84 Z" fill="#000000" fill-rule="nonzero" fill-opacity="1"></path><path clip-path="url(#clip020)" d="M1350.45 34.1734 Q1349.19 33.4443 1347.69 33.1202 Q1346.23 32.7556 1344.45 32.7556 Q1338.13 32.7556 1334.73 36.8875 Q1331.37 40.9789 1331.37 48.6757 L1331.37 72.576 L1323.87 72.576 L1323.87 27.2059 L1331.37 27.2059 L1331.37 34.2544 Q1333.72 30.1225 1337.48 28.1376 Q1341.25 26.1121 1346.64 26.1121 Q1347.41 26.1121 1348.34 26.2337 Q1349.27 26.3147 1350.41 26.5172 L1350.45 34.1734 Z" fill="#000000" fill-rule="nonzero" fill-opacity="1"></path><path clip-path="url(#clip020)" d="M1402.22 32.4315 Q1396.22 32.4315 1392.74 37.1306 Q1389.25 41.7891 1389.25 49.9314 Q1389.25 58.0738 1392.7 62.7728 Q1396.18 67.4314 1402.22 67.4314 Q1408.17 67.4314 1411.65 62.7323 Q1415.14 58.0333 1415.14 49.9314 Q1415.14 41.8701 1411.65 37.1711 Q1408.17 32.4315 1402.22 32.4315 M1402.22 26.1121 Q1411.94 26.1121 1417.49 32.4315 Q1423.04 38.7509 1423.04 49.9314 Q1423.04 61.0714 1417.49 67.4314 Q1411.94 73.7508 1402.22 73.7508 Q1392.45 73.7508 1386.9 67.4314 Q1381.39 61.0714 1381.39 49.9314 Q1381.39 38.7509 1386.9 32.4315 Q1392.45 26.1121 1402.22 26.1121 Z" fill="#000000" fill-rule="nonzero" fill-opacity="1"></path><path clip-path="url(#clip020)" d="M1458.36 9.54393 L1458.36 15.7418 L1451.23 15.7418 Q1447.22 15.7418 1445.64 17.3622 Q1444.1 18.9825 1444.1 23.1955 L1444.1 27.2059 L1456.38 27.2059 L1456.38 32.9987 L1444.1 32.9987 L1444.1 72.576 L1436.61 72.576 L1436.61 32.9987 L1429.48 32.9987 L1429.48 27.2059 L1436.61 27.2059 L1436.61 24.0462 Q1436.61 16.471 1440.13 13.0277 Q1443.66 9.54393 1451.31 9.54393 L1458.36 9.54393 Z" fill="#000000" fill-rule="nonzero" fill-opacity="1"></path><path clip-path="url(#clip020)" d="M1519.89 28.5427 L1519.89 35.5912 Q1516.74 33.9709 1513.33 33.1607 Q1509.93 32.3505 1506.28 32.3505 Q1500.73 32.3505 1497.94 34.0519 Q1495.18 35.7533 1495.18 39.156 Q1495.18 41.7486 1497.17 43.2475 Q1499.15 44.7058 1505.15 46.0426 L1507.7 46.6097 Q1515.64 48.3111 1518.96 51.4303 Q1522.33 54.509 1522.33 60.0587 Q1522.33 66.3781 1517.3 70.0644 Q1512.32 73.7508 1503.57 73.7508 Q1499.92 73.7508 1495.95 73.0216 Q1492.02 72.3329 1487.65 70.9151 L1487.65 63.2184 Q1491.78 65.3654 1495.79 66.4591 Q1499.8 67.5124 1503.73 67.5124 Q1509 67.5124 1511.83 65.73 Q1514.67 63.9071 1514.67 60.6258 Q1514.67 57.5877 1512.6 55.9673 Q1510.58 54.3469 1503.65 52.8481 L1501.06 52.2405 Q1494.13 50.7821 1491.05 47.7845 Q1487.97 44.7463 1487.97 39.4801 Q1487.97 33.0797 1492.51 29.5959 Q1497.05 26.1121 1505.39 26.1121 Q1509.52 26.1121 1513.17 26.7198 Q1516.82 27.3274 1519.89 28.5427 Z" fill="#000000" fill-rule="nonzero" fill-opacity="1"></path><path clip-path="url(#clip020)" d="M1534.19 27.2059 L1541.65 27.2059 L1541.65 72.576 L1534.19 72.576 L1534.19 27.2059 M1534.19 9.54393 L1541.65 9.54393 L1541.65 18.9825 L1534.19 18.9825 L1534.19 9.54393 Z" fill="#000000" fill-rule="nonzero" fill-opacity="1"></path><path clip-path="url(#clip020)" d="M1564.62 14.324 L1564.62 27.2059 L1579.97 27.2059 L1579.97 32.9987 L1564.62 32.9987 L1564.62 57.6282 Q1564.62 63.1779 1566.12 64.7578 Q1567.66 66.3376 1572.31 66.3376 L1579.97 66.3376 L1579.97 72.576 L1572.31 72.576 Q1563.69 72.576 1560.4 69.3758 Q1557.12 66.1351 1557.12 57.6282 L1557.12 32.9987 L1551.65 32.9987 L1551.65 27.2059 L1557.12 27.2059 L1557.12 14.324 L1564.62 14.324 Z" fill="#000000" fill-rule="nonzero" fill-opacity="1"></path><path clip-path="url(#clip020)" d="M1628.58 48.0275 L1628.58 51.6733 L1594.31 51.6733 Q1594.8 59.3701 1598.93 63.421 Q1603.1 67.4314 1610.51 67.4314 Q1614.81 67.4314 1618.82 66.3781 Q1622.87 65.3249 1626.84 63.2184 L1626.84 70.267 Q1622.83 71.9684 1618.62 72.8596 Q1614.4 73.7508 1610.07 73.7508 Q1599.21 73.7508 1592.85 67.4314 Q1586.53 61.1119 1586.53 50.3365 Q1586.53 39.1965 1592.53 32.6746 Q1598.56 26.1121 1608.77 26.1121 Q1617.93 26.1121 1623.23 32.0264 Q1628.58 37.9003 1628.58 48.0275 M1621.13 45.84 Q1621.05 39.7232 1617.68 36.0774 Q1614.36 32.4315 1608.85 32.4315 Q1602.61 32.4315 1598.85 35.9558 Q1595.12 39.4801 1594.55 45.8805 L1621.13 45.84 Z" fill="#000000" fill-rule="nonzero" fill-opacity="1"></path><path clip-path="url(#clip020)" d="M1669.74 28.5427 L1669.74 35.5912 Q1666.58 33.9709 1663.18 33.1607 Q1659.77 32.3505 1656.13 32.3505 Q1650.58 32.3505 1647.78 34.0519 Q1645.03 35.7533 1645.03 39.156 Q1645.03 41.7486 1647.01 43.2475 Q1649 44.7058 1654.99 46.0426 L1657.54 46.6097 Q1665.48 48.3111 1668.81 51.4303 Q1672.17 54.509 1672.17 60.0587 Q1672.17 66.3781 1667.15 70.0644 Q1662.16 73.7508 1653.41 73.7508 Q1649.77 73.7508 1645.8 73.0216 Q1641.87 72.3329 1637.49 70.9151 L1637.49 63.2184 Q1641.62 65.3654 1645.63 66.4591 Q1649.65 67.5124 1653.57 67.5124 Q1658.84 67.5124 1661.68 65.73 Q1664.51 63.9071 1664.51 60.6258 Q1664.51 57.5877 1662.45 55.9673 Q1660.42 54.3469 1653.49 52.8481 L1650.9 52.2405 Q1643.97 50.7821 1640.9 47.7845 Q1637.82 44.7463 1637.82 39.4801 Q1637.82 33.0797 1642.35 29.5959 Q1646.89 26.1121 1655.24 26.1121 Q1659.37 26.1121 1663.01 26.7198 Q1666.66 27.3274 1669.74 28.5427 Z" fill="#000000" fill-rule="nonzero" fill-opacity="1"></path><path clip-path="url(#clip020)" d="M1706.07 27.2059 L1713.53 27.2059 L1722.85 62.6108 L1732.12 27.2059 L1740.91 27.2059 L1750.23 62.6108 L1759.51 27.2059 L1766.96 27.2059 L1755.09 72.576 L1746.3 72.576 L1736.54 35.3887 L1726.73 72.576 L1717.94 72.576 L1706.07 27.2059 Z" fill="#000000" fill-rule="nonzero" fill-opacity="1"></path><path clip-path="url(#clip020)" d="M1778.26 27.2059 L1785.72 27.2059 L1785.72 72.576 L1778.26 72.576 L1778.26 27.2059 M1778.26 9.54393 L1785.72 9.54393 L1785.72 18.9825 L1778.26 18.9825 L1778.26 9.54393 Z" fill="#000000" fill-rule="nonzero" fill-opacity="1"></path><path clip-path="url(#clip020)" d="M1808.68 14.324 L1808.68 27.2059 L1824.04 27.2059 L1824.04 32.9987 L1808.68 32.9987 L1808.68 57.6282 Q1808.68 63.1779 1810.18 64.7578 Q1811.72 66.3376 1816.38 66.3376 L1824.04 66.3376 L1824.04 72.576 L1816.38 72.576 Q1807.75 72.576 1804.47 69.3758 Q1801.19 66.1351 1801.19 57.6282 L1801.19 32.9987 L1795.72 32.9987 L1795.72 27.2059 L1801.19 27.2059 L1801.19 14.324 L1808.68 14.324 Z" fill="#000000" fill-rule="nonzero" fill-opacity="1"></path><path clip-path="url(#clip020)" d="M1871.55 45.1919 L1871.55 72.576 L1864.1 72.576 L1864.1 45.4349 Q1864.1 38.994 1861.59 35.7938 Q1859.08 32.5936 1854.05 32.5936 Q1848.02 32.5936 1844.53 36.4419 Q1841.05 40.2903 1841.05 46.9338 L1841.05 72.576 L1833.56 72.576 L1833.56 9.54393 L1841.05 9.54393 L1841.05 34.2544 Q1843.72 30.163 1847.33 28.1376 Q1850.98 26.1121 1855.71 26.1121 Q1863.53 26.1121 1867.54 30.9732 Q1871.55 35.7938 1871.55 45.1919 Z" fill="#000000" fill-rule="nonzero" fill-opacity="1"></path><path clip-path="url(#clip020)" d="M1904.73 12.096 L1955.89 12.096 L1955.89 18.9825 L1934.42 18.9825 L1934.42 72.576 L1926.2 72.576 L1926.2 18.9825 L1904.73 18.9825 L1904.73 12.096 Z" fill="#000000" fill-rule="nonzero" fill-opacity="1"></path><path clip-path="url(#clip020)" d="M1964.44 34.9026 L2016.37 34.9026 L2016.37 41.7081 L1964.44 41.7081 L1964.44 34.9026 M1964.44 51.4303 L2016.37 51.4303 L2016.37 58.3168 L1964.44 58.3168 L1964.44 51.4303 Z" fill="#000000" fill-rule="nonzero" fill-opacity="1"></path><path clip-path="url(#clip020)" d="M2051.54 17.4837 Q2045.22 17.4837 2042.02 23.7221 Q2038.86 29.92 2038.86 42.3968 Q2038.86 54.833 2042.02 61.0714 Q2045.22 67.2693 2051.54 67.2693 Q2057.9 67.2693 2061.06 61.0714 Q2064.26 54.833 2064.26 42.3968 Q2064.26 29.92 2061.06 23.7221 Q2057.9 17.4837 2051.54 17.4837 M2051.54 11.0023 Q2061.7 11.0023 2067.05 19.0636 Q2072.44 27.0843 2072.44 42.3968 Q2072.44 57.6687 2067.05 65.73 Q2061.7 73.7508 2051.54 73.7508 Q2041.37 73.7508 2035.98 65.73 Q2030.63 57.6687 2030.63 42.3968 Q2030.63 27.0843 2035.98 19.0636 Q2041.37 11.0023 2051.54 11.0023 Z" fill="#000000" fill-rule="nonzero" fill-opacity="1"></path><path clip-path="url(#clip020)" d="M2086.82 62.2867 L2095.37 62.2867 L2095.37 72.576 L2086.82 72.576 L2086.82 62.2867 Z" fill="#000000" fill-rule="nonzero" fill-opacity="1"></path><path clip-path="url(#clip020)" d="M2114.61 65.6895 L2127.98 65.6895 L2127.98 19.5497 L2113.43 22.4663 L2113.43 15.0127 L2127.9 12.096 L2136.08 12.096 L2136.08 65.6895 L2149.45 65.6895 L2149.45 72.576 L2114.61 72.576 L2114.61 65.6895 Z" fill="#000000" fill-rule="nonzero" fill-opacity="1"></path><polyline clip-path="url(#clip022)" style="stroke:#009af9; stroke-linecap:round; stroke-linejoin:round; stroke-width:4; stroke-opacity:1; fill:none" points="264.778,1386.4 576.65,1262.63 888.521,1122.46 1200.39,994.215 1512.26,877.217 1824.13,748.896 2136.01,619.844 "></polyline>
<polyline clip-path="url(#clip022)" style="stroke:#e26f46; stroke-linecap:round; stroke-linejoin:round; stroke-width:4; stroke-opacity:1; fill:none" points="264.778,1374.93 576.65,1374.87 888.521,1374.55 1200.39,1372.28 1512.26,1364.92 1824.13,1350.39 2136.01,1337.99 "></polyline>
<polyline clip-path="url(#clip022)" style="stroke:#3da44d; stroke-linecap:round; stroke-linejoin:round; stroke-width:4; stroke-opacity:1; fill:none" points="420.714,1141.05 888.521,900.027 1356.33,655.239 1824.13,408.343 2291.94,160.256 "></polyline>
<path clip-path="url(#clip020)" d="M275.59 374.156 L717.875 374.156 L717.875 166.796 L275.59 166.796  Z" fill="#ffffff" fill-rule="evenodd" fill-opacity="1"></path>
<polyline clip-path="url(#clip020)" style="stroke:#000000; stroke-linecap:round; stroke-linejoin:round; stroke-width:4; stroke-opacity:1; fill:none" points="275.59,374.156 717.875,374.156 717.875,166.796 275.59,166.796 275.59,374.156 "></polyline>
<polyline clip-path="url(#clip020)" style="stroke:#009af9; stroke-linecap:round; stroke-linejoin:round; stroke-width:4; stroke-opacity:1; fill:none" points="299.465,218.636 442.718,218.636 "></polyline>
<path clip-path="url(#clip020)" d="M474.001 202.629 L474.001 209.99 L482.774 209.99 L482.774 213.3 L474.001 213.3 L474.001 227.374 Q474.001 230.545 474.858 231.448 Q475.737 232.351 478.399 232.351 L482.774 232.351 L482.774 235.916 L478.399 235.916 Q473.469 235.916 471.594 234.087 Q469.719 232.235 469.719 227.374 L469.719 213.3 L466.594 213.3 L466.594 209.99 L469.719 209.99 L469.719 202.629 L474.001 202.629 Z" fill="#000000" fill-rule="nonzero" fill-opacity="1"></path><path clip-path="url(#clip020)" d="M503.399 213.971 Q502.682 213.555 501.825 213.37 Q500.992 213.161 499.973 213.161 Q496.362 213.161 494.418 215.522 Q492.496 217.86 492.496 222.258 L492.496 235.916 L488.214 235.916 L488.214 209.99 L492.496 209.99 L492.496 214.018 Q493.839 211.657 495.992 210.522 Q498.145 209.365 501.223 209.365 Q501.663 209.365 502.195 209.434 Q502.728 209.481 503.376 209.596 L503.399 213.971 Z" fill="#000000" fill-rule="nonzero" fill-opacity="1"></path><path clip-path="url(#clip020)" d="M507.867 209.99 L512.126 209.99 L512.126 235.916 L507.867 235.916 L507.867 209.99 M507.867 199.897 L512.126 199.897 L512.126 205.291 L507.867 205.291 L507.867 199.897 Z" fill="#000000" fill-rule="nonzero" fill-opacity="1"></path><path clip-path="url(#clip020)" d="M532.82 222.883 Q527.658 222.883 525.668 224.064 Q523.677 225.244 523.677 228.092 Q523.677 230.36 525.158 231.703 Q526.663 233.022 529.232 233.022 Q532.774 233.022 534.904 230.522 Q537.056 227.999 537.056 223.832 L537.056 222.883 L532.82 222.883 M541.316 221.124 L541.316 235.916 L537.056 235.916 L537.056 231.981 Q535.598 234.342 533.422 235.476 Q531.246 236.587 528.098 236.587 Q524.117 236.587 521.755 234.365 Q519.418 232.119 519.418 228.369 Q519.418 223.994 522.334 221.772 Q525.274 219.55 531.084 219.55 L537.056 219.55 L537.056 219.133 Q537.056 216.194 535.112 214.596 Q533.191 212.976 529.695 212.976 Q527.473 212.976 525.367 213.508 Q523.26 214.041 521.316 215.106 L521.316 211.17 Q523.654 210.268 525.853 209.828 Q528.052 209.365 530.135 209.365 Q535.76 209.365 538.538 212.282 Q541.316 215.198 541.316 221.124 Z" fill="#000000" fill-rule="nonzero" fill-opacity="1"></path><path clip-path="url(#clip020)" d="M571.639 220.268 L571.639 235.916 L567.38 235.916 L567.38 220.407 Q567.38 216.726 565.945 214.897 Q564.51 213.069 561.64 213.069 Q558.19 213.069 556.2 215.268 Q554.209 217.467 554.209 221.263 L554.209 235.916 L549.927 235.916 L549.927 209.99 L554.209 209.99 L554.209 214.018 Q555.737 211.68 557.797 210.522 Q559.88 209.365 562.589 209.365 Q567.056 209.365 569.348 212.143 Q571.639 214.897 571.639 220.268 Z" fill="#000000" fill-rule="nonzero" fill-opacity="1"></path><path clip-path="url(#clip020)" d="M597.195 222.652 Q597.195 218.022 595.274 215.476 Q593.375 212.93 589.926 212.93 Q586.501 212.93 584.579 215.476 Q582.681 218.022 582.681 222.652 Q582.681 227.258 584.579 229.805 Q586.501 232.351 589.926 232.351 Q593.375 232.351 595.274 229.805 Q597.195 227.258 597.195 222.652 M601.454 232.698 Q601.454 239.318 598.514 242.536 Q595.575 245.777 589.51 245.777 Q587.264 245.777 585.274 245.43 Q583.283 245.105 581.408 244.411 L581.408 240.268 Q583.283 241.286 585.112 241.772 Q586.94 242.258 588.838 242.258 Q593.028 242.258 595.112 240.059 Q597.195 237.883 597.195 233.462 L597.195 231.356 Q595.875 233.647 593.815 234.781 Q591.755 235.916 588.885 235.916 Q584.116 235.916 581.2 232.281 Q578.283 228.647 578.283 222.652 Q578.283 216.633 581.2 212.999 Q584.116 209.365 588.885 209.365 Q591.755 209.365 593.815 210.499 Q595.875 211.633 597.195 213.925 L597.195 209.99 L601.454 209.99 L601.454 232.698 Z" fill="#000000" fill-rule="nonzero" fill-opacity="1"></path><path clip-path="url(#clip020)" d="M610.227 199.897 L614.486 199.897 L614.486 235.916 L610.227 235.916 L610.227 199.897 Z" fill="#000000" fill-rule="nonzero" fill-opacity="1"></path><path clip-path="url(#clip020)" d="M645.574 221.888 L645.574 223.971 L625.991 223.971 Q626.269 228.369 628.63 230.684 Q631.014 232.976 635.25 232.976 Q637.704 232.976 639.996 232.374 Q642.31 231.772 644.579 230.569 L644.579 234.596 Q642.287 235.568 639.88 236.078 Q637.472 236.587 634.996 236.587 Q628.792 236.587 625.158 232.976 Q621.547 229.365 621.547 223.207 Q621.547 216.842 624.973 213.115 Q628.422 209.365 634.255 209.365 Q639.486 209.365 642.519 212.745 Q645.574 216.101 645.574 221.888 M641.315 220.638 Q641.269 217.143 639.347 215.059 Q637.449 212.976 634.301 212.976 Q630.736 212.976 628.584 214.99 Q626.454 217.004 626.13 220.661 L641.315 220.638 Z" fill="#000000" fill-rule="nonzero" fill-opacity="1"></path><path clip-path="url(#clip020)" d="M669.093 210.754 L669.093 214.782 Q667.287 213.856 665.343 213.393 Q663.398 212.93 661.315 212.93 Q658.144 212.93 656.546 213.902 Q654.972 214.874 654.972 216.819 Q654.972 218.3 656.107 219.157 Q657.241 219.99 660.667 220.754 L662.125 221.078 Q666.662 222.05 668.56 223.832 Q670.482 225.592 670.482 228.763 Q670.482 232.374 667.611 234.481 Q664.764 236.587 659.764 236.587 Q657.681 236.587 655.412 236.17 Q653.167 235.777 650.667 234.967 L650.667 230.569 Q653.028 231.795 655.32 232.42 Q657.611 233.022 659.857 233.022 Q662.866 233.022 664.486 232.004 Q666.107 230.962 666.107 229.087 Q666.107 227.351 664.926 226.425 Q663.769 225.499 659.81 224.643 L658.329 224.295 Q654.371 223.462 652.611 221.749 Q650.852 220.013 650.852 217.004 Q650.852 213.346 653.445 211.356 Q656.037 209.365 660.806 209.365 Q663.167 209.365 665.25 209.712 Q667.333 210.059 669.093 210.754 Z" fill="#000000" fill-rule="nonzero" fill-opacity="1"></path><polyline clip-path="url(#clip020)" style="stroke:#e26f46; stroke-linecap:round; stroke-linejoin:round; stroke-width:4; stroke-opacity:1; fill:none" points="299.465,270.476 442.718,270.476 "></polyline>
<path clip-path="url(#clip020)" d="M485.02 262.594 L485.02 266.622 Q483.214 265.696 481.27 265.233 Q479.325 264.77 477.242 264.77 Q474.071 264.77 472.473 265.742 Q470.899 266.714 470.899 268.659 Q470.899 270.14 472.034 270.997 Q473.168 271.83 476.594 272.594 L478.052 272.918 Q482.589 273.89 484.487 275.672 Q486.408 277.432 486.408 280.603 Q486.408 284.214 483.538 286.321 Q480.691 288.427 475.691 288.427 Q473.608 288.427 471.339 288.01 Q469.094 287.617 466.594 286.807 L466.594 282.409 Q468.955 283.635 471.247 284.26 Q473.538 284.862 475.784 284.862 Q478.793 284.862 480.413 283.844 Q482.033 282.802 482.033 280.927 Q482.033 279.191 480.853 278.265 Q479.696 277.339 475.737 276.483 L474.256 276.135 Q470.297 275.302 468.538 273.589 Q466.779 271.853 466.779 268.844 Q466.779 265.186 469.372 263.196 Q471.964 261.205 476.733 261.205 Q479.094 261.205 481.177 261.552 Q483.26 261.899 485.02 262.594 Z" fill="#000000" fill-rule="nonzero" fill-opacity="1"></path><path clip-path="url(#clip020)" d="M495.737 274.816 Q495.737 279.515 497.658 282.2 Q499.603 284.862 502.982 284.862 Q506.362 284.862 508.306 282.2 Q510.251 279.515 510.251 274.816 Q510.251 270.117 508.306 267.455 Q506.362 264.77 502.982 264.77 Q499.603 264.77 497.658 267.455 Q495.737 270.117 495.737 274.816 M510.251 283.867 Q508.908 286.182 506.848 287.316 Q504.811 288.427 501.941 288.427 Q497.242 288.427 494.279 284.677 Q491.339 280.927 491.339 274.816 Q491.339 268.705 494.279 264.955 Q497.242 261.205 501.941 261.205 Q504.811 261.205 506.848 262.339 Q508.908 263.45 510.251 265.765 L510.251 261.83 L514.51 261.83 L514.51 297.617 L510.251 297.617 L510.251 283.867 Z" fill="#000000" fill-rule="nonzero" fill-opacity="1"></path><path clip-path="url(#clip020)" d="M522.843 277.524 L522.843 261.83 L527.103 261.83 L527.103 277.362 Q527.103 281.043 528.538 282.895 Q529.973 284.723 532.843 284.723 Q536.292 284.723 538.283 282.524 Q540.297 280.325 540.297 276.529 L540.297 261.83 L544.556 261.83 L544.556 287.756 L540.297 287.756 L540.297 283.774 Q538.746 286.135 536.686 287.293 Q534.649 288.427 531.941 288.427 Q527.473 288.427 525.158 285.649 Q522.843 282.871 522.843 277.524 M533.561 261.205 L533.561 261.205 Z" fill="#000000" fill-rule="nonzero" fill-opacity="1"></path><path clip-path="url(#clip020)" d="M565.112 274.723 Q559.95 274.723 557.959 275.904 Q555.968 277.084 555.968 279.932 Q555.968 282.2 557.45 283.543 Q558.954 284.862 561.524 284.862 Q565.065 284.862 567.195 282.362 Q569.348 279.839 569.348 275.672 L569.348 274.723 L565.112 274.723 M573.607 272.964 L573.607 287.756 L569.348 287.756 L569.348 283.821 Q567.89 286.182 565.714 287.316 Q563.538 288.427 560.39 288.427 Q556.408 288.427 554.047 286.205 Q551.709 283.959 551.709 280.209 Q551.709 275.834 554.626 273.612 Q557.565 271.39 563.376 271.39 L569.348 271.39 L569.348 270.973 Q569.348 268.034 567.403 266.436 Q565.482 264.816 561.987 264.816 Q559.765 264.816 557.658 265.348 Q555.552 265.881 553.607 266.946 L553.607 263.01 Q555.945 262.108 558.144 261.668 Q560.343 261.205 562.427 261.205 Q568.052 261.205 570.829 264.122 Q573.607 267.038 573.607 272.964 Z" fill="#000000" fill-rule="nonzero" fill-opacity="1"></path><path clip-path="url(#clip020)" d="M597.403 265.811 Q596.686 265.395 595.829 265.21 Q594.996 265.001 593.977 265.001 Q590.366 265.001 588.422 267.362 Q586.501 269.7 586.501 274.098 L586.501 287.756 L582.218 287.756 L582.218 261.83 L586.501 261.83 L586.501 265.858 Q587.843 263.497 589.996 262.362 Q592.149 261.205 595.227 261.205 Q595.667 261.205 596.2 261.274 Q596.732 261.321 597.38 261.436 L597.403 265.811 Z" fill="#000000" fill-rule="nonzero" fill-opacity="1"></path><path clip-path="url(#clip020)" d="M623.005 273.728 L623.005 275.811 L603.422 275.811 Q603.699 280.209 606.061 282.524 Q608.445 284.816 612.681 284.816 Q615.135 284.816 617.426 284.214 Q619.741 283.612 622.01 282.409 L622.01 286.436 Q619.718 287.408 617.311 287.918 Q614.903 288.427 612.426 288.427 Q606.223 288.427 602.588 284.816 Q598.977 281.205 598.977 275.047 Q598.977 268.682 602.403 264.955 Q605.852 261.205 611.686 261.205 Q616.917 261.205 619.949 264.585 Q623.005 267.941 623.005 273.728 M618.746 272.478 Q618.699 268.983 616.778 266.899 Q614.88 264.816 611.732 264.816 Q608.167 264.816 606.014 266.83 Q603.885 268.844 603.561 272.501 L618.746 272.478 Z" fill="#000000" fill-rule="nonzero" fill-opacity="1"></path><path clip-path="url(#clip020)" d="M646.523 262.594 L646.523 266.622 Q644.718 265.696 642.773 265.233 Q640.829 264.77 638.746 264.77 Q635.574 264.77 633.977 265.742 Q632.403 266.714 632.403 268.659 Q632.403 270.14 633.537 270.997 Q634.672 271.83 638.097 272.594 L639.556 272.918 Q644.093 273.89 645.991 275.672 Q647.912 277.432 647.912 280.603 Q647.912 284.214 645.042 286.321 Q642.195 288.427 637.195 288.427 Q635.111 288.427 632.843 288.01 Q630.597 287.617 628.098 286.807 L628.098 282.409 Q630.459 283.635 632.75 284.26 Q635.042 284.862 637.287 284.862 Q640.297 284.862 641.917 283.844 Q643.537 282.802 643.537 280.927 Q643.537 279.191 642.357 278.265 Q641.199 277.339 637.241 276.483 L635.76 276.135 Q631.801 275.302 630.042 273.589 Q628.283 271.853 628.283 268.844 Q628.283 265.186 630.875 263.196 Q633.468 261.205 638.236 261.205 Q640.597 261.205 642.681 261.552 Q644.764 261.899 646.523 262.594 Z" fill="#000000" fill-rule="nonzero" fill-opacity="1"></path><polyline clip-path="url(#clip020)" style="stroke:#3da44d; stroke-linecap:round; stroke-linejoin:round; stroke-width:4; stroke-opacity:1; fill:none" points="299.465,322.316 442.718,322.316 "></polyline>
<path clip-path="url(#clip020)" d="M485.506 317.605 L485.506 303.577 L489.765 303.577 L489.765 339.596 L485.506 339.596 L485.506 335.707 Q484.163 338.022 482.103 339.156 Q480.066 340.267 477.196 340.267 Q472.496 340.267 469.534 336.517 Q466.594 332.767 466.594 326.656 Q466.594 320.545 469.534 316.795 Q472.496 313.045 477.196 313.045 Q480.066 313.045 482.103 314.179 Q484.163 315.29 485.506 317.605 M470.992 326.656 Q470.992 331.355 472.913 334.04 Q474.858 336.702 478.237 336.702 Q481.617 336.702 483.561 334.04 Q485.506 331.355 485.506 326.656 Q485.506 321.957 483.561 319.295 Q481.617 316.61 478.237 316.61 Q474.858 316.61 472.913 319.295 Q470.992 321.957 470.992 326.656 Z" fill="#000000" fill-rule="nonzero" fill-opacity="1"></path><path clip-path="url(#clip020)" d="M498.538 313.67 L502.797 313.67 L502.797 339.596 L498.538 339.596 L498.538 313.67 M498.538 303.577 L502.797 303.577 L502.797 308.971 L498.538 308.971 L498.538 303.577 Z" fill="#000000" fill-rule="nonzero" fill-opacity="1"></path><path clip-path="url(#clip020)" d="M523.492 326.563 Q518.33 326.563 516.339 327.744 Q514.348 328.924 514.348 331.772 Q514.348 334.04 515.83 335.383 Q517.334 336.702 519.904 336.702 Q523.445 336.702 525.575 334.202 Q527.728 331.679 527.728 327.512 L527.728 326.563 L523.492 326.563 M531.987 324.804 L531.987 339.596 L527.728 339.596 L527.728 335.661 Q526.269 338.022 524.093 339.156 Q521.918 340.267 518.769 340.267 Q514.788 340.267 512.427 338.045 Q510.089 335.799 510.089 332.049 Q510.089 327.674 513.006 325.452 Q515.945 323.23 521.755 323.23 L527.728 323.23 L527.728 322.813 Q527.728 319.874 525.783 318.276 Q523.862 316.656 520.367 316.656 Q518.144 316.656 516.038 317.188 Q513.931 317.721 511.987 318.786 L511.987 314.85 Q514.325 313.948 516.524 313.508 Q518.723 313.045 520.806 313.045 Q526.431 313.045 529.209 315.962 Q531.987 318.878 531.987 324.804 Z" fill="#000000" fill-rule="nonzero" fill-opacity="1"></path><path clip-path="url(#clip020)" d="M560.945 318.647 Q562.542 315.776 564.765 314.411 Q566.987 313.045 569.996 313.045 Q574.047 313.045 576.246 315.892 Q578.445 318.716 578.445 323.948 L578.445 339.596 L574.163 339.596 L574.163 324.087 Q574.163 320.36 572.843 318.554 Q571.524 316.749 568.815 316.749 Q565.505 316.749 563.584 318.948 Q561.663 321.147 561.663 324.943 L561.663 339.596 L557.38 339.596 L557.38 324.087 Q557.38 320.337 556.061 318.554 Q554.741 316.749 551.987 316.749 Q548.723 316.749 546.802 318.971 Q544.88 321.17 544.88 324.943 L544.88 339.596 L540.598 339.596 L540.598 313.67 L544.88 313.67 L544.88 317.698 Q546.339 315.313 548.376 314.179 Q550.413 313.045 553.214 313.045 Q556.038 313.045 558.005 314.48 Q559.996 315.915 560.945 318.647 Z" fill="#000000" fill-rule="nonzero" fill-opacity="1"></path><path clip-path="url(#clip020)" d="M596.987 316.656 Q593.561 316.656 591.57 319.341 Q589.579 322.003 589.579 326.656 Q589.579 331.309 591.547 333.994 Q593.538 336.656 596.987 336.656 Q600.389 336.656 602.38 333.971 Q604.371 331.286 604.371 326.656 Q604.371 322.05 602.38 319.364 Q600.389 316.656 596.987 316.656 M596.987 313.045 Q602.542 313.045 605.713 316.656 Q608.885 320.267 608.885 326.656 Q608.885 333.022 605.713 336.656 Q602.542 340.267 596.987 340.267 Q591.408 340.267 588.237 336.656 Q585.088 333.022 585.088 326.656 Q585.088 320.267 588.237 316.656 Q591.408 313.045 596.987 313.045 Z" fill="#000000" fill-rule="nonzero" fill-opacity="1"></path><path clip-path="url(#clip020)" d="M637.496 323.948 L637.496 339.596 L633.236 339.596 L633.236 324.087 Q633.236 320.406 631.801 318.577 Q630.366 316.749 627.496 316.749 Q624.047 316.749 622.056 318.948 Q620.065 321.147 620.065 324.943 L620.065 339.596 L615.783 339.596 L615.783 313.67 L620.065 313.67 L620.065 317.698 Q621.593 315.36 623.653 314.202 Q625.736 313.045 628.445 313.045 Q632.912 313.045 635.204 315.823 Q637.496 318.577 637.496 323.948 Z" fill="#000000" fill-rule="nonzero" fill-opacity="1"></path><path clip-path="url(#clip020)" d="M663.051 317.605 L663.051 303.577 L667.31 303.577 L667.31 339.596 L663.051 339.596 L663.051 335.707 Q661.708 338.022 659.648 339.156 Q657.611 340.267 654.741 340.267 Q650.042 340.267 647.079 336.517 Q644.139 332.767 644.139 326.656 Q644.139 320.545 647.079 316.795 Q650.042 313.045 654.741 313.045 Q657.611 313.045 659.648 314.179 Q661.708 315.29 663.051 317.605 M648.537 326.656 Q648.537 331.355 650.459 334.04 Q652.403 336.702 655.783 336.702 Q659.162 336.702 661.107 334.04 Q663.051 331.355 663.051 326.656 Q663.051 321.957 661.107 319.295 Q659.162 316.61 655.783 316.61 Q652.403 316.61 650.459 319.295 Q648.537 321.957 648.537 326.656 Z" fill="#000000" fill-rule="nonzero" fill-opacity="1"></path><path clip-path="url(#clip020)" d="M692.611 314.434 L692.611 318.462 Q690.806 317.536 688.861 317.073 Q686.917 316.61 684.833 316.61 Q681.662 316.61 680.065 317.582 Q678.491 318.554 678.491 320.499 Q678.491 321.98 679.625 322.837 Q680.759 323.67 684.185 324.434 L685.643 324.758 Q690.181 325.73 692.079 327.512 Q694 329.272 694 332.443 Q694 336.054 691.13 338.161 Q688.282 340.267 683.282 340.267 Q681.199 340.267 678.931 339.85 Q676.685 339.457 674.185 338.647 L674.185 334.249 Q676.546 335.475 678.838 336.1 Q681.13 336.702 683.375 336.702 Q686.384 336.702 688.005 335.684 Q689.625 334.642 689.625 332.767 Q689.625 331.031 688.444 330.105 Q687.287 329.179 683.329 328.323 L681.847 327.975 Q677.889 327.142 676.13 325.429 Q674.37 323.693 674.37 320.684 Q674.37 317.026 676.963 315.036 Q679.556 313.045 684.324 313.045 Q686.685 313.045 688.768 313.392 Q690.852 313.739 692.611 314.434 Z" fill="#000000" fill-rule="nonzero" fill-opacity="1"></path></svg>