<svg xmlns="http://www.w3.org/2000/svg" xmlns:xlink="http://www.w3.org/1999/xlink" width="600" height="400" viewBox="0 0 2400 1600">
<defs>
  <clipPath id="clip640">
    <rect x="0" y="0" width="2400" height="1600"></rect>
  </clipPath>
</defs>
<path clip-path="url(#clip640)" d="M0 1600 L2400 1600 L2400 8.88178e-14 L0 8.88178e-14  Z" fill="#ffffff" fill-rule="evenodd" fill-opacity="1"></path>
<defs>
  <clipPath id="clip641">
    <rect x="480" y="0" width="1681" height="1600"></rect>
  </clipPath>
</defs>
<path clip-path="url(#clip640)" d="M276.876 1423.18 L2352.76 1423.18 L2352.76 123.472 L276.876 123.472  Z" fill="#ffffff" fill-rule="evenodd" fill-opacity="1"></path>
<defs>
  <clipPath id="clip642">
    <rect x="276" y="123" width="2077" height="1301"></rect>
  </clipPath>
</defs>
<polyline clip-path="url(#clip642)" style="stroke:#000000; stroke-linecap:round; stroke-linejoin:round; stroke-width:2; stroke-opacity:0.1; fill:none" points="498.825,1423.18 498.825,123.472 "></polyline>
<polyline clip-path="url(#clip642)" style="stroke:#000000; stroke-linecap:round; stroke-linejoin:round; stroke-width:2; stroke-opacity:0.1; fill:none" points="770.822,1423.18 770.822,123.472 "></polyline>
<polyline clip-path="url(#clip642)" style="stroke:#000000; stroke-linecap:round; stroke-linejoin:round; stroke-width:2; stroke-opacity:0.1; fill:none" points="1042.82,1423.18 1042.82,123.472 "></polyline>
<polyline clip-path="url(#clip642)" style="stroke:#000000; stroke-linecap:round; stroke-linejoin:round; stroke-width:2; stroke-opacity:0.1; fill:none" points="1314.82,1423.18 1314.82,123.472 "></polyline>
<polyline clip-path="url(#clip642)" style="stroke:#000000; stroke-linecap:round; stroke-linejoin:round; stroke-width:2; stroke-opacity:0.1; fill:none" points="1586.81,1423.18 1586.81,123.472 "></polyline>
<polyline clip-path="url(#clip642)" style="stroke:#000000; stroke-linecap:round; stroke-linejoin:round; stroke-width:2; stroke-opacity:0.1; fill:none" points="1858.81,1423.18 1858.81,123.472 "></polyline>
<polyline clip-path="url(#clip642)" style="stroke:#000000; stroke-linecap:round; stroke-linejoin:round; stroke-width:2; stroke-opacity:0.1; fill:none" points="2130.81,1423.18 2130.81,123.472 "></polyline>
<polyline clip-path="url(#clip642)" style="stroke:#000000; stroke-linecap:round; stroke-linejoin:round; stroke-width:2; stroke-opacity:0.1; fill:none" points="276.876,1049.14 2352.76,1049.14 "></polyline>
<polyline clip-path="url(#clip642)" style="stroke:#000000; stroke-linecap:round; stroke-linejoin:round; stroke-width:2; stroke-opacity:0.1; fill:none" points="276.876,526.067 2352.76,526.067 "></polyline>
<polyline clip-path="url(#clip640)" style="stroke:#000000; stroke-linecap:round; stroke-linejoin:round; stroke-width:4; stroke-opacity:1; fill:none" points="276.876,1423.18 2352.76,1423.18 "></polyline>
<polyline clip-path="url(#clip640)" style="stroke:#000000; stroke-linecap:round; stroke-linejoin:round; stroke-width:4; stroke-opacity:1; fill:none" points="498.825,1423.18 498.825,1404.28 "></polyline>
<polyline clip-path="url(#clip640)" style="stroke:#000000; stroke-linecap:round; stroke-linejoin:round; stroke-width:4; stroke-opacity:1; fill:none" points="770.822,1423.18 770.822,1404.28 "></polyline>
<polyline clip-path="url(#clip640)" style="stroke:#000000; stroke-linecap:round; stroke-linejoin:round; stroke-width:4; stroke-opacity:1; fill:none" points="1042.82,1423.18 1042.82,1404.28 "></polyline>
<polyline clip-path="url(#clip640)" style="stroke:#000000; stroke-linecap:round; stroke-linejoin:round; stroke-width:4; stroke-opacity:1; fill:none" points="1314.82,1423.18 1314.82,1404.28 "></polyline>
<polyline clip-path="url(#clip640)" style="stroke:#000000; stroke-linecap:round; stroke-linejoin:round; stroke-width:4; stroke-opacity:1; fill:none" points="1586.81,1423.18 1586.81,1404.28 "></polyline>
<polyline clip-path="url(#clip640)" style="stroke:#000000; stroke-linecap:round; stroke-linejoin:round; stroke-width:4; stroke-opacity:1; fill:none" points="1858.81,1423.18 1858.81,1404.28 "></polyline>
<polyline clip-path="url(#clip640)" style="stroke:#000000; stroke-linecap:round; stroke-linejoin:round; stroke-width:4; stroke-opacity:1; fill:none" points="2130.81,1423.18 2130.81,1404.28 "></polyline>
<path clip-path="url(#clip640)" d="M461.626 1454.1 Q458.015 1454.1 456.186 1457.66 Q454.381 1461.2 454.381 1468.33 Q454.381 1475.44 456.186 1479.01 Q458.015 1482.55 461.626 1482.55 Q465.26 1482.55 467.066 1479.01 Q468.895 1475.44 468.895 1468.33 Q468.895 1461.2 467.066 1457.66 Q465.26 1454.1 461.626 1454.1 M461.626 1450.39 Q467.436 1450.39 470.492 1455 Q473.57 1459.58 473.57 1468.33 Q473.57 1477.06 470.492 1481.67 Q467.436 1486.25 461.626 1486.25 Q455.816 1486.25 452.737 1481.67 Q449.682 1477.06 449.682 1468.33 Q449.682 1459.58 452.737 1455 Q455.816 1450.39 461.626 1450.39 Z" fill="#000000" fill-rule="nonzero" fill-opacity="1"></path><path clip-path="url(#clip640)" d="M481.788 1479.7 L486.672 1479.7 L486.672 1485.58 L481.788 1485.58 L481.788 1479.7 Z" fill="#000000" fill-rule="nonzero" fill-opacity="1"></path><path clip-path="url(#clip640)" d="M500.885 1481.64 L517.205 1481.64 L517.205 1485.58 L495.26 1485.58 L495.26 1481.64 Q497.922 1478.89 502.506 1474.26 Q507.112 1469.61 508.293 1468.27 Q510.538 1465.74 511.418 1464.01 Q512.32 1462.25 512.32 1460.56 Q512.32 1457.8 510.376 1456.07 Q508.455 1454.33 505.353 1454.33 Q503.154 1454.33 500.7 1455.09 Q498.269 1455.86 495.492 1457.41 L495.492 1452.69 Q498.316 1451.55 500.769 1450.97 Q503.223 1450.39 505.26 1450.39 Q510.63 1450.39 513.825 1453.08 Q517.019 1455.77 517.019 1460.26 Q517.019 1462.39 516.209 1464.31 Q515.422 1466.2 513.316 1468.8 Q512.737 1469.47 509.635 1472.69 Q506.533 1475.88 500.885 1481.64 Z" fill="#000000" fill-rule="nonzero" fill-opacity="1"></path><path clip-path="url(#clip640)" d="M527.066 1451.02 L545.422 1451.02 L545.422 1454.96 L531.348 1454.96 L531.348 1463.43 Q532.366 1463.08 533.385 1462.92 Q534.403 1462.73 535.422 1462.73 Q541.209 1462.73 544.589 1465.9 Q547.968 1469.08 547.968 1474.49 Q547.968 1480.07 544.496 1483.17 Q541.024 1486.25 534.704 1486.25 Q532.529 1486.25 530.26 1485.88 Q528.015 1485.51 525.607 1484.77 L525.607 1480.07 Q527.691 1481.2 529.913 1481.76 Q532.135 1482.32 534.612 1482.32 Q538.616 1482.32 540.954 1480.21 Q543.292 1478.1 543.292 1474.49 Q543.292 1470.88 540.954 1468.77 Q538.616 1466.67 534.612 1466.67 Q532.737 1466.67 530.862 1467.08 Q529.01 1467.5 527.066 1468.38 L527.066 1451.02 Z" fill="#000000" fill-rule="nonzero" fill-opacity="1"></path><path clip-path="url(#clip640)" d="M733.125 1454.1 Q729.514 1454.1 727.686 1457.66 Q725.88 1461.2 725.88 1468.33 Q725.88 1475.44 727.686 1479.01 Q729.514 1482.55 733.125 1482.55 Q736.76 1482.55 738.565 1479.01 Q740.394 1475.44 740.394 1468.33 Q740.394 1461.2 738.565 1457.66 Q736.76 1454.1 733.125 1454.1 M733.125 1450.39 Q738.935 1450.39 741.991 1455 Q745.07 1459.58 745.07 1468.33 Q745.07 1477.06 741.991 1481.67 Q738.935 1486.25 733.125 1486.25 Q727.315 1486.25 724.236 1481.67 Q721.181 1477.06 721.181 1468.33 Q721.181 1459.58 724.236 1455 Q727.315 1450.39 733.125 1450.39 Z" fill="#000000" fill-rule="nonzero" fill-opacity="1"></path><path clip-path="url(#clip640)" d="M753.287 1479.7 L758.171 1479.7 L758.171 1485.58 L753.287 1485.58 L753.287 1479.7 Z" fill="#000000" fill-rule="nonzero" fill-opacity="1"></path><path clip-path="url(#clip640)" d="M768.403 1451.02 L786.759 1451.02 L786.759 1454.96 L772.685 1454.96 L772.685 1463.43 Q773.704 1463.08 774.722 1462.92 Q775.741 1462.73 776.759 1462.73 Q782.546 1462.73 785.926 1465.9 Q789.306 1469.08 789.306 1474.49 Q789.306 1480.07 785.833 1483.17 Q782.361 1486.25 776.042 1486.25 Q773.866 1486.25 771.597 1485.88 Q769.352 1485.51 766.945 1484.77 L766.945 1480.07 Q769.028 1481.2 771.25 1481.76 Q773.472 1482.32 775.949 1482.32 Q779.954 1482.32 782.292 1480.21 Q784.63 1478.1 784.63 1474.49 Q784.63 1470.88 782.292 1468.77 Q779.954 1466.67 775.949 1466.67 Q774.074 1466.67 772.199 1467.08 Q770.347 1467.5 768.403 1468.38 L768.403 1451.02 Z" fill="#000000" fill-rule="nonzero" fill-opacity="1"></path><path clip-path="url(#clip640)" d="M808.518 1454.1 Q804.907 1454.1 803.079 1457.66 Q801.273 1461.2 801.273 1468.33 Q801.273 1475.44 803.079 1479.01 Q804.907 1482.55 808.518 1482.55 Q812.153 1482.55 813.958 1479.01 Q815.787 1475.44 815.787 1468.33 Q815.787 1461.2 813.958 1457.66 Q812.153 1454.1 808.518 1454.1 M808.518 1450.39 Q814.329 1450.39 817.384 1455 Q820.463 1459.58 820.463 1468.33 Q820.463 1477.06 817.384 1481.67 Q814.329 1486.25 808.518 1486.25 Q802.708 1486.25 799.63 1481.67 Q796.574 1477.06 796.574 1468.33 Q796.574 1459.58 799.63 1455 Q802.708 1450.39 808.518 1450.39 Z" fill="#000000" fill-rule="nonzero" fill-opacity="1"></path><path clip-path="url(#clip640)" d="M1005.62 1454.1 Q1002.01 1454.1 1000.18 1457.66 Q998.375 1461.2 998.375 1468.33 Q998.375 1475.44 1000.18 1479.01 Q1002.01 1482.55 1005.62 1482.55 Q1009.25 1482.55 1011.06 1479.01 Q1012.89 1475.44 1012.89 1468.33 Q1012.89 1461.2 1011.06 1457.66 Q1009.25 1454.1 1005.62 1454.1 M1005.62 1450.39 Q1011.43 1450.39 1014.49 1455 Q1017.56 1459.58 1017.56 1468.33 Q1017.56 1477.06 1014.49 1481.67 Q1011.43 1486.25 1005.62 1486.25 Q999.81 1486.25 996.731 1481.67 Q993.676 1477.06 993.676 1468.33 Q993.676 1459.58 996.731 1455 Q999.81 1450.39 1005.62 1450.39 Z" fill="#000000" fill-rule="nonzero" fill-opacity="1"></path><path clip-path="url(#clip640)" d="M1025.78 1479.7 L1030.67 1479.7 L1030.67 1485.58 L1025.78 1485.58 L1025.78 1479.7 Z" fill="#000000" fill-rule="nonzero" fill-opacity="1"></path><path clip-path="url(#clip640)" d="M1039.67 1451.02 L1061.89 1451.02 L1061.89 1453.01 L1049.35 1485.58 L1044.46 1485.58 L1056.27 1454.96 L1039.67 1454.96 L1039.67 1451.02 Z" fill="#000000" fill-rule="nonzero" fill-opacity="1"></path><path clip-path="url(#clip640)" d="M1071.06 1451.02 L1089.42 1451.02 L1089.42 1454.96 L1075.34 1454.96 L1075.34 1463.43 Q1076.36 1463.08 1077.38 1462.92 Q1078.4 1462.73 1079.42 1462.73 Q1085.2 1462.73 1088.58 1465.9 Q1091.96 1469.08 1091.96 1474.49 Q1091.96 1480.07 1088.49 1483.17 Q1085.02 1486.25 1078.7 1486.25 Q1076.52 1486.25 1074.25 1485.88 Q1072.01 1485.51 1069.6 1484.77 L1069.6 1480.07 Q1071.68 1481.2 1073.91 1481.76 Q1076.13 1482.32 1078.61 1482.32 Q1082.61 1482.32 1084.95 1480.21 Q1087.29 1478.1 1087.29 1474.49 Q1087.29 1470.88 1084.95 1468.77 Q1082.61 1466.67 1078.61 1466.67 Q1076.73 1466.67 1074.86 1467.08 Q1073 1467.5 1071.06 1468.38 L1071.06 1451.02 Z" fill="#000000" fill-rule="nonzero" fill-opacity="1"></path><path clip-path="url(#clip640)" d="M1266.89 1481.64 L1274.53 1481.64 L1274.53 1455.28 L1266.22 1456.95 L1266.22 1452.69 L1274.48 1451.02 L1279.16 1451.02 L1279.16 1481.64 L1286.8 1481.64 L1286.8 1485.58 L1266.89 1485.58 L1266.89 1481.64 Z" fill="#000000" fill-rule="nonzero" fill-opacity="1"></path><path clip-path="url(#clip640)" d="M1296.24 1479.7 L1301.12 1479.7 L1301.12 1485.58 L1296.24 1485.58 L1296.24 1479.7 Z" fill="#000000" fill-rule="nonzero" fill-opacity="1"></path><path clip-path="url(#clip640)" d="M1321.31 1454.1 Q1317.7 1454.1 1315.87 1457.66 Q1314.06 1461.2 1314.06 1468.33 Q1314.06 1475.44 1315.87 1479.01 Q1317.7 1482.55 1321.31 1482.55 Q1324.94 1482.55 1326.75 1479.01 Q1328.58 1475.44 1328.58 1468.33 Q1328.58 1461.2 1326.75 1457.66 Q1324.94 1454.1 1321.31 1454.1 M1321.31 1450.39 Q1327.12 1450.39 1330.17 1455 Q1333.25 1459.58 1333.25 1468.33 Q1333.25 1477.06 1330.17 1481.67 Q1327.12 1486.25 1321.31 1486.25 Q1315.5 1486.25 1312.42 1481.67 Q1309.36 1477.06 1309.36 1468.33 Q1309.36 1459.58 1312.42 1455 Q1315.5 1450.39 1321.31 1450.39 Z" fill="#000000" fill-rule="nonzero" fill-opacity="1"></path><path clip-path="url(#clip640)" d="M1351.47 1454.1 Q1347.86 1454.1 1346.03 1457.66 Q1344.23 1461.2 1344.23 1468.33 Q1344.23 1475.44 1346.03 1479.01 Q1347.86 1482.55 1351.47 1482.55 Q1355.1 1482.55 1356.91 1479.01 Q1358.74 1475.44 1358.74 1468.33 Q1358.74 1461.2 1356.91 1457.66 Q1355.1 1454.1 1351.47 1454.1 M1351.47 1450.39 Q1357.28 1450.39 1360.34 1455 Q1363.41 1459.58 1363.41 1468.33 Q1363.41 1477.06 1360.34 1481.67 Q1357.28 1486.25 1351.47 1486.25 Q1345.66 1486.25 1342.58 1481.67 Q1339.53 1477.06 1339.53 1468.33 Q1339.53 1459.58 1342.58 1455 Q1345.66 1450.39 1351.47 1450.39 Z" fill="#000000" fill-rule="nonzero" fill-opacity="1"></path><path clip-path="url(#clip640)" d="M1539.38 1481.64 L1547.02 1481.64 L1547.02 1455.28 L1538.71 1456.95 L1538.71 1452.69 L1546.97 1451.02 L1551.65 1451.02 L1551.65 1481.64 L1559.29 1481.64 L1559.29 1485.58 L1539.38 1485.58 L1539.38 1481.64 Z" fill="#000000" fill-rule="nonzero" fill-opacity="1"></path><path clip-path="url(#clip640)" d="M1568.73 1479.7 L1573.62 1479.7 L1573.62 1485.58 L1568.73 1485.58 L1568.73 1479.7 Z" fill="#000000" fill-rule="nonzero" fill-opacity="1"></path><path clip-path="url(#clip640)" d="M1587.83 1481.64 L1604.15 1481.64 L1604.15 1485.58 L1582.21 1485.58 L1582.21 1481.64 Q1584.87 1478.89 1589.45 1474.26 Q1594.06 1469.61 1595.24 1468.27 Q1597.48 1465.74 1598.36 1464.01 Q1599.27 1462.25 1599.27 1460.56 Q1599.27 1457.8 1597.32 1456.07 Q1595.4 1454.33 1592.3 1454.33 Q1590.1 1454.33 1587.65 1455.09 Q1585.22 1455.86 1582.44 1457.41 L1582.44 1452.69 Q1585.26 1451.55 1587.72 1450.97 Q1590.17 1450.39 1592.21 1450.39 Q1597.58 1450.39 1600.77 1453.08 Q1603.97 1455.77 1603.97 1460.26 Q1603.97 1462.39 1603.16 1464.31 Q1602.37 1466.2 1600.26 1468.8 Q1599.68 1469.47 1596.58 1472.69 Q1593.48 1475.88 1587.83 1481.64 Z" fill="#000000" fill-rule="nonzero" fill-opacity="1"></path><path clip-path="url(#clip640)" d="M1614.01 1451.02 L1632.37 1451.02 L1632.37 1454.96 L1618.29 1454.96 L1618.29 1463.43 Q1619.31 1463.08 1620.33 1462.92 Q1621.35 1462.73 1622.37 1462.73 Q1628.15 1462.73 1631.53 1465.9 Q1634.91 1469.08 1634.91 1474.49 Q1634.91 1480.07 1631.44 1483.17 Q1627.97 1486.25 1621.65 1486.25 Q1619.47 1486.25 1617.21 1485.88 Q1614.96 1485.51 1612.55 1484.77 L1612.55 1480.07 Q1614.64 1481.2 1616.86 1481.76 Q1619.08 1482.32 1621.56 1482.32 Q1625.56 1482.32 1627.9 1480.21 Q1630.24 1478.1 1630.24 1474.49 Q1630.24 1470.88 1627.9 1468.77 Q1625.56 1466.67 1621.56 1466.67 Q1619.68 1466.67 1617.81 1467.08 Q1615.96 1467.5 1614.01 1468.38 L1614.01 1451.02 Z" fill="#000000" fill-rule="nonzero" fill-opacity="1"></path><path clip-path="url(#clip640)" d="M1810.88 1481.64 L1818.52 1481.64 L1818.52 1455.28 L1810.21 1456.95 L1810.21 1452.69 L1818.47 1451.02 L1823.15 1451.02 L1823.15 1481.64 L1830.79 1481.64 L1830.79 1485.58 L1810.88 1485.58 L1810.88 1481.64 Z" fill="#000000" fill-rule="nonzero" fill-opacity="1"></path><path clip-path="url(#clip640)" d="M1840.23 1479.7 L1845.12 1479.7 L1845.12 1485.58 L1840.23 1485.58 L1840.23 1479.7 Z" fill="#000000" fill-rule="nonzero" fill-opacity="1"></path><path clip-path="url(#clip640)" d="M1855.35 1451.02 L1873.71 1451.02 L1873.71 1454.96 L1859.63 1454.96 L1859.63 1463.43 Q1860.65 1463.08 1861.67 1462.92 Q1862.69 1462.73 1863.71 1462.73 Q1869.49 1462.73 1872.87 1465.9 Q1876.25 1469.08 1876.25 1474.49 Q1876.25 1480.07 1872.78 1483.17 Q1869.31 1486.25 1862.99 1486.25 Q1860.81 1486.25 1858.54 1485.88 Q1856.3 1485.51 1853.89 1484.77 L1853.89 1480.07 Q1855.97 1481.2 1858.2 1481.76 Q1860.42 1482.32 1862.9 1482.32 Q1866.9 1482.32 1869.24 1480.21 Q1871.58 1478.1 1871.58 1474.49 Q1871.58 1470.88 1869.24 1468.77 Q1866.9 1466.67 1862.9 1466.67 Q1861.02 1466.67 1859.15 1467.08 Q1857.29 1467.5 1855.35 1468.38 L1855.35 1451.02 Z" fill="#000000" fill-rule="nonzero" fill-opacity="1"></path><path clip-path="url(#clip640)" d="M1895.46 1454.1 Q1891.85 1454.1 1890.02 1457.66 Q1888.22 1461.2 1888.22 1468.33 Q1888.22 1475.44 1890.02 1479.01 Q1891.85 1482.55 1895.46 1482.55 Q1899.1 1482.55 1900.9 1479.01 Q1902.73 1475.44 1902.73 1468.33 Q1902.73 1461.2 1900.9 1457.66 Q1899.1 1454.1 1895.46 1454.1 M1895.46 1450.39 Q1901.27 1450.39 1904.33 1455 Q1907.41 1459.58 1907.41 1468.33 Q1907.41 1477.06 1904.33 1481.67 Q1901.27 1486.25 1895.46 1486.25 Q1889.65 1486.25 1886.58 1481.67 Q1883.52 1477.06 1883.52 1468.33 Q1883.52 1459.58 1886.58 1455 Q1889.65 1450.39 1895.46 1450.39 Z" fill="#000000" fill-rule="nonzero" fill-opacity="1"></path><path clip-path="url(#clip640)" d="M2083.38 1481.64 L2091.01 1481.64 L2091.01 1455.28 L2082.7 1456.95 L2082.7 1452.69 L2090.97 1451.02 L2095.64 1451.02 L2095.64 1481.64 L2103.28 1481.64 L2103.28 1485.58 L2083.38 1485.58 L2083.38 1481.64 Z" fill="#000000" fill-rule="nonzero" fill-opacity="1"></path><path clip-path="url(#clip640)" d="M2112.73 1479.7 L2117.61 1479.7 L2117.61 1485.58 L2112.73 1485.58 L2112.73 1479.7 Z" fill="#000000" fill-rule="nonzero" fill-opacity="1"></path><path clip-path="url(#clip640)" d="M2126.62 1451.02 L2148.84 1451.02 L2148.84 1453.01 L2136.29 1485.58 L2131.41 1485.58 L2143.21 1454.96 L2126.62 1454.96 L2126.62 1451.02 Z" fill="#000000" fill-rule="nonzero" fill-opacity="1"></path><path clip-path="url(#clip640)" d="M2158.01 1451.02 L2176.36 1451.02 L2176.36 1454.96 L2162.29 1454.96 L2162.29 1463.43 Q2163.31 1463.08 2164.32 1462.92 Q2165.34 1462.73 2166.36 1462.73 Q2172.15 1462.73 2175.53 1465.9 Q2178.91 1469.08 2178.91 1474.49 Q2178.91 1480.07 2175.44 1483.17 Q2171.96 1486.25 2165.64 1486.25 Q2163.47 1486.25 2161.2 1485.88 Q2158.95 1485.51 2156.55 1484.77 L2156.55 1480.07 Q2158.63 1481.2 2160.85 1481.76 Q2163.07 1482.32 2165.55 1482.32 Q2169.56 1482.32 2171.89 1480.21 Q2174.23 1478.1 2174.23 1474.49 Q2174.23 1470.88 2171.89 1468.77 Q2169.56 1466.67 2165.55 1466.67 Q2163.68 1466.67 2161.8 1467.08 Q2159.95 1467.5 2158.01 1468.38 L2158.01 1451.02 Z" fill="#000000" fill-rule="nonzero" fill-opacity="1"></path><path clip-path="url(#clip640)" d="M1110 1520.52 L1150.2 1520.52 L1150.2 1525.93 L1133.33 1525.93 L1133.33 1568.04 L1126.87 1568.04 L1126.87 1525.93 L1110 1525.93 L1110 1520.52 Z" fill="#000000" fill-rule="nonzero" fill-opacity="1"></path><path clip-path="url(#clip640)" d="M1175.57 1548.76 L1175.57 1551.62 L1148.64 1551.62 Q1149.02 1557.67 1152.27 1560.85 Q1155.55 1564 1161.37 1564 Q1164.74 1564 1167.9 1563.17 Q1171.08 1562.35 1174.2 1560.69 L1174.2 1566.23 Q1171.05 1567.57 1167.74 1568.27 Q1164.43 1568.97 1161.02 1568.97 Q1152.49 1568.97 1147.49 1564 Q1142.53 1559.04 1142.53 1550.57 Q1142.53 1541.82 1147.24 1536.69 Q1151.98 1531.54 1160 1531.54 Q1167.19 1531.54 1171.36 1536.18 Q1175.57 1540.8 1175.57 1548.76 M1169.71 1547.04 Q1169.65 1542.23 1167 1539.37 Q1164.39 1536.5 1160.07 1536.5 Q1155.16 1536.5 1152.2 1539.27 Q1149.28 1542.04 1148.83 1547.07 L1169.71 1547.04 Z" fill="#000000" fill-rule="nonzero" fill-opacity="1"></path><path clip-path="url(#clip640)" d="M1212.93 1539.24 Q1215.13 1535.29 1218.18 1533.41 Q1221.24 1531.54 1225.38 1531.54 Q1230.95 1531.54 1233.97 1535.45 Q1236.99 1539.33 1236.99 1546.53 L1236.99 1568.04 L1231.11 1568.04 L1231.11 1546.72 Q1231.11 1541.59 1229.29 1539.11 Q1227.48 1536.63 1223.75 1536.63 Q1219.2 1536.63 1216.56 1539.65 Q1213.92 1542.68 1213.92 1547.9 L1213.92 1568.04 L1208.03 1568.04 L1208.03 1546.72 Q1208.03 1541.56 1206.22 1539.11 Q1204.4 1536.63 1200.61 1536.63 Q1196.13 1536.63 1193.49 1539.68 Q1190.84 1542.71 1190.84 1547.9 L1190.84 1568.04 L1184.96 1568.04 L1184.96 1532.4 L1190.84 1532.4 L1190.84 1537.93 Q1192.85 1534.66 1195.65 1533.1 Q1198.45 1531.54 1202.3 1531.54 Q1206.18 1531.54 1208.89 1533.51 Q1211.63 1535.48 1212.93 1539.24 Z" fill="#000000" fill-rule="nonzero" fill-opacity="1"></path><path clip-path="url(#clip640)" d="M1254.34 1562.7 L1254.34 1581.6 L1248.45 1581.6 L1248.45 1532.4 L1254.34 1532.4 L1254.34 1537.81 Q1256.19 1534.62 1258.99 1533.1 Q1261.82 1531.54 1265.74 1531.54 Q1272.23 1531.54 1276.27 1536.69 Q1280.35 1541.85 1280.35 1550.25 Q1280.35 1558.65 1276.27 1563.81 Q1272.23 1568.97 1265.74 1568.97 Q1261.82 1568.97 1258.99 1567.44 Q1256.19 1565.88 1254.34 1562.7 M1274.27 1550.25 Q1274.27 1543.79 1271.59 1540.13 Q1268.95 1536.44 1264.3 1536.44 Q1259.66 1536.44 1256.98 1540.13 Q1254.34 1543.79 1254.34 1550.25 Q1254.34 1556.71 1256.98 1560.4 Q1259.66 1564.07 1264.3 1564.07 Q1268.95 1564.07 1271.59 1560.4 Q1274.27 1556.71 1274.27 1550.25 Z" fill="#000000" fill-rule="nonzero" fill-opacity="1"></path><path clip-path="url(#clip640)" d="M1320.54 1548.76 L1320.54 1551.62 L1293.62 1551.62 Q1294 1557.67 1297.25 1560.85 Q1300.52 1564 1306.35 1564 Q1309.72 1564 1312.87 1563.17 Q1316.06 1562.35 1319.18 1560.69 L1319.18 1566.23 Q1316.03 1567.57 1312.72 1568.27 Q1309.4 1568.97 1306 1568.97 Q1297.47 1568.97 1292.47 1564 Q1287.51 1559.04 1287.51 1550.57 Q1287.51 1541.82 1292.22 1536.69 Q1296.96 1531.54 1304.98 1531.54 Q1312.17 1531.54 1316.34 1536.18 Q1320.54 1540.8 1320.54 1548.76 M1314.69 1547.04 Q1314.62 1542.23 1311.98 1539.37 Q1309.37 1536.5 1305.04 1536.5 Q1300.14 1536.5 1297.18 1539.27 Q1294.25 1542.04 1293.81 1547.07 L1314.69 1547.04 Z" fill="#000000" fill-rule="nonzero" fill-opacity="1"></path><path clip-path="url(#clip640)" d="M1350.81 1537.87 Q1349.83 1537.3 1348.65 1537.04 Q1347.5 1536.76 1346.1 1536.76 Q1341.14 1536.76 1338.46 1540 Q1335.82 1543.22 1335.82 1549.27 L1335.82 1568.04 L1329.93 1568.04 L1329.93 1532.4 L1335.82 1532.4 L1335.82 1537.93 Q1337.67 1534.69 1340.63 1533.13 Q1343.59 1531.54 1347.82 1531.54 Q1348.43 1531.54 1349.16 1531.63 Q1349.89 1531.7 1350.78 1531.85 L1350.81 1537.87 Z" fill="#000000" fill-rule="nonzero" fill-opacity="1"></path><path clip-path="url(#clip640)" d="M1373.16 1550.12 Q1366.06 1550.12 1363.32 1551.75 Q1360.59 1553.37 1360.59 1557.29 Q1360.59 1560.4 1362.62 1562.25 Q1364.69 1564.07 1368.22 1564.07 Q1373.09 1564.07 1376.02 1560.63 Q1378.98 1557.16 1378.98 1551.43 L1378.98 1550.12 L1373.16 1550.12 M1384.84 1547.71 L1384.84 1568.04 L1378.98 1568.04 L1378.98 1562.63 Q1376.98 1565.88 1373.98 1567.44 Q1370.99 1568.97 1366.66 1568.97 Q1361.19 1568.97 1357.94 1565.91 Q1354.73 1562.82 1354.73 1557.67 Q1354.73 1551.65 1358.74 1548.6 Q1362.78 1545.54 1370.77 1545.54 L1378.98 1545.54 L1378.98 1544.97 Q1378.98 1540.93 1376.31 1538.73 Q1373.67 1536.5 1368.86 1536.5 Q1365.81 1536.5 1362.91 1537.23 Q1360.01 1537.97 1357.34 1539.43 L1357.34 1534.02 Q1360.55 1532.78 1363.58 1532.17 Q1366.6 1531.54 1369.47 1531.54 Q1377.2 1531.54 1381.02 1535.55 Q1384.84 1539.56 1384.84 1547.71 Z" fill="#000000" fill-rule="nonzero" fill-opacity="1"></path><path clip-path="url(#clip640)" d="M1402.69 1522.27 L1402.69 1532.4 L1414.76 1532.4 L1414.76 1536.95 L1402.69 1536.95 L1402.69 1556.3 Q1402.69 1560.66 1403.87 1561.9 Q1405.08 1563.14 1408.74 1563.14 L1414.76 1563.14 L1414.76 1568.04 L1408.74 1568.04 Q1401.96 1568.04 1399.38 1565.53 Q1396.81 1562.98 1396.81 1556.3 L1396.81 1536.95 L1392.51 1536.95 L1392.51 1532.4 L1396.81 1532.4 L1396.81 1522.27 L1402.69 1522.27 Z" fill="#000000" fill-rule="nonzero" fill-opacity="1"></path><path clip-path="url(#clip640)" d="M1421.86 1553.98 L1421.86 1532.4 L1427.71 1532.4 L1427.71 1553.75 Q1427.71 1558.81 1429.68 1561.36 Q1431.66 1563.87 1435.6 1563.87 Q1440.35 1563.87 1443.08 1560.85 Q1445.85 1557.83 1445.85 1552.61 L1445.85 1532.4 L1451.71 1532.4 L1451.71 1568.04 L1445.85 1568.04 L1445.85 1562.57 Q1443.72 1565.82 1440.89 1567.41 Q1438.09 1568.97 1434.36 1568.97 Q1428.22 1568.97 1425.04 1565.15 Q1421.86 1561.33 1421.86 1553.98 M1436.59 1531.54 L1436.59 1531.54 Z" fill="#000000" fill-rule="nonzero" fill-opacity="1"></path><path clip-path="url(#clip640)" d="M1484.43 1537.87 Q1483.44 1537.3 1482.27 1537.04 Q1481.12 1536.76 1479.72 1536.76 Q1474.75 1536.76 1472.08 1540 Q1469.44 1543.22 1469.44 1549.27 L1469.44 1568.04 L1463.55 1568.04 L1463.55 1532.4 L1469.44 1532.4 L1469.44 1537.93 Q1471.28 1534.69 1474.24 1533.13 Q1477.2 1531.54 1481.44 1531.54 Q1482.04 1531.54 1482.77 1531.63 Q1483.51 1531.7 1484.4 1531.85 L1484.43 1537.87 Z" fill="#000000" fill-rule="nonzero" fill-opacity="1"></path><path clip-path="url(#clip640)" d="M1519.63 1548.76 L1519.63 1551.62 L1492.71 1551.62 Q1493.09 1557.67 1496.33 1560.85 Q1499.61 1564 1505.44 1564 Q1508.81 1564 1511.96 1563.17 Q1515.14 1562.35 1518.26 1560.69 L1518.26 1566.23 Q1515.11 1567.57 1511.8 1568.27 Q1508.49 1568.97 1505.09 1568.97 Q1496.56 1568.97 1491.56 1564 Q1486.59 1559.04 1486.59 1550.57 Q1486.59 1541.82 1491.3 1536.69 Q1496.05 1531.54 1504.07 1531.54 Q1511.26 1531.54 1515.43 1536.18 Q1519.63 1540.8 1519.63 1548.76 M1513.78 1547.04 Q1513.71 1542.23 1511.07 1539.37 Q1508.46 1536.5 1504.13 1536.5 Q1499.23 1536.5 1496.27 1539.27 Q1493.34 1542.04 1492.9 1547.07 L1513.78 1547.04 Z" fill="#000000" fill-rule="nonzero" fill-opacity="1"></path><polyline clip-path="url(#clip640)" style="stroke:#000000; stroke-linecap:round; stroke-linejoin:round; stroke-width:4; stroke-opacity:1; fill:none" points="276.876,1423.18 276.876,123.472 "></polyline>
<polyline clip-path="url(#clip640)" style="stroke:#000000; stroke-linecap:round; stroke-linejoin:round; stroke-width:4; stroke-opacity:1; fill:none" points="276.876,1049.14 295.773,1049.14 "></polyline>
<polyline clip-path="url(#clip640)" style="stroke:#000000; stroke-linecap:round; stroke-linejoin:round; stroke-width:4; stroke-opacity:1; fill:none" points="276.876,526.067 295.773,526.067 "></polyline>
<path clip-path="url(#clip640)" d="M114.931 1068.93 L122.57 1068.93 L122.57 1042.57 L114.26 1044.23 L114.26 1039.97 L122.524 1038.31 L127.2 1038.31 L127.2 1068.93 L134.839 1068.93 L134.839 1072.87 L114.931 1072.87 L114.931 1068.93 Z" fill="#000000" fill-rule="nonzero" fill-opacity="1"></path><path clip-path="url(#clip640)" d="M154.283 1041.39 Q150.672 1041.39 148.843 1044.95 Q147.038 1048.49 147.038 1055.62 Q147.038 1062.73 148.843 1066.29 Q150.672 1069.83 154.283 1069.83 Q157.917 1069.83 159.723 1066.29 Q161.552 1062.73 161.552 1055.62 Q161.552 1048.49 159.723 1044.95 Q157.917 1041.39 154.283 1041.39 M154.283 1037.68 Q160.093 1037.68 163.149 1042.29 Q166.227 1046.87 166.227 1055.62 Q166.227 1064.35 163.149 1068.95 Q160.093 1073.54 154.283 1073.54 Q148.473 1073.54 145.394 1068.95 Q142.339 1064.35 142.339 1055.62 Q142.339 1046.87 145.394 1042.29 Q148.473 1037.68 154.283 1037.68 Z" fill="#000000" fill-rule="nonzero" fill-opacity="1"></path><path clip-path="url(#clip640)" d="M166.227 1031.78 L190.339 1031.78 L190.339 1034.98 L166.227 1034.98 L166.227 1031.78 Z" fill="#000000" fill-rule="nonzero" fill-opacity="1"></path><path clip-path="url(#clip640)" d="M199.197 1042.26 L205.404 1042.26 L205.404 1020.84 L198.652 1022.19 L198.652 1018.73 L205.366 1017.38 L209.166 1017.38 L209.166 1042.26 L215.372 1042.26 L215.372 1045.46 L199.197 1045.46 L199.197 1042.26 Z" fill="#000000" fill-rule="nonzero" fill-opacity="1"></path><path clip-path="url(#clip640)" d="M231.171 1019.88 Q228.237 1019.88 226.751 1022.77 Q225.284 1025.65 225.284 1031.44 Q225.284 1037.22 226.751 1040.11 Q228.237 1042.99 231.171 1042.99 Q234.124 1042.99 235.591 1040.11 Q237.076 1037.22 237.076 1031.44 Q237.076 1025.65 235.591 1022.77 Q234.124 1019.88 231.171 1019.88 M231.171 1016.87 Q235.891 1016.87 238.374 1020.61 Q240.876 1024.34 240.876 1031.44 Q240.876 1038.54 238.374 1042.28 Q235.891 1046 231.171 1046 Q226.45 1046 223.949 1042.28 Q221.466 1038.54 221.466 1031.44 Q221.466 1024.34 223.949 1020.61 Q226.45 1016.87 231.171 1016.87 Z" fill="#000000" fill-rule="nonzero" fill-opacity="1"></path><path clip-path="url(#clip640)" d="M140.247 545.86 L147.886 545.86 L147.886 519.494 L139.575 521.161 L139.575 516.902 L147.839 515.235 L152.515 515.235 L152.515 545.86 L160.154 545.86 L160.154 549.795 L140.247 549.795 L140.247 545.86 Z" fill="#000000" fill-rule="nonzero" fill-opacity="1"></path><path clip-path="url(#clip640)" d="M179.598 518.314 Q175.987 518.314 174.159 521.878 Q172.353 525.42 172.353 532.55 Q172.353 539.656 174.159 543.221 Q175.987 546.763 179.598 546.763 Q183.233 546.763 185.038 543.221 Q186.867 539.656 186.867 532.55 Q186.867 525.42 185.038 521.878 Q183.233 518.314 179.598 518.314 M179.598 514.61 Q185.409 514.61 188.464 519.216 Q191.543 523.8 191.543 532.55 Q191.543 541.276 188.464 545.883 Q185.409 550.466 179.598 550.466 Q173.788 550.466 170.71 545.883 Q167.654 541.276 167.654 532.55 Q167.654 523.8 170.71 519.216 Q173.788 514.61 179.598 514.61 Z" fill="#000000" fill-rule="nonzero" fill-opacity="1"></path><path clip-path="url(#clip640)" d="M191.543 508.711 L215.654 508.711 L215.654 511.909 L191.543 511.909 L191.543 508.711 Z" fill="#000000" fill-rule="nonzero" fill-opacity="1"></path><path clip-path="url(#clip640)" d="M223.892 494.305 L238.807 494.305 L238.807 497.502 L227.372 497.502 L227.372 504.386 Q228.199 504.103 229.027 503.972 Q229.854 503.821 230.682 503.821 Q235.384 503.821 238.13 506.398 Q240.876 508.975 240.876 513.376 Q240.876 517.908 238.054 520.429 Q235.233 522.93 230.099 522.93 Q228.331 522.93 226.488 522.629 Q224.663 522.328 222.707 521.726 L222.707 517.908 Q224.4 518.83 226.205 519.281 Q228.011 519.733 230.023 519.733 Q233.277 519.733 235.177 518.021 Q237.076 516.31 237.076 513.376 Q237.076 510.442 235.177 508.73 Q233.277 507.019 230.023 507.019 Q228.5 507.019 226.977 507.357 Q225.472 507.696 223.892 508.41 L223.892 494.305 Z" fill="#000000" fill-rule="nonzero" fill-opacity="1"></path><path clip-path="url(#clip640)" d="M16.4842 954.16 L16.4842 924.114 L21.895 924.114 L21.895 947.73 L35.9632 947.73 L35.9632 925.1 L41.3741 925.1 L41.3741 947.73 L58.5933 947.73 L58.5933 923.541 L64.0042 923.541 L64.0042 954.16 L16.4842 954.16 Z" fill="#000000" fill-rule="nonzero" fill-opacity="1"></path><path clip-path="url(#clip640)" d="M42.4881 883.596 L64.0042 883.596 L64.0042 889.452 L42.679 889.452 Q37.6183 889.452 35.1038 891.426 Q32.5894 893.399 32.5894 897.346 Q32.5894 902.088 35.6131 904.826 Q38.6368 907.563 43.8567 907.563 L64.0042 907.563 L64.0042 913.451 L28.3562 913.451 L28.3562 907.563 L33.8944 907.563 Q30.6797 905.462 29.0883 902.629 Q27.4968 899.765 27.4968 896.041 Q27.4968 889.898 31.3163 886.747 Q35.1038 883.596 42.4881 883.596 Z" fill="#000000" fill-rule="nonzero" fill-opacity="1"></path><path clip-path="url(#clip640)" d="M44.7161 841.423 L47.5806 841.423 L47.5806 868.35 Q53.6281 867.968 56.8109 864.722 Q59.9619 861.443 59.9619 855.619 Q59.9619 852.245 59.1344 849.094 Q58.3069 845.911 56.6518 842.792 L62.1899 842.792 Q63.5267 845.943 64.227 849.253 Q64.9272 852.563 64.9272 855.969 Q64.9272 864.499 59.9619 869.496 Q54.9967 874.461 46.5303 874.461 Q37.7774 874.461 32.6531 869.751 Q27.4968 865.008 27.4968 856.987 Q27.4968 849.794 32.1438 845.624 Q36.7589 841.423 44.7161 841.423 M42.9973 847.28 Q38.1912 847.343 35.3266 849.985 Q32.4621 852.595 32.4621 856.924 Q32.4621 861.825 35.2312 864.785 Q38.0002 867.713 43.0292 868.159 L42.9973 847.28 Z" fill="#000000" fill-rule="nonzero" fill-opacity="1"></path><path clip-path="url(#clip640)" d="M33.8307 811.154 Q33.2578 812.141 33.0032 813.319 Q32.7167 814.464 32.7167 815.865 Q32.7167 820.83 35.9632 823.504 Q39.1779 826.145 45.2253 826.145 L64.0042 826.145 L64.0042 832.034 L28.3562 832.034 L28.3562 826.145 L33.8944 826.145 Q30.6479 824.299 29.0883 821.339 Q27.4968 818.379 27.4968 814.146 Q27.4968 813.541 27.5923 812.809 Q27.656 812.077 27.8151 811.186 L33.8307 811.154 Z" fill="#000000" fill-rule="nonzero" fill-opacity="1"></path><path clip-path="url(#clip640)" d="M45.7664 782.699 Q39.4007 782.699 35.8996 785.341 Q32.3984 787.951 32.3984 792.694 Q32.3984 797.404 35.8996 800.046 Q39.4007 802.656 45.7664 802.656 Q52.1003 802.656 55.6014 800.046 Q59.1026 797.404 59.1026 792.694 Q59.1026 787.951 55.6014 785.341 Q52.1003 782.699 45.7664 782.699 M59.58 776.843 Q68.683 776.843 73.1071 780.885 Q77.5631 784.927 77.5631 793.267 Q77.5631 796.354 77.0857 799.091 Q76.6401 801.828 75.6852 804.407 L69.9879 804.407 Q71.3884 801.828 72.0568 799.314 Q72.7252 796.8 72.7252 794.19 Q72.7252 788.429 69.7015 785.564 Q66.7096 782.699 60.6303 782.699 L57.7339 782.699 Q60.885 784.514 62.4446 787.346 Q64.0042 790.179 64.0042 794.126 Q64.0042 800.683 59.0071 804.693 Q54.01 808.703 45.7664 808.703 Q37.491 808.703 32.4939 804.693 Q27.4968 800.683 27.4968 794.126 Q27.4968 790.179 29.0564 787.346 Q30.616 784.514 33.7671 782.699 L28.3562 782.699 L28.3562 776.843 L59.58 776.843 Z" fill="#000000" fill-rule="nonzero" fill-opacity="1"></path><path clip-path="url(#clip640)" d="M67.3143 749.948 Q73.68 752.431 75.6216 754.786 Q77.5631 757.141 77.5631 761.088 L77.5631 765.767 L72.6615 765.767 L72.6615 762.329 Q72.6615 759.91 71.5157 758.573 Q70.3699 757.237 66.1048 755.613 L63.4312 754.563 L28.3562 768.981 L28.3562 762.775 L56.238 751.635 L28.3562 740.495 L28.3562 734.288 L67.3143 749.948 Z" fill="#000000" fill-rule="nonzero" fill-opacity="1"></path><path clip-path="url(#clip640)" d="M45.7664 682.026 Q39.4007 682.026 35.8996 684.668 Q32.3984 687.278 32.3984 692.02 Q32.3984 696.731 35.8996 699.372 Q39.4007 701.982 45.7664 701.982 Q52.1003 701.982 55.6014 699.372 Q59.1026 696.731 59.1026 692.02 Q59.1026 687.278 55.6014 684.668 Q52.1003 682.026 45.7664 682.026 M59.58 676.169 Q68.683 676.169 73.1071 680.212 Q77.5631 684.254 77.5631 692.593 Q77.5631 695.68 77.0857 698.418 Q76.6401 701.155 75.6852 703.733 L69.9879 703.733 Q71.3884 701.155 72.0568 698.64 Q72.7252 696.126 72.7252 693.516 Q72.7252 687.755 69.7015 684.89 Q66.7096 682.026 60.6303 682.026 L57.7339 682.026 Q60.885 683.84 62.4446 686.673 Q64.0042 689.506 64.0042 693.452 Q64.0042 700.009 59.0071 704.019 Q54.01 708.03 45.7664 708.03 Q37.491 708.03 32.4939 704.019 Q27.4968 700.009 27.4968 693.452 Q27.4968 689.506 29.0564 686.673 Q30.616 683.84 33.7671 682.026 L28.3562 682.026 L28.3562 676.169 L59.58 676.169 Z" fill="#000000" fill-rule="nonzero" fill-opacity="1"></path><path clip-path="url(#clip640)" d="M46.0847 647.906 Q46.0847 655.003 47.7079 657.741 Q49.3312 660.478 53.2461 660.478 Q56.3653 660.478 58.2114 658.441 Q60.0256 656.372 60.0256 652.839 Q60.0256 647.969 56.5881 645.041 Q53.1188 642.081 47.3897 642.081 L46.0847 642.081 L46.0847 647.906 M43.6657 636.225 L64.0042 636.225 L64.0042 642.081 L58.5933 642.081 Q61.8398 644.086 63.3994 647.078 Q64.9272 650.07 64.9272 654.399 Q64.9272 659.873 61.8716 663.12 Q58.7843 666.334 53.6281 666.334 Q47.6125 666.334 44.5569 662.324 Q41.5014 658.282 41.5014 650.293 L41.5014 642.081 L40.9285 642.081 Q36.8862 642.081 34.6901 644.755 Q32.4621 647.396 32.4621 652.203 Q32.4621 655.258 33.1941 658.154 Q33.9262 661.051 35.3903 663.724 L29.9795 663.724 Q28.7381 660.51 28.1334 657.486 Q27.4968 654.462 27.4968 651.598 Q27.4968 643.863 31.5072 640.044 Q35.5176 636.225 43.6657 636.225 Z" fill="#000000" fill-rule="nonzero" fill-opacity="1"></path><path clip-path="url(#clip640)" d="M58.657 618.496 L77.5631 618.496 L77.5631 624.384 L28.3562 624.384 L28.3562 618.496 L33.7671 618.496 Q30.5842 616.65 29.0564 613.849 Q27.4968 611.016 27.4968 607.101 Q27.4968 600.608 32.6531 596.566 Q37.8093 592.492 46.212 592.492 Q54.6147 592.492 59.771 596.566 Q64.9272 600.608 64.9272 607.101 Q64.9272 611.016 63.3994 613.849 Q61.8398 616.65 58.657 618.496 M46.212 598.571 Q39.7508 598.571 36.0905 601.245 Q32.3984 603.887 32.3984 608.534 Q32.3984 613.181 36.0905 615.854 Q39.7508 618.496 46.212 618.496 Q52.6732 618.496 56.3653 615.854 Q60.0256 613.181 60.0256 608.534 Q60.0256 603.887 56.3653 601.245 Q52.6732 598.571 46.212 598.571 Z" fill="#000000" fill-rule="nonzero" fill-opacity="1"></path><path clip-path="url(#clip640)" d="M749.309 12.096 L787.55 12.096 L787.55 18.9825 L757.492 18.9825 L757.492 36.8875 L786.294 36.8875 L786.294 43.7741 L757.492 43.7741 L757.492 65.6895 L788.279 65.6895 L788.279 72.576 L749.309 72.576 L749.309 12.096 Z" fill="#000000" fill-rule="nonzero" fill-opacity="1"></path><path clip-path="url(#clip640)" d="M839.118 45.1919 L839.118 72.576 L831.664 72.576 L831.664 45.4349 Q831.664 38.994 829.153 35.7938 Q826.641 32.5936 821.618 32.5936 Q815.582 32.5936 812.098 36.4419 Q808.615 40.2903 808.615 46.9338 L808.615 72.576 L801.121 72.576 L801.121 27.2059 L808.615 27.2059 L808.615 34.2544 Q811.288 30.163 814.894 28.1376 Q818.539 26.1121 823.279 26.1121 Q831.097 26.1121 835.108 30.9732 Q839.118 35.7938 839.118 45.1919 Z" fill="#000000" fill-rule="nonzero" fill-opacity="1"></path><path clip-path="url(#clip640)" d="M892.793 48.0275 L892.793 51.6733 L858.522 51.6733 Q859.008 59.3701 863.14 63.421 Q867.312 67.4314 874.725 67.4314 Q879.019 67.4314 883.03 66.3781 Q887.081 65.3249 891.051 63.2184 L891.051 70.267 Q887.04 71.9684 882.827 72.8596 Q878.614 73.7508 874.28 73.7508 Q863.423 73.7508 857.064 67.4314 Q850.744 61.1119 850.744 50.3365 Q850.744 39.1965 856.739 32.6746 Q862.775 26.1121 872.984 26.1121 Q882.139 26.1121 887.445 32.0264 Q892.793 37.9003 892.793 48.0275 M885.339 45.84 Q885.258 39.7232 881.896 36.0774 Q878.574 32.4315 873.065 32.4315 Q866.826 32.4315 863.059 35.9558 Q859.332 39.4801 858.765 45.8805 L885.339 45.84 Z" fill="#000000" fill-rule="nonzero" fill-opacity="1"></path><path clip-path="url(#clip640)" d="M931.317 34.1734 Q930.061 33.4443 928.562 33.1202 Q927.104 32.7556 925.321 32.7556 Q919.002 32.7556 915.599 36.8875 Q912.237 40.9789 912.237 48.6757 L912.237 72.576 L904.743 72.576 L904.743 27.2059 L912.237 27.2059 L912.237 34.2544 Q914.586 30.1225 918.354 28.1376 Q922.121 26.1121 927.509 26.1121 Q928.278 26.1121 929.21 26.2337 Q930.142 26.3147 931.276 26.5172 L931.317 34.1734 Z" fill="#000000" fill-rule="nonzero" fill-opacity="1"></path><path clip-path="url(#clip640)" d="M967.532 49.3643 Q967.532 41.2625 964.169 36.8065 Q960.848 32.3505 954.812 32.3505 Q948.817 32.3505 945.454 36.8065 Q942.133 41.2625 942.133 49.3643 Q942.133 57.4256 945.454 61.8816 Q948.817 66.3376 954.812 66.3376 Q960.848 66.3376 964.169 61.8816 Q967.532 57.4256 967.532 49.3643 M974.985 66.9452 Q974.985 78.5308 969.841 84.1616 Q964.696 89.8329 954.083 89.8329 Q950.153 89.8329 946.67 89.2252 Q943.186 88.6581 939.905 87.4428 L939.905 80.1917 Q943.186 81.9741 946.386 82.8248 Q949.586 83.6755 952.908 83.6755 Q960.24 83.6755 963.886 79.8271 Q967.532 76.0193 967.532 68.282 L967.532 64.5957 Q965.223 68.6061 961.617 70.5911 Q958.012 72.576 952.989 72.576 Q944.644 72.576 939.54 66.2161 Q934.436 59.8562 934.436 49.3643 Q934.436 38.832 939.54 32.472 Q944.644 26.1121 952.989 26.1121 Q958.012 26.1121 961.617 28.0971 Q965.223 30.082 967.532 34.0924 L967.532 27.2059 L974.985 27.2059 L974.985 66.9452 Z" fill="#000000" fill-rule="nonzero" fill-opacity="1"></path><path clip-path="url(#clip640)" d="M1009.22 76.7889 Q1006.06 84.8907 1003.06 87.3618 Q1000.06 89.8329 995.037 89.8329 L989.082 89.8329 L989.082 83.5945 L993.457 83.5945 Q996.536 83.5945 998.238 82.1361 Q999.939 80.6778 1002 75.2496 L1003.34 71.8468 L984.991 27.2059 L992.89 27.2059 L1007.07 62.6918 L1021.25 27.2059 L1029.15 27.2059 L1009.22 76.7889 Z" fill="#000000" fill-rule="nonzero" fill-opacity="1"></path><path clip-path="url(#clip640)" d="M1095.66 49.3643 Q1095.66 41.2625 1092.3 36.8065 Q1088.98 32.3505 1082.94 32.3505 Q1076.95 32.3505 1073.58 36.8065 Q1070.26 41.2625 1070.26 49.3643 Q1070.26 57.4256 1073.58 61.8816 Q1076.95 66.3376 1082.94 66.3376 Q1088.98 66.3376 1092.3 61.8816 Q1095.66 57.4256 1095.66 49.3643 M1103.12 66.9452 Q1103.12 78.5308 1097.97 84.1616 Q1092.83 89.8329 1082.21 89.8329 Q1078.28 89.8329 1074.8 89.2252 Q1071.32 88.6581 1068.03 87.4428 L1068.03 80.1917 Q1071.32 81.9741 1074.52 82.8248 Q1077.72 83.6755 1081.04 83.6755 Q1088.37 83.6755 1092.02 79.8271 Q1095.66 76.0193 1095.66 68.282 L1095.66 64.5957 Q1093.35 68.6061 1089.75 70.5911 Q1086.14 72.576 1081.12 72.576 Q1072.77 72.576 1067.67 66.2161 Q1062.57 59.8562 1062.57 49.3643 Q1062.57 38.832 1067.67 32.472 Q1072.77 26.1121 1081.12 26.1121 Q1086.14 26.1121 1089.75 28.0971 Q1093.35 30.082 1095.66 34.0924 L1095.66 27.2059 L1103.12 27.2059 L1103.12 66.9452 Z" fill="#000000" fill-rule="nonzero" fill-opacity="1"></path><path clip-path="url(#clip640)" d="M1139.09 49.7694 Q1130.05 49.7694 1126.57 51.8354 Q1123.09 53.9013 1123.09 58.8839 Q1123.09 62.8538 1125.68 65.2034 Q1128.31 67.5124 1132.81 67.5124 Q1139.01 67.5124 1142.73 63.1374 Q1146.5 58.7219 1146.5 51.4303 L1146.5 49.7694 L1139.09 49.7694 M1153.95 46.6907 L1153.95 72.576 L1146.5 72.576 L1146.5 65.6895 Q1143.95 69.8214 1140.14 71.8063 Q1136.33 73.7508 1130.82 73.7508 Q1123.86 73.7508 1119.72 69.8619 Q1115.63 65.9325 1115.63 59.3701 Q1115.63 51.7138 1120.74 47.825 Q1125.88 43.9361 1136.05 43.9361 L1146.5 43.9361 L1146.5 43.2069 Q1146.5 38.0623 1143.1 35.2672 Q1139.74 32.4315 1133.62 32.4315 Q1129.73 32.4315 1126.04 33.3632 Q1122.36 34.295 1118.95 36.1584 L1118.95 29.2718 Q1123.05 27.692 1126.89 26.9223 Q1130.74 26.1121 1134.39 26.1121 Q1144.23 26.1121 1149.09 31.2163 Q1153.95 36.3204 1153.95 46.6907 Z" fill="#000000" fill-rule="nonzero" fill-opacity="1"></path><path clip-path="url(#clip640)" d="M1176.52 65.7705 L1176.52 89.8329 L1169.02 89.8329 L1169.02 27.2059 L1176.52 27.2059 L1176.52 34.0924 Q1178.87 30.0415 1182.43 28.0971 Q1186.04 26.1121 1191.02 26.1121 Q1199.28 26.1121 1204.43 32.6746 Q1209.61 39.2371 1209.61 49.9314 Q1209.61 60.6258 1204.43 67.1883 Q1199.28 73.7508 1191.02 73.7508 Q1186.04 73.7508 1182.43 71.8063 Q1178.87 69.8214 1176.52 65.7705 M1201.88 49.9314 Q1201.88 41.7081 1198.47 37.0496 Q1195.11 32.3505 1189.2 32.3505 Q1183.28 32.3505 1179.88 37.0496 Q1176.52 41.7081 1176.52 49.9314 Q1176.52 58.1548 1179.88 62.8538 Q1183.28 67.5124 1189.2 67.5124 Q1195.11 67.5124 1198.47 62.8538 Q1201.88 58.1548 1201.88 49.9314 Z" fill="#000000" fill-rule="nonzero" fill-opacity="1"></path><path clip-path="url(#clip640)" d="M1242.99 27.2059 L1250.89 27.2059 L1265.07 65.2844 L1279.25 27.2059 L1287.15 27.2059 L1270.13 72.576 L1260.01 72.576 L1242.99 27.2059 Z" fill="#000000" fill-rule="nonzero" fill-opacity="1"></path><path clip-path="url(#clip640)" d="M1326.36 28.5427 L1326.36 35.5912 Q1323.2 33.9709 1319.8 33.1607 Q1316.4 32.3505 1312.75 32.3505 Q1307.2 32.3505 1304.4 34.0519 Q1301.65 35.7533 1301.65 39.156 Q1301.65 41.7486 1303.64 43.2475 Q1305.62 44.7058 1311.62 46.0426 L1314.17 46.6097 Q1322.11 48.3111 1325.43 51.4303 Q1328.79 54.509 1328.79 60.0587 Q1328.79 66.3781 1323.77 70.0644 Q1318.79 73.7508 1310.04 73.7508 Q1306.39 73.7508 1302.42 73.0216 Q1298.49 72.3329 1294.12 70.9151 L1294.12 63.2184 Q1298.25 65.3654 1302.26 66.4591 Q1306.27 67.5124 1310.2 67.5124 Q1315.46 67.5124 1318.3 65.73 Q1321.14 63.9071 1321.14 60.6258 Q1321.14 57.5877 1319.07 55.9673 Q1317.04 54.3469 1310.12 52.8481 L1307.52 52.2405 Q1300.6 50.7821 1297.52 47.7845 Q1294.44 44.7463 1294.44 39.4801 Q1294.44 33.0797 1298.98 29.5959 Q1303.51 26.1121 1311.86 26.1121 Q1315.99 26.1121 1319.64 26.7198 Q1323.28 27.3274 1326.36 28.5427 Z" fill="#000000" fill-rule="nonzero" fill-opacity="1"></path><path clip-path="url(#clip640)" d="M1358.97 12.096 L1410.13 12.096 L1410.13 18.9825 L1388.66 18.9825 L1388.66 72.576 L1380.44 72.576 L1380.44 18.9825 L1358.97 18.9825 L1358.97 12.096 Z" fill="#000000" fill-rule="nonzero" fill-opacity="1"></path><path clip-path="url(#clip640)" d="M1442.42 48.0275 L1442.42 51.6733 L1408.15 51.6733 Q1408.63 59.3701 1412.77 63.421 Q1416.94 67.4314 1424.35 67.4314 Q1428.65 67.4314 1432.66 66.3781 Q1436.71 65.3249 1440.68 63.2184 L1440.68 70.267 Q1436.67 71.9684 1432.45 72.8596 Q1428.24 73.7508 1423.91 73.7508 Q1413.05 73.7508 1406.69 67.4314 Q1400.37 61.1119 1400.37 50.3365 Q1400.37 39.1965 1406.37 32.6746 Q1412.4 26.1121 1422.61 26.1121 Q1431.77 26.1121 1437.07 32.0264 Q1442.42 37.9003 1442.42 48.0275 M1434.97 45.84 Q1434.88 39.7232 1431.52 36.0774 Q1428.2 32.4315 1422.69 32.4315 Q1416.45 32.4315 1412.69 35.9558 Q1408.96 39.4801 1408.39 45.8805 L1434.97 45.84 Z" fill="#000000" fill-rule="nonzero" fill-opacity="1"></path><path clip-path="url(#clip640)" d="M1489.98 35.9153 Q1492.77 30.8922 1496.66 28.5022 Q1500.55 26.1121 1505.82 26.1121 Q1512.9 26.1121 1516.75 31.0947 Q1520.6 36.0368 1520.6 45.1919 L1520.6 72.576 L1513.11 72.576 L1513.11 45.4349 Q1513.11 38.913 1510.8 35.7533 Q1508.49 32.5936 1503.75 32.5936 Q1497.96 32.5936 1494.59 36.4419 Q1491.23 40.2903 1491.23 46.9338 L1491.23 72.576 L1483.74 72.576 L1483.74 45.4349 Q1483.74 38.8725 1481.43 35.7533 Q1479.12 32.5936 1474.3 32.5936 Q1468.59 32.5936 1465.23 36.4824 Q1461.86 40.3308 1461.86 46.9338 L1461.86 72.576 L1454.37 72.576 L1454.37 27.2059 L1461.86 27.2059 L1461.86 34.2544 Q1464.42 30.082 1467.98 28.0971 Q1471.55 26.1121 1476.45 26.1121 Q1481.39 26.1121 1484.83 28.6237 Q1488.32 31.1352 1489.98 35.9153 Z" fill="#000000" fill-rule="nonzero" fill-opacity="1"></path><path clip-path="url(#clip640)" d="M1542.68 65.7705 L1542.68 89.8329 L1535.18 89.8329 L1535.18 27.2059 L1542.68 27.2059 L1542.68 34.0924 Q1545.03 30.0415 1548.59 28.0971 Q1552.2 26.1121 1557.18 26.1121 Q1565.45 26.1121 1570.59 32.6746 Q1575.77 39.2371 1575.77 49.9314 Q1575.77 60.6258 1570.59 67.1883 Q1565.45 73.7508 1557.18 73.7508 Q1552.2 73.7508 1548.59 71.8063 Q1545.03 69.8214 1542.68 65.7705 M1568.04 49.9314 Q1568.04 41.7081 1564.63 37.0496 Q1561.27 32.3505 1555.36 32.3505 Q1549.44 32.3505 1546.04 37.0496 Q1542.68 41.7081 1542.68 49.9314 Q1542.68 58.1548 1546.04 62.8538 Q1549.44 67.5124 1555.36 67.5124 Q1561.27 67.5124 1564.63 62.8538 Q1568.04 58.1548 1568.04 49.9314 Z" fill="#000000" fill-rule="nonzero" fill-opacity="1"></path><path clip-path="url(#clip640)" d="M1626.94 48.0275 L1626.94 51.6733 L1592.67 51.6733 Q1593.15 59.3701 1597.29 63.421 Q1601.46 67.4314 1608.87 67.4314 Q1613.16 67.4314 1617.18 66.3781 Q1621.23 65.3249 1625.2 63.2184 L1625.2 70.267 Q1621.19 71.9684 1616.97 72.8596 Q1612.76 73.7508 1608.43 73.7508 Q1597.57 73.7508 1591.21 67.4314 Q1584.89 61.1119 1584.89 50.3365 Q1584.89 39.1965 1590.88 32.6746 Q1596.92 26.1121 1607.13 26.1121 Q1616.28 26.1121 1621.59 32.0264 Q1626.94 37.9003 1626.94 48.0275 M1619.48 45.84 Q1619.4 39.7232 1616.04 36.0774 Q1612.72 32.4315 1607.21 32.4315 Q1600.97 32.4315 1597.2 35.9558 Q1593.48 39.4801 1592.91 45.8805 L1619.48 45.84 Z" fill="#000000" fill-rule="nonzero" fill-opacity="1"></path><path clip-path="url(#clip640)" d="M1665.46 34.1734 Q1664.21 33.4443 1662.71 33.1202 Q1661.25 32.7556 1659.47 32.7556 Q1653.15 32.7556 1649.74 36.8875 Q1646.38 40.9789 1646.38 48.6757 L1646.38 72.576 L1638.89 72.576 L1638.89 27.2059 L1646.38 27.2059 L1646.38 34.2544 Q1648.73 30.1225 1652.5 28.1376 Q1656.27 26.1121 1661.65 26.1121 Q1662.42 26.1121 1663.36 26.2337 Q1664.29 26.3147 1665.42 26.5172 L1665.46 34.1734 Z" fill="#000000" fill-rule="nonzero" fill-opacity="1"></path><path clip-path="url(#clip640)" d="M1693.9 49.7694 Q1684.87 49.7694 1681.38 51.8354 Q1677.9 53.9013 1677.9 58.8839 Q1677.9 62.8538 1680.49 65.2034 Q1683.12 67.5124 1687.62 67.5124 Q1693.82 67.5124 1697.55 63.1374 Q1701.31 58.7219 1701.31 51.4303 L1701.31 49.7694 L1693.9 49.7694 M1708.77 46.6907 L1708.77 72.576 L1701.31 72.576 L1701.31 65.6895 Q1698.76 69.8214 1694.95 71.8063 Q1691.14 73.7508 1685.64 73.7508 Q1678.67 73.7508 1674.54 69.8619 Q1670.44 65.9325 1670.44 59.3701 Q1670.44 51.7138 1675.55 47.825 Q1680.69 43.9361 1690.86 43.9361 L1701.31 43.9361 L1701.31 43.2069 Q1701.31 38.0623 1697.91 35.2672 Q1694.55 32.4315 1688.43 32.4315 Q1684.54 32.4315 1680.86 33.3632 Q1677.17 34.295 1673.77 36.1584 L1673.77 29.2718 Q1677.86 27.692 1681.71 26.9223 Q1685.55 26.1121 1689.2 26.1121 Q1699.04 26.1121 1703.91 31.2163 Q1708.77 36.3204 1708.77 46.6907 Z" fill="#000000" fill-rule="nonzero" fill-opacity="1"></path><path clip-path="url(#clip640)" d="M1731.49 14.324 L1731.49 27.2059 L1746.84 27.2059 L1746.84 32.9987 L1731.49 32.9987 L1731.49 57.6282 Q1731.49 63.1779 1732.99 64.7578 Q1734.53 66.3376 1739.19 66.3376 L1746.84 66.3376 L1746.84 72.576 L1739.19 72.576 Q1730.56 72.576 1727.28 69.3758 Q1724 66.1351 1724 57.6282 L1724 32.9987 L1718.53 32.9987 L1718.53 27.2059 L1724 27.2059 L1724 14.324 L1731.49 14.324 Z" fill="#000000" fill-rule="nonzero" fill-opacity="1"></path><path clip-path="url(#clip640)" d="M1755.88 54.671 L1755.88 27.2059 L1763.33 27.2059 L1763.33 54.3874 Q1763.33 60.8284 1765.84 64.0691 Q1768.35 67.2693 1773.38 67.2693 Q1779.41 67.2693 1782.9 63.421 Q1786.42 59.5726 1786.42 52.9291 L1786.42 27.2059 L1793.88 27.2059 L1793.88 72.576 L1786.42 72.576 L1786.42 65.6084 Q1783.71 69.7404 1780.1 71.7658 Q1776.54 73.7508 1771.8 73.7508 Q1763.98 73.7508 1759.93 68.8897 Q1755.88 64.0286 1755.88 54.671 M1774.63 26.1121 L1774.63 26.1121 Z" fill="#000000" fill-rule="nonzero" fill-opacity="1"></path><path clip-path="url(#clip640)" d="M1835.52 34.1734 Q1834.26 33.4443 1832.76 33.1202 Q1831.31 32.7556 1829.52 32.7556 Q1823.2 32.7556 1819.8 36.8875 Q1816.44 40.9789 1816.44 48.6757 L1816.44 72.576 L1808.95 72.576 L1808.95 27.2059 L1816.44 27.2059 L1816.44 34.2544 Q1818.79 30.1225 1822.56 28.1376 Q1826.32 26.1121 1831.71 26.1121 Q1832.48 26.1121 1833.41 26.2337 Q1834.34 26.3147 1835.48 26.5172 L1835.52 34.1734 Z" fill="#000000" fill-rule="nonzero" fill-opacity="1"></path><path clip-path="url(#clip640)" d="M1880.32 48.0275 L1880.32 51.6733 L1846.05 51.6733 Q1846.54 59.3701 1850.67 63.421 Q1854.84 67.4314 1862.25 67.4314 Q1866.55 67.4314 1870.56 66.3781 Q1874.61 65.3249 1878.58 63.2184 L1878.58 70.267 Q1874.57 71.9684 1870.36 72.8596 Q1866.14 73.7508 1861.81 73.7508 Q1850.95 73.7508 1844.59 67.4314 Q1838.27 61.1119 1838.27 50.3365 Q1838.27 39.1965 1844.27 32.6746 Q1850.3 26.1121 1860.51 26.1121 Q1869.67 26.1121 1874.97 32.0264 Q1880.32 37.9003 1880.32 48.0275 M1872.87 45.84 Q1872.79 39.7232 1869.43 36.0774 Q1866.1 32.4315 1860.59 32.4315 Q1854.36 32.4315 1850.59 35.9558 Q1846.86 39.4801 1846.29 45.8805 L1872.87 45.84 Z" fill="#000000" fill-rule="nonzero" fill-opacity="1"></path><polyline clip-path="url(#clip642)" style="stroke:#009af9; stroke-linecap:round; stroke-linejoin:round; stroke-width:4; stroke-opacity:1; fill:none" points="335.627,1386.4 662.023,534.513 988.419,374.09 1314.82,291.24 1641.21,240.882 1967.61,209.677 2294,189.256 "></polyline>
<polyline clip-path="url(#clip642)" style="stroke:#e26f46; stroke-linecap:round; stroke-linejoin:round; stroke-width:4; stroke-opacity:1; fill:none" points="335.627,657.399 662.023,490.4 988.419,315.507 1314.82,238.734 1641.21,200.645 1967.61,178.823 2294,164.847 "></polyline>
<polyline clip-path="url(#clip642)" style="stroke:#3da44d; stroke-linecap:round; stroke-linejoin:round; stroke-width:4; stroke-opacity:1; fill:none" points="335.627,1092.22 662.023,404.543 988.419,278.236 1314.82,220.22 1641.21,190.018 1967.61,172.052 2294,160.256 "></polyline>
<path clip-path="url(#clip640)" d="M1624.15 374.156 L2283.56 374.156 L2283.56 166.796 L1624.15 166.796  Z" fill="#ffffff" fill-rule="evenodd" fill-opacity="1"></path>
<polyline clip-path="url(#clip640)" style="stroke:#000000; stroke-linecap:round; stroke-linejoin:round; stroke-width:4; stroke-opacity:1; fill:none" points="1624.15,374.156 2283.56,374.156 2283.56,166.796 1624.15,166.796 1624.15,374.156 "></polyline>
<polyline clip-path="url(#clip640)" style="stroke:#009af9; stroke-linecap:round; stroke-linejoin:round; stroke-width:4; stroke-opacity:1; fill:none" points="1647.21,218.636 1785.6,218.636 "></polyline>
<path clip-path="url(#clip640)" d="M1816.08 202.629 L1816.08 209.99 L1824.85 209.99 L1824.85 213.3 L1816.08 213.3 L1816.08 227.374 Q1816.08 230.545 1816.93 231.448 Q1817.81 232.351 1820.47 232.351 L1824.85 232.351 L1824.85 235.916 L1820.47 235.916 Q1815.54 235.916 1813.67 234.087 Q1811.79 232.235 1811.79 227.374 L1811.79 213.3 L1808.67 213.3 L1808.67 209.99 L1811.79 209.99 L1811.79 202.629 L1816.08 202.629 Z" fill="#000000" fill-rule="nonzero" fill-opacity="1"></path><path clip-path="url(#clip640)" d="M1845.47 213.971 Q1844.76 213.555 1843.9 213.37 Q1843.07 213.161 1842.05 213.161 Q1838.44 213.161 1836.49 215.522 Q1834.57 217.86 1834.57 222.258 L1834.57 235.916 L1830.29 235.916 L1830.29 209.99 L1834.57 209.99 L1834.57 214.018 Q1835.91 211.657 1838.07 210.522 Q1840.22 209.365 1843.3 209.365 Q1843.74 209.365 1844.27 209.434 Q1844.8 209.481 1845.45 209.596 L1845.47 213.971 Z" fill="#000000" fill-rule="nonzero" fill-opacity="1"></path><path clip-path="url(#clip640)" d="M1849.94 209.99 L1854.2 209.99 L1854.2 235.916 L1849.94 235.916 L1849.94 209.99 M1849.94 199.897 L1854.2 199.897 L1854.2 205.291 L1849.94 205.291 L1849.94 199.897 Z" fill="#000000" fill-rule="nonzero" fill-opacity="1"></path><path clip-path="url(#clip640)" d="M1874.89 222.883 Q1869.73 222.883 1867.74 224.064 Q1865.75 225.244 1865.75 228.092 Q1865.75 230.36 1867.23 231.703 Q1868.74 233.022 1871.31 233.022 Q1874.85 233.022 1876.98 230.522 Q1879.13 227.999 1879.13 223.832 L1879.13 222.883 L1874.89 222.883 M1883.39 221.124 L1883.39 235.916 L1879.13 235.916 L1879.13 231.981 Q1877.67 234.342 1875.5 235.476 Q1873.32 236.587 1870.17 236.587 Q1866.19 236.587 1863.83 234.365 Q1861.49 232.119 1861.49 228.369 Q1861.49 223.994 1864.41 221.772 Q1867.35 219.55 1873.16 219.55 L1879.13 219.55 L1879.13 219.133 Q1879.13 216.194 1877.19 214.596 Q1875.27 212.976 1871.77 212.976 Q1869.55 212.976 1867.44 213.508 Q1865.33 214.041 1863.39 215.106 L1863.39 211.17 Q1865.73 210.268 1867.93 209.828 Q1870.13 209.365 1872.21 209.365 Q1877.83 209.365 1880.61 212.282 Q1883.39 215.198 1883.39 221.124 Z" fill="#000000" fill-rule="nonzero" fill-opacity="1"></path><path clip-path="url(#clip640)" d="M1913.71 220.268 L1913.71 235.916 L1909.45 235.916 L1909.45 220.407 Q1909.45 216.726 1908.02 214.897 Q1906.58 213.069 1903.71 213.069 Q1900.27 213.069 1898.27 215.268 Q1896.28 217.467 1896.28 221.263 L1896.28 235.916 L1892 235.916 L1892 209.99 L1896.28 209.99 L1896.28 214.018 Q1897.81 211.68 1899.87 210.522 Q1901.95 209.365 1904.66 209.365 Q1909.13 209.365 1911.42 212.143 Q1913.71 214.897 1913.71 220.268 Z" fill="#000000" fill-rule="nonzero" fill-opacity="1"></path><path clip-path="url(#clip640)" d="M1939.27 222.652 Q1939.27 218.022 1937.35 215.476 Q1935.45 212.93 1932 212.93 Q1928.58 212.93 1926.65 215.476 Q1924.76 218.022 1924.76 222.652 Q1924.76 227.258 1926.65 229.805 Q1928.58 232.351 1932 232.351 Q1935.45 232.351 1937.35 229.805 Q1939.27 227.258 1939.27 222.652 M1943.53 232.698 Q1943.53 239.318 1940.59 242.536 Q1937.65 245.777 1931.58 245.777 Q1929.34 245.777 1927.35 245.43 Q1925.36 245.105 1923.48 244.411 L1923.48 240.268 Q1925.36 241.286 1927.19 241.772 Q1929.01 242.258 1930.91 242.258 Q1935.1 242.258 1937.19 240.059 Q1939.27 237.883 1939.27 233.462 L1939.27 231.356 Q1937.95 233.647 1935.89 234.781 Q1933.83 235.916 1930.96 235.916 Q1926.19 235.916 1923.27 232.281 Q1920.36 228.647 1920.36 222.652 Q1920.36 216.633 1923.27 212.999 Q1926.19 209.365 1930.96 209.365 Q1933.83 209.365 1935.89 210.499 Q1937.95 211.633 1939.27 213.925 L1939.27 209.99 L1943.53 209.99 L1943.53 232.698 Z" fill="#000000" fill-rule="nonzero" fill-opacity="1"></path><path clip-path="url(#clip640)" d="M1952.3 199.897 L1956.56 199.897 L1956.56 235.916 L1952.3 235.916 L1952.3 199.897 Z" fill="#000000" fill-rule="nonzero" fill-opacity="1"></path><path clip-path="url(#clip640)" d="M1987.65 221.888 L1987.65 223.971 L1968.07 223.971 Q1968.34 228.369 1970.7 230.684 Q1973.09 232.976 1977.32 232.976 Q1979.78 232.976 1982.07 232.374 Q1984.38 231.772 1986.65 230.569 L1986.65 234.596 Q1984.36 235.568 1981.95 236.078 Q1979.55 236.587 1977.07 236.587 Q1970.87 236.587 1967.23 232.976 Q1963.62 229.365 1963.62 223.207 Q1963.62 216.842 1967.05 213.115 Q1970.5 209.365 1976.33 209.365 Q1981.56 209.365 1984.59 212.745 Q1987.65 216.101 1987.65 221.888 M1983.39 220.638 Q1983.34 217.143 1981.42 215.059 Q1979.52 212.976 1976.38 212.976 Q1972.81 212.976 1970.66 214.99 Q1968.53 217.004 1968.2 220.661 L1983.39 220.638 Z" fill="#000000" fill-rule="nonzero" fill-opacity="1"></path><path clip-path="url(#clip640)" d="M2011.17 210.754 L2011.17 214.782 Q2009.36 213.856 2007.42 213.393 Q2005.47 212.93 2003.39 212.93 Q2000.22 212.93 1998.62 213.902 Q1997.05 214.874 1997.05 216.819 Q1997.05 218.3 1998.18 219.157 Q1999.32 219.99 2002.74 220.754 L2004.2 221.078 Q2008.74 222.05 2010.63 223.832 Q2012.56 225.592 2012.56 228.763 Q2012.56 232.374 2009.69 234.481 Q2006.84 236.587 2001.84 236.587 Q1999.76 236.587 1997.49 236.17 Q1995.24 235.777 1992.74 234.967 L1992.74 230.569 Q1995.1 231.795 1997.39 232.42 Q1999.69 233.022 2001.93 233.022 Q2004.94 233.022 2006.56 232.004 Q2008.18 230.962 2008.18 229.087 Q2008.18 227.351 2007 226.425 Q2005.84 225.499 2001.88 224.643 L2000.4 224.295 Q1996.45 223.462 1994.69 221.749 Q1992.93 220.013 1992.93 217.004 Q1992.93 213.346 1995.52 211.356 Q1998.11 209.365 2002.88 209.365 Q2005.24 209.365 2007.32 209.712 Q2009.41 210.059 2011.17 210.754 Z" fill="#000000" fill-rule="nonzero" fill-opacity="1"></path><path clip-path="url(#clip640)" d="M2020.43 230.036 L2025.31 230.036 L2025.31 234.018 L2021.51 241.425 L2018.53 241.425 L2020.43 234.018 L2020.43 230.036 Z" fill="#000000" fill-rule="nonzero" fill-opacity="1"></path><path clip-path="url(#clip640)" d="M2050.94 210.754 L2050.94 214.782 Q2049.13 213.856 2047.19 213.393 Q2045.24 212.93 2043.16 212.93 Q2039.99 212.93 2038.39 213.902 Q2036.82 214.874 2036.82 216.819 Q2036.82 218.3 2037.95 219.157 Q2039.08 219.99 2042.51 220.754 L2043.97 221.078 Q2048.5 222.05 2050.4 223.832 Q2052.32 225.592 2052.32 228.763 Q2052.32 232.374 2049.45 234.481 Q2046.61 236.587 2041.61 236.587 Q2039.52 236.587 2037.26 236.17 Q2035.01 235.777 2032.51 234.967 L2032.51 230.569 Q2034.87 231.795 2037.16 232.42 Q2039.45 233.022 2041.7 233.022 Q2044.71 233.022 2046.33 232.004 Q2047.95 230.962 2047.95 229.087 Q2047.95 227.351 2046.77 226.425 Q2045.61 225.499 2041.65 224.643 L2040.17 224.295 Q2036.21 223.462 2034.45 221.749 Q2032.69 220.013 2032.69 217.004 Q2032.69 213.346 2035.29 211.356 Q2037.88 209.365 2042.65 209.365 Q2045.01 209.365 2047.09 209.712 Q2049.18 210.059 2050.94 210.754 Z" fill="#000000" fill-rule="nonzero" fill-opacity="1"></path><path clip-path="url(#clip640)" d="M2059.11 209.99 L2063.37 209.99 L2063.37 235.916 L2059.11 235.916 L2059.11 209.99 M2059.11 199.897 L2063.37 199.897 L2063.37 205.291 L2059.11 205.291 L2059.11 199.897 Z" fill="#000000" fill-rule="nonzero" fill-opacity="1"></path><path clip-path="url(#clip640)" d="M2076.49 202.629 L2076.49 209.99 L2085.26 209.99 L2085.26 213.3 L2076.49 213.3 L2076.49 227.374 Q2076.49 230.545 2077.35 231.448 Q2078.23 232.351 2080.89 232.351 L2085.26 232.351 L2085.26 235.916 L2080.89 235.916 Q2075.96 235.916 2074.08 234.087 Q2072.21 232.235 2072.21 227.374 L2072.21 213.3 L2069.08 213.3 L2069.08 209.99 L2072.21 209.99 L2072.21 202.629 L2076.49 202.629 Z" fill="#000000" fill-rule="nonzero" fill-opacity="1"></path><path clip-path="url(#clip640)" d="M2113.04 221.888 L2113.04 223.971 L2093.46 223.971 Q2093.74 228.369 2096.1 230.684 Q2098.48 232.976 2102.72 232.976 Q2105.17 232.976 2107.46 232.374 Q2109.78 231.772 2112.05 230.569 L2112.05 234.596 Q2109.75 235.568 2107.35 236.078 Q2104.94 236.587 2102.46 236.587 Q2096.26 236.587 2092.63 232.976 Q2089.01 229.365 2089.01 223.207 Q2089.01 216.842 2092.44 213.115 Q2095.89 209.365 2101.72 209.365 Q2106.95 209.365 2109.99 212.745 Q2113.04 216.101 2113.04 221.888 M2108.78 220.638 Q2108.74 217.143 2106.81 215.059 Q2104.92 212.976 2101.77 212.976 Q2098.2 212.976 2096.05 214.99 Q2093.92 217.004 2093.6 220.661 L2108.78 220.638 Z" fill="#000000" fill-rule="nonzero" fill-opacity="1"></path><path clip-path="url(#clip640)" d="M2136.56 210.754 L2136.56 214.782 Q2134.75 213.856 2132.81 213.393 Q2130.87 212.93 2128.78 212.93 Q2125.61 212.93 2124.01 213.902 Q2122.44 214.874 2122.44 216.819 Q2122.44 218.3 2123.57 219.157 Q2124.71 219.99 2128.13 220.754 L2129.59 221.078 Q2134.13 222.05 2136.03 223.832 Q2137.95 225.592 2137.95 228.763 Q2137.95 232.374 2135.08 234.481 Q2132.23 236.587 2127.23 236.587 Q2125.15 236.587 2122.88 236.17 Q2120.63 235.777 2118.13 234.967 L2118.13 230.569 Q2120.5 231.795 2122.79 232.42 Q2125.08 233.022 2127.32 233.022 Q2130.33 233.022 2131.95 232.004 Q2133.57 230.962 2133.57 229.087 Q2133.57 227.351 2132.39 226.425 Q2131.24 225.499 2127.28 224.643 L2125.8 224.295 Q2121.84 223.462 2120.08 221.749 Q2118.32 220.013 2118.32 217.004 Q2118.32 213.346 2120.91 211.356 Q2123.5 209.365 2128.27 209.365 Q2130.63 209.365 2132.72 209.712 Q2134.8 210.059 2136.56 210.754 Z" fill="#000000" fill-rule="nonzero" fill-opacity="1"></path><path clip-path="url(#clip640)" d="M2145.29 214.388 L2174.96 214.388 L2174.96 218.277 L2145.29 218.277 L2145.29 214.388 M2145.29 223.832 L2174.96 223.832 L2174.96 227.768 L2145.29 227.768 L2145.29 223.832 Z" fill="#000000" fill-rule="nonzero" fill-opacity="1"></path><path clip-path="url(#clip640)" d="M2185.87 231.981 L2193.5 231.981 L2193.5 205.615 L2185.19 207.282 L2185.19 203.022 L2193.46 201.356 L2198.13 201.356 L2198.13 231.981 L2205.77 231.981 L2205.77 235.916 L2185.87 235.916 L2185.87 231.981 Z" fill="#000000" fill-rule="nonzero" fill-opacity="1"></path><path clip-path="url(#clip640)" d="M2225.22 219.504 Q2221.88 219.504 2219.96 221.286 Q2218.06 223.069 2218.06 226.194 Q2218.06 229.319 2219.96 231.101 Q2221.88 232.883 2225.22 232.883 Q2228.55 232.883 2230.47 231.101 Q2232.39 229.295 2232.39 226.194 Q2232.39 223.069 2230.47 221.286 Q2228.57 219.504 2225.22 219.504 M2220.54 217.513 Q2217.53 216.772 2215.84 214.712 Q2214.18 212.652 2214.18 209.689 Q2214.18 205.546 2217.12 203.138 Q2220.08 200.731 2225.22 200.731 Q2230.38 200.731 2233.32 203.138 Q2236.26 205.546 2236.26 209.689 Q2236.26 212.652 2234.57 214.712 Q2232.9 216.772 2229.92 217.513 Q2233.3 218.3 2235.17 220.592 Q2237.07 222.883 2237.07 226.194 Q2237.07 231.217 2233.99 233.902 Q2230.93 236.587 2225.22 236.587 Q2219.5 236.587 2216.42 233.902 Q2213.37 231.217 2213.37 226.194 Q2213.37 222.883 2215.26 220.592 Q2217.16 218.3 2220.54 217.513 M2218.83 210.129 Q2218.83 212.814 2220.49 214.319 Q2222.18 215.823 2225.22 215.823 Q2228.23 215.823 2229.92 214.319 Q2231.63 212.814 2231.63 210.129 Q2231.63 207.444 2229.92 205.939 Q2228.23 204.434 2225.22 204.434 Q2222.18 204.434 2220.49 205.939 Q2218.83 207.444 2218.83 210.129 Z" fill="#000000" fill-rule="nonzero" fill-opacity="1"></path><polyline clip-path="url(#clip640)" style="stroke:#e26f46; stroke-linecap:round; stroke-linejoin:round; stroke-width:4; stroke-opacity:1; fill:none" points="1647.21,270.476 1785.6,270.476 "></polyline>
<path clip-path="url(#clip640)" d="M1827.09 262.594 L1827.09 266.622 Q1825.29 265.696 1823.34 265.233 Q1821.4 264.77 1819.32 264.77 Q1816.15 264.77 1814.55 265.742 Q1812.97 266.714 1812.97 268.659 Q1812.97 270.14 1814.11 270.997 Q1815.24 271.83 1818.67 272.594 L1820.13 272.918 Q1824.66 273.89 1826.56 275.672 Q1828.48 277.432 1828.48 280.603 Q1828.48 284.214 1825.61 286.321 Q1822.77 288.427 1817.77 288.427 Q1815.68 288.427 1813.41 288.01 Q1811.17 287.617 1808.67 286.807 L1808.67 282.409 Q1811.03 283.635 1813.32 284.26 Q1815.61 284.862 1817.86 284.862 Q1820.87 284.862 1822.49 283.844 Q1824.11 282.802 1824.11 280.927 Q1824.11 279.191 1822.93 278.265 Q1821.77 277.339 1817.81 276.483 L1816.33 276.135 Q1812.37 275.302 1810.61 273.589 Q1808.85 271.853 1808.85 268.844 Q1808.85 265.186 1811.45 263.196 Q1814.04 261.205 1818.81 261.205 Q1821.17 261.205 1823.25 261.552 Q1825.33 261.899 1827.09 262.594 Z" fill="#000000" fill-rule="nonzero" fill-opacity="1"></path><path clip-path="url(#clip640)" d="M1837.81 274.816 Q1837.81 279.515 1839.73 282.2 Q1841.68 284.862 1845.06 284.862 Q1848.44 284.862 1850.38 282.2 Q1852.33 279.515 1852.33 274.816 Q1852.33 270.117 1850.38 267.455 Q1848.44 264.77 1845.06 264.77 Q1841.68 264.77 1839.73 267.455 Q1837.81 270.117 1837.81 274.816 M1852.33 283.867 Q1850.98 286.182 1848.92 287.316 Q1846.89 288.427 1844.02 288.427 Q1839.32 288.427 1836.35 284.677 Q1833.41 280.927 1833.41 274.816 Q1833.41 268.705 1836.35 264.955 Q1839.32 261.205 1844.02 261.205 Q1846.89 261.205 1848.92 262.339 Q1850.98 263.45 1852.33 265.765 L1852.33 261.83 L1856.58 261.83 L1856.58 297.617 L1852.33 297.617 L1852.33 283.867 Z" fill="#000000" fill-rule="nonzero" fill-opacity="1"></path><path clip-path="url(#clip640)" d="M1864.92 277.524 L1864.92 261.83 L1869.18 261.83 L1869.18 277.362 Q1869.18 281.043 1870.61 282.895 Q1872.05 284.723 1874.92 284.723 Q1878.37 284.723 1880.36 282.524 Q1882.37 280.325 1882.37 276.529 L1882.37 261.83 L1886.63 261.83 L1886.63 287.756 L1882.37 287.756 L1882.37 283.774 Q1880.82 286.135 1878.76 287.293 Q1876.72 288.427 1874.02 288.427 Q1869.55 288.427 1867.23 285.649 Q1864.92 282.871 1864.92 277.524 M1875.64 261.205 L1875.64 261.205 Z" fill="#000000" fill-rule="nonzero" fill-opacity="1"></path><path clip-path="url(#clip640)" d="M1907.19 274.723 Q1902.02 274.723 1900.03 275.904 Q1898.04 277.084 1898.04 279.932 Q1898.04 282.2 1899.52 283.543 Q1901.03 284.862 1903.6 284.862 Q1907.14 284.862 1909.27 282.362 Q1911.42 279.839 1911.42 275.672 L1911.42 274.723 L1907.19 274.723 M1915.68 272.964 L1915.68 287.756 L1911.42 287.756 L1911.42 283.821 Q1909.96 286.182 1907.79 287.316 Q1905.61 288.427 1902.46 288.427 Q1898.48 288.427 1896.12 286.205 Q1893.78 283.959 1893.78 280.209 Q1893.78 275.834 1896.7 273.612 Q1899.64 271.39 1905.45 271.39 L1911.42 271.39 L1911.42 270.973 Q1911.42 268.034 1909.48 266.436 Q1907.56 264.816 1904.06 264.816 Q1901.84 264.816 1899.73 265.348 Q1897.63 265.881 1895.68 266.946 L1895.68 263.01 Q1898.02 262.108 1900.22 261.668 Q1902.42 261.205 1904.5 261.205 Q1910.13 261.205 1912.9 264.122 Q1915.68 267.038 1915.68 272.964 Z" fill="#000000" fill-rule="nonzero" fill-opacity="1"></path><path clip-path="url(#clip640)" d="M1939.48 265.811 Q1938.76 265.395 1937.9 265.21 Q1937.07 265.001 1936.05 265.001 Q1932.44 265.001 1930.5 267.362 Q1928.58 269.7 1928.58 274.098 L1928.58 287.756 L1924.29 287.756 L1924.29 261.83 L1928.58 261.83 L1928.58 265.858 Q1929.92 263.497 1932.07 262.362 Q1934.22 261.205 1937.3 261.205 Q1937.74 261.205 1938.27 261.274 Q1938.81 261.321 1939.45 261.436 L1939.48 265.811 Z" fill="#000000" fill-rule="nonzero" fill-opacity="1"></path><path clip-path="url(#clip640)" d="M1965.08 273.728 L1965.08 275.811 L1945.5 275.811 Q1945.77 280.209 1948.14 282.524 Q1950.52 284.816 1954.76 284.816 Q1957.21 284.816 1959.5 284.214 Q1961.82 283.612 1964.08 282.409 L1964.08 286.436 Q1961.79 287.408 1959.39 287.918 Q1956.98 288.427 1954.5 288.427 Q1948.3 288.427 1944.66 284.816 Q1941.05 281.205 1941.05 275.047 Q1941.05 268.682 1944.48 264.955 Q1947.93 261.205 1953.76 261.205 Q1958.99 261.205 1962.02 264.585 Q1965.08 267.941 1965.08 273.728 M1960.82 272.478 Q1960.77 268.983 1958.85 266.899 Q1956.95 264.816 1953.81 264.816 Q1950.24 264.816 1948.09 266.83 Q1945.96 268.844 1945.64 272.501 L1960.82 272.478 Z" fill="#000000" fill-rule="nonzero" fill-opacity="1"></path><path clip-path="url(#clip640)" d="M1988.6 262.594 L1988.6 266.622 Q1986.79 265.696 1984.85 265.233 Q1982.9 264.77 1980.82 264.77 Q1977.65 264.77 1976.05 265.742 Q1974.48 266.714 1974.48 268.659 Q1974.48 270.14 1975.61 270.997 Q1976.75 271.83 1980.17 272.594 L1981.63 272.918 Q1986.17 273.89 1988.07 275.672 Q1989.99 277.432 1989.99 280.603 Q1989.99 284.214 1987.12 286.321 Q1984.27 288.427 1979.27 288.427 Q1977.19 288.427 1974.92 288.01 Q1972.67 287.617 1970.17 286.807 L1970.17 282.409 Q1972.53 283.635 1974.82 284.26 Q1977.12 284.862 1979.36 284.862 Q1982.37 284.862 1983.99 283.844 Q1985.61 282.802 1985.61 280.927 Q1985.61 279.191 1984.43 278.265 Q1983.27 277.339 1979.32 276.483 L1977.83 276.135 Q1973.88 275.302 1972.12 273.589 Q1970.36 271.853 1970.36 268.844 Q1970.36 265.186 1972.95 263.196 Q1975.54 261.205 1980.31 261.205 Q1982.67 261.205 1984.76 261.552 Q1986.84 261.899 1988.6 262.594 Z" fill="#000000" fill-rule="nonzero" fill-opacity="1"></path><path clip-path="url(#clip640)" d="M1997.86 281.876 L2002.74 281.876 L2002.74 285.858 L1998.95 293.265 L1995.96 293.265 L1997.86 285.858 L1997.86 281.876 Z" fill="#000000" fill-rule="nonzero" fill-opacity="1"></path><path clip-path="url(#clip640)" d="M2028.37 262.594 L2028.37 266.622 Q2026.56 265.696 2024.62 265.233 Q2022.67 264.77 2020.59 264.77 Q2017.42 264.77 2015.82 265.742 Q2014.25 266.714 2014.25 268.659 Q2014.25 270.14 2015.38 270.997 Q2016.51 271.83 2019.94 272.594 L2021.4 272.918 Q2025.94 273.89 2027.83 275.672 Q2029.76 277.432 2029.76 280.603 Q2029.76 284.214 2026.88 286.321 Q2024.04 288.427 2019.04 288.427 Q2016.95 288.427 2014.69 288.01 Q2012.44 287.617 2009.94 286.807 L2009.94 282.409 Q2012.3 283.635 2014.59 284.26 Q2016.88 284.862 2019.13 284.862 Q2022.14 284.862 2023.76 283.844 Q2025.38 282.802 2025.38 280.927 Q2025.38 279.191 2024.2 278.265 Q2023.04 277.339 2019.08 276.483 L2017.6 276.135 Q2013.64 275.302 2011.88 273.589 Q2010.13 271.853 2010.13 268.844 Q2010.13 265.186 2012.72 263.196 Q2015.31 261.205 2020.08 261.205 Q2022.44 261.205 2024.52 261.552 Q2026.61 261.899 2028.37 262.594 Z" fill="#000000" fill-rule="nonzero" fill-opacity="1"></path><path clip-path="url(#clip640)" d="M2036.54 261.83 L2040.8 261.83 L2040.8 287.756 L2036.54 287.756 L2036.54 261.83 M2036.54 251.737 L2040.8 251.737 L2040.8 257.131 L2036.54 257.131 L2036.54 251.737 Z" fill="#000000" fill-rule="nonzero" fill-opacity="1"></path><path clip-path="url(#clip640)" d="M2053.92 254.469 L2053.92 261.83 L2062.69 261.83 L2062.69 265.14 L2053.92 265.14 L2053.92 279.214 Q2053.92 282.385 2054.78 283.288 Q2055.66 284.191 2058.32 284.191 L2062.69 284.191 L2062.69 287.756 L2058.32 287.756 Q2053.39 287.756 2051.51 285.927 Q2049.64 284.075 2049.64 279.214 L2049.64 265.14 L2046.51 265.14 L2046.51 261.83 L2049.64 261.83 L2049.64 254.469 L2053.92 254.469 Z" fill="#000000" fill-rule="nonzero" fill-opacity="1"></path><path clip-path="url(#clip640)" d="M2090.47 273.728 L2090.47 275.811 L2070.89 275.811 Q2071.17 280.209 2073.53 282.524 Q2075.91 284.816 2080.15 284.816 Q2082.6 284.816 2084.89 284.214 Q2087.21 283.612 2089.48 282.409 L2089.48 286.436 Q2087.19 287.408 2084.78 287.918 Q2082.37 288.427 2079.89 288.427 Q2073.69 288.427 2070.06 284.816 Q2066.44 281.205 2066.44 275.047 Q2066.44 268.682 2069.87 264.955 Q2073.32 261.205 2079.15 261.205 Q2084.38 261.205 2087.42 264.585 Q2090.47 267.941 2090.47 273.728 M2086.21 272.478 Q2086.17 268.983 2084.25 266.899 Q2082.35 264.816 2079.2 264.816 Q2075.63 264.816 2073.48 266.83 Q2071.35 268.844 2071.03 272.501 L2086.21 272.478 Z" fill="#000000" fill-rule="nonzero" fill-opacity="1"></path><path clip-path="url(#clip640)" d="M2113.99 262.594 L2113.99 266.622 Q2112.19 265.696 2110.24 265.233 Q2108.3 264.77 2106.21 264.77 Q2103.04 264.77 2101.44 265.742 Q2099.87 266.714 2099.87 268.659 Q2099.87 270.14 2101 270.997 Q2102.14 271.83 2105.56 272.594 L2107.02 272.918 Q2111.56 273.89 2113.46 275.672 Q2115.38 277.432 2115.38 280.603 Q2115.38 284.214 2112.51 286.321 Q2109.66 288.427 2104.66 288.427 Q2102.58 288.427 2100.31 288.01 Q2098.06 287.617 2095.56 286.807 L2095.56 282.409 Q2097.93 283.635 2100.22 284.26 Q2102.51 284.862 2104.75 284.862 Q2107.76 284.862 2109.38 283.844 Q2111 282.802 2111 280.927 Q2111 279.191 2109.82 278.265 Q2108.67 277.339 2104.71 276.483 L2103.23 276.135 Q2099.27 275.302 2097.51 273.589 Q2095.75 271.853 2095.75 268.844 Q2095.75 265.186 2098.34 263.196 Q2100.94 261.205 2105.7 261.205 Q2108.06 261.205 2110.15 261.552 Q2112.23 261.899 2113.99 262.594 Z" fill="#000000" fill-rule="nonzero" fill-opacity="1"></path><path clip-path="url(#clip640)" d="M2122.72 266.228 L2152.39 266.228 L2152.39 270.117 L2122.72 270.117 L2122.72 266.228 M2122.72 275.672 L2152.39 275.672 L2152.39 279.608 L2122.72 279.608 L2122.72 275.672 Z" fill="#000000" fill-rule="nonzero" fill-opacity="1"></path><path clip-path="url(#clip640)" d="M2163.3 283.821 L2170.93 283.821 L2170.93 257.455 L2162.62 259.122 L2162.62 254.862 L2170.89 253.196 L2175.56 253.196 L2175.56 283.821 L2183.2 283.821 L2183.2 287.756 L2163.3 287.756 L2163.3 283.821 Z" fill="#000000" fill-rule="nonzero" fill-opacity="1"></path><path clip-path="url(#clip640)" d="M2202.65 271.344 Q2199.31 271.344 2197.39 273.126 Q2195.49 274.909 2195.49 278.034 Q2195.49 281.159 2197.39 282.941 Q2199.31 284.723 2202.65 284.723 Q2205.98 284.723 2207.9 282.941 Q2209.82 281.135 2209.82 278.034 Q2209.82 274.909 2207.9 273.126 Q2206 271.344 2202.65 271.344 M2197.97 269.353 Q2194.96 268.612 2193.27 266.552 Q2191.61 264.492 2191.61 261.529 Q2191.61 257.386 2194.55 254.978 Q2197.51 252.571 2202.65 252.571 Q2207.81 252.571 2210.75 254.978 Q2213.69 257.386 2213.69 261.529 Q2213.69 264.492 2212 266.552 Q2210.33 268.612 2207.35 269.353 Q2210.73 270.14 2212.6 272.432 Q2214.5 274.723 2214.5 278.034 Q2214.5 283.057 2211.42 285.742 Q2208.37 288.427 2202.65 288.427 Q2196.93 288.427 2193.85 285.742 Q2190.8 283.057 2190.8 278.034 Q2190.8 274.723 2192.69 272.432 Q2194.59 270.14 2197.97 269.353 M2196.26 261.969 Q2196.26 264.654 2197.93 266.159 Q2199.62 267.663 2202.65 267.663 Q2205.66 267.663 2207.35 266.159 Q2209.06 264.654 2209.06 261.969 Q2209.06 259.284 2207.35 257.779 Q2205.66 256.274 2202.65 256.274 Q2199.62 256.274 2197.93 257.779 Q2196.26 259.284 2196.26 261.969 Z" fill="#000000" fill-rule="nonzero" fill-opacity="1"></path><polyline clip-path="url(#clip640)" style="stroke:#3da44d; stroke-linecap:round; stroke-linejoin:round; stroke-width:4; stroke-opacity:1; fill:none" points="1647.21,322.316 1785.6,322.316 "></polyline>
<path clip-path="url(#clip640)" d="M1827.58 317.605 L1827.58 303.577 L1831.84 303.577 L1831.84 339.596 L1827.58 339.596 L1827.58 335.707 Q1826.24 338.022 1824.18 339.156 Q1822.14 340.267 1819.27 340.267 Q1814.57 340.267 1811.61 336.517 Q1808.67 332.767 1808.67 326.656 Q1808.67 320.545 1811.61 316.795 Q1814.57 313.045 1819.27 313.045 Q1822.14 313.045 1824.18 314.179 Q1826.24 315.29 1827.58 317.605 M1813.07 326.656 Q1813.07 331.355 1814.99 334.04 Q1816.93 336.702 1820.31 336.702 Q1823.69 336.702 1825.64 334.04 Q1827.58 331.355 1827.58 326.656 Q1827.58 321.957 1825.64 319.295 Q1823.69 316.61 1820.31 316.61 Q1816.93 316.61 1814.99 319.295 Q1813.07 321.957 1813.07 326.656 Z" fill="#000000" fill-rule="nonzero" fill-opacity="1"></path><path clip-path="url(#clip640)" d="M1840.61 313.67 L1844.87 313.67 L1844.87 339.596 L1840.61 339.596 L1840.61 313.67 M1840.61 303.577 L1844.87 303.577 L1844.87 308.971 L1840.61 308.971 L1840.61 303.577 Z" fill="#000000" fill-rule="nonzero" fill-opacity="1"></path><path clip-path="url(#clip640)" d="M1865.57 326.563 Q1860.4 326.563 1858.41 327.744 Q1856.42 328.924 1856.42 331.772 Q1856.42 334.04 1857.9 335.383 Q1859.41 336.702 1861.98 336.702 Q1865.52 336.702 1867.65 334.202 Q1869.8 331.679 1869.8 327.512 L1869.8 326.563 L1865.57 326.563 M1874.06 324.804 L1874.06 339.596 L1869.8 339.596 L1869.8 335.661 Q1868.34 338.022 1866.17 339.156 Q1863.99 340.267 1860.84 340.267 Q1856.86 340.267 1854.5 338.045 Q1852.16 335.799 1852.16 332.049 Q1852.16 327.674 1855.08 325.452 Q1858.02 323.23 1863.83 323.23 L1869.8 323.23 L1869.8 322.813 Q1869.8 319.874 1867.86 318.276 Q1865.94 316.656 1862.44 316.656 Q1860.22 316.656 1858.11 317.188 Q1856.01 317.721 1854.06 318.786 L1854.06 314.85 Q1856.4 313.948 1858.6 313.508 Q1860.8 313.045 1862.88 313.045 Q1868.51 313.045 1871.28 315.962 Q1874.06 318.878 1874.06 324.804 Z" fill="#000000" fill-rule="nonzero" fill-opacity="1"></path><path clip-path="url(#clip640)" d="M1903.02 318.647 Q1904.62 315.776 1906.84 314.411 Q1909.06 313.045 1912.07 313.045 Q1916.12 313.045 1918.32 315.892 Q1920.52 318.716 1920.52 323.948 L1920.52 339.596 L1916.24 339.596 L1916.24 324.087 Q1916.24 320.36 1914.92 318.554 Q1913.6 316.749 1910.89 316.749 Q1907.58 316.749 1905.66 318.948 Q1903.74 321.147 1903.74 324.943 L1903.74 339.596 L1899.45 339.596 L1899.45 324.087 Q1899.45 320.337 1898.14 318.554 Q1896.82 316.749 1894.06 316.749 Q1890.8 316.749 1888.88 318.971 Q1886.95 321.17 1886.95 324.943 L1886.95 339.596 L1882.67 339.596 L1882.67 313.67 L1886.95 313.67 L1886.95 317.698 Q1888.41 315.313 1890.45 314.179 Q1892.49 313.045 1895.29 313.045 Q1898.11 313.045 1900.08 314.48 Q1902.07 315.915 1903.02 318.647 Z" fill="#000000" fill-rule="nonzero" fill-opacity="1"></path><path clip-path="url(#clip640)" d="M1939.06 316.656 Q1935.64 316.656 1933.64 319.341 Q1931.65 322.003 1931.65 326.656 Q1931.65 331.309 1933.62 333.994 Q1935.61 336.656 1939.06 336.656 Q1942.46 336.656 1944.45 333.971 Q1946.45 331.286 1946.45 326.656 Q1946.45 322.05 1944.45 319.364 Q1942.46 316.656 1939.06 316.656 M1939.06 313.045 Q1944.62 313.045 1947.79 316.656 Q1950.96 320.267 1950.96 326.656 Q1950.96 333.022 1947.79 336.656 Q1944.62 340.267 1939.06 340.267 Q1933.48 340.267 1930.31 336.656 Q1927.16 333.022 1927.16 326.656 Q1927.16 320.267 1930.31 316.656 Q1933.48 313.045 1939.06 313.045 Z" fill="#000000" fill-rule="nonzero" fill-opacity="1"></path><path clip-path="url(#clip640)" d="M1979.57 323.948 L1979.57 339.596 L1975.31 339.596 L1975.31 324.087 Q1975.31 320.406 1973.88 318.577 Q1972.44 316.749 1969.57 316.749 Q1966.12 316.749 1964.13 318.948 Q1962.14 321.147 1962.14 324.943 L1962.14 339.596 L1957.86 339.596 L1957.86 313.67 L1962.14 313.67 L1962.14 317.698 Q1963.67 315.36 1965.73 314.202 Q1967.81 313.045 1970.52 313.045 Q1974.99 313.045 1977.28 315.823 Q1979.57 318.577 1979.57 323.948 Z" fill="#000000" fill-rule="nonzero" fill-opacity="1"></path><path clip-path="url(#clip640)" d="M2005.13 317.605 L2005.13 303.577 L2009.38 303.577 L2009.38 339.596 L2005.13 339.596 L2005.13 335.707 Q2003.78 338.022 2001.72 339.156 Q1999.69 340.267 1996.82 340.267 Q1992.12 340.267 1989.15 336.517 Q1986.21 332.767 1986.21 326.656 Q1986.21 320.545 1989.15 316.795 Q1992.12 313.045 1996.82 313.045 Q1999.69 313.045 2001.72 314.179 Q2003.78 315.29 2005.13 317.605 M1990.61 326.656 Q1990.61 331.355 1992.53 334.04 Q1994.48 336.702 1997.86 336.702 Q2001.24 336.702 2003.18 334.04 Q2005.13 331.355 2005.13 326.656 Q2005.13 321.957 2003.18 319.295 Q2001.24 316.61 1997.86 316.61 Q1994.48 316.61 1992.53 319.295 Q1990.61 321.957 1990.61 326.656 Z" fill="#000000" fill-rule="nonzero" fill-opacity="1"></path><path clip-path="url(#clip640)" d="M2034.69 314.434 L2034.69 318.462 Q2032.88 317.536 2030.94 317.073 Q2028.99 316.61 2026.91 316.61 Q2023.74 316.61 2022.14 317.582 Q2020.57 318.554 2020.57 320.499 Q2020.57 321.98 2021.7 322.837 Q2022.83 323.67 2026.26 324.434 L2027.72 324.758 Q2032.26 325.73 2034.15 327.512 Q2036.07 329.272 2036.07 332.443 Q2036.07 336.054 2033.2 338.161 Q2030.36 340.267 2025.36 340.267 Q2023.27 340.267 2021.01 339.85 Q2018.76 339.457 2016.26 338.647 L2016.26 334.249 Q2018.62 335.475 2020.91 336.1 Q2023.2 336.702 2025.45 336.702 Q2028.46 336.702 2030.08 335.684 Q2031.7 334.642 2031.7 332.767 Q2031.7 331.031 2030.52 330.105 Q2029.36 329.179 2025.4 328.323 L2023.92 327.975 Q2019.96 327.142 2018.2 325.429 Q2016.44 323.693 2016.44 320.684 Q2016.44 317.026 2019.04 315.036 Q2021.63 313.045 2026.4 313.045 Q2028.76 313.045 2030.84 313.392 Q2032.93 313.739 2034.69 314.434 Z" fill="#000000" fill-rule="nonzero" fill-opacity="1"></path><path clip-path="url(#clip640)" d="M2043.94 333.716 L2048.83 333.716 L2048.83 337.698 L2045.03 345.105 L2042.05 345.105 L2043.94 337.698 L2043.94 333.716 Z" fill="#000000" fill-rule="nonzero" fill-opacity="1"></path><path clip-path="url(#clip640)" d="M2074.45 314.434 L2074.45 318.462 Q2072.65 317.536 2070.7 317.073 Q2068.76 316.61 2066.68 316.61 Q2063.5 316.61 2061.91 317.582 Q2060.33 318.554 2060.33 320.499 Q2060.33 321.98 2061.47 322.837 Q2062.6 323.67 2066.03 324.434 L2067.49 324.758 Q2072.02 325.73 2073.92 327.512 Q2075.84 329.272 2075.84 332.443 Q2075.84 336.054 2072.97 338.161 Q2070.13 340.267 2065.13 340.267 Q2063.04 340.267 2060.77 339.85 Q2058.53 339.457 2056.03 338.647 L2056.03 334.249 Q2058.39 335.475 2060.68 336.1 Q2062.97 336.702 2065.22 336.702 Q2068.23 336.702 2069.85 335.684 Q2071.47 334.642 2071.47 332.767 Q2071.47 331.031 2070.29 330.105 Q2069.13 329.179 2065.17 328.323 L2063.69 327.975 Q2059.73 327.142 2057.97 325.429 Q2056.21 323.693 2056.21 320.684 Q2056.21 317.026 2058.81 315.036 Q2061.4 313.045 2066.17 313.045 Q2068.53 313.045 2070.61 313.392 Q2072.69 313.739 2074.45 314.434 Z" fill="#000000" fill-rule="nonzero" fill-opacity="1"></path><path clip-path="url(#clip640)" d="M2082.63 313.67 L2086.88 313.67 L2086.88 339.596 L2082.63 339.596 L2082.63 313.67 M2082.63 303.577 L2086.88 303.577 L2086.88 308.971 L2082.63 308.971 L2082.63 303.577 Z" fill="#000000" fill-rule="nonzero" fill-opacity="1"></path><path clip-path="url(#clip640)" d="M2100.01 306.309 L2100.01 313.67 L2108.78 313.67 L2108.78 316.98 L2100.01 316.98 L2100.01 331.054 Q2100.01 334.225 2100.87 335.128 Q2101.75 336.031 2104.41 336.031 L2108.78 336.031 L2108.78 339.596 L2104.41 339.596 Q2099.48 339.596 2097.6 337.767 Q2095.73 335.915 2095.73 331.054 L2095.73 316.98 L2092.6 316.98 L2092.6 313.67 L2095.73 313.67 L2095.73 306.309 L2100.01 306.309 Z" fill="#000000" fill-rule="nonzero" fill-opacity="1"></path><path clip-path="url(#clip640)" d="M2136.56 325.568 L2136.56 327.651 L2116.98 327.651 Q2117.25 332.049 2119.62 334.364 Q2122 336.656 2126.24 336.656 Q2128.69 336.656 2130.98 336.054 Q2133.3 335.452 2135.56 334.249 L2135.56 338.276 Q2133.27 339.248 2130.87 339.758 Q2128.46 340.267 2125.98 340.267 Q2119.78 340.267 2116.14 336.656 Q2112.53 333.045 2112.53 326.887 Q2112.53 320.522 2115.96 316.795 Q2119.41 313.045 2125.24 313.045 Q2130.47 313.045 2133.5 316.425 Q2136.56 319.781 2136.56 325.568 M2132.3 324.318 Q2132.25 320.823 2130.33 318.739 Q2128.44 316.656 2125.29 316.656 Q2121.72 316.656 2119.57 318.67 Q2117.44 320.684 2117.12 324.341 L2132.3 324.318 Z" fill="#000000" fill-rule="nonzero" fill-opacity="1"></path><path clip-path="url(#clip640)" d="M2160.08 314.434 L2160.08 318.462 Q2158.27 317.536 2156.33 317.073 Q2154.38 316.61 2152.3 316.61 Q2149.13 316.61 2147.53 317.582 Q2145.96 318.554 2145.96 320.499 Q2145.96 321.98 2147.09 322.837 Q2148.23 323.67 2151.65 324.434 L2153.11 324.758 Q2157.65 325.73 2159.55 327.512 Q2161.47 329.272 2161.47 332.443 Q2161.47 336.054 2158.6 338.161 Q2155.75 340.267 2150.75 340.267 Q2148.67 340.267 2146.4 339.85 Q2144.15 339.457 2141.65 338.647 L2141.65 334.249 Q2144.01 335.475 2146.31 336.1 Q2148.6 336.702 2150.84 336.702 Q2153.85 336.702 2155.47 335.684 Q2157.09 334.642 2157.09 332.767 Q2157.09 331.031 2155.91 330.105 Q2154.75 329.179 2150.8 328.323 L2149.31 327.975 Q2145.36 327.142 2143.6 325.429 Q2141.84 323.693 2141.84 320.684 Q2141.84 317.026 2144.43 315.036 Q2147.02 313.045 2151.79 313.045 Q2154.15 313.045 2156.24 313.392 Q2158.32 313.739 2160.08 314.434 Z" fill="#000000" fill-rule="nonzero" fill-opacity="1"></path><path clip-path="url(#clip640)" d="M2168.81 318.068 L2198.48 318.068 L2198.48 321.957 L2168.81 321.957 L2168.81 318.068 M2168.81 327.512 L2198.48 327.512 L2198.48 331.448 L2168.81 331.448 L2168.81 327.512 Z" fill="#000000" fill-rule="nonzero" fill-opacity="1"></path><path clip-path="url(#clip640)" d="M2209.38 335.661 L2217.02 335.661 L2217.02 309.295 L2208.71 310.962 L2208.71 306.702 L2216.98 305.036 L2221.65 305.036 L2221.65 335.661 L2229.29 335.661 L2229.29 339.596 L2209.38 339.596 L2209.38 335.661 Z" fill="#000000" fill-rule="nonzero" fill-opacity="1"></path><path clip-path="url(#clip640)" d="M2238.87 338.878 L2238.87 334.619 Q2240.63 335.452 2242.44 335.892 Q2244.24 336.332 2245.98 336.332 Q2250.61 336.332 2253.04 333.23 Q2255.49 330.105 2255.84 323.762 Q2254.5 325.753 2252.44 326.818 Q2250.38 327.883 2247.88 327.883 Q2242.69 327.883 2239.66 324.758 Q2236.65 321.61 2236.65 316.17 Q2236.65 310.846 2239.8 307.628 Q2242.95 304.411 2248.18 304.411 Q2254.18 304.411 2257.32 309.017 Q2260.49 313.6 2260.49 322.35 Q2260.49 330.522 2256.61 335.406 Q2252.74 340.267 2246.19 340.267 Q2244.43 340.267 2242.62 339.92 Q2240.82 339.573 2238.87 338.878 M2248.18 324.225 Q2251.33 324.225 2253.16 322.073 Q2255.01 319.92 2255.01 316.17 Q2255.01 312.443 2253.16 310.29 Q2251.33 308.114 2248.18 308.114 Q2245.03 308.114 2243.18 310.29 Q2241.35 312.443 2241.35 316.17 Q2241.35 319.92 2243.18 322.073 Q2245.03 324.225 2248.18 324.225 Z" fill="#000000" fill-rule="nonzero" fill-opacity="1"></path></svg>