<svg xmlns="http://www.w3.org/2000/svg" xmlns:xlink="http://www.w3.org/1999/xlink" width="600" height="400" viewBox="0 0 2400 1600">
<defs>
  <clipPath id="clip100">
    <rect x="0" y="0" width="2400" height="1600"></rect>
  </clipPath>
</defs>
<path clip-path="url(#clip100)" d="M0 1600 L2400 1600 L2400 8.88178e-14 L0 8.88178e-14  Z" fill="#ffffff" fill-rule="evenodd" fill-opacity="1"></path>
<defs>
  <clipPath id="clip101">
    <rect x="480" y="0" width="1681" height="1600"></rect>
  </clipPath>
</defs>
<path clip-path="url(#clip100)" d="M219.033 1423.18 L2352.76 1423.18 L2352.76 123.472 L219.033 123.472  Z" fill="#ffffff" fill-rule="evenodd" fill-opacity="1"></path>
<defs>
  <clipPath id="clip102">
    <rect x="219" y="123" width="2135" height="1301"></rect>
  </clipPath>
</defs>
<polyline clip-path="url(#clip102)" style="stroke:#000000; stroke-linecap:round; stroke-linejoin:round; stroke-width:2; stroke-opacity:0.1; fill:none" points="511.684,1423.18 511.684,123.472 "></polyline>
<polyline clip-path="url(#clip102)" style="stroke:#000000; stroke-linecap:round; stroke-linejoin:round; stroke-width:2; stroke-opacity:0.1; fill:none" points="898.789,1423.18 898.789,123.472 "></polyline>
<polyline clip-path="url(#clip102)" style="stroke:#000000; stroke-linecap:round; stroke-linejoin:round; stroke-width:2; stroke-opacity:0.1; fill:none" points="1285.89,1423.18 1285.89,123.472 "></polyline>
<polyline clip-path="url(#clip102)" style="stroke:#000000; stroke-linecap:round; stroke-linejoin:round; stroke-width:2; stroke-opacity:0.1; fill:none" points="1673,1423.18 1673,123.472 "></polyline>
<polyline clip-path="url(#clip102)" style="stroke:#000000; stroke-linecap:round; stroke-linejoin:round; stroke-width:2; stroke-opacity:0.1; fill:none" points="2060.1,1423.18 2060.1,123.472 "></polyline>
<polyline clip-path="url(#clip102)" style="stroke:#000000; stroke-linecap:round; stroke-linejoin:round; stroke-width:2; stroke-opacity:0.1; fill:none" points="219.033,1197.69 2352.76,1197.69 "></polyline>
<polyline clip-path="url(#clip102)" style="stroke:#000000; stroke-linecap:round; stroke-linejoin:round; stroke-width:2; stroke-opacity:0.1; fill:none" points="219.033,903.608 2352.76,903.608 "></polyline>
<polyline clip-path="url(#clip102)" style="stroke:#000000; stroke-linecap:round; stroke-linejoin:round; stroke-width:2; stroke-opacity:0.1; fill:none" points="219.033,609.528 2352.76,609.528 "></polyline>
<polyline clip-path="url(#clip102)" style="stroke:#000000; stroke-linecap:round; stroke-linejoin:round; stroke-width:2; stroke-opacity:0.1; fill:none" points="219.033,315.449 2352.76,315.449 "></polyline>
<polyline clip-path="url(#clip100)" style="stroke:#000000; stroke-linecap:round; stroke-linejoin:round; stroke-width:4; stroke-opacity:1; fill:none" points="219.033,1423.18 2352.76,1423.18 "></polyline>
<polyline clip-path="url(#clip100)" style="stroke:#000000; stroke-linecap:round; stroke-linejoin:round; stroke-width:4; stroke-opacity:1; fill:none" points="511.684,1423.18 511.684,1404.28 "></polyline>
<polyline clip-path="url(#clip100)" style="stroke:#000000; stroke-linecap:round; stroke-linejoin:round; stroke-width:4; stroke-opacity:1; fill:none" points="898.789,1423.18 898.789,1404.28 "></polyline>
<polyline clip-path="url(#clip100)" style="stroke:#000000; stroke-linecap:round; stroke-linejoin:round; stroke-width:4; stroke-opacity:1; fill:none" points="1285.89,1423.18 1285.89,1404.28 "></polyline>
<polyline clip-path="url(#clip100)" style="stroke:#000000; stroke-linecap:round; stroke-linejoin:round; stroke-width:4; stroke-opacity:1; fill:none" points="1673,1423.18 1673,1404.28 "></polyline>
<polyline clip-path="url(#clip100)" style="stroke:#000000; stroke-linecap:round; stroke-linejoin:round; stroke-width:4; stroke-opacity:1; fill:none" points="2060.1,1423.18 2060.1,1404.28 "></polyline>
<path clip-path="url(#clip100)" d="M478.004 1451.02 L500.226 1451.02 L500.226 1453.01 L487.68 1485.58 L482.796 1485.58 L494.601 1454.96 L478.004 1454.96 L478.004 1451.02 Z" fill="#000000" fill-rule="nonzero" fill-opacity="1"></path><path clip-path="url(#clip100)" d="M509.346 1479.7 L514.231 1479.7 L514.231 1485.58 L509.346 1485.58 L509.346 1479.7 Z" fill="#000000" fill-rule="nonzero" fill-opacity="1"></path><path clip-path="url(#clip100)" d="M524.462 1451.02 L542.818 1451.02 L542.818 1454.96 L528.744 1454.96 L528.744 1463.43 Q529.763 1463.08 530.781 1462.92 Q531.8 1462.73 532.818 1462.73 Q538.605 1462.73 541.985 1465.9 Q545.365 1469.08 545.365 1474.49 Q545.365 1480.07 541.893 1483.17 Q538.42 1486.25 532.101 1486.25 Q529.925 1486.25 527.656 1485.88 Q525.411 1485.51 523.004 1484.77 L523.004 1480.07 Q525.087 1481.2 527.309 1481.76 Q529.531 1482.32 532.008 1482.32 Q536.013 1482.32 538.351 1480.21 Q540.689 1478.1 540.689 1474.49 Q540.689 1470.88 538.351 1468.77 Q536.013 1466.67 532.008 1466.67 Q530.133 1466.67 528.258 1467.08 Q526.406 1467.5 524.462 1468.38 L524.462 1451.02 Z" fill="#000000" fill-rule="nonzero" fill-opacity="1"></path><path clip-path="url(#clip100)" d="M850.861 1481.64 L858.5 1481.64 L858.5 1455.28 L850.19 1456.95 L850.19 1452.69 L858.454 1451.02 L863.13 1451.02 L863.13 1481.64 L870.769 1481.64 L870.769 1485.58 L850.861 1485.58 L850.861 1481.64 Z" fill="#000000" fill-rule="nonzero" fill-opacity="1"></path><path clip-path="url(#clip100)" d="M890.213 1454.1 Q886.602 1454.1 884.773 1457.66 Q882.968 1461.2 882.968 1468.33 Q882.968 1475.44 884.773 1479.01 Q886.602 1482.55 890.213 1482.55 Q893.847 1482.55 895.653 1479.01 Q897.482 1475.44 897.482 1468.33 Q897.482 1461.2 895.653 1457.66 Q893.847 1454.1 890.213 1454.1 M890.213 1450.39 Q896.023 1450.39 899.079 1455 Q902.157 1459.58 902.157 1468.33 Q902.157 1477.06 899.079 1481.67 Q896.023 1486.25 890.213 1486.25 Q884.403 1486.25 881.324 1481.67 Q878.269 1477.06 878.269 1468.33 Q878.269 1459.58 881.324 1455 Q884.403 1450.39 890.213 1450.39 Z" fill="#000000" fill-rule="nonzero" fill-opacity="1"></path><path clip-path="url(#clip100)" d="M910.375 1479.7 L915.259 1479.7 L915.259 1485.58 L910.375 1485.58 L910.375 1479.7 Z" fill="#000000" fill-rule="nonzero" fill-opacity="1"></path><path clip-path="url(#clip100)" d="M935.444 1454.1 Q931.833 1454.1 930.004 1457.66 Q928.199 1461.2 928.199 1468.33 Q928.199 1475.44 930.004 1479.01 Q931.833 1482.55 935.444 1482.55 Q939.079 1482.55 940.884 1479.01 Q942.713 1475.44 942.713 1468.33 Q942.713 1461.2 940.884 1457.66 Q939.079 1454.1 935.444 1454.1 M935.444 1450.39 Q941.254 1450.39 944.31 1455 Q947.389 1459.58 947.389 1468.33 Q947.389 1477.06 944.31 1481.67 Q941.254 1486.25 935.444 1486.25 Q929.634 1486.25 926.555 1481.67 Q923.5 1477.06 923.5 1468.33 Q923.5 1459.58 926.555 1455 Q929.634 1450.39 935.444 1450.39 Z" fill="#000000" fill-rule="nonzero" fill-opacity="1"></path><path clip-path="url(#clip100)" d="M1238.46 1481.64 L1246.1 1481.64 L1246.1 1455.28 L1237.79 1456.95 L1237.79 1452.69 L1246.06 1451.02 L1250.73 1451.02 L1250.73 1481.64 L1258.37 1481.64 L1258.37 1485.58 L1238.46 1485.58 L1238.46 1481.64 Z" fill="#000000" fill-rule="nonzero" fill-opacity="1"></path><path clip-path="url(#clip100)" d="M1271.84 1481.64 L1288.16 1481.64 L1288.16 1485.58 L1266.22 1485.58 L1266.22 1481.64 Q1268.88 1478.89 1273.46 1474.26 Q1278.07 1469.61 1279.25 1468.27 Q1281.5 1465.74 1282.38 1464.01 Q1283.28 1462.25 1283.28 1460.56 Q1283.28 1457.8 1281.33 1456.07 Q1279.41 1454.33 1276.31 1454.33 Q1274.11 1454.33 1271.66 1455.09 Q1269.23 1455.86 1266.45 1457.41 L1266.45 1452.69 Q1269.27 1451.55 1271.73 1450.97 Q1274.18 1450.39 1276.22 1450.39 Q1281.59 1450.39 1284.78 1453.08 Q1287.98 1455.77 1287.98 1460.26 Q1287.98 1462.39 1287.17 1464.31 Q1286.38 1466.2 1284.27 1468.8 Q1283.7 1469.47 1280.59 1472.69 Q1277.49 1475.88 1271.84 1481.64 Z" fill="#000000" fill-rule="nonzero" fill-opacity="1"></path><path clip-path="url(#clip100)" d="M1297.98 1479.7 L1302.86 1479.7 L1302.86 1485.58 L1297.98 1485.58 L1297.98 1479.7 Z" fill="#000000" fill-rule="nonzero" fill-opacity="1"></path><path clip-path="url(#clip100)" d="M1313.09 1451.02 L1331.45 1451.02 L1331.45 1454.96 L1317.38 1454.96 L1317.38 1463.43 Q1318.39 1463.08 1319.41 1462.92 Q1320.43 1462.73 1321.45 1462.73 Q1327.24 1462.73 1330.62 1465.9 Q1334 1469.08 1334 1474.49 Q1334 1480.07 1330.52 1483.17 Q1327.05 1486.25 1320.73 1486.25 Q1318.56 1486.25 1316.29 1485.88 Q1314.04 1485.51 1311.64 1484.77 L1311.64 1480.07 Q1313.72 1481.2 1315.94 1481.76 Q1318.16 1482.32 1320.64 1482.32 Q1324.64 1482.32 1326.98 1480.21 Q1329.32 1478.1 1329.32 1474.49 Q1329.32 1470.88 1326.98 1468.77 Q1324.64 1466.67 1320.64 1466.67 Q1318.76 1466.67 1316.89 1467.08 Q1315.04 1467.5 1313.09 1468.38 L1313.09 1451.02 Z" fill="#000000" fill-rule="nonzero" fill-opacity="1"></path><path clip-path="url(#clip100)" d="M1625.07 1481.64 L1632.71 1481.64 L1632.71 1455.28 L1624.4 1456.95 L1624.4 1452.69 L1632.66 1451.02 L1637.34 1451.02 L1637.34 1481.64 L1644.98 1481.64 L1644.98 1485.58 L1625.07 1485.58 L1625.07 1481.64 Z" fill="#000000" fill-rule="nonzero" fill-opacity="1"></path><path clip-path="url(#clip100)" d="M1654.47 1451.02 L1672.83 1451.02 L1672.83 1454.96 L1658.75 1454.96 L1658.75 1463.43 Q1659.77 1463.08 1660.79 1462.92 Q1661.81 1462.73 1662.83 1462.73 Q1668.61 1462.73 1671.99 1465.9 Q1675.37 1469.08 1675.37 1474.49 Q1675.37 1480.07 1671.9 1483.17 Q1668.43 1486.25 1662.11 1486.25 Q1659.93 1486.25 1657.66 1485.88 Q1655.42 1485.51 1653.01 1484.77 L1653.01 1480.07 Q1655.09 1481.2 1657.32 1481.76 Q1659.54 1482.32 1662.02 1482.32 Q1666.02 1482.32 1668.36 1480.21 Q1670.7 1478.1 1670.7 1474.49 Q1670.7 1470.88 1668.36 1468.77 Q1666.02 1466.67 1662.02 1466.67 Q1660.14 1466.67 1658.27 1467.08 Q1656.41 1467.5 1654.47 1468.38 L1654.47 1451.02 Z" fill="#000000" fill-rule="nonzero" fill-opacity="1"></path><path clip-path="url(#clip100)" d="M1684.59 1479.7 L1689.47 1479.7 L1689.47 1485.58 L1684.59 1485.58 L1684.59 1479.7 Z" fill="#000000" fill-rule="nonzero" fill-opacity="1"></path><path clip-path="url(#clip100)" d="M1709.65 1454.1 Q1706.04 1454.1 1704.21 1457.66 Q1702.41 1461.2 1702.41 1468.33 Q1702.41 1475.44 1704.21 1479.01 Q1706.04 1482.55 1709.65 1482.55 Q1713.29 1482.55 1715.09 1479.01 Q1716.92 1475.44 1716.92 1468.33 Q1716.92 1461.2 1715.09 1457.66 Q1713.29 1454.1 1709.65 1454.1 M1709.65 1450.39 Q1715.46 1450.39 1718.52 1455 Q1721.6 1459.58 1721.6 1468.33 Q1721.6 1477.06 1718.52 1481.67 Q1715.46 1486.25 1709.65 1486.25 Q1703.84 1486.25 1700.77 1481.67 Q1697.71 1477.06 1697.71 1468.33 Q1697.71 1459.58 1700.77 1455 Q1703.84 1450.39 1709.65 1450.39 Z" fill="#000000" fill-rule="nonzero" fill-opacity="1"></path><path clip-path="url(#clip100)" d="M2012.67 1481.64 L2020.31 1481.64 L2020.31 1455.28 L2012 1456.95 L2012 1452.69 L2020.27 1451.02 L2024.94 1451.02 L2024.94 1481.64 L2032.58 1481.64 L2032.58 1485.58 L2012.67 1485.58 L2012.67 1481.64 Z" fill="#000000" fill-rule="nonzero" fill-opacity="1"></path><path clip-path="url(#clip100)" d="M2040.85 1451.02 L2063.07 1451.02 L2063.07 1453.01 L2050.52 1485.58 L2045.64 1485.58 L2057.44 1454.96 L2040.85 1454.96 L2040.85 1451.02 Z" fill="#000000" fill-rule="nonzero" fill-opacity="1"></path><path clip-path="url(#clip100)" d="M2072.19 1479.7 L2077.07 1479.7 L2077.07 1485.58 L2072.19 1485.58 L2072.19 1479.7 Z" fill="#000000" fill-rule="nonzero" fill-opacity="1"></path><path clip-path="url(#clip100)" d="M2087.3 1451.02 L2105.66 1451.02 L2105.66 1454.96 L2091.59 1454.96 L2091.59 1463.43 Q2092.6 1463.08 2093.62 1462.92 Q2094.64 1462.73 2095.66 1462.73 Q2101.45 1462.73 2104.83 1465.9 Q2108.21 1469.08 2108.21 1474.49 Q2108.21 1480.07 2104.73 1483.17 Q2101.26 1486.25 2094.94 1486.25 Q2092.77 1486.25 2090.5 1485.88 Q2088.25 1485.51 2085.85 1484.77 L2085.85 1480.07 Q2087.93 1481.2 2090.15 1481.76 Q2092.37 1482.32 2094.85 1482.32 Q2098.85 1482.32 2101.19 1480.21 Q2103.53 1478.1 2103.53 1474.49 Q2103.53 1470.88 2101.19 1468.77 Q2098.85 1466.67 2094.85 1466.67 Q2092.97 1466.67 2091.1 1467.08 Q2089.25 1467.5 2087.3 1468.38 L2087.3 1451.02 Z" fill="#000000" fill-rule="nonzero" fill-opacity="1"></path><path clip-path="url(#clip100)" d="M1031.78 1520.52 L1040.43 1520.52 L1061.5 1560.28 L1061.5 1520.52 L1067.74 1520.52 L1067.74 1568.04 L1059.08 1568.04 L1038.01 1528.29 L1038.01 1568.04 L1031.78 1568.04 L1031.78 1520.52 Z" fill="#000000" fill-rule="nonzero" fill-opacity="1"></path><path clip-path="url(#clip100)" d="M1079.68 1553.98 L1079.68 1532.4 L1085.53 1532.4 L1085.53 1553.75 Q1085.53 1558.81 1087.51 1561.36 Q1089.48 1563.87 1093.43 1563.87 Q1098.17 1563.87 1100.91 1560.85 Q1103.68 1557.83 1103.68 1552.61 L1103.68 1532.4 L1109.53 1532.4 L1109.53 1568.04 L1103.68 1568.04 L1103.68 1562.57 Q1101.54 1565.82 1098.71 1567.41 Q1095.91 1568.97 1092.19 1568.97 Q1086.04 1568.97 1082.86 1565.15 Q1079.68 1561.33 1079.68 1553.98 M1094.41 1531.54 L1094.41 1531.54 Z" fill="#000000" fill-rule="nonzero" fill-opacity="1"></path><path clip-path="url(#clip100)" d="M1149.35 1539.24 Q1151.55 1535.29 1154.6 1533.41 Q1157.66 1531.54 1161.79 1531.54 Q1167.36 1531.54 1170.39 1535.45 Q1173.41 1539.33 1173.41 1546.53 L1173.41 1568.04 L1167.52 1568.04 L1167.52 1546.72 Q1167.52 1541.59 1165.71 1539.11 Q1163.9 1536.63 1160.17 1536.63 Q1155.62 1536.63 1152.98 1539.65 Q1150.34 1542.68 1150.34 1547.9 L1150.34 1568.04 L1144.45 1568.04 L1144.45 1546.72 Q1144.45 1541.56 1142.63 1539.11 Q1140.82 1536.63 1137.03 1536.63 Q1132.54 1536.63 1129.9 1539.68 Q1127.26 1542.71 1127.26 1547.9 L1127.26 1568.04 L1121.37 1568.04 L1121.37 1532.4 L1127.26 1532.4 L1127.26 1537.93 Q1129.27 1534.66 1132.07 1533.1 Q1134.87 1531.54 1138.72 1531.54 Q1142.6 1531.54 1145.31 1533.51 Q1148.05 1535.48 1149.35 1539.24 Z" fill="#000000" fill-rule="nonzero" fill-opacity="1"></path><path clip-path="url(#clip100)" d="M1210.68 1550.25 Q1210.68 1543.79 1208.01 1540.13 Q1205.37 1536.44 1200.72 1536.44 Q1196.07 1536.44 1193.4 1540.13 Q1190.76 1543.79 1190.76 1550.25 Q1190.76 1556.71 1193.4 1560.4 Q1196.07 1564.07 1200.72 1564.07 Q1205.37 1564.07 1208.01 1560.4 Q1210.68 1556.71 1210.68 1550.25 M1190.76 1537.81 Q1192.6 1534.62 1195.41 1533.1 Q1198.24 1531.54 1202.15 1531.54 Q1208.65 1531.54 1212.69 1536.69 Q1216.76 1541.85 1216.76 1550.25 Q1216.76 1558.65 1212.69 1563.81 Q1208.65 1568.97 1202.15 1568.97 Q1198.24 1568.97 1195.41 1567.44 Q1192.6 1565.88 1190.76 1562.7 L1190.76 1568.04 L1184.87 1568.04 L1184.87 1518.52 L1190.76 1518.52 L1190.76 1537.81 Z" fill="#000000" fill-rule="nonzero" fill-opacity="1"></path><path clip-path="url(#clip100)" d="M1256.96 1548.76 L1256.96 1551.62 L1230.04 1551.62 Q1230.42 1557.67 1233.66 1560.85 Q1236.94 1564 1242.77 1564 Q1246.14 1564 1249.29 1563.17 Q1252.47 1562.35 1255.59 1560.69 L1255.59 1566.23 Q1252.44 1567.57 1249.13 1568.27 Q1245.82 1568.97 1242.42 1568.97 Q1233.89 1568.97 1228.89 1564 Q1223.92 1559.04 1223.92 1550.57 Q1223.92 1541.82 1228.63 1536.69 Q1233.38 1531.54 1241.4 1531.54 Q1248.59 1531.54 1252.76 1536.18 Q1256.96 1540.8 1256.96 1548.76 M1251.11 1547.04 Q1251.04 1542.23 1248.4 1539.37 Q1245.79 1536.5 1241.46 1536.5 Q1236.56 1536.5 1233.6 1539.27 Q1230.67 1542.04 1230.23 1547.07 L1251.11 1547.04 Z" fill="#000000" fill-rule="nonzero" fill-opacity="1"></path><path clip-path="url(#clip100)" d="M1287.23 1537.87 Q1286.24 1537.3 1285.07 1537.04 Q1283.92 1536.76 1282.52 1536.76 Q1277.56 1536.76 1274.88 1540 Q1272.24 1543.22 1272.24 1549.27 L1272.24 1568.04 L1266.35 1568.04 L1266.35 1532.4 L1272.24 1532.4 L1272.24 1537.93 Q1274.09 1534.69 1277.05 1533.13 Q1280.01 1531.54 1284.24 1531.54 Q1284.84 1531.54 1285.58 1531.63 Q1286.31 1531.7 1287.2 1531.85 L1287.23 1537.87 Z" fill="#000000" fill-rule="nonzero" fill-opacity="1"></path><path clip-path="url(#clip100)" d="M1327.91 1536.5 Q1323.2 1536.5 1320.46 1540.19 Q1317.72 1543.85 1317.72 1550.25 Q1317.72 1556.65 1320.43 1560.34 Q1323.17 1564 1327.91 1564 Q1332.59 1564 1335.32 1560.31 Q1338.06 1556.62 1338.06 1550.25 Q1338.06 1543.92 1335.32 1540.23 Q1332.59 1536.5 1327.91 1536.5 M1327.91 1531.54 Q1335.55 1531.54 1339.91 1536.5 Q1344.27 1541.47 1344.27 1550.25 Q1344.27 1559 1339.91 1564 Q1335.55 1568.97 1327.91 1568.97 Q1320.24 1568.97 1315.88 1564 Q1311.55 1559 1311.55 1550.25 Q1311.55 1541.47 1315.88 1536.5 Q1320.24 1531.54 1327.91 1531.54 Z" fill="#000000" fill-rule="nonzero" fill-opacity="1"></path><path clip-path="url(#clip100)" d="M1372.02 1518.52 L1372.02 1523.39 L1366.42 1523.39 Q1363.27 1523.39 1362.03 1524.66 Q1360.82 1525.93 1360.82 1529.24 L1360.82 1532.4 L1370.46 1532.4 L1370.46 1536.95 L1360.82 1536.95 L1360.82 1568.04 L1354.93 1568.04 L1354.93 1536.95 L1349.33 1536.95 L1349.33 1532.4 L1354.93 1532.4 L1354.93 1529.91 Q1354.93 1523.96 1357.7 1521.26 Q1360.47 1518.52 1366.48 1518.52 L1372.02 1518.52 Z" fill="#000000" fill-rule="nonzero" fill-opacity="1"></path><path clip-path="url(#clip100)" d="M1420.37 1533.45 L1420.37 1538.98 Q1417.89 1537.71 1415.21 1537.07 Q1412.54 1536.44 1409.68 1536.44 Q1405.32 1536.44 1403.12 1537.77 Q1400.95 1539.11 1400.95 1541.79 Q1400.95 1543.82 1402.51 1545 Q1404.07 1546.15 1408.78 1547.2 L1410.79 1547.64 Q1417.03 1548.98 1419.64 1551.43 Q1422.28 1553.85 1422.28 1558.21 Q1422.28 1563.17 1418.33 1566.07 Q1414.42 1568.97 1407.54 1568.97 Q1404.68 1568.97 1401.56 1568.39 Q1398.47 1567.85 1395.03 1566.74 L1395.03 1560.69 Q1398.28 1562.38 1401.43 1563.24 Q1404.58 1564.07 1407.67 1564.07 Q1411.81 1564.07 1414.04 1562.66 Q1416.26 1561.23 1416.26 1558.65 Q1416.26 1556.27 1414.64 1554.99 Q1413.05 1553.72 1407.61 1552.54 L1405.57 1552.07 Q1400.13 1550.92 1397.71 1548.56 Q1395.29 1546.18 1395.29 1542.04 Q1395.29 1537.01 1398.85 1534.27 Q1402.42 1531.54 1408.98 1531.54 Q1412.22 1531.54 1415.09 1532.01 Q1417.95 1532.49 1420.37 1533.45 Z" fill="#000000" fill-rule="nonzero" fill-opacity="1"></path><path clip-path="url(#clip100)" d="M1431.61 1532.4 L1437.46 1532.4 L1437.46 1568.04 L1431.61 1568.04 L1431.61 1532.4 M1431.61 1518.52 L1437.46 1518.52 L1437.46 1525.93 L1431.61 1525.93 L1431.61 1518.52 Z" fill="#000000" fill-rule="nonzero" fill-opacity="1"></path><path clip-path="url(#clip100)" d="M1455.51 1522.27 L1455.51 1532.4 L1467.57 1532.4 L1467.57 1536.95 L1455.51 1536.95 L1455.51 1556.3 Q1455.51 1560.66 1456.69 1561.9 Q1457.9 1563.14 1461.56 1563.14 L1467.57 1563.14 L1467.57 1568.04 L1461.56 1568.04 Q1454.78 1568.04 1452.2 1565.53 Q1449.62 1562.98 1449.62 1556.3 L1449.62 1536.95 L1445.32 1536.95 L1445.32 1532.4 L1449.62 1532.4 L1449.62 1522.27 L1455.51 1522.27 Z" fill="#000000" fill-rule="nonzero" fill-opacity="1"></path><path clip-path="url(#clip100)" d="M1505.77 1548.76 L1505.77 1551.62 L1478.84 1551.62 Q1479.22 1557.67 1482.47 1560.85 Q1485.75 1564 1491.57 1564 Q1494.94 1564 1498.1 1563.17 Q1501.28 1562.35 1504.4 1560.69 L1504.4 1566.23 Q1501.25 1567.57 1497.94 1568.27 Q1494.63 1568.97 1491.22 1568.97 Q1482.69 1568.97 1477.69 1564 Q1472.73 1559.04 1472.73 1550.57 Q1472.73 1541.82 1477.44 1536.69 Q1482.18 1531.54 1490.2 1531.54 Q1497.4 1531.54 1501.56 1536.18 Q1505.77 1540.8 1505.77 1548.76 M1499.91 1547.04 Q1499.85 1542.23 1497.2 1539.37 Q1494.59 1536.5 1490.27 1536.5 Q1485.36 1536.5 1482.4 1539.27 Q1479.48 1542.04 1479.03 1547.07 L1499.91 1547.04 Z" fill="#000000" fill-rule="nonzero" fill-opacity="1"></path><path clip-path="url(#clip100)" d="M1538.1 1533.45 L1538.1 1538.98 Q1535.62 1537.71 1532.95 1537.07 Q1530.27 1536.44 1527.41 1536.44 Q1523.05 1536.44 1520.85 1537.77 Q1518.69 1539.11 1518.69 1541.79 Q1518.69 1543.82 1520.25 1545 Q1521.81 1546.15 1526.52 1547.2 L1528.52 1547.64 Q1534.76 1548.98 1537.37 1551.43 Q1540.01 1553.85 1540.01 1558.21 Q1540.01 1563.17 1536.07 1566.07 Q1532.15 1568.97 1525.28 1568.97 Q1522.41 1568.97 1519.29 1568.39 Q1516.21 1567.85 1512.77 1566.74 L1512.77 1560.69 Q1516.01 1562.38 1519.17 1563.24 Q1522.32 1564.07 1525.4 1564.07 Q1529.54 1564.07 1531.77 1562.66 Q1534 1561.23 1534 1558.65 Q1534 1556.27 1532.37 1554.99 Q1530.78 1553.72 1525.34 1552.54 L1523.3 1552.07 Q1517.86 1550.92 1515.44 1548.56 Q1513.02 1546.18 1513.02 1542.04 Q1513.02 1537.01 1516.59 1534.27 Q1520.15 1531.54 1526.71 1531.54 Q1529.96 1531.54 1532.82 1532.01 Q1535.68 1532.49 1538.1 1533.45 Z" fill="#000000" fill-rule="nonzero" fill-opacity="1"></path><polyline clip-path="url(#clip100)" style="stroke:#000000; stroke-linecap:round; stroke-linejoin:round; stroke-width:4; stroke-opacity:1; fill:none" points="219.033,1423.18 219.033,123.472 "></polyline>
<polyline clip-path="url(#clip100)" style="stroke:#000000; stroke-linecap:round; stroke-linejoin:round; stroke-width:4; stroke-opacity:1; fill:none" points="219.033,1197.69 237.931,1197.69 "></polyline>
<polyline clip-path="url(#clip100)" style="stroke:#000000; stroke-linecap:round; stroke-linejoin:round; stroke-width:4; stroke-opacity:1; fill:none" points="219.033,903.608 237.931,903.608 "></polyline>
<polyline clip-path="url(#clip100)" style="stroke:#000000; stroke-linecap:round; stroke-linejoin:round; stroke-width:4; stroke-opacity:1; fill:none" points="219.033,609.528 237.931,609.528 "></polyline>
<polyline clip-path="url(#clip100)" style="stroke:#000000; stroke-linecap:round; stroke-linejoin:round; stroke-width:4; stroke-opacity:1; fill:none" points="219.033,315.449 237.931,315.449 "></polyline>
<path clip-path="url(#clip100)" d="M126.853 1183.49 Q123.242 1183.49 121.413 1187.05 Q119.607 1190.59 119.607 1197.72 Q119.607 1204.83 121.413 1208.39 Q123.242 1211.93 126.853 1211.93 Q130.487 1211.93 132.292 1208.39 Q134.121 1204.83 134.121 1197.72 Q134.121 1190.59 132.292 1187.05 Q130.487 1183.49 126.853 1183.49 M126.853 1179.78 Q132.663 1179.78 135.718 1184.39 Q138.797 1188.97 138.797 1197.72 Q138.797 1206.45 135.718 1211.05 Q132.663 1215.64 126.853 1215.64 Q121.043 1215.64 117.964 1211.05 Q114.908 1206.45 114.908 1197.72 Q114.908 1188.97 117.964 1184.39 Q121.043 1179.78 126.853 1179.78 Z" fill="#000000" fill-rule="nonzero" fill-opacity="1"></path><path clip-path="url(#clip100)" d="M147.015 1209.09 L151.899 1209.09 L151.899 1214.97 L147.015 1214.97 L147.015 1209.09 Z" fill="#000000" fill-rule="nonzero" fill-opacity="1"></path><path clip-path="url(#clip100)" d="M162.13 1180.41 L180.487 1180.41 L180.487 1184.34 L166.413 1184.34 L166.413 1192.81 Q167.431 1192.47 168.45 1192.3 Q169.468 1192.12 170.487 1192.12 Q176.274 1192.12 179.653 1195.29 Q183.033 1198.46 183.033 1203.88 Q183.033 1209.46 179.561 1212.56 Q176.089 1215.64 169.769 1215.64 Q167.593 1215.64 165.325 1215.27 Q163.079 1214.9 160.672 1214.16 L160.672 1209.46 Q162.755 1210.59 164.977 1211.15 Q167.2 1211.7 169.677 1211.7 Q173.681 1211.7 176.019 1209.6 Q178.357 1207.49 178.357 1203.88 Q178.357 1200.27 176.019 1198.16 Q173.681 1196.05 169.677 1196.05 Q167.802 1196.05 165.927 1196.47 Q164.075 1196.89 162.13 1197.77 L162.13 1180.41 Z" fill="#000000" fill-rule="nonzero" fill-opacity="1"></path><path clip-path="url(#clip100)" d="M116.668 916.952 L124.306 916.952 L124.306 890.587 L115.996 892.253 L115.996 887.994 L124.26 886.328 L128.936 886.328 L128.936 916.952 L136.575 916.952 L136.575 920.888 L116.668 920.888 L116.668 916.952 Z" fill="#000000" fill-rule="nonzero" fill-opacity="1"></path><path clip-path="url(#clip100)" d="M146.019 915.008 L150.903 915.008 L150.903 920.888 L146.019 920.888 L146.019 915.008 Z" fill="#000000" fill-rule="nonzero" fill-opacity="1"></path><path clip-path="url(#clip100)" d="M171.089 889.406 Q167.477 889.406 165.649 892.971 Q163.843 896.513 163.843 903.642 Q163.843 910.749 165.649 914.313 Q167.477 917.855 171.089 917.855 Q174.723 917.855 176.528 914.313 Q178.357 910.749 178.357 903.642 Q178.357 896.513 176.528 892.971 Q174.723 889.406 171.089 889.406 M171.089 885.703 Q176.899 885.703 179.954 890.309 Q183.033 894.892 183.033 903.642 Q183.033 912.369 179.954 916.976 Q176.899 921.559 171.089 921.559 Q165.278 921.559 162.2 916.976 Q159.144 912.369 159.144 903.642 Q159.144 894.892 162.2 890.309 Q165.278 885.703 171.089 885.703 Z" fill="#000000" fill-rule="nonzero" fill-opacity="1"></path><path clip-path="url(#clip100)" d="M117.663 622.873 L125.302 622.873 L125.302 596.508 L116.992 598.174 L116.992 593.915 L125.255 592.248 L129.931 592.248 L129.931 622.873 L137.57 622.873 L137.57 626.808 L117.663 626.808 L117.663 622.873 Z" fill="#000000" fill-rule="nonzero" fill-opacity="1"></path><path clip-path="url(#clip100)" d="M147.015 620.929 L151.899 620.929 L151.899 626.808 L147.015 626.808 L147.015 620.929 Z" fill="#000000" fill-rule="nonzero" fill-opacity="1"></path><path clip-path="url(#clip100)" d="M162.13 592.248 L180.487 592.248 L180.487 596.183 L166.413 596.183 L166.413 604.656 Q167.431 604.308 168.45 604.146 Q169.468 603.961 170.487 603.961 Q176.274 603.961 179.653 607.132 Q183.033 610.304 183.033 615.72 Q183.033 621.299 179.561 624.401 Q176.089 627.48 169.769 627.48 Q167.593 627.48 165.325 627.109 Q163.079 626.739 160.672 625.998 L160.672 621.299 Q162.755 622.433 164.977 622.989 Q167.2 623.544 169.677 623.544 Q173.681 623.544 176.019 621.438 Q178.357 619.331 178.357 615.72 Q178.357 612.109 176.019 610.003 Q173.681 607.896 169.677 607.896 Q167.802 607.896 165.927 608.313 Q164.075 608.73 162.13 609.609 L162.13 592.248 Z" fill="#000000" fill-rule="nonzero" fill-opacity="1"></path><path clip-path="url(#clip100)" d="M119.885 328.794 L136.204 328.794 L136.204 332.729 L114.26 332.729 L114.26 328.794 Q116.922 326.039 121.505 321.41 Q126.112 316.757 127.292 315.414 Q129.538 312.891 130.417 311.155 Q131.32 309.396 131.32 307.706 Q131.32 304.951 129.376 303.215 Q127.455 301.479 124.353 301.479 Q122.154 301.479 119.7 302.243 Q117.269 303.007 114.492 304.558 L114.492 299.836 Q117.316 298.701 119.769 298.123 Q122.223 297.544 124.26 297.544 Q129.63 297.544 132.825 300.229 Q136.019 302.914 136.019 307.405 Q136.019 309.535 135.209 311.456 Q134.422 313.354 132.316 315.947 Q131.737 316.618 128.635 319.836 Q125.533 323.03 119.885 328.794 Z" fill="#000000" fill-rule="nonzero" fill-opacity="1"></path><path clip-path="url(#clip100)" d="M146.019 326.849 L150.903 326.849 L150.903 332.729 L146.019 332.729 L146.019 326.849 Z" fill="#000000" fill-rule="nonzero" fill-opacity="1"></path><path clip-path="url(#clip100)" d="M171.089 301.248 Q167.477 301.248 165.649 304.812 Q163.843 308.354 163.843 315.484 Q163.843 322.59 165.649 326.155 Q167.477 329.697 171.089 329.697 Q174.723 329.697 176.528 326.155 Q178.357 322.59 178.357 315.484 Q178.357 308.354 176.528 304.812 Q174.723 301.248 171.089 301.248 M171.089 297.544 Q176.899 297.544 179.954 302.15 Q183.033 306.734 183.033 315.484 Q183.033 324.211 179.954 328.817 Q176.899 333.4 171.089 333.4 Q165.278 333.4 162.2 328.817 Q159.144 324.211 159.144 315.484 Q159.144 306.734 162.2 302.15 Q165.278 297.544 171.089 297.544 Z" fill="#000000" fill-rule="nonzero" fill-opacity="1"></path><path clip-path="url(#clip100)" d="M16.4842 954.16 L16.4842 924.114 L21.895 924.114 L21.895 947.73 L35.9632 947.73 L35.9632 925.1 L41.3741 925.1 L41.3741 947.73 L58.5933 947.73 L58.5933 923.541 L64.0042 923.541 L64.0042 954.16 L16.4842 954.16 Z" fill="#000000" fill-rule="nonzero" fill-opacity="1"></path><path clip-path="url(#clip100)" d="M42.4881 883.596 L64.0042 883.596 L64.0042 889.452 L42.679 889.452 Q37.6183 889.452 35.1038 891.426 Q32.5894 893.399 32.5894 897.346 Q32.5894 902.088 35.6131 904.826 Q38.6368 907.563 43.8567 907.563 L64.0042 907.563 L64.0042 913.451 L28.3562 913.451 L28.3562 907.563 L33.8944 907.563 Q30.6797 905.462 29.0883 902.629 Q27.4968 899.765 27.4968 896.041 Q27.4968 889.898 31.3163 886.747 Q35.1038 883.596 42.4881 883.596 Z" fill="#000000" fill-rule="nonzero" fill-opacity="1"></path><path clip-path="url(#clip100)" d="M44.7161 841.423 L47.5806 841.423 L47.5806 868.35 Q53.6281 867.968 56.8109 864.722 Q59.9619 861.443 59.9619 855.619 Q59.9619 852.245 59.1344 849.094 Q58.3069 845.911 56.6518 842.792 L62.1899 842.792 Q63.5267 845.943 64.227 849.253 Q64.9272 852.563 64.9272 855.969 Q64.9272 864.499 59.9619 869.496 Q54.9967 874.461 46.5303 874.461 Q37.7774 874.461 32.6531 869.751 Q27.4968 865.008 27.4968 856.987 Q27.4968 849.794 32.1438 845.624 Q36.7589 841.423 44.7161 841.423 M42.9973 847.28 Q38.1912 847.343 35.3266 849.985 Q32.4621 852.595 32.4621 856.924 Q32.4621 861.825 35.2312 864.785 Q38.0002 867.713 43.0292 868.159 L42.9973 847.28 Z" fill="#000000" fill-rule="nonzero" fill-opacity="1"></path><path clip-path="url(#clip100)" d="M33.8307 811.154 Q33.2578 812.141 33.0032 813.319 Q32.7167 814.464 32.7167 815.865 Q32.7167 820.83 35.9632 823.504 Q39.1779 826.145 45.2253 826.145 L64.0042 826.145 L64.0042 832.034 L28.3562 832.034 L28.3562 826.145 L33.8944 826.145 Q30.6479 824.299 29.0883 821.339 Q27.4968 818.379 27.4968 814.146 Q27.4968 813.541 27.5923 812.809 Q27.656 812.077 27.8151 811.186 L33.8307 811.154 Z" fill="#000000" fill-rule="nonzero" fill-opacity="1"></path><path clip-path="url(#clip100)" d="M45.7664 782.699 Q39.4007 782.699 35.8996 785.341 Q32.3984 787.951 32.3984 792.694 Q32.3984 797.404 35.8996 800.046 Q39.4007 802.656 45.7664 802.656 Q52.1003 802.656 55.6014 800.046 Q59.1026 797.404 59.1026 792.694 Q59.1026 787.951 55.6014 785.341 Q52.1003 782.699 45.7664 782.699 M59.58 776.843 Q68.683 776.843 73.1071 780.885 Q77.5631 784.927 77.5631 793.267 Q77.5631 796.354 77.0857 799.091 Q76.6401 801.828 75.6852 804.407 L69.9879 804.407 Q71.3884 801.828 72.0568 799.314 Q72.7252 796.8 72.7252 794.19 Q72.7252 788.429 69.7015 785.564 Q66.7096 782.699 60.6303 782.699 L57.7339 782.699 Q60.885 784.514 62.4446 787.346 Q64.0042 790.179 64.0042 794.126 Q64.0042 800.683 59.0071 804.693 Q54.01 808.703 45.7664 808.703 Q37.491 808.703 32.4939 804.693 Q27.4968 800.683 27.4968 794.126 Q27.4968 790.179 29.0564 787.346 Q30.616 784.514 33.7671 782.699 L28.3562 782.699 L28.3562 776.843 L59.58 776.843 Z" fill="#000000" fill-rule="nonzero" fill-opacity="1"></path><path clip-path="url(#clip100)" d="M67.3143 749.948 Q73.68 752.431 75.6216 754.786 Q77.5631 757.141 77.5631 761.088 L77.5631 765.767 L72.6615 765.767 L72.6615 762.329 Q72.6615 759.91 71.5157 758.573 Q70.3699 757.237 66.1048 755.613 L63.4312 754.563 L28.3562 768.981 L28.3562 762.775 L56.238 751.635 L28.3562 740.495 L28.3562 734.288 L67.3143 749.948 Z" fill="#000000" fill-rule="nonzero" fill-opacity="1"></path><path clip-path="url(#clip100)" d="M45.7664 682.026 Q39.4007 682.026 35.8996 684.668 Q32.3984 687.278 32.3984 692.02 Q32.3984 696.731 35.8996 699.372 Q39.4007 701.982 45.7664 701.982 Q52.1003 701.982 55.6014 699.372 Q59.1026 696.731 59.1026 692.02 Q59.1026 687.278 55.6014 684.668 Q52.1003 682.026 45.7664 682.026 M59.58 676.169 Q68.683 676.169 73.1071 680.212 Q77.5631 684.254 77.5631 692.593 Q77.5631 695.68 77.0857 698.418 Q76.6401 701.155 75.6852 703.733 L69.9879 703.733 Q71.3884 701.155 72.0568 698.64 Q72.7252 696.126 72.7252 693.516 Q72.7252 687.755 69.7015 684.89 Q66.7096 682.026 60.6303 682.026 L57.7339 682.026 Q60.885 683.84 62.4446 686.673 Q64.0042 689.506 64.0042 693.452 Q64.0042 700.009 59.0071 704.019 Q54.01 708.03 45.7664 708.03 Q37.491 708.03 32.4939 704.019 Q27.4968 700.009 27.4968 693.452 Q27.4968 689.506 29.0564 686.673 Q30.616 683.84 33.7671 682.026 L28.3562 682.026 L28.3562 676.169 L59.58 676.169 Z" fill="#000000" fill-rule="nonzero" fill-opacity="1"></path><path clip-path="url(#clip100)" d="M46.0847 647.906 Q46.0847 655.003 47.7079 657.741 Q49.3312 660.478 53.2461 660.478 Q56.3653 660.478 58.2114 658.441 Q60.0256 656.372 60.0256 652.839 Q60.0256 647.969 56.5881 645.041 Q53.1188 642.081 47.3897 642.081 L46.0847 642.081 L46.0847 647.906 M43.6657 636.225 L64.0042 636.225 L64.0042 642.081 L58.5933 642.081 Q61.8398 644.086 63.3994 647.078 Q64.9272 650.07 64.9272 654.399 Q64.9272 659.873 61.8716 663.12 Q58.7843 666.334 53.6281 666.334 Q47.6125 666.334 44.5569 662.324 Q41.5014 658.282 41.5014 650.293 L41.5014 642.081 L40.9285 642.081 Q36.8862 642.081 34.6901 644.755 Q32.4621 647.396 32.4621 652.203 Q32.4621 655.258 33.1941 658.154 Q33.9262 661.051 35.3903 663.724 L29.9795 663.724 Q28.7381 660.51 28.1334 657.486 Q27.4968 654.462 27.4968 651.598 Q27.4968 643.863 31.5072 640.044 Q35.5176 636.225 43.6657 636.225 Z" fill="#000000" fill-rule="nonzero" fill-opacity="1"></path><path clip-path="url(#clip100)" d="M58.657 618.496 L77.5631 618.496 L77.5631 624.384 L28.3562 624.384 L28.3562 618.496 L33.7671 618.496 Q30.5842 616.65 29.0564 613.849 Q27.4968 611.016 27.4968 607.101 Q27.4968 600.608 32.6531 596.566 Q37.8093 592.492 46.212 592.492 Q54.6147 592.492 59.771 596.566 Q64.9272 600.608 64.9272 607.101 Q64.9272 611.016 63.3994 613.849 Q61.8398 616.65 58.657 618.496 M46.212 598.571 Q39.7508 598.571 36.0905 601.245 Q32.3984 603.887 32.3984 608.534 Q32.3984 613.181 36.0905 615.854 Q39.7508 618.496 46.212 618.496 Q52.6732 618.496 56.3653 615.854 Q60.0256 613.181 60.0256 608.534 Q60.0256 603.887 56.3653 601.245 Q52.6732 598.571 46.212 598.571 Z" fill="#000000" fill-rule="nonzero" fill-opacity="1"></path><path clip-path="url(#clip100)" d="M414.808 12.096 L453.049 12.096 L453.049 18.9825 L422.991 18.9825 L422.991 36.8875 L451.793 36.8875 L451.793 43.7741 L422.991 43.7741 L422.991 65.6895 L453.778 65.6895 L453.778 72.576 L414.808 72.576 L414.808 12.096 Z" fill="#000000" fill-rule="nonzero" fill-opacity="1"></path><path clip-path="url(#clip100)" d="M504.617 45.1919 L504.617 72.576 L497.163 72.576 L497.163 45.4349 Q497.163 38.994 494.652 35.7938 Q492.14 32.5936 487.117 32.5936 Q481.081 32.5936 477.597 36.4419 Q474.113 40.2903 474.113 46.9338 L474.113 72.576 L466.619 72.576 L466.619 27.2059 L474.113 27.2059 L474.113 34.2544 Q476.787 30.163 480.392 28.1376 Q484.038 26.1121 488.778 26.1121 Q496.596 26.1121 500.606 30.9732 Q504.617 35.7938 504.617 45.1919 Z" fill="#000000" fill-rule="nonzero" fill-opacity="1"></path><path clip-path="url(#clip100)" d="M558.291 48.0275 L558.291 51.6733 L524.021 51.6733 Q524.507 59.3701 528.639 63.421 Q532.811 67.4314 540.224 67.4314 Q544.518 67.4314 548.529 66.3781 Q552.579 65.3249 556.549 63.2184 L556.549 70.267 Q552.539 71.9684 548.326 72.8596 Q544.113 73.7508 539.779 73.7508 Q528.922 73.7508 522.562 67.4314 Q516.243 61.1119 516.243 50.3365 Q516.243 39.1965 522.238 32.6746 Q528.274 26.1121 538.482 26.1121 Q547.637 26.1121 552.944 32.0264 Q558.291 37.9003 558.291 48.0275 M550.838 45.84 Q550.757 39.7232 547.394 36.0774 Q544.073 32.4315 538.563 32.4315 Q532.325 32.4315 528.558 35.9558 Q524.831 39.4801 524.264 45.8805 L550.838 45.84 Z" fill="#000000" fill-rule="nonzero" fill-opacity="1"></path><path clip-path="url(#clip100)" d="M596.815 34.1734 Q595.56 33.4443 594.061 33.1202 Q592.602 32.7556 590.82 32.7556 Q584.501 32.7556 581.098 36.8875 Q577.736 40.9789 577.736 48.6757 L577.736 72.576 L570.241 72.576 L570.241 27.2059 L577.736 27.2059 L577.736 34.2544 Q580.085 30.1225 583.852 28.1376 Q587.62 26.1121 593.008 26.1121 Q593.777 26.1121 594.709 26.2337 Q595.641 26.3147 596.775 26.5172 L596.815 34.1734 Z" fill="#000000" fill-rule="nonzero" fill-opacity="1"></path><path clip-path="url(#clip100)" d="M633.03 49.3643 Q633.03 41.2625 629.668 36.8065 Q626.346 32.3505 620.311 32.3505 Q614.315 32.3505 610.953 36.8065 Q607.631 41.2625 607.631 49.3643 Q607.631 57.4256 610.953 61.8816 Q614.315 66.3376 620.311 66.3376 Q626.346 66.3376 629.668 61.8816 Q633.03 57.4256 633.03 49.3643 M640.484 66.9452 Q640.484 78.5308 635.339 84.1616 Q630.195 89.8329 619.581 89.8329 Q615.652 89.8329 612.168 89.2252 Q608.685 88.6581 605.403 87.4428 L605.403 80.1917 Q608.685 81.9741 611.885 82.8248 Q615.085 83.6755 618.407 83.6755 Q625.739 83.6755 629.385 79.8271 Q633.03 76.0193 633.03 68.282 L633.03 64.5957 Q630.721 68.6061 627.116 70.5911 Q623.511 72.576 618.488 72.576 Q610.143 72.576 605.039 66.2161 Q599.935 59.8562 599.935 49.3643 Q599.935 38.832 605.039 32.472 Q610.143 26.1121 618.488 26.1121 Q623.511 26.1121 627.116 28.0971 Q630.721 30.082 633.03 34.0924 L633.03 27.2059 L640.484 27.2059 L640.484 66.9452 Z" fill="#000000" fill-rule="nonzero" fill-opacity="1"></path><path clip-path="url(#clip100)" d="M674.714 76.7889 Q671.555 84.8907 668.557 87.3618 Q665.559 89.8329 660.536 89.8329 L654.581 89.8329 L654.581 83.5945 L658.956 83.5945 Q662.035 83.5945 663.736 82.1361 Q665.438 80.6778 667.504 75.2496 L668.84 71.8468 L650.49 27.2059 L658.389 27.2059 L672.567 62.6918 L686.745 27.2059 L694.645 27.2059 L674.714 76.7889 Z" fill="#000000" fill-rule="nonzero" fill-opacity="1"></path><path clip-path="url(#clip100)" d="M761.161 49.3643 Q761.161 41.2625 757.798 36.8065 Q754.477 32.3505 748.441 32.3505 Q742.445 32.3505 739.083 36.8065 Q735.761 41.2625 735.761 49.3643 Q735.761 57.4256 739.083 61.8816 Q742.445 66.3376 748.441 66.3376 Q754.477 66.3376 757.798 61.8816 Q761.161 57.4256 761.161 49.3643 M768.614 66.9452 Q768.614 78.5308 763.47 84.1616 Q758.325 89.8329 747.712 89.8329 Q743.782 89.8329 740.298 89.2252 Q736.815 88.6581 733.533 87.4428 L733.533 80.1917 Q736.815 81.9741 740.015 82.8248 Q743.215 83.6755 746.537 83.6755 Q753.869 83.6755 757.515 79.8271 Q761.161 76.0193 761.161 68.282 L761.161 64.5957 Q758.852 68.6061 755.246 70.5911 Q751.641 72.576 746.618 72.576 Q738.273 72.576 733.169 66.2161 Q728.065 59.8562 728.065 49.3643 Q728.065 38.832 733.169 32.472 Q738.273 26.1121 746.618 26.1121 Q751.641 26.1121 755.246 28.0971 Q758.852 30.082 761.161 34.0924 L761.161 27.2059 L768.614 27.2059 L768.614 66.9452 Z" fill="#000000" fill-rule="nonzero" fill-opacity="1"></path><path clip-path="url(#clip100)" d="M804.586 49.7694 Q795.553 49.7694 792.069 51.8354 Q788.585 53.9013 788.585 58.8839 Q788.585 62.8538 791.178 65.2034 Q793.811 67.5124 798.307 67.5124 Q804.505 67.5124 808.232 63.1374 Q811.999 58.7219 811.999 51.4303 L811.999 49.7694 L804.586 49.7694 M819.453 46.6907 L819.453 72.576 L811.999 72.576 L811.999 65.6895 Q809.447 69.8214 805.639 71.8063 Q801.832 73.7508 796.322 73.7508 Q789.355 73.7508 785.223 69.8619 Q781.132 65.9325 781.132 59.3701 Q781.132 51.7138 786.236 47.825 Q791.38 43.9361 801.548 43.9361 L811.999 43.9361 L811.999 43.2069 Q811.999 38.0623 808.597 35.2672 Q805.234 32.4315 799.118 32.4315 Q795.229 32.4315 791.542 33.3632 Q787.856 34.295 784.453 36.1584 L784.453 29.2718 Q788.545 27.692 792.393 26.9223 Q796.241 26.1121 799.887 26.1121 Q809.731 26.1121 814.592 31.2163 Q819.453 36.3204 819.453 46.6907 Z" fill="#000000" fill-rule="nonzero" fill-opacity="1"></path><path clip-path="url(#clip100)" d="M842.017 65.7705 L842.017 89.8329 L834.522 89.8329 L834.522 27.2059 L842.017 27.2059 L842.017 34.0924 Q844.366 30.0415 847.931 28.0971 Q851.536 26.1121 856.519 26.1121 Q864.783 26.1121 869.927 32.6746 Q875.112 39.2371 875.112 49.9314 Q875.112 60.6258 869.927 67.1883 Q864.783 73.7508 856.519 73.7508 Q851.536 73.7508 847.931 71.8063 Q844.366 69.8214 842.017 65.7705 M867.375 49.9314 Q867.375 41.7081 863.972 37.0496 Q860.61 32.3505 854.696 32.3505 Q848.782 32.3505 845.379 37.0496 Q842.017 41.7081 842.017 49.9314 Q842.017 58.1548 845.379 62.8538 Q848.782 67.5124 854.696 67.5124 Q860.61 67.5124 863.972 62.8538 Q867.375 58.1548 867.375 49.9314 Z" fill="#000000" fill-rule="nonzero" fill-opacity="1"></path><path clip-path="url(#clip100)" d="M908.492 27.2059 L916.391 27.2059 L930.569 65.2844 L944.748 27.2059 L952.647 27.2059 L935.633 72.576 L925.506 72.576 L908.492 27.2059 Z" fill="#000000" fill-rule="nonzero" fill-opacity="1"></path><path clip-path="url(#clip100)" d="M991.86 28.5427 L991.86 35.5912 Q988.7 33.9709 985.297 33.1607 Q981.894 32.3505 978.249 32.3505 Q972.699 32.3505 969.904 34.0519 Q967.149 35.7533 967.149 39.156 Q967.149 41.7486 969.134 43.2475 Q971.119 44.7058 977.114 46.0426 L979.666 46.6097 Q987.606 48.3111 990.928 51.4303 Q994.29 54.509 994.29 60.0587 Q994.29 66.3781 989.267 70.0644 Q984.284 73.7508 975.534 73.7508 Q971.889 73.7508 967.919 73.0216 Q963.989 72.3329 959.614 70.9151 L959.614 63.2184 Q963.746 65.3654 967.757 66.4591 Q971.767 67.5124 975.696 67.5124 Q980.963 67.5124 983.798 65.73 Q986.634 63.9071 986.634 60.6258 Q986.634 57.5877 984.568 55.9673 Q982.542 54.3469 975.615 52.8481 L973.023 52.2405 Q966.096 50.7821 963.017 47.7845 Q959.938 44.7463 959.938 39.4801 Q959.938 33.0797 964.475 29.5959 Q969.012 26.1121 977.357 26.1121 Q981.489 26.1121 985.135 26.7198 Q988.781 27.3274 991.86 28.5427 Z" fill="#000000" fill-rule="nonzero" fill-opacity="1"></path><path clip-path="url(#clip100)" d="M1032.85 12.096 L1043.87 12.096 L1070.69 62.6918 L1070.69 12.096 L1078.63 12.096 L1078.63 72.576 L1067.61 72.576 L1040.79 21.9802 L1040.79 72.576 L1032.85 72.576 L1032.85 12.096 Z" fill="#000000" fill-rule="nonzero" fill-opacity="1"></path><path clip-path="url(#clip100)" d="M1093.82 54.671 L1093.82 27.2059 L1101.27 27.2059 L1101.27 54.3874 Q1101.27 60.8284 1103.79 64.0691 Q1106.3 67.2693 1111.32 67.2693 Q1117.36 67.2693 1120.84 63.421 Q1124.36 59.5726 1124.36 52.9291 L1124.36 27.2059 L1131.82 27.2059 L1131.82 72.576 L1124.36 72.576 L1124.36 65.6084 Q1121.65 69.7404 1118.05 71.7658 Q1114.48 73.7508 1109.74 73.7508 Q1101.92 73.7508 1097.87 68.8897 Q1093.82 64.0286 1093.82 54.671 M1112.58 26.1121 L1112.58 26.1121 Z" fill="#000000" fill-rule="nonzero" fill-opacity="1"></path><path clip-path="url(#clip100)" d="M1182.5 35.9153 Q1185.29 30.8922 1189.18 28.5022 Q1193.07 26.1121 1198.33 26.1121 Q1205.42 26.1121 1209.27 31.0947 Q1213.12 36.0368 1213.12 45.1919 L1213.12 72.576 L1205.63 72.576 L1205.63 45.4349 Q1205.63 38.913 1203.32 35.7533 Q1201.01 32.5936 1196.27 32.5936 Q1190.48 32.5936 1187.11 36.4419 Q1183.75 40.2903 1183.75 46.9338 L1183.75 72.576 L1176.26 72.576 L1176.26 45.4349 Q1176.26 38.8725 1173.95 35.7533 Q1171.64 32.5936 1166.82 32.5936 Q1161.11 32.5936 1157.74 36.4824 Q1154.38 40.3308 1154.38 46.9338 L1154.38 72.576 L1146.89 72.576 L1146.89 27.2059 L1154.38 27.2059 L1154.38 34.2544 Q1156.93 30.082 1160.5 28.0971 Q1164.06 26.1121 1168.97 26.1121 Q1173.91 26.1121 1177.35 28.6237 Q1180.83 31.1352 1182.5 35.9153 Z" fill="#000000" fill-rule="nonzero" fill-opacity="1"></path><path clip-path="url(#clip100)" d="M1260.56 49.9314 Q1260.56 41.7081 1257.15 37.0496 Q1253.79 32.3505 1247.88 32.3505 Q1241.96 32.3505 1238.56 37.0496 Q1235.2 41.7081 1235.2 49.9314 Q1235.2 58.1548 1238.56 62.8538 Q1241.96 67.5124 1247.88 67.5124 Q1253.79 67.5124 1257.15 62.8538 Q1260.56 58.1548 1260.56 49.9314 M1235.2 34.0924 Q1237.55 30.0415 1241.11 28.0971 Q1244.72 26.1121 1249.7 26.1121 Q1257.96 26.1121 1263.11 32.6746 Q1268.29 39.2371 1268.29 49.9314 Q1268.29 60.6258 1263.11 67.1883 Q1257.96 73.7508 1249.7 73.7508 Q1244.72 73.7508 1241.11 71.8063 Q1237.55 69.8214 1235.2 65.7705 L1235.2 72.576 L1227.7 72.576 L1227.7 9.54393 L1235.2 9.54393 L1235.2 34.0924 Z" fill="#000000" fill-rule="nonzero" fill-opacity="1"></path><path clip-path="url(#clip100)" d="M1319.46 48.0275 L1319.46 51.6733 L1285.19 51.6733 Q1285.67 59.3701 1289.8 63.421 Q1293.98 67.4314 1301.39 67.4314 Q1305.68 67.4314 1309.69 66.3781 Q1313.74 65.3249 1317.71 63.2184 L1317.71 70.267 Q1313.7 71.9684 1309.49 72.8596 Q1305.28 73.7508 1300.94 73.7508 Q1290.09 73.7508 1283.73 67.4314 Q1277.41 61.1119 1277.41 50.3365 Q1277.41 39.1965 1283.4 32.6746 Q1289.44 26.1121 1299.65 26.1121 Q1308.8 26.1121 1314.11 32.0264 Q1319.46 37.9003 1319.46 48.0275 M1312 45.84 Q1311.92 39.7232 1308.56 36.0774 Q1305.24 32.4315 1299.73 32.4315 Q1293.49 32.4315 1289.72 35.9558 Q1286 39.4801 1285.43 45.8805 L1312 45.84 Z" fill="#000000" fill-rule="nonzero" fill-opacity="1"></path><path clip-path="url(#clip100)" d="M1357.98 34.1734 Q1356.72 33.4443 1355.23 33.1202 Q1353.77 32.7556 1351.98 32.7556 Q1345.67 32.7556 1342.26 36.8875 Q1338.9 40.9789 1338.9 48.6757 L1338.9 72.576 L1331.41 72.576 L1331.41 27.2059 L1338.9 27.2059 L1338.9 34.2544 Q1341.25 30.1225 1345.02 28.1376 Q1348.78 26.1121 1354.17 26.1121 Q1354.94 26.1121 1355.87 26.2337 Q1356.81 26.3147 1357.94 26.5172 L1357.98 34.1734 Z" fill="#000000" fill-rule="nonzero" fill-opacity="1"></path><path clip-path="url(#clip100)" d="M1409.75 32.4315 Q1403.76 32.4315 1400.27 37.1306 Q1396.79 41.7891 1396.79 49.9314 Q1396.79 58.0738 1400.23 62.7728 Q1403.71 67.4314 1409.75 67.4314 Q1415.71 67.4314 1419.19 62.7323 Q1422.67 58.0333 1422.67 49.9314 Q1422.67 41.8701 1419.19 37.1711 Q1415.71 32.4315 1409.75 32.4315 M1409.75 26.1121 Q1419.47 26.1121 1425.02 32.4315 Q1430.57 38.7509 1430.57 49.9314 Q1430.57 61.0714 1425.02 67.4314 Q1419.47 73.7508 1409.75 73.7508 Q1399.99 73.7508 1394.44 67.4314 Q1388.93 61.0714 1388.93 49.9314 Q1388.93 38.7509 1394.44 32.4315 Q1399.99 26.1121 1409.75 26.1121 Z" fill="#000000" fill-rule="nonzero" fill-opacity="1"></path><path clip-path="url(#clip100)" d="M1465.9 9.54393 L1465.9 15.7418 L1458.77 15.7418 Q1454.76 15.7418 1453.18 17.3622 Q1451.64 18.9825 1451.64 23.1955 L1451.64 27.2059 L1463.91 27.2059 L1463.91 32.9987 L1451.64 32.9987 L1451.64 72.576 L1444.14 72.576 L1444.14 32.9987 L1437.01 32.9987 L1437.01 27.2059 L1444.14 27.2059 L1444.14 24.0462 Q1444.14 16.471 1447.67 13.0277 Q1451.19 9.54393 1458.85 9.54393 L1465.9 9.54393 Z" fill="#000000" fill-rule="nonzero" fill-opacity="1"></path><path clip-path="url(#clip100)" d="M1527.43 28.5427 L1527.43 35.5912 Q1524.27 33.9709 1520.87 33.1607 Q1517.46 32.3505 1513.82 32.3505 Q1508.27 32.3505 1505.47 34.0519 Q1502.72 35.7533 1502.72 39.156 Q1502.72 41.7486 1504.7 43.2475 Q1506.69 44.7058 1512.68 46.0426 L1515.24 46.6097 Q1523.18 48.3111 1526.5 51.4303 Q1529.86 54.509 1529.86 60.0587 Q1529.86 66.3781 1524.84 70.0644 Q1519.85 73.7508 1511.1 73.7508 Q1507.46 73.7508 1503.49 73.0216 Q1499.56 72.3329 1495.18 70.9151 L1495.18 63.2184 Q1499.32 65.3654 1503.33 66.4591 Q1507.34 67.5124 1511.27 67.5124 Q1516.53 67.5124 1519.37 65.73 Q1522.2 63.9071 1522.2 60.6258 Q1522.2 57.5877 1520.14 55.9673 Q1518.11 54.3469 1511.19 52.8481 L1508.59 52.2405 Q1501.67 50.7821 1498.59 47.7845 Q1495.51 44.7463 1495.51 39.4801 Q1495.51 33.0797 1500.05 29.5959 Q1504.58 26.1121 1512.93 26.1121 Q1517.06 26.1121 1520.71 26.7198 Q1524.35 27.3274 1527.43 28.5427 Z" fill="#000000" fill-rule="nonzero" fill-opacity="1"></path><path clip-path="url(#clip100)" d="M1541.73 27.2059 L1549.18 27.2059 L1549.18 72.576 L1541.73 72.576 L1541.73 27.2059 M1541.73 9.54393 L1549.18 9.54393 L1549.18 18.9825 L1541.73 18.9825 L1541.73 9.54393 Z" fill="#000000" fill-rule="nonzero" fill-opacity="1"></path><path clip-path="url(#clip100)" d="M1572.15 14.324 L1572.15 27.2059 L1587.5 27.2059 L1587.5 32.9987 L1572.15 32.9987 L1572.15 57.6282 Q1572.15 63.1779 1573.65 64.7578 Q1575.19 66.3376 1579.85 66.3376 L1587.5 66.3376 L1587.5 72.576 L1579.85 72.576 Q1571.22 72.576 1567.94 69.3758 Q1564.66 66.1351 1564.66 57.6282 L1564.66 32.9987 L1559.19 32.9987 L1559.19 27.2059 L1564.66 27.2059 L1564.66 14.324 L1572.15 14.324 Z" fill="#000000" fill-rule="nonzero" fill-opacity="1"></path><path clip-path="url(#clip100)" d="M1636.12 48.0275 L1636.12 51.6733 L1601.84 51.6733 Q1602.33 59.3701 1606.46 63.421 Q1610.64 67.4314 1618.05 67.4314 Q1622.34 67.4314 1626.35 66.3781 Q1630.4 65.3249 1634.37 63.2184 L1634.37 70.267 Q1630.36 71.9684 1626.15 72.8596 Q1621.94 73.7508 1617.6 73.7508 Q1606.75 73.7508 1600.39 67.4314 Q1594.07 61.1119 1594.07 50.3365 Q1594.07 39.1965 1600.06 32.6746 Q1606.1 26.1121 1616.31 26.1121 Q1625.46 26.1121 1630.77 32.0264 Q1636.12 37.9003 1636.12 48.0275 M1628.66 45.84 Q1628.58 39.7232 1625.22 36.0774 Q1621.9 32.4315 1616.39 32.4315 Q1610.15 32.4315 1606.38 35.9558 Q1602.65 39.4801 1602.09 45.8805 L1628.66 45.84 Z" fill="#000000" fill-rule="nonzero" fill-opacity="1"></path><path clip-path="url(#clip100)" d="M1677.27 28.5427 L1677.27 35.5912 Q1674.11 33.9709 1670.71 33.1607 Q1667.31 32.3505 1663.66 32.3505 Q1658.11 32.3505 1655.32 34.0519 Q1652.56 35.7533 1652.56 39.156 Q1652.56 41.7486 1654.55 43.2475 Q1656.53 44.7058 1662.53 46.0426 L1665.08 46.6097 Q1673.02 48.3111 1676.34 51.4303 Q1679.7 54.509 1679.7 60.0587 Q1679.7 66.3781 1674.68 70.0644 Q1669.7 73.7508 1660.95 73.7508 Q1657.3 73.7508 1653.33 73.0216 Q1649.4 72.3329 1645.03 70.9151 L1645.03 63.2184 Q1649.16 65.3654 1653.17 66.4591 Q1657.18 67.5124 1661.11 67.5124 Q1666.38 67.5124 1669.21 65.73 Q1672.05 63.9071 1672.05 60.6258 Q1672.05 57.5877 1669.98 55.9673 Q1667.96 54.3469 1661.03 52.8481 L1658.44 52.2405 Q1651.51 50.7821 1648.43 47.7845 Q1645.35 44.7463 1645.35 39.4801 Q1645.35 33.0797 1649.89 29.5959 Q1654.43 26.1121 1662.77 26.1121 Q1666.9 26.1121 1670.55 26.7198 Q1674.19 27.3274 1677.27 28.5427 Z" fill="#000000" fill-rule="nonzero" fill-opacity="1"></path><path clip-path="url(#clip100)" d="M1713.61 27.2059 L1721.06 27.2059 L1730.38 62.6108 L1739.66 27.2059 L1748.45 27.2059 L1757.76 62.6108 L1767.04 27.2059 L1774.49 27.2059 L1762.63 72.576 L1753.83 72.576 L1744.07 35.3887 L1734.27 72.576 L1725.48 72.576 L1713.61 27.2059 Z" fill="#000000" fill-rule="nonzero" fill-opacity="1"></path><path clip-path="url(#clip100)" d="M1785.8 27.2059 L1793.25 27.2059 L1793.25 72.576 L1785.8 72.576 L1785.8 27.2059 M1785.8 9.54393 L1793.25 9.54393 L1793.25 18.9825 L1785.8 18.9825 L1785.8 9.54393 Z" fill="#000000" fill-rule="nonzero" fill-opacity="1"></path><path clip-path="url(#clip100)" d="M1816.22 14.324 L1816.22 27.2059 L1831.57 27.2059 L1831.57 32.9987 L1816.22 32.9987 L1816.22 57.6282 Q1816.22 63.1779 1817.72 64.7578 Q1819.26 66.3376 1823.92 66.3376 L1831.57 66.3376 L1831.57 72.576 L1823.92 72.576 Q1815.29 72.576 1812.01 69.3758 Q1808.72 66.1351 1808.72 57.6282 L1808.72 32.9987 L1803.26 32.9987 L1803.26 27.2059 L1808.72 27.2059 L1808.72 14.324 L1816.22 14.324 Z" fill="#000000" fill-rule="nonzero" fill-opacity="1"></path><path clip-path="url(#clip100)" d="M1879.09 45.1919 L1879.09 72.576 L1871.63 72.576 L1871.63 45.4349 Q1871.63 38.994 1869.12 35.7938 Q1866.61 32.5936 1861.59 32.5936 Q1855.55 32.5936 1852.07 36.4419 Q1848.59 40.2903 1848.59 46.9338 L1848.59 72.576 L1841.09 72.576 L1841.09 9.54393 L1848.59 9.54393 L1848.59 34.2544 Q1851.26 30.163 1854.86 28.1376 Q1858.51 26.1121 1863.25 26.1121 Q1871.07 26.1121 1875.08 30.9732 Q1879.09 35.7938 1879.09 45.1919 Z" fill="#000000" fill-rule="nonzero" fill-opacity="1"></path><path clip-path="url(#clip100)" d="M1912.27 12.096 L1963.43 12.096 L1963.43 18.9825 L1941.96 18.9825 L1941.96 72.576 L1933.74 72.576 L1933.74 18.9825 L1912.27 18.9825 L1912.27 12.096 Z" fill="#000000" fill-rule="nonzero" fill-opacity="1"></path><path clip-path="url(#clip100)" d="M1971.98 34.9026 L2023.91 34.9026 L2023.91 41.7081 L1971.98 41.7081 L1971.98 34.9026 M1971.98 51.4303 L2023.91 51.4303 L2023.91 58.3168 L1971.98 58.3168 L1971.98 51.4303 Z" fill="#000000" fill-rule="nonzero" fill-opacity="1"></path><path clip-path="url(#clip100)" d="M2059.07 17.4837 Q2052.75 17.4837 2049.55 23.7221 Q2046.39 29.92 2046.39 42.3968 Q2046.39 54.833 2049.55 61.0714 Q2052.75 67.2693 2059.07 67.2693 Q2065.43 67.2693 2068.59 61.0714 Q2071.79 54.833 2071.79 42.3968 Q2071.79 29.92 2068.59 23.7221 Q2065.43 17.4837 2059.07 17.4837 M2059.07 11.0023 Q2069.24 11.0023 2074.59 19.0636 Q2079.97 27.0843 2079.97 42.3968 Q2079.97 57.6687 2074.59 65.73 Q2069.24 73.7508 2059.07 73.7508 Q2048.9 73.7508 2043.51 65.73 Q2038.17 57.6687 2038.17 42.3968 Q2038.17 27.0843 2043.51 19.0636 Q2048.9 11.0023 2059.07 11.0023 Z" fill="#000000" fill-rule="nonzero" fill-opacity="1"></path><path clip-path="url(#clip100)" d="M2094.35 62.2867 L2102.9 62.2867 L2102.9 72.576 L2094.35 72.576 L2094.35 62.2867 Z" fill="#000000" fill-rule="nonzero" fill-opacity="1"></path><path clip-path="url(#clip100)" d="M2122.14 65.6895 L2135.51 65.6895 L2135.51 19.5497 L2120.97 22.4663 L2120.97 15.0127 L2135.43 12.096 L2143.61 12.096 L2143.61 65.6895 L2156.98 65.6895 L2156.98 72.576 L2122.14 72.576 L2122.14 65.6895 Z" fill="#000000" fill-rule="nonzero" fill-opacity="1"></path><polyline clip-path="url(#clip102)" style="stroke:#009af9; stroke-linecap:round; stroke-linejoin:round; stroke-width:4; stroke-opacity:1; fill:none" points="279.421,1081.57 589.105,1386.4 898.789,693.238 1208.47,160.256 1518.16,697.792 1827.84,803.699 2137.53,357.28 "></polyline>
<polyline clip-path="url(#clip102)" style="stroke:#e26f46; stroke-linecap:round; stroke-linejoin:round; stroke-width:4; stroke-opacity:1; fill:none" points="279.421,669.258 589.105,754.691 898.789,844.401 1208.47,997.826 1518.16,965.526 1827.84,730.589 2137.53,523.523 "></polyline>
<polyline clip-path="url(#clip102)" style="stroke:#3da44d; stroke-linecap:round; stroke-linejoin:round; stroke-width:4; stroke-opacity:1; fill:none" points="434.263,1258.85 898.789,1061.68 1363.32,1175.5 1827.84,1213.54 2292.37,1233.94 "></polyline>
<path clip-path="url(#clip100)" d="M290.157 374.156 L730.936 374.156 L730.936 166.796 L290.157 166.796  Z" fill="#ffffff" fill-rule="evenodd" fill-opacity="1"></path>
<polyline clip-path="url(#clip100)" style="stroke:#000000; stroke-linecap:round; stroke-linejoin:round; stroke-width:4; stroke-opacity:1; fill:none" points="290.157,374.156 730.936,374.156 730.936,166.796 290.157,166.796 290.157,374.156 "></polyline>
<polyline clip-path="url(#clip100)" style="stroke:#009af9; stroke-linecap:round; stroke-linejoin:round; stroke-width:4; stroke-opacity:1; fill:none" points="313.865,218.636 456.113,218.636 "></polyline>
<path clip-path="url(#clip100)" d="M487.229 202.629 L487.229 209.99 L496.002 209.99 L496.002 213.3 L487.229 213.3 L487.229 227.374 Q487.229 230.545 488.085 231.448 Q488.965 232.351 491.627 232.351 L496.002 232.351 L496.002 235.916 L491.627 235.916 Q486.696 235.916 484.821 234.087 Q482.946 232.235 482.946 227.374 L482.946 213.3 L479.821 213.3 L479.821 209.99 L482.946 209.99 L482.946 202.629 L487.229 202.629 Z" fill="#000000" fill-rule="nonzero" fill-opacity="1"></path><path clip-path="url(#clip100)" d="M516.627 213.971 Q515.909 213.555 515.053 213.37 Q514.219 213.161 513.201 213.161 Q509.59 213.161 507.645 215.522 Q505.724 217.86 505.724 222.258 L505.724 235.916 L501.442 235.916 L501.442 209.99 L505.724 209.99 L505.724 214.018 Q507.067 211.657 509.219 210.522 Q511.372 209.365 514.451 209.365 Q514.891 209.365 515.423 209.434 Q515.955 209.481 516.604 209.596 L516.627 213.971 Z" fill="#000000" fill-rule="nonzero" fill-opacity="1"></path><path clip-path="url(#clip100)" d="M521.094 209.99 L525.353 209.99 L525.353 235.916 L521.094 235.916 L521.094 209.99 M521.094 199.897 L525.353 199.897 L525.353 205.291 L521.094 205.291 L521.094 199.897 Z" fill="#000000" fill-rule="nonzero" fill-opacity="1"></path><path clip-path="url(#clip100)" d="M546.048 222.883 Q540.886 222.883 538.895 224.064 Q536.904 225.244 536.904 228.092 Q536.904 230.36 538.386 231.703 Q539.89 233.022 542.46 233.022 Q546.002 233.022 548.131 230.522 Q550.284 227.999 550.284 223.832 L550.284 222.883 L546.048 222.883 M554.543 221.124 L554.543 235.916 L550.284 235.916 L550.284 231.981 Q548.826 234.342 546.65 235.476 Q544.474 236.587 541.326 236.587 Q537.344 236.587 534.983 234.365 Q532.645 232.119 532.645 228.369 Q532.645 223.994 535.562 221.772 Q538.502 219.55 544.312 219.55 L550.284 219.55 L550.284 219.133 Q550.284 216.194 548.339 214.596 Q546.418 212.976 542.923 212.976 Q540.701 212.976 538.594 213.508 Q536.488 214.041 534.543 215.106 L534.543 211.17 Q536.881 210.268 539.08 209.828 Q541.279 209.365 543.363 209.365 Q548.988 209.365 551.765 212.282 Q554.543 215.198 554.543 221.124 Z" fill="#000000" fill-rule="nonzero" fill-opacity="1"></path><path clip-path="url(#clip100)" d="M584.867 220.268 L584.867 235.916 L580.608 235.916 L580.608 220.407 Q580.608 216.726 579.173 214.897 Q577.737 213.069 574.867 213.069 Q571.418 213.069 569.427 215.268 Q567.437 217.467 567.437 221.263 L567.437 235.916 L563.154 235.916 L563.154 209.99 L567.437 209.99 L567.437 214.018 Q568.964 211.68 571.025 210.522 Q573.108 209.365 575.816 209.365 Q580.284 209.365 582.575 212.143 Q584.867 214.897 584.867 220.268 Z" fill="#000000" fill-rule="nonzero" fill-opacity="1"></path><path clip-path="url(#clip100)" d="M610.422 222.652 Q610.422 218.022 608.501 215.476 Q606.603 212.93 603.154 212.93 Q599.728 212.93 597.807 215.476 Q595.909 218.022 595.909 222.652 Q595.909 227.258 597.807 229.805 Q599.728 232.351 603.154 232.351 Q606.603 232.351 608.501 229.805 Q610.422 227.258 610.422 222.652 M614.682 232.698 Q614.682 239.318 611.742 242.536 Q608.802 245.777 602.737 245.777 Q600.492 245.777 598.501 245.43 Q596.51 245.105 594.635 244.411 L594.635 240.268 Q596.51 241.286 598.339 241.772 Q600.168 242.258 602.066 242.258 Q606.256 242.258 608.339 240.059 Q610.422 237.883 610.422 233.462 L610.422 231.356 Q609.103 233.647 607.043 234.781 Q604.983 235.916 602.112 235.916 Q597.344 235.916 594.427 232.281 Q591.511 228.647 591.511 222.652 Q591.511 216.633 594.427 212.999 Q597.344 209.365 602.112 209.365 Q604.983 209.365 607.043 210.499 Q609.103 211.633 610.422 213.925 L610.422 209.99 L614.682 209.99 L614.682 232.698 Z" fill="#000000" fill-rule="nonzero" fill-opacity="1"></path><path clip-path="url(#clip100)" d="M623.455 199.897 L627.714 199.897 L627.714 235.916 L623.455 235.916 L623.455 199.897 Z" fill="#000000" fill-rule="nonzero" fill-opacity="1"></path><path clip-path="url(#clip100)" d="M658.802 221.888 L658.802 223.971 L639.219 223.971 Q639.496 228.369 641.857 230.684 Q644.242 232.976 648.478 232.976 Q650.931 232.976 653.223 232.374 Q655.538 231.772 657.806 230.569 L657.806 234.596 Q655.515 235.568 653.107 236.078 Q650.7 236.587 648.223 236.587 Q642.02 236.587 638.385 232.976 Q634.774 229.365 634.774 223.207 Q634.774 216.842 638.2 213.115 Q641.649 209.365 647.482 209.365 Q652.714 209.365 655.746 212.745 Q658.802 216.101 658.802 221.888 M654.543 220.638 Q654.496 217.143 652.575 215.059 Q650.677 212.976 647.529 212.976 Q643.964 212.976 641.811 214.99 Q639.682 217.004 639.357 220.661 L654.543 220.638 Z" fill="#000000" fill-rule="nonzero" fill-opacity="1"></path><path clip-path="url(#clip100)" d="M682.32 210.754 L682.32 214.782 Q680.515 213.856 678.57 213.393 Q676.626 212.93 674.542 212.93 Q671.371 212.93 669.774 213.902 Q668.2 214.874 668.2 216.819 Q668.2 218.3 669.334 219.157 Q670.468 219.99 673.894 220.754 L675.353 221.078 Q679.89 222.05 681.788 223.832 Q683.709 225.592 683.709 228.763 Q683.709 232.374 680.839 234.481 Q677.992 236.587 672.992 236.587 Q670.908 236.587 668.64 236.17 Q666.394 235.777 663.894 234.967 L663.894 230.569 Q666.255 231.795 668.547 232.42 Q670.839 233.022 673.084 233.022 Q676.093 233.022 677.714 232.004 Q679.334 230.962 679.334 229.087 Q679.334 227.351 678.154 226.425 Q676.996 225.499 673.038 224.643 L671.556 224.295 Q667.598 223.462 665.839 221.749 Q664.08 220.013 664.08 217.004 Q664.08 213.346 666.672 211.356 Q669.265 209.365 674.033 209.365 Q676.394 209.365 678.478 209.712 Q680.561 210.059 682.32 210.754 Z" fill="#000000" fill-rule="nonzero" fill-opacity="1"></path><polyline clip-path="url(#clip100)" style="stroke:#e26f46; stroke-linecap:round; stroke-linejoin:round; stroke-width:4; stroke-opacity:1; fill:none" points="313.865,270.476 456.113,270.476 "></polyline>
<path clip-path="url(#clip100)" d="M498.247 262.594 L498.247 266.622 Q496.442 265.696 494.497 265.233 Q492.553 264.77 490.469 264.77 Q487.298 264.77 485.701 265.742 Q484.127 266.714 484.127 268.659 Q484.127 270.14 485.261 270.997 Q486.395 271.83 489.821 272.594 L491.28 272.918 Q495.817 273.89 497.715 275.672 Q499.636 277.432 499.636 280.603 Q499.636 284.214 496.766 286.321 Q493.918 288.427 488.918 288.427 Q486.835 288.427 484.567 288.01 Q482.321 287.617 479.821 286.807 L479.821 282.409 Q482.182 283.635 484.474 284.26 Q486.766 284.862 489.011 284.862 Q492.02 284.862 493.641 283.844 Q495.261 282.802 495.261 280.927 Q495.261 279.191 494.08 278.265 Q492.923 277.339 488.965 276.483 L487.483 276.135 Q483.525 275.302 481.766 273.589 Q480.006 271.853 480.006 268.844 Q480.006 265.186 482.599 263.196 Q485.192 261.205 489.96 261.205 Q492.321 261.205 494.405 261.552 Q496.488 261.899 498.247 262.594 Z" fill="#000000" fill-rule="nonzero" fill-opacity="1"></path><path clip-path="url(#clip100)" d="M508.965 274.816 Q508.965 279.515 510.886 282.2 Q512.83 284.862 516.21 284.862 Q519.59 284.862 521.534 282.2 Q523.478 279.515 523.478 274.816 Q523.478 270.117 521.534 267.455 Q519.59 264.77 516.21 264.77 Q512.83 264.77 510.886 267.455 Q508.965 270.117 508.965 274.816 M523.478 283.867 Q522.136 286.182 520.076 287.316 Q518.039 288.427 515.168 288.427 Q510.469 288.427 507.506 284.677 Q504.567 280.927 504.567 274.816 Q504.567 268.705 507.506 264.955 Q510.469 261.205 515.168 261.205 Q518.039 261.205 520.076 262.339 Q522.136 263.45 523.478 265.765 L523.478 261.83 L527.738 261.83 L527.738 297.617 L523.478 297.617 L523.478 283.867 Z" fill="#000000" fill-rule="nonzero" fill-opacity="1"></path><path clip-path="url(#clip100)" d="M536.071 277.524 L536.071 261.83 L540.33 261.83 L540.33 277.362 Q540.33 281.043 541.765 282.895 Q543.201 284.723 546.071 284.723 Q549.52 284.723 551.511 282.524 Q553.525 280.325 553.525 276.529 L553.525 261.83 L557.784 261.83 L557.784 287.756 L553.525 287.756 L553.525 283.774 Q551.974 286.135 549.914 287.293 Q547.876 288.427 545.168 288.427 Q540.701 288.427 538.386 285.649 Q536.071 282.871 536.071 277.524 M546.789 261.205 L546.789 261.205 Z" fill="#000000" fill-rule="nonzero" fill-opacity="1"></path><path clip-path="url(#clip100)" d="M578.339 274.723 Q573.177 274.723 571.187 275.904 Q569.196 277.084 569.196 279.932 Q569.196 282.2 570.677 283.543 Q572.182 284.862 574.751 284.862 Q578.293 284.862 580.423 282.362 Q582.575 279.839 582.575 275.672 L582.575 274.723 L578.339 274.723 M586.835 272.964 L586.835 287.756 L582.575 287.756 L582.575 283.821 Q581.117 286.182 578.941 287.316 Q576.765 288.427 573.617 288.427 Q569.636 288.427 567.275 286.205 Q564.937 283.959 564.937 280.209 Q564.937 275.834 567.853 273.612 Q570.793 271.39 576.603 271.39 L582.575 271.39 L582.575 270.973 Q582.575 268.034 580.631 266.436 Q578.71 264.816 575.214 264.816 Q572.992 264.816 570.886 265.348 Q568.779 265.881 566.835 266.946 L566.835 263.01 Q569.173 262.108 571.372 261.668 Q573.571 261.205 575.654 261.205 Q581.279 261.205 584.057 264.122 Q586.835 267.038 586.835 272.964 Z" fill="#000000" fill-rule="nonzero" fill-opacity="1"></path><path clip-path="url(#clip100)" d="M610.631 265.811 Q609.913 265.395 609.057 265.21 Q608.223 265.001 607.205 265.001 Q603.594 265.001 601.649 267.362 Q599.728 269.7 599.728 274.098 L599.728 287.756 L595.446 287.756 L595.446 261.83 L599.728 261.83 L599.728 265.858 Q601.071 263.497 603.223 262.362 Q605.376 261.205 608.455 261.205 Q608.895 261.205 609.427 261.274 Q609.959 261.321 610.608 261.436 L610.631 265.811 Z" fill="#000000" fill-rule="nonzero" fill-opacity="1"></path><path clip-path="url(#clip100)" d="M636.232 273.728 L636.232 275.811 L616.649 275.811 Q616.927 280.209 619.288 282.524 Q621.672 284.816 625.908 284.816 Q628.362 284.816 630.654 284.214 Q632.969 283.612 635.237 282.409 L635.237 286.436 Q632.945 287.408 630.538 287.918 Q628.131 288.427 625.654 288.427 Q619.45 288.427 615.816 284.816 Q612.205 281.205 612.205 275.047 Q612.205 268.682 615.631 264.955 Q619.08 261.205 624.913 261.205 Q630.145 261.205 633.177 264.585 Q636.232 267.941 636.232 273.728 M631.973 272.478 Q631.927 268.983 630.006 266.899 Q628.108 264.816 624.959 264.816 Q621.395 264.816 619.242 266.83 Q617.112 268.844 616.788 272.501 L631.973 272.478 Z" fill="#000000" fill-rule="nonzero" fill-opacity="1"></path><path clip-path="url(#clip100)" d="M659.751 262.594 L659.751 266.622 Q657.945 265.696 656.001 265.233 Q654.056 264.77 651.973 264.77 Q648.802 264.77 647.205 265.742 Q645.631 266.714 645.631 268.659 Q645.631 270.14 646.765 270.997 Q647.899 271.83 651.325 272.594 L652.783 272.918 Q657.32 273.89 659.218 275.672 Q661.14 277.432 661.14 280.603 Q661.14 284.214 658.269 286.321 Q655.422 288.427 650.422 288.427 Q648.339 288.427 646.07 288.01 Q643.825 287.617 641.325 286.807 L641.325 282.409 Q643.686 283.635 645.978 284.26 Q648.269 284.862 650.515 284.862 Q653.524 284.862 655.144 283.844 Q656.765 282.802 656.765 280.927 Q656.765 279.191 655.584 278.265 Q654.427 277.339 650.469 276.483 L648.987 276.135 Q645.029 275.302 643.269 273.589 Q641.51 271.853 641.51 268.844 Q641.51 265.186 644.103 263.196 Q646.695 261.205 651.464 261.205 Q653.825 261.205 655.908 261.552 Q657.992 261.899 659.751 262.594 Z" fill="#000000" fill-rule="nonzero" fill-opacity="1"></path><polyline clip-path="url(#clip100)" style="stroke:#3da44d; stroke-linecap:round; stroke-linejoin:round; stroke-width:4; stroke-opacity:1; fill:none" points="313.865,322.316 456.113,322.316 "></polyline>
<path clip-path="url(#clip100)" d="M498.733 317.605 L498.733 303.577 L502.992 303.577 L502.992 339.596 L498.733 339.596 L498.733 335.707 Q497.391 338.022 495.33 339.156 Q493.293 340.267 490.423 340.267 Q485.724 340.267 482.761 336.517 Q479.821 332.767 479.821 326.656 Q479.821 320.545 482.761 316.795 Q485.724 313.045 490.423 313.045 Q493.293 313.045 495.33 314.179 Q497.391 315.29 498.733 317.605 M484.219 326.656 Q484.219 331.355 486.141 334.04 Q488.085 336.702 491.465 336.702 Q494.844 336.702 496.789 334.04 Q498.733 331.355 498.733 326.656 Q498.733 321.957 496.789 319.295 Q494.844 316.61 491.465 316.61 Q488.085 316.61 486.141 319.295 Q484.219 321.957 484.219 326.656 Z" fill="#000000" fill-rule="nonzero" fill-opacity="1"></path><path clip-path="url(#clip100)" d="M511.766 313.67 L516.025 313.67 L516.025 339.596 L511.766 339.596 L511.766 313.67 M511.766 303.577 L516.025 303.577 L516.025 308.971 L511.766 308.971 L511.766 303.577 Z" fill="#000000" fill-rule="nonzero" fill-opacity="1"></path><path clip-path="url(#clip100)" d="M536.719 326.563 Q531.557 326.563 529.566 327.744 Q527.576 328.924 527.576 331.772 Q527.576 334.04 529.057 335.383 Q530.562 336.702 533.131 336.702 Q536.673 336.702 538.802 334.202 Q540.955 331.679 540.955 327.512 L540.955 326.563 L536.719 326.563 M545.214 324.804 L545.214 339.596 L540.955 339.596 L540.955 335.661 Q539.497 338.022 537.321 339.156 Q535.145 340.267 531.997 340.267 Q528.015 340.267 525.654 338.045 Q523.316 335.799 523.316 332.049 Q523.316 327.674 526.233 325.452 Q529.173 323.23 534.983 323.23 L540.955 323.23 L540.955 322.813 Q540.955 319.874 539.011 318.276 Q537.09 316.656 533.594 316.656 Q531.372 316.656 529.265 317.188 Q527.159 317.721 525.215 318.786 L525.215 314.85 Q527.553 313.948 529.752 313.508 Q531.951 313.045 534.034 313.045 Q539.659 313.045 542.437 315.962 Q545.214 318.878 545.214 324.804 Z" fill="#000000" fill-rule="nonzero" fill-opacity="1"></path><path clip-path="url(#clip100)" d="M574.173 318.647 Q575.77 315.776 577.992 314.411 Q580.214 313.045 583.224 313.045 Q587.274 313.045 589.473 315.892 Q591.673 318.716 591.673 323.948 L591.673 339.596 L587.39 339.596 L587.39 324.087 Q587.39 320.36 586.071 318.554 Q584.751 316.749 582.043 316.749 Q578.733 316.749 576.812 318.948 Q574.89 321.147 574.89 324.943 L574.89 339.596 L570.608 339.596 L570.608 324.087 Q570.608 320.337 569.288 318.554 Q567.969 316.749 565.214 316.749 Q561.95 316.749 560.029 318.971 Q558.108 321.17 558.108 324.943 L558.108 339.596 L553.826 339.596 L553.826 313.67 L558.108 313.67 L558.108 317.698 Q559.566 315.313 561.603 314.179 Q563.64 313.045 566.441 313.045 Q569.265 313.045 571.233 314.48 Q573.224 315.915 574.173 318.647 Z" fill="#000000" fill-rule="nonzero" fill-opacity="1"></path><path clip-path="url(#clip100)" d="M610.214 316.656 Q606.788 316.656 604.797 319.341 Q602.807 322.003 602.807 326.656 Q602.807 331.309 604.774 333.994 Q606.765 336.656 610.214 336.656 Q613.617 336.656 615.608 333.971 Q617.598 331.286 617.598 326.656 Q617.598 322.05 615.608 319.364 Q613.617 316.656 610.214 316.656 M610.214 313.045 Q615.77 313.045 618.941 316.656 Q622.112 320.267 622.112 326.656 Q622.112 333.022 618.941 336.656 Q615.77 340.267 610.214 340.267 Q604.635 340.267 601.464 336.656 Q598.316 333.022 598.316 326.656 Q598.316 320.267 601.464 316.656 Q604.635 313.045 610.214 313.045 Z" fill="#000000" fill-rule="nonzero" fill-opacity="1"></path><path clip-path="url(#clip100)" d="M650.723 323.948 L650.723 339.596 L646.464 339.596 L646.464 324.087 Q646.464 320.406 645.029 318.577 Q643.594 316.749 640.723 316.749 Q637.274 316.749 635.283 318.948 Q633.293 321.147 633.293 324.943 L633.293 339.596 L629.01 339.596 L629.01 313.67 L633.293 313.67 L633.293 317.698 Q634.82 315.36 636.881 314.202 Q638.964 313.045 641.672 313.045 Q646.14 313.045 648.432 315.823 Q650.723 318.577 650.723 323.948 Z" fill="#000000" fill-rule="nonzero" fill-opacity="1"></path><path clip-path="url(#clip100)" d="M676.279 317.605 L676.279 303.577 L680.538 303.577 L680.538 339.596 L676.279 339.596 L676.279 335.707 Q674.936 338.022 672.876 339.156 Q670.839 340.267 667.968 340.267 Q663.269 340.267 660.306 336.517 Q657.367 332.767 657.367 326.656 Q657.367 320.545 660.306 316.795 Q663.269 313.045 667.968 313.045 Q670.839 313.045 672.876 314.179 Q674.936 315.29 676.279 317.605 M661.765 326.656 Q661.765 331.355 663.686 334.04 Q665.63 336.702 669.01 336.702 Q672.39 336.702 674.334 334.04 Q676.279 331.355 676.279 326.656 Q676.279 321.957 674.334 319.295 Q672.39 316.61 669.01 316.61 Q665.63 316.61 663.686 319.295 Q661.765 321.957 661.765 326.656 Z" fill="#000000" fill-rule="nonzero" fill-opacity="1"></path><path clip-path="url(#clip100)" d="M705.839 314.434 L705.839 318.462 Q704.033 317.536 702.089 317.073 Q700.144 316.61 698.061 316.61 Q694.89 316.61 693.292 317.582 Q691.718 318.554 691.718 320.499 Q691.718 321.98 692.853 322.837 Q693.987 323.67 697.413 324.434 L698.871 324.758 Q703.408 325.73 705.306 327.512 Q707.227 329.272 707.227 332.443 Q707.227 336.054 704.357 338.161 Q701.51 340.267 696.51 340.267 Q694.427 340.267 692.158 339.85 Q689.913 339.457 687.413 338.647 L687.413 334.249 Q689.774 335.475 692.066 336.1 Q694.357 336.702 696.603 336.702 Q699.612 336.702 701.232 335.684 Q702.853 334.642 702.853 332.767 Q702.853 331.031 701.672 330.105 Q700.515 329.179 696.556 328.323 L695.075 327.975 Q691.116 327.142 689.357 325.429 Q687.598 323.693 687.598 320.684 Q687.598 317.026 690.191 315.036 Q692.783 313.045 697.552 313.045 Q699.913 313.045 701.996 313.392 Q704.079 313.739 705.839 314.434 Z" fill="#000000" fill-rule="nonzero" fill-opacity="1"></path></svg>