<svg xmlns="http://www.w3.org/2000/svg" xmlns:xlink="http://www.w3.org/1999/xlink" width="600" height="400" viewBox="0 0 2400 1600">
<defs>
  <clipPath id="clip290">
    <rect x="0" y="0" width="2400" height="1600"></rect>
  </clipPath>
</defs>
<path clip-path="url(#clip290)" d="M0 1600 L2400 1600 L2400 8.88178e-14 L0 8.88178e-14  Z" fill="#ffffff" fill-rule="evenodd" fill-opacity="1"></path>
<defs>
  <clipPath id="clip291">
    <rect x="480" y="0" width="1681" height="1600"></rect>
  </clipPath>
</defs>
<path clip-path="url(#clip290)" d="M275.578 1423.18 L2352.76 1423.18 L2352.76 123.472 L275.578 123.472  Z" fill="#ffffff" fill-rule="evenodd" fill-opacity="1"></path>
<defs>
  <clipPath id="clip292">
    <rect x="275" y="123" width="2078" height="1301"></rect>
  </clipPath>
</defs>
<polyline clip-path="url(#clip292)" style="stroke:#000000; stroke-linecap:round; stroke-linejoin:round; stroke-width:2; stroke-opacity:0.1; fill:none" points="560.474,1423.18 560.474,123.472 "></polyline>
<polyline clip-path="url(#clip292)" style="stroke:#000000; stroke-linecap:round; stroke-linejoin:round; stroke-width:2; stroke-opacity:0.1; fill:none" points="937.32,1423.18 937.32,123.472 "></polyline>
<polyline clip-path="url(#clip292)" style="stroke:#000000; stroke-linecap:round; stroke-linejoin:round; stroke-width:2; stroke-opacity:0.1; fill:none" points="1314.17,1423.18 1314.17,123.472 "></polyline>
<polyline clip-path="url(#clip292)" style="stroke:#000000; stroke-linecap:round; stroke-linejoin:round; stroke-width:2; stroke-opacity:0.1; fill:none" points="1691.01,1423.18 1691.01,123.472 "></polyline>
<polyline clip-path="url(#clip292)" style="stroke:#000000; stroke-linecap:round; stroke-linejoin:round; stroke-width:2; stroke-opacity:0.1; fill:none" points="2067.86,1423.18 2067.86,123.472 "></polyline>
<polyline clip-path="url(#clip292)" style="stroke:#000000; stroke-linecap:round; stroke-linejoin:round; stroke-width:2; stroke-opacity:0.1; fill:none" points="275.578,1027.77 2352.76,1027.77 "></polyline>
<polyline clip-path="url(#clip292)" style="stroke:#000000; stroke-linecap:round; stroke-linejoin:round; stroke-width:2; stroke-opacity:0.1; fill:none" points="275.578,574.729 2352.76,574.729 "></polyline>
<polyline clip-path="url(#clip290)" style="stroke:#000000; stroke-linecap:round; stroke-linejoin:round; stroke-width:4; stroke-opacity:1; fill:none" points="275.578,1423.18 2352.76,1423.18 "></polyline>
<polyline clip-path="url(#clip290)" style="stroke:#000000; stroke-linecap:round; stroke-linejoin:round; stroke-width:4; stroke-opacity:1; fill:none" points="560.474,1423.18 560.474,1404.28 "></polyline>
<polyline clip-path="url(#clip290)" style="stroke:#000000; stroke-linecap:round; stroke-linejoin:round; stroke-width:4; stroke-opacity:1; fill:none" points="937.32,1423.18 937.32,1404.28 "></polyline>
<polyline clip-path="url(#clip290)" style="stroke:#000000; stroke-linecap:round; stroke-linejoin:round; stroke-width:4; stroke-opacity:1; fill:none" points="1314.17,1423.18 1314.17,1404.28 "></polyline>
<polyline clip-path="url(#clip290)" style="stroke:#000000; stroke-linecap:round; stroke-linejoin:round; stroke-width:4; stroke-opacity:1; fill:none" points="1691.01,1423.18 1691.01,1404.28 "></polyline>
<polyline clip-path="url(#clip290)" style="stroke:#000000; stroke-linecap:round; stroke-linejoin:round; stroke-width:4; stroke-opacity:1; fill:none" points="2067.86,1423.18 2067.86,1404.28 "></polyline>
<path clip-path="url(#clip290)" d="M526.793 1451.02 L549.015 1451.02 L549.015 1453.01 L536.469 1485.58 L531.585 1485.58 L543.391 1454.96 L526.793 1454.96 L526.793 1451.02 Z" fill="#000000" fill-rule="nonzero" fill-opacity="1"></path><path clip-path="url(#clip290)" d="M558.136 1479.7 L563.02 1479.7 L563.02 1485.58 L558.136 1485.58 L558.136 1479.7 Z" fill="#000000" fill-rule="nonzero" fill-opacity="1"></path><path clip-path="url(#clip290)" d="M573.251 1451.02 L591.608 1451.02 L591.608 1454.96 L577.534 1454.96 L577.534 1463.43 Q578.552 1463.08 579.571 1462.92 Q580.589 1462.73 581.608 1462.73 Q587.395 1462.73 590.775 1465.9 Q594.154 1469.08 594.154 1474.49 Q594.154 1480.07 590.682 1483.17 Q587.21 1486.25 580.89 1486.25 Q578.714 1486.25 576.446 1485.88 Q574.201 1485.51 571.793 1484.77 L571.793 1480.07 Q573.876 1481.2 576.099 1481.76 Q578.321 1482.32 580.798 1482.32 Q584.802 1482.32 587.14 1480.21 Q589.478 1478.1 589.478 1474.49 Q589.478 1470.88 587.14 1468.77 Q584.802 1466.67 580.798 1466.67 Q578.923 1466.67 577.048 1467.08 Q575.196 1467.5 573.251 1468.38 L573.251 1451.02 Z" fill="#000000" fill-rule="nonzero" fill-opacity="1"></path><path clip-path="url(#clip290)" d="M889.392 1481.64 L897.031 1481.64 L897.031 1455.28 L888.721 1456.95 L888.721 1452.69 L896.985 1451.02 L901.661 1451.02 L901.661 1481.64 L909.3 1481.64 L909.3 1485.58 L889.392 1485.58 L889.392 1481.64 Z" fill="#000000" fill-rule="nonzero" fill-opacity="1"></path><path clip-path="url(#clip290)" d="M928.744 1454.1 Q925.133 1454.1 923.304 1457.66 Q921.499 1461.2 921.499 1468.33 Q921.499 1475.44 923.304 1479.01 Q925.133 1482.55 928.744 1482.55 Q932.378 1482.55 934.184 1479.01 Q936.012 1475.44 936.012 1468.33 Q936.012 1461.2 934.184 1457.66 Q932.378 1454.1 928.744 1454.1 M928.744 1450.39 Q934.554 1450.39 937.61 1455 Q940.688 1459.58 940.688 1468.33 Q940.688 1477.06 937.61 1481.67 Q934.554 1486.25 928.744 1486.25 Q922.934 1486.25 919.855 1481.67 Q916.8 1477.06 916.8 1468.33 Q916.8 1459.58 919.855 1455 Q922.934 1450.39 928.744 1450.39 Z" fill="#000000" fill-rule="nonzero" fill-opacity="1"></path><path clip-path="url(#clip290)" d="M948.906 1479.7 L953.79 1479.7 L953.79 1485.58 L948.906 1485.58 L948.906 1479.7 Z" fill="#000000" fill-rule="nonzero" fill-opacity="1"></path><path clip-path="url(#clip290)" d="M973.975 1454.1 Q970.364 1454.1 968.535 1457.66 Q966.73 1461.2 966.73 1468.33 Q966.73 1475.44 968.535 1479.01 Q970.364 1482.55 973.975 1482.55 Q977.609 1482.55 979.415 1479.01 Q981.244 1475.44 981.244 1468.33 Q981.244 1461.2 979.415 1457.66 Q977.609 1454.1 973.975 1454.1 M973.975 1450.39 Q979.785 1450.39 982.841 1455 Q985.92 1459.58 985.92 1468.33 Q985.92 1477.06 982.841 1481.67 Q979.785 1486.25 973.975 1486.25 Q968.165 1486.25 965.086 1481.67 Q962.031 1477.06 962.031 1468.33 Q962.031 1459.58 965.086 1455 Q968.165 1450.39 973.975 1450.39 Z" fill="#000000" fill-rule="nonzero" fill-opacity="1"></path><path clip-path="url(#clip290)" d="M1266.74 1481.64 L1274.38 1481.64 L1274.38 1455.28 L1266.07 1456.95 L1266.07 1452.69 L1274.33 1451.02 L1279 1451.02 L1279 1481.64 L1286.64 1481.64 L1286.64 1485.58 L1266.74 1485.58 L1266.74 1481.64 Z" fill="#000000" fill-rule="nonzero" fill-opacity="1"></path><path clip-path="url(#clip290)" d="M1300.12 1481.64 L1316.44 1481.64 L1316.44 1485.58 L1294.49 1485.58 L1294.49 1481.64 Q1297.15 1478.89 1301.74 1474.26 Q1306.34 1469.61 1307.52 1468.27 Q1309.77 1465.74 1310.65 1464.01 Q1311.55 1462.25 1311.55 1460.56 Q1311.55 1457.8 1309.61 1456.07 Q1307.69 1454.33 1304.58 1454.33 Q1302.38 1454.33 1299.93 1455.09 Q1297.5 1455.86 1294.72 1457.41 L1294.72 1452.69 Q1297.55 1451.55 1300 1450.97 Q1302.45 1450.39 1304.49 1450.39 Q1309.86 1450.39 1313.06 1453.08 Q1316.25 1455.77 1316.25 1460.26 Q1316.25 1462.39 1315.44 1464.31 Q1314.65 1466.2 1312.55 1468.8 Q1311.97 1469.47 1308.87 1472.69 Q1305.76 1475.88 1300.12 1481.64 Z" fill="#000000" fill-rule="nonzero" fill-opacity="1"></path><path clip-path="url(#clip290)" d="M1326.25 1479.7 L1331.13 1479.7 L1331.13 1485.58 L1326.25 1485.58 L1326.25 1479.7 Z" fill="#000000" fill-rule="nonzero" fill-opacity="1"></path><path clip-path="url(#clip290)" d="M1341.37 1451.02 L1359.72 1451.02 L1359.72 1454.96 L1345.65 1454.96 L1345.65 1463.43 Q1346.67 1463.08 1347.69 1462.92 Q1348.7 1462.73 1349.72 1462.73 Q1355.51 1462.73 1358.89 1465.9 Q1362.27 1469.08 1362.27 1474.49 Q1362.27 1480.07 1358.8 1483.17 Q1355.32 1486.25 1349 1486.25 Q1346.83 1486.25 1344.56 1485.88 Q1342.31 1485.51 1339.91 1484.77 L1339.91 1480.07 Q1341.99 1481.2 1344.21 1481.76 Q1346.44 1482.32 1348.91 1482.32 Q1352.92 1482.32 1355.25 1480.21 Q1357.59 1478.1 1357.59 1474.49 Q1357.59 1470.88 1355.25 1468.77 Q1352.92 1466.67 1348.91 1466.67 Q1347.04 1466.67 1345.16 1467.08 Q1343.31 1467.5 1341.37 1468.38 L1341.37 1451.02 Z" fill="#000000" fill-rule="nonzero" fill-opacity="1"></path><path clip-path="url(#clip290)" d="M1643.09 1481.64 L1650.72 1481.64 L1650.72 1455.28 L1642.41 1456.95 L1642.41 1452.69 L1650.68 1451.02 L1655.35 1451.02 L1655.35 1481.64 L1662.99 1481.64 L1662.99 1485.58 L1643.09 1485.58 L1643.09 1481.64 Z" fill="#000000" fill-rule="nonzero" fill-opacity="1"></path><path clip-path="url(#clip290)" d="M1672.48 1451.02 L1690.84 1451.02 L1690.84 1454.96 L1676.77 1454.96 L1676.77 1463.43 Q1677.78 1463.08 1678.8 1462.92 Q1679.82 1462.73 1680.84 1462.73 Q1686.63 1462.73 1690.01 1465.9 Q1693.39 1469.08 1693.39 1474.49 Q1693.39 1480.07 1689.91 1483.17 Q1686.44 1486.25 1680.12 1486.25 Q1677.95 1486.25 1675.68 1485.88 Q1673.43 1485.51 1671.03 1484.77 L1671.03 1480.07 Q1673.11 1481.2 1675.33 1481.76 Q1677.55 1482.32 1680.03 1482.32 Q1684.03 1482.32 1686.37 1480.21 Q1688.71 1478.1 1688.71 1474.49 Q1688.71 1470.88 1686.37 1468.77 Q1684.03 1466.67 1680.03 1466.67 Q1678.15 1466.67 1676.28 1467.08 Q1674.43 1467.5 1672.48 1468.38 L1672.48 1451.02 Z" fill="#000000" fill-rule="nonzero" fill-opacity="1"></path><path clip-path="url(#clip290)" d="M1702.6 1479.7 L1707.48 1479.7 L1707.48 1485.58 L1702.6 1485.58 L1702.6 1479.7 Z" fill="#000000" fill-rule="nonzero" fill-opacity="1"></path><path clip-path="url(#clip290)" d="M1727.67 1454.1 Q1724.06 1454.1 1722.23 1457.66 Q1720.42 1461.2 1720.42 1468.33 Q1720.42 1475.44 1722.23 1479.01 Q1724.06 1482.55 1727.67 1482.55 Q1731.3 1482.55 1733.11 1479.01 Q1734.94 1475.44 1734.94 1468.33 Q1734.94 1461.2 1733.11 1457.66 Q1731.3 1454.1 1727.67 1454.1 M1727.67 1450.39 Q1733.48 1450.39 1736.53 1455 Q1739.61 1459.58 1739.61 1468.33 Q1739.61 1477.06 1736.53 1481.67 Q1733.48 1486.25 1727.67 1486.25 Q1721.86 1486.25 1718.78 1481.67 Q1715.72 1477.06 1715.72 1468.33 Q1715.72 1459.58 1718.78 1455 Q1721.86 1450.39 1727.67 1450.39 Z" fill="#000000" fill-rule="nonzero" fill-opacity="1"></path><path clip-path="url(#clip290)" d="M2020.43 1481.64 L2028.07 1481.64 L2028.07 1455.28 L2019.76 1456.95 L2019.76 1452.69 L2028.02 1451.02 L2032.7 1451.02 L2032.7 1481.64 L2040.34 1481.64 L2040.34 1485.58 L2020.43 1485.58 L2020.43 1481.64 Z" fill="#000000" fill-rule="nonzero" fill-opacity="1"></path><path clip-path="url(#clip290)" d="M2048.6 1451.02 L2070.82 1451.02 L2070.82 1453.01 L2058.28 1485.58 L2053.39 1485.58 L2065.2 1454.96 L2048.6 1454.96 L2048.6 1451.02 Z" fill="#000000" fill-rule="nonzero" fill-opacity="1"></path><path clip-path="url(#clip290)" d="M2079.94 1479.7 L2084.83 1479.7 L2084.83 1485.58 L2079.94 1485.58 L2079.94 1479.7 Z" fill="#000000" fill-rule="nonzero" fill-opacity="1"></path><path clip-path="url(#clip290)" d="M2095.06 1451.02 L2113.42 1451.02 L2113.42 1454.96 L2099.34 1454.96 L2099.34 1463.43 Q2100.36 1463.08 2101.38 1462.92 Q2102.4 1462.73 2103.42 1462.73 Q2109.2 1462.73 2112.58 1465.9 Q2115.96 1469.08 2115.96 1474.49 Q2115.96 1480.07 2112.49 1483.17 Q2109.02 1486.25 2102.7 1486.25 Q2100.52 1486.25 2098.25 1485.88 Q2096.01 1485.51 2093.6 1484.77 L2093.6 1480.07 Q2095.68 1481.2 2097.91 1481.76 Q2100.13 1482.32 2102.61 1482.32 Q2106.61 1482.32 2108.95 1480.21 Q2111.29 1478.1 2111.29 1474.49 Q2111.29 1470.88 2108.95 1468.77 Q2106.61 1466.67 2102.61 1466.67 Q2100.73 1466.67 2098.86 1467.08 Q2097 1467.5 2095.06 1468.38 L2095.06 1451.02 Z" fill="#000000" fill-rule="nonzero" fill-opacity="1"></path><path clip-path="url(#clip290)" d="M1060.05 1520.52 L1068.71 1520.52 L1089.78 1560.28 L1089.78 1520.52 L1096.01 1520.52 L1096.01 1568.04 L1087.36 1568.04 L1066.29 1528.29 L1066.29 1568.04 L1060.05 1568.04 L1060.05 1520.52 Z" fill="#000000" fill-rule="nonzero" fill-opacity="1"></path><path clip-path="url(#clip290)" d="M1107.95 1553.98 L1107.95 1532.4 L1113.81 1532.4 L1113.81 1553.75 Q1113.81 1558.81 1115.78 1561.36 Q1117.75 1563.87 1121.7 1563.87 Q1126.44 1563.87 1129.18 1560.85 Q1131.95 1557.83 1131.95 1552.61 L1131.95 1532.4 L1137.8 1532.4 L1137.8 1568.04 L1131.95 1568.04 L1131.95 1562.57 Q1129.82 1565.82 1126.98 1567.41 Q1124.18 1568.97 1120.46 1568.97 Q1114.32 1568.97 1111.13 1565.15 Q1107.95 1561.33 1107.95 1553.98 M1122.69 1531.54 L1122.69 1531.54 Z" fill="#000000" fill-rule="nonzero" fill-opacity="1"></path><path clip-path="url(#clip290)" d="M1177.62 1539.24 Q1179.82 1535.29 1182.87 1533.41 Q1185.93 1531.54 1190.07 1531.54 Q1195.64 1531.54 1198.66 1535.45 Q1201.68 1539.33 1201.68 1546.53 L1201.68 1568.04 L1195.8 1568.04 L1195.8 1546.72 Q1195.8 1541.59 1193.98 1539.11 Q1192.17 1536.63 1188.44 1536.63 Q1183.89 1536.63 1181.25 1539.65 Q1178.61 1542.68 1178.61 1547.9 L1178.61 1568.04 L1172.72 1568.04 L1172.72 1546.72 Q1172.72 1541.56 1170.91 1539.11 Q1169.09 1536.63 1165.3 1536.63 Q1160.82 1536.63 1158.18 1539.68 Q1155.53 1542.71 1155.53 1547.9 L1155.53 1568.04 L1149.65 1568.04 L1149.65 1532.4 L1155.53 1532.4 L1155.53 1537.93 Q1157.54 1534.66 1160.34 1533.1 Q1163.14 1531.54 1166.99 1531.54 Q1170.87 1531.54 1173.58 1533.51 Q1176.32 1535.48 1177.62 1539.24 Z" fill="#000000" fill-rule="nonzero" fill-opacity="1"></path><path clip-path="url(#clip290)" d="M1238.96 1550.25 Q1238.96 1543.79 1236.28 1540.13 Q1233.64 1536.44 1228.99 1536.44 Q1224.35 1536.44 1221.67 1540.13 Q1219.03 1543.79 1219.03 1550.25 Q1219.03 1556.71 1221.67 1560.4 Q1224.35 1564.07 1228.99 1564.07 Q1233.64 1564.07 1236.28 1560.4 Q1238.96 1556.71 1238.96 1550.25 M1219.03 1537.81 Q1220.88 1534.62 1223.68 1533.1 Q1226.51 1531.54 1230.43 1531.54 Q1236.92 1531.54 1240.96 1536.69 Q1245.04 1541.85 1245.04 1550.25 Q1245.04 1558.65 1240.96 1563.81 Q1236.92 1568.97 1230.43 1568.97 Q1226.51 1568.97 1223.68 1567.44 Q1220.88 1565.88 1219.03 1562.7 L1219.03 1568.04 L1213.14 1568.04 L1213.14 1518.52 L1219.03 1518.52 L1219.03 1537.81 Z" fill="#000000" fill-rule="nonzero" fill-opacity="1"></path><path clip-path="url(#clip290)" d="M1285.23 1548.76 L1285.23 1551.62 L1258.31 1551.62 Q1258.69 1557.67 1261.94 1560.85 Q1265.21 1564 1271.04 1564 Q1274.41 1564 1277.56 1563.17 Q1280.75 1562.35 1283.87 1560.69 L1283.87 1566.23 Q1280.72 1567.57 1277.4 1568.27 Q1274.09 1568.97 1270.69 1568.97 Q1262.16 1568.97 1257.16 1564 Q1252.2 1559.04 1252.2 1550.57 Q1252.2 1541.82 1256.91 1536.69 Q1261.65 1531.54 1269.67 1531.54 Q1276.86 1531.54 1281.03 1536.18 Q1285.23 1540.8 1285.23 1548.76 M1279.38 1547.04 Q1279.31 1542.23 1276.67 1539.37 Q1274.06 1536.5 1269.73 1536.5 Q1264.83 1536.5 1261.87 1539.27 Q1258.94 1542.04 1258.5 1547.07 L1279.38 1547.04 Z" fill="#000000" fill-rule="nonzero" fill-opacity="1"></path><path clip-path="url(#clip290)" d="M1315.5 1537.87 Q1314.52 1537.3 1313.34 1537.04 Q1312.19 1536.76 1310.79 1536.76 Q1305.83 1536.76 1303.15 1540 Q1300.51 1543.22 1300.51 1549.27 L1300.51 1568.04 L1294.62 1568.04 L1294.62 1532.4 L1300.51 1532.4 L1300.51 1537.93 Q1302.36 1534.69 1305.32 1533.13 Q1308.28 1531.54 1312.51 1531.54 Q1313.12 1531.54 1313.85 1531.63 Q1314.58 1531.7 1315.47 1531.85 L1315.5 1537.87 Z" fill="#000000" fill-rule="nonzero" fill-opacity="1"></path><path clip-path="url(#clip290)" d="M1356.18 1536.5 Q1351.47 1536.5 1348.73 1540.19 Q1346 1543.85 1346 1550.25 Q1346 1556.65 1348.7 1560.34 Q1351.44 1564 1356.18 1564 Q1360.86 1564 1363.6 1560.31 Q1366.33 1556.62 1366.33 1550.25 Q1366.33 1543.92 1363.6 1540.23 Q1360.86 1536.5 1356.18 1536.5 M1356.18 1531.54 Q1363.82 1531.54 1368.18 1536.5 Q1372.54 1541.47 1372.54 1550.25 Q1372.54 1559 1368.18 1564 Q1363.82 1568.97 1356.18 1568.97 Q1348.51 1568.97 1344.15 1564 Q1339.82 1559 1339.82 1550.25 Q1339.82 1541.47 1344.15 1536.5 Q1348.51 1531.54 1356.18 1531.54 Z" fill="#000000" fill-rule="nonzero" fill-opacity="1"></path><path clip-path="url(#clip290)" d="M1400.29 1518.52 L1400.29 1523.39 L1394.69 1523.39 Q1391.54 1523.39 1390.3 1524.66 Q1389.09 1525.93 1389.09 1529.24 L1389.09 1532.4 L1398.74 1532.4 L1398.74 1536.95 L1389.09 1536.95 L1389.09 1568.04 L1383.2 1568.04 L1383.2 1536.95 L1377.6 1536.95 L1377.6 1532.4 L1383.2 1532.4 L1383.2 1529.91 Q1383.2 1523.96 1385.97 1521.26 Q1388.74 1518.52 1394.76 1518.52 L1400.29 1518.52 Z" fill="#000000" fill-rule="nonzero" fill-opacity="1"></path><path clip-path="url(#clip290)" d="M1448.64 1533.45 L1448.64 1538.98 Q1446.16 1537.71 1443.49 1537.07 Q1440.81 1536.44 1437.95 1536.44 Q1433.59 1536.44 1431.39 1537.77 Q1429.23 1539.11 1429.23 1541.79 Q1429.23 1543.82 1430.79 1545 Q1432.35 1546.15 1437.06 1547.2 L1439.06 1547.64 Q1445.3 1548.98 1447.91 1551.43 Q1450.55 1553.85 1450.55 1558.21 Q1450.55 1563.17 1446.61 1566.07 Q1442.69 1568.97 1435.82 1568.97 Q1432.95 1568.97 1429.83 1568.39 Q1426.74 1567.85 1423.31 1566.74 L1423.31 1560.69 Q1426.55 1562.38 1429.7 1563.24 Q1432.86 1564.07 1435.94 1564.07 Q1440.08 1564.07 1442.31 1562.66 Q1444.54 1561.23 1444.54 1558.65 Q1444.54 1556.27 1442.91 1554.99 Q1441.32 1553.72 1435.88 1552.54 L1433.84 1552.07 Q1428.4 1550.92 1425.98 1548.56 Q1423.56 1546.18 1423.56 1542.04 Q1423.56 1537.01 1427.13 1534.27 Q1430.69 1531.54 1437.25 1531.54 Q1440.49 1531.54 1443.36 1532.01 Q1446.22 1532.49 1448.64 1533.45 Z" fill="#000000" fill-rule="nonzero" fill-opacity="1"></path><path clip-path="url(#clip290)" d="M1459.88 1532.4 L1465.73 1532.4 L1465.73 1568.04 L1459.88 1568.04 L1459.88 1532.4 M1459.88 1518.52 L1465.73 1518.52 L1465.73 1525.93 L1459.88 1525.93 L1459.88 1518.52 Z" fill="#000000" fill-rule="nonzero" fill-opacity="1"></path><path clip-path="url(#clip290)" d="M1483.78 1522.27 L1483.78 1532.4 L1495.84 1532.4 L1495.84 1536.95 L1483.78 1536.95 L1483.78 1556.3 Q1483.78 1560.66 1484.96 1561.9 Q1486.17 1563.14 1489.83 1563.14 L1495.84 1563.14 L1495.84 1568.04 L1489.83 1568.04 Q1483.05 1568.04 1480.47 1565.53 Q1477.89 1562.98 1477.89 1556.3 L1477.89 1536.95 L1473.6 1536.95 L1473.6 1532.4 L1477.89 1532.4 L1477.89 1522.27 L1483.78 1522.27 Z" fill="#000000" fill-rule="nonzero" fill-opacity="1"></path><path clip-path="url(#clip290)" d="M1534.04 1548.76 L1534.04 1551.62 L1507.11 1551.62 Q1507.49 1557.67 1510.74 1560.85 Q1514.02 1564 1519.84 1564 Q1523.22 1564 1526.37 1563.17 Q1529.55 1562.35 1532.67 1560.69 L1532.67 1566.23 Q1529.52 1567.57 1526.21 1568.27 Q1522.9 1568.97 1519.49 1568.97 Q1510.96 1568.97 1505.97 1564 Q1501 1559.04 1501 1550.57 Q1501 1541.82 1505.71 1536.69 Q1510.45 1531.54 1518.47 1531.54 Q1525.67 1531.54 1529.84 1536.18 Q1534.04 1540.8 1534.04 1548.76 M1528.18 1547.04 Q1528.12 1542.23 1525.48 1539.37 Q1522.87 1536.5 1518.54 1536.5 Q1513.64 1536.5 1510.68 1539.27 Q1507.75 1542.04 1507.3 1547.07 L1528.18 1547.04 Z" fill="#000000" fill-rule="nonzero" fill-opacity="1"></path><path clip-path="url(#clip290)" d="M1566.38 1533.45 L1566.38 1538.98 Q1563.89 1537.71 1561.22 1537.07 Q1558.55 1536.44 1555.68 1536.44 Q1551.32 1536.44 1549.13 1537.77 Q1546.96 1539.11 1546.96 1541.79 Q1546.96 1543.82 1548.52 1545 Q1550.08 1546.15 1554.79 1547.2 L1556.8 1547.64 Q1563.03 1548.98 1565.64 1551.43 Q1568.29 1553.85 1568.29 1558.21 Q1568.29 1563.17 1564.34 1566.07 Q1560.42 1568.97 1553.55 1568.97 Q1550.68 1568.97 1547.57 1568.39 Q1544.48 1567.85 1541.04 1566.74 L1541.04 1560.69 Q1544.29 1562.38 1547.44 1563.24 Q1550.59 1564.07 1553.68 1564.07 Q1557.81 1564.07 1560.04 1562.66 Q1562.27 1561.23 1562.27 1558.65 Q1562.27 1556.27 1560.65 1554.99 Q1559.06 1553.72 1553.61 1552.54 L1551.58 1552.07 Q1546.13 1550.92 1543.71 1548.56 Q1541.3 1546.18 1541.3 1542.04 Q1541.3 1537.01 1544.86 1534.27 Q1548.42 1531.54 1554.98 1531.54 Q1558.23 1531.54 1561.09 1532.01 Q1563.96 1532.49 1566.38 1533.45 Z" fill="#000000" fill-rule="nonzero" fill-opacity="1"></path><polyline clip-path="url(#clip290)" style="stroke:#000000; stroke-linecap:round; stroke-linejoin:round; stroke-width:4; stroke-opacity:1; fill:none" points="275.578,1423.18 275.578,123.472 "></polyline>
<polyline clip-path="url(#clip290)" style="stroke:#000000; stroke-linecap:round; stroke-linejoin:round; stroke-width:4; stroke-opacity:1; fill:none" points="275.578,1027.77 294.475,1027.77 "></polyline>
<polyline clip-path="url(#clip290)" style="stroke:#000000; stroke-linecap:round; stroke-linejoin:round; stroke-width:4; stroke-opacity:1; fill:none" points="275.578,574.729 294.475,574.729 "></polyline>
<path clip-path="url(#clip290)" d="M114.931 1047.56 L122.57 1047.56 L122.57 1021.2 L114.26 1022.86 L114.26 1018.6 L122.524 1016.94 L127.2 1016.94 L127.2 1047.56 L134.839 1047.56 L134.839 1051.5 L114.931 1051.5 L114.931 1047.56 Z" fill="#000000" fill-rule="nonzero" fill-opacity="1"></path><path clip-path="url(#clip290)" d="M154.283 1020.02 Q150.672 1020.02 148.843 1023.58 Q147.038 1027.12 147.038 1034.25 Q147.038 1041.36 148.843 1044.92 Q150.672 1048.46 154.283 1048.46 Q157.917 1048.46 159.723 1044.92 Q161.552 1041.36 161.552 1034.25 Q161.552 1027.12 159.723 1023.58 Q157.917 1020.02 154.283 1020.02 M154.283 1016.31 Q160.093 1016.31 163.149 1020.92 Q166.227 1025.5 166.227 1034.25 Q166.227 1042.98 163.149 1047.58 Q160.093 1052.17 154.283 1052.17 Q148.473 1052.17 145.394 1047.58 Q142.339 1042.98 142.339 1034.25 Q142.339 1025.5 145.394 1020.92 Q148.473 1016.31 154.283 1016.31 Z" fill="#000000" fill-rule="nonzero" fill-opacity="1"></path><path clip-path="url(#clip290)" d="M166.227 1010.41 L190.339 1010.41 L190.339 1013.61 L166.227 1013.61 L166.227 1010.41 Z" fill="#000000" fill-rule="nonzero" fill-opacity="1"></path><path clip-path="url(#clip290)" d="M199.197 1020.89 L205.404 1020.89 L205.404 999.467 L198.652 1000.82 L198.652 997.36 L205.366 996.006 L209.166 996.006 L209.166 1020.89 L215.372 1020.89 L215.372 1024.09 L199.197 1024.09 L199.197 1020.89 Z" fill="#000000" fill-rule="nonzero" fill-opacity="1"></path><path clip-path="url(#clip290)" d="M226.318 1020.89 L239.578 1020.89 L239.578 1024.09 L221.748 1024.09 L221.748 1020.89 Q223.911 1018.65 227.635 1014.89 Q231.378 1011.11 232.337 1010.02 Q234.161 1007.97 234.876 1006.56 Q235.609 1005.13 235.609 1003.75 Q235.609 1001.52 234.029 1000.11 Q232.468 998.695 229.948 998.695 Q228.161 998.695 226.168 999.316 Q224.193 999.937 221.936 1001.2 L221.936 997.36 Q224.231 996.439 226.224 995.968 Q228.218 995.498 229.873 995.498 Q234.236 995.498 236.832 997.68 Q239.427 999.862 239.427 1003.51 Q239.427 1005.24 238.769 1006.8 Q238.13 1008.34 236.418 1010.45 Q235.948 1011 233.428 1013.61 Q230.907 1016.21 226.318 1020.89 Z" fill="#000000" fill-rule="nonzero" fill-opacity="1"></path><path clip-path="url(#clip290)" d="M138.291 594.522 L145.93 594.522 L145.93 568.156 L137.619 569.823 L137.619 565.564 L145.883 563.897 L150.559 563.897 L150.559 594.522 L158.198 594.522 L158.198 598.457 L138.291 598.457 L138.291 594.522 Z" fill="#000000" fill-rule="nonzero" fill-opacity="1"></path><path clip-path="url(#clip290)" d="M177.642 566.976 Q174.031 566.976 172.203 570.54 Q170.397 574.082 170.397 581.212 Q170.397 588.318 172.203 591.883 Q174.031 595.425 177.642 595.425 Q181.277 595.425 183.082 591.883 Q184.911 588.318 184.911 581.212 Q184.911 574.082 183.082 570.54 Q181.277 566.976 177.642 566.976 M177.642 563.272 Q183.452 563.272 186.508 567.878 Q189.587 572.462 189.587 581.212 Q189.587 589.939 186.508 594.545 Q183.452 599.128 177.642 599.128 Q171.832 599.128 168.753 594.545 Q165.698 589.939 165.698 581.212 Q165.698 572.462 168.753 567.878 Q171.832 563.272 177.642 563.272 Z" fill="#000000" fill-rule="nonzero" fill-opacity="1"></path><path clip-path="url(#clip290)" d="M189.587 557.373 L213.698 557.373 L213.698 560.571 L189.587 560.571 L189.587 557.373 Z" fill="#000000" fill-rule="nonzero" fill-opacity="1"></path><path clip-path="url(#clip290)" d="M222.011 570.464 L222.011 567.003 Q223.441 567.68 224.908 568.037 Q226.375 568.395 227.785 568.395 Q231.547 568.395 233.522 565.874 Q235.515 563.335 235.797 558.182 Q234.707 559.8 233.033 560.665 Q231.359 561.53 229.328 561.53 Q225.115 561.53 222.651 558.991 Q220.206 556.433 220.206 552.013 Q220.206 547.687 222.764 545.073 Q225.321 542.459 229.572 542.459 Q234.443 542.459 237.001 546.202 Q239.578 549.925 239.578 557.035 Q239.578 563.674 236.418 567.642 Q233.277 571.592 227.955 571.592 Q226.525 571.592 225.058 571.31 Q223.591 571.028 222.011 570.464 M229.572 558.558 Q232.13 558.558 233.616 556.809 Q235.12 555.06 235.12 552.013 Q235.12 548.985 233.616 547.236 Q232.13 545.468 229.572 545.468 Q227.014 545.468 225.51 547.236 Q224.024 548.985 224.024 552.013 Q224.024 555.06 225.51 556.809 Q227.014 558.558 229.572 558.558 Z" fill="#000000" fill-rule="nonzero" fill-opacity="1"></path><path clip-path="url(#clip290)" d="M16.4842 954.16 L16.4842 924.114 L21.895 924.114 L21.895 947.73 L35.9632 947.73 L35.9632 925.1 L41.3741 925.1 L41.3741 947.73 L58.5933 947.73 L58.5933 923.541 L64.0042 923.541 L64.0042 954.16 L16.4842 954.16 Z" fill="#000000" fill-rule="nonzero" fill-opacity="1"></path><path clip-path="url(#clip290)" d="M42.4881 883.596 L64.0042 883.596 L64.0042 889.452 L42.679 889.452 Q37.6183 889.452 35.1038 891.426 Q32.5894 893.399 32.5894 897.346 Q32.5894 902.088 35.6131 904.826 Q38.6368 907.563 43.8567 907.563 L64.0042 907.563 L64.0042 913.451 L28.3562 913.451 L28.3562 907.563 L33.8944 907.563 Q30.6797 905.462 29.0883 902.629 Q27.4968 899.765 27.4968 896.041 Q27.4968 889.898 31.3163 886.747 Q35.1038 883.596 42.4881 883.596 Z" fill="#000000" fill-rule="nonzero" fill-opacity="1"></path><path clip-path="url(#clip290)" d="M44.7161 841.423 L47.5806 841.423 L47.5806 868.35 Q53.6281 867.968 56.8109 864.722 Q59.9619 861.443 59.9619 855.619 Q59.9619 852.245 59.1344 849.094 Q58.3069 845.911 56.6518 842.792 L62.1899 842.792 Q63.5267 845.943 64.227 849.253 Q64.9272 852.563 64.9272 855.969 Q64.9272 864.499 59.9619 869.496 Q54.9967 874.461 46.5303 874.461 Q37.7774 874.461 32.6531 869.751 Q27.4968 865.008 27.4968 856.987 Q27.4968 849.794 32.1438 845.624 Q36.7589 841.423 44.7161 841.423 M42.9973 847.28 Q38.1912 847.343 35.3266 849.985 Q32.4621 852.595 32.4621 856.924 Q32.4621 861.825 35.2312 864.785 Q38.0002 867.713 43.0292 868.159 L42.9973 847.28 Z" fill="#000000" fill-rule="nonzero" fill-opacity="1"></path><path clip-path="url(#clip290)" d="M33.8307 811.154 Q33.2578 812.141 33.0032 813.319 Q32.7167 814.464 32.7167 815.865 Q32.7167 820.83 35.9632 823.504 Q39.1779 826.145 45.2253 826.145 L64.0042 826.145 L64.0042 832.034 L28.3562 832.034 L28.3562 826.145 L33.8944 826.145 Q30.6479 824.299 29.0883 821.339 Q27.4968 818.379 27.4968 814.146 Q27.4968 813.541 27.5923 812.809 Q27.656 812.077 27.8151 811.186 L33.8307 811.154 Z" fill="#000000" fill-rule="nonzero" fill-opacity="1"></path><path clip-path="url(#clip290)" d="M45.7664 782.699 Q39.4007 782.699 35.8996 785.341 Q32.3984 787.951 32.3984 792.694 Q32.3984 797.404 35.8996 800.046 Q39.4007 802.656 45.7664 802.656 Q52.1003 802.656 55.6014 800.046 Q59.1026 797.404 59.1026 792.694 Q59.1026 787.951 55.6014 785.341 Q52.1003 782.699 45.7664 782.699 M59.58 776.843 Q68.683 776.843 73.1071 780.885 Q77.5631 784.927 77.5631 793.267 Q77.5631 796.354 77.0857 799.091 Q76.6401 801.828 75.6852 804.407 L69.9879 804.407 Q71.3884 801.828 72.0568 799.314 Q72.7252 796.8 72.7252 794.19 Q72.7252 788.429 69.7015 785.564 Q66.7096 782.699 60.6303 782.699 L57.7339 782.699 Q60.885 784.514 62.4446 787.346 Q64.0042 790.179 64.0042 794.126 Q64.0042 800.683 59.0071 804.693 Q54.01 808.703 45.7664 808.703 Q37.491 808.703 32.4939 804.693 Q27.4968 800.683 27.4968 794.126 Q27.4968 790.179 29.0564 787.346 Q30.616 784.514 33.7671 782.699 L28.3562 782.699 L28.3562 776.843 L59.58 776.843 Z" fill="#000000" fill-rule="nonzero" fill-opacity="1"></path><path clip-path="url(#clip290)" d="M67.3143 749.948 Q73.68 752.431 75.6216 754.786 Q77.5631 757.141 77.5631 761.088 L77.5631 765.767 L72.6615 765.767 L72.6615 762.329 Q72.6615 759.91 71.5157 758.573 Q70.3699 757.237 66.1048 755.613 L63.4312 754.563 L28.3562 768.981 L28.3562 762.775 L56.238 751.635 L28.3562 740.495 L28.3562 734.288 L67.3143 749.948 Z" fill="#000000" fill-rule="nonzero" fill-opacity="1"></path><path clip-path="url(#clip290)" d="M45.7664 682.026 Q39.4007 682.026 35.8996 684.668 Q32.3984 687.278 32.3984 692.02 Q32.3984 696.731 35.8996 699.372 Q39.4007 701.982 45.7664 701.982 Q52.1003 701.982 55.6014 699.372 Q59.1026 696.731 59.1026 692.02 Q59.1026 687.278 55.6014 684.668 Q52.1003 682.026 45.7664 682.026 M59.58 676.169 Q68.683 676.169 73.1071 680.212 Q77.5631 684.254 77.5631 692.593 Q77.5631 695.68 77.0857 698.418 Q76.6401 701.155 75.6852 703.733 L69.9879 703.733 Q71.3884 701.155 72.0568 698.64 Q72.7252 696.126 72.7252 693.516 Q72.7252 687.755 69.7015 684.89 Q66.7096 682.026 60.6303 682.026 L57.7339 682.026 Q60.885 683.84 62.4446 686.673 Q64.0042 689.506 64.0042 693.452 Q64.0042 700.009 59.0071 704.019 Q54.01 708.03 45.7664 708.03 Q37.491 708.03 32.4939 704.019 Q27.4968 700.009 27.4968 693.452 Q27.4968 689.506 29.0564 686.673 Q30.616 683.84 33.7671 682.026 L28.3562 682.026 L28.3562 676.169 L59.58 676.169 Z" fill="#000000" fill-rule="nonzero" fill-opacity="1"></path><path clip-path="url(#clip290)" d="M46.0847 647.906 Q46.0847 655.003 47.7079 657.741 Q49.3312 660.478 53.2461 660.478 Q56.3653 660.478 58.2114 658.441 Q60.0256 656.372 60.0256 652.839 Q60.0256 647.969 56.5881 645.041 Q53.1188 642.081 47.3897 642.081 L46.0847 642.081 L46.0847 647.906 M43.6657 636.225 L64.0042 636.225 L64.0042 642.081 L58.5933 642.081 Q61.8398 644.086 63.3994 647.078 Q64.9272 650.07 64.9272 654.399 Q64.9272 659.873 61.8716 663.12 Q58.7843 666.334 53.6281 666.334 Q47.6125 666.334 44.5569 662.324 Q41.5014 658.282 41.5014 650.293 L41.5014 642.081 L40.9285 642.081 Q36.8862 642.081 34.6901 644.755 Q32.4621 647.396 32.4621 652.203 Q32.4621 655.258 33.1941 658.154 Q33.9262 661.051 35.3903 663.724 L29.9795 663.724 Q28.7381 660.51 28.1334 657.486 Q27.4968 654.462 27.4968 651.598 Q27.4968 643.863 31.5072 640.044 Q35.5176 636.225 43.6657 636.225 Z" fill="#000000" fill-rule="nonzero" fill-opacity="1"></path><path clip-path="url(#clip290)" d="M58.657 618.496 L77.5631 618.496 L77.5631 624.384 L28.3562 624.384 L28.3562 618.496 L33.7671 618.496 Q30.5842 616.65 29.0564 613.849 Q27.4968 611.016 27.4968 607.101 Q27.4968 600.608 32.6531 596.566 Q37.8093 592.492 46.212 592.492 Q54.6147 592.492 59.771 596.566 Q64.9272 600.608 64.9272 607.101 Q64.9272 611.016 63.3994 613.849 Q61.8398 616.65 58.657 618.496 M46.212 598.571 Q39.7508 598.571 36.0905 601.245 Q32.3984 603.887 32.3984 608.534 Q32.3984 613.181 36.0905 615.854 Q39.7508 618.496 46.212 618.496 Q52.6732 618.496 56.3653 615.854 Q60.0256 613.181 60.0256 608.534 Q60.0256 603.887 56.3653 601.245 Q52.6732 598.571 46.212 598.571 Z" fill="#000000" fill-rule="nonzero" fill-opacity="1"></path><path clip-path="url(#clip290)" d="M443.081 12.096 L481.321 12.096 L481.321 18.9825 L451.263 18.9825 L451.263 36.8875 L480.065 36.8875 L480.065 43.7741 L451.263 43.7741 L451.263 65.6895 L482.05 65.6895 L482.05 72.576 L443.081 72.576 L443.081 12.096 Z" fill="#000000" fill-rule="nonzero" fill-opacity="1"></path><path clip-path="url(#clip290)" d="M532.889 45.1919 L532.889 72.576 L525.436 72.576 L525.436 45.4349 Q525.436 38.994 522.924 35.7938 Q520.412 32.5936 515.389 32.5936 Q509.353 32.5936 505.87 36.4419 Q502.386 40.2903 502.386 46.9338 L502.386 72.576 L494.892 72.576 L494.892 27.2059 L502.386 27.2059 L502.386 34.2544 Q505.059 30.163 508.665 28.1376 Q512.311 26.1121 517.05 26.1121 Q524.868 26.1121 528.879 30.9732 Q532.889 35.7938 532.889 45.1919 Z" fill="#000000" fill-rule="nonzero" fill-opacity="1"></path><path clip-path="url(#clip290)" d="M586.564 48.0275 L586.564 51.6733 L552.293 51.6733 Q552.779 59.3701 556.911 63.421 Q561.083 67.4314 568.497 67.4314 Q572.791 67.4314 576.801 66.3781 Q580.852 65.3249 584.822 63.2184 L584.822 70.267 Q580.811 71.9684 576.598 72.8596 Q572.386 73.7508 568.051 73.7508 Q557.195 73.7508 550.835 67.4314 Q544.515 61.1119 544.515 50.3365 Q544.515 39.1965 550.511 32.6746 Q556.546 26.1121 566.755 26.1121 Q575.91 26.1121 581.216 32.0264 Q586.564 37.9003 586.564 48.0275 M579.11 45.84 Q579.029 39.7232 575.667 36.0774 Q572.345 32.4315 566.836 32.4315 Q560.597 32.4315 556.83 35.9558 Q553.103 39.4801 552.536 45.8805 L579.11 45.84 Z" fill="#000000" fill-rule="nonzero" fill-opacity="1"></path><path clip-path="url(#clip290)" d="M625.088 34.1734 Q623.832 33.4443 622.333 33.1202 Q620.875 32.7556 619.092 32.7556 Q612.773 32.7556 609.37 36.8875 Q606.008 40.9789 606.008 48.6757 L606.008 72.576 L598.514 72.576 L598.514 27.2059 L606.008 27.2059 L606.008 34.2544 Q608.358 30.1225 612.125 28.1376 Q615.892 26.1121 621.28 26.1121 Q622.05 26.1121 622.981 26.2337 Q623.913 26.3147 625.047 26.5172 L625.088 34.1734 Z" fill="#000000" fill-rule="nonzero" fill-opacity="1"></path><path clip-path="url(#clip290)" d="M661.303 49.3643 Q661.303 41.2625 657.941 36.8065 Q654.619 32.3505 648.583 32.3505 Q642.588 32.3505 639.225 36.8065 Q635.904 41.2625 635.904 49.3643 Q635.904 57.4256 639.225 61.8816 Q642.588 66.3376 648.583 66.3376 Q654.619 66.3376 657.941 61.8816 Q661.303 57.4256 661.303 49.3643 M668.757 66.9452 Q668.757 78.5308 663.612 84.1616 Q658.467 89.8329 647.854 89.8329 Q643.924 89.8329 640.441 89.2252 Q636.957 88.6581 633.676 87.4428 L633.676 80.1917 Q636.957 81.9741 640.157 82.8248 Q643.357 83.6755 646.679 83.6755 Q654.011 83.6755 657.657 79.8271 Q661.303 76.0193 661.303 68.282 L661.303 64.5957 Q658.994 68.6061 655.389 70.5911 Q651.783 72.576 646.76 72.576 Q638.415 72.576 633.311 66.2161 Q628.207 59.8562 628.207 49.3643 Q628.207 38.832 633.311 32.472 Q638.415 26.1121 646.76 26.1121 Q651.783 26.1121 655.389 28.0971 Q658.994 30.082 661.303 34.0924 L661.303 27.2059 L668.757 27.2059 L668.757 66.9452 Z" fill="#000000" fill-rule="nonzero" fill-opacity="1"></path><path clip-path="url(#clip290)" d="M702.987 76.7889 Q699.827 84.8907 696.829 87.3618 Q693.832 89.8329 688.809 89.8329 L682.854 89.8329 L682.854 83.5945 L687.229 83.5945 Q690.307 83.5945 692.009 82.1361 Q693.71 80.6778 695.776 75.2496 L697.113 71.8468 L678.762 27.2059 L686.662 27.2059 L700.84 62.6918 L715.018 27.2059 L722.917 27.2059 L702.987 76.7889 Z" fill="#000000" fill-rule="nonzero" fill-opacity="1"></path><path clip-path="url(#clip290)" d="M789.433 49.3643 Q789.433 41.2625 786.071 36.8065 Q782.749 32.3505 776.713 32.3505 Q770.718 32.3505 767.356 36.8065 Q764.034 41.2625 764.034 49.3643 Q764.034 57.4256 767.356 61.8816 Q770.718 66.3376 776.713 66.3376 Q782.749 66.3376 786.071 61.8816 Q789.433 57.4256 789.433 49.3643 M796.887 66.9452 Q796.887 78.5308 791.742 84.1616 Q786.597 89.8329 775.984 89.8329 Q772.055 89.8329 768.571 89.2252 Q765.087 88.6581 761.806 87.4428 L761.806 80.1917 Q765.087 81.9741 768.287 82.8248 Q771.487 83.6755 774.809 83.6755 Q782.141 83.6755 785.787 79.8271 Q789.433 76.0193 789.433 68.282 L789.433 64.5957 Q787.124 68.6061 783.519 70.5911 Q779.913 72.576 774.89 72.576 Q766.545 72.576 761.441 66.2161 Q756.337 59.8562 756.337 49.3643 Q756.337 38.832 761.441 32.472 Q766.545 26.1121 774.89 26.1121 Q779.913 26.1121 783.519 28.0971 Q787.124 30.082 789.433 34.0924 L789.433 27.2059 L796.887 27.2059 L796.887 66.9452 Z" fill="#000000" fill-rule="nonzero" fill-opacity="1"></path><path clip-path="url(#clip290)" d="M832.859 49.7694 Q823.825 49.7694 820.341 51.8354 Q816.858 53.9013 816.858 58.8839 Q816.858 62.8538 819.45 65.2034 Q822.083 67.5124 826.58 67.5124 Q832.778 67.5124 836.504 63.1374 Q840.272 58.7219 840.272 51.4303 L840.272 49.7694 L832.859 49.7694 M847.725 46.6907 L847.725 72.576 L840.272 72.576 L840.272 65.6895 Q837.72 69.8214 833.912 71.8063 Q830.104 73.7508 824.595 73.7508 Q817.627 73.7508 813.495 69.8619 Q809.404 65.9325 809.404 59.3701 Q809.404 51.7138 814.508 47.825 Q819.653 43.9361 829.82 43.9361 L840.272 43.9361 L840.272 43.2069 Q840.272 38.0623 836.869 35.2672 Q833.507 32.4315 827.39 32.4315 Q823.501 32.4315 819.815 33.3632 Q816.128 34.295 812.726 36.1584 L812.726 29.2718 Q816.817 27.692 820.665 26.9223 Q824.514 26.1121 828.16 26.1121 Q838.003 26.1121 842.864 31.2163 Q847.725 36.3204 847.725 46.6907 Z" fill="#000000" fill-rule="nonzero" fill-opacity="1"></path><path clip-path="url(#clip290)" d="M870.289 65.7705 L870.289 89.8329 L862.795 89.8329 L862.795 27.2059 L870.289 27.2059 L870.289 34.0924 Q872.639 30.0415 876.203 28.0971 Q879.809 26.1121 884.791 26.1121 Q893.055 26.1121 898.2 32.6746 Q903.385 39.2371 903.385 49.9314 Q903.385 60.6258 898.2 67.1883 Q893.055 73.7508 884.791 73.7508 Q879.809 73.7508 876.203 71.8063 Q872.639 69.8214 870.289 65.7705 M895.648 49.9314 Q895.648 41.7081 892.245 37.0496 Q888.883 32.3505 882.968 32.3505 Q877.054 32.3505 873.651 37.0496 Q870.289 41.7081 870.289 49.9314 Q870.289 58.1548 873.651 62.8538 Q877.054 67.5124 882.968 67.5124 Q888.883 67.5124 892.245 62.8538 Q895.648 58.1548 895.648 49.9314 Z" fill="#000000" fill-rule="nonzero" fill-opacity="1"></path><path clip-path="url(#clip290)" d="M936.764 27.2059 L944.664 27.2059 L958.842 65.2844 L973.02 27.2059 L980.919 27.2059 L963.905 72.576 L953.778 72.576 L936.764 27.2059 Z" fill="#000000" fill-rule="nonzero" fill-opacity="1"></path><path clip-path="url(#clip290)" d="M1020.13 28.5427 L1020.13 35.5912 Q1016.97 33.9709 1013.57 33.1607 Q1010.17 32.3505 1006.52 32.3505 Q1000.97 32.3505 998.176 34.0519 Q995.421 35.7533 995.421 39.156 Q995.421 41.7486 997.406 43.2475 Q999.391 44.7058 1005.39 46.0426 L1007.94 46.6097 Q1015.88 48.3111 1019.2 51.4303 Q1022.56 54.509 1022.56 60.0587 Q1022.56 66.3781 1017.54 70.0644 Q1012.56 73.7508 1003.81 73.7508 Q1000.16 73.7508 996.191 73.0216 Q992.262 72.3329 987.887 70.9151 L987.887 63.2184 Q992.019 65.3654 996.029 66.4591 Q1000.04 67.5124 1003.97 67.5124 Q1009.24 67.5124 1012.07 65.73 Q1014.91 63.9071 1014.91 60.6258 Q1014.91 57.5877 1012.84 55.9673 Q1010.81 54.3469 1003.89 52.8481 L1001.3 52.2405 Q994.368 50.7821 991.29 47.7845 Q988.211 44.7463 988.211 39.4801 Q988.211 33.0797 992.748 29.5959 Q997.285 26.1121 1005.63 26.1121 Q1009.76 26.1121 1013.41 26.7198 Q1017.05 27.3274 1020.13 28.5427 Z" fill="#000000" fill-rule="nonzero" fill-opacity="1"></path><path clip-path="url(#clip290)" d="M1061.13 12.096 L1072.15 12.096 L1098.96 62.6918 L1098.96 12.096 L1106.9 12.096 L1106.9 72.576 L1095.88 72.576 L1069.07 21.9802 L1069.07 72.576 L1061.13 72.576 L1061.13 12.096 Z" fill="#000000" fill-rule="nonzero" fill-opacity="1"></path><path clip-path="url(#clip290)" d="M1122.09 54.671 L1122.09 27.2059 L1129.55 27.2059 L1129.55 54.3874 Q1129.55 60.8284 1132.06 64.0691 Q1134.57 67.2693 1139.59 67.2693 Q1145.63 67.2693 1149.11 63.421 Q1152.64 59.5726 1152.64 52.9291 L1152.64 27.2059 L1160.09 27.2059 L1160.09 72.576 L1152.64 72.576 L1152.64 65.6084 Q1149.92 69.7404 1146.32 71.7658 Q1142.75 73.7508 1138.01 73.7508 Q1130.2 73.7508 1126.14 68.8897 Q1122.09 64.0286 1122.09 54.671 M1140.85 26.1121 L1140.85 26.1121 Z" fill="#000000" fill-rule="nonzero" fill-opacity="1"></path><path clip-path="url(#clip290)" d="M1210.77 35.9153 Q1213.56 30.8922 1217.45 28.5022 Q1221.34 26.1121 1226.61 26.1121 Q1233.7 26.1121 1237.54 31.0947 Q1241.39 36.0368 1241.39 45.1919 L1241.39 72.576 L1233.9 72.576 L1233.9 45.4349 Q1233.9 38.913 1231.59 35.7533 Q1229.28 32.5936 1224.54 32.5936 Q1218.75 32.5936 1215.39 36.4419 Q1212.02 40.2903 1212.02 46.9338 L1212.02 72.576 L1204.53 72.576 L1204.53 45.4349 Q1204.53 38.8725 1202.22 35.7533 Q1199.91 32.5936 1195.09 32.5936 Q1189.38 32.5936 1186.02 36.4824 Q1182.65 40.3308 1182.65 46.9338 L1182.65 72.576 L1175.16 72.576 L1175.16 27.2059 L1182.65 27.2059 L1182.65 34.2544 Q1185.21 30.082 1188.77 28.0971 Q1192.34 26.1121 1197.24 26.1121 Q1202.18 26.1121 1205.62 28.6237 Q1209.11 31.1352 1210.77 35.9153 Z" fill="#000000" fill-rule="nonzero" fill-opacity="1"></path><path clip-path="url(#clip290)" d="M1288.83 49.9314 Q1288.83 41.7081 1285.43 37.0496 Q1282.06 32.3505 1276.15 32.3505 Q1270.23 32.3505 1266.83 37.0496 Q1263.47 41.7081 1263.47 49.9314 Q1263.47 58.1548 1266.83 62.8538 Q1270.23 67.5124 1276.15 67.5124 Q1282.06 67.5124 1285.43 62.8538 Q1288.83 58.1548 1288.83 49.9314 M1263.47 34.0924 Q1265.82 30.0415 1269.38 28.0971 Q1272.99 26.1121 1277.97 26.1121 Q1286.24 26.1121 1291.38 32.6746 Q1296.57 39.2371 1296.57 49.9314 Q1296.57 60.6258 1291.38 67.1883 Q1286.24 73.7508 1277.97 73.7508 Q1272.99 73.7508 1269.38 71.8063 Q1265.82 69.8214 1263.47 65.7705 L1263.47 72.576 L1255.98 72.576 L1255.98 9.54393 L1263.47 9.54393 L1263.47 34.0924 Z" fill="#000000" fill-rule="nonzero" fill-opacity="1"></path><path clip-path="url(#clip290)" d="M1347.73 48.0275 L1347.73 51.6733 L1313.46 51.6733 Q1313.94 59.3701 1318.08 63.421 Q1322.25 67.4314 1329.66 67.4314 Q1333.96 67.4314 1337.97 66.3781 Q1342.02 65.3249 1345.99 63.2184 L1345.99 70.267 Q1341.98 71.9684 1337.76 72.8596 Q1333.55 73.7508 1329.22 73.7508 Q1318.36 73.7508 1312 67.4314 Q1305.68 61.1119 1305.68 50.3365 Q1305.68 39.1965 1311.68 32.6746 Q1317.71 26.1121 1327.92 26.1121 Q1337.07 26.1121 1342.38 32.0264 Q1347.73 37.9003 1347.73 48.0275 M1340.27 45.84 Q1340.19 39.7232 1336.83 36.0774 Q1333.51 32.4315 1328 32.4315 Q1321.76 32.4315 1317.99 35.9558 Q1314.27 39.4801 1313.7 45.8805 L1340.27 45.84 Z" fill="#000000" fill-rule="nonzero" fill-opacity="1"></path><path clip-path="url(#clip290)" d="M1386.25 34.1734 Q1385 33.4443 1383.5 33.1202 Q1382.04 32.7556 1380.26 32.7556 Q1373.94 32.7556 1370.54 36.8875 Q1367.17 40.9789 1367.17 48.6757 L1367.17 72.576 L1359.68 72.576 L1359.68 27.2059 L1367.17 27.2059 L1367.17 34.2544 Q1369.52 30.1225 1373.29 28.1376 Q1377.06 26.1121 1382.44 26.1121 Q1383.21 26.1121 1384.15 26.2337 Q1385.08 26.3147 1386.21 26.5172 L1386.25 34.1734 Z" fill="#000000" fill-rule="nonzero" fill-opacity="1"></path><path clip-path="url(#clip290)" d="M1438.02 32.4315 Q1432.03 32.4315 1428.54 37.1306 Q1425.06 41.7891 1425.06 49.9314 Q1425.06 58.0738 1428.5 62.7728 Q1431.99 67.4314 1438.02 67.4314 Q1443.98 67.4314 1447.46 62.7323 Q1450.95 58.0333 1450.95 49.9314 Q1450.95 41.8701 1447.46 37.1711 Q1443.98 32.4315 1438.02 32.4315 M1438.02 26.1121 Q1447.75 26.1121 1453.3 32.4315 Q1458.84 38.7509 1458.84 49.9314 Q1458.84 61.0714 1453.3 67.4314 Q1447.75 73.7508 1438.02 73.7508 Q1428.26 73.7508 1422.71 67.4314 Q1417.2 61.0714 1417.2 49.9314 Q1417.2 38.7509 1422.71 32.4315 Q1428.26 26.1121 1438.02 26.1121 Z" fill="#000000" fill-rule="nonzero" fill-opacity="1"></path><path clip-path="url(#clip290)" d="M1494.17 9.54393 L1494.17 15.7418 L1487.04 15.7418 Q1483.03 15.7418 1481.45 17.3622 Q1479.91 18.9825 1479.91 23.1955 L1479.91 27.2059 L1492.18 27.2059 L1492.18 32.9987 L1479.91 32.9987 L1479.91 72.576 L1472.42 72.576 L1472.42 32.9987 L1465.29 32.9987 L1465.29 27.2059 L1472.42 27.2059 L1472.42 24.0462 Q1472.42 16.471 1475.94 13.0277 Q1479.46 9.54393 1487.12 9.54393 L1494.17 9.54393 Z" fill="#000000" fill-rule="nonzero" fill-opacity="1"></path><path clip-path="url(#clip290)" d="M1555.7 28.5427 L1555.7 35.5912 Q1552.54 33.9709 1549.14 33.1607 Q1545.74 32.3505 1542.09 32.3505 Q1536.54 32.3505 1533.75 34.0519 Q1530.99 35.7533 1530.99 39.156 Q1530.99 41.7486 1532.98 43.2475 Q1534.96 44.7058 1540.96 46.0426 L1543.51 46.6097 Q1551.45 48.3111 1554.77 51.4303 Q1558.13 54.509 1558.13 60.0587 Q1558.13 66.3781 1553.11 70.0644 Q1548.13 73.7508 1539.38 73.7508 Q1535.73 73.7508 1531.76 73.0216 Q1527.83 72.3329 1523.46 70.9151 L1523.46 63.2184 Q1527.59 65.3654 1531.6 66.4591 Q1535.61 67.5124 1539.54 67.5124 Q1544.81 67.5124 1547.64 65.73 Q1550.48 63.9071 1550.48 60.6258 Q1550.48 57.5877 1548.41 55.9673 Q1546.38 54.3469 1539.46 52.8481 L1536.87 52.2405 Q1529.94 50.7821 1526.86 47.7845 Q1523.78 44.7463 1523.78 39.4801 Q1523.78 33.0797 1528.32 29.5959 Q1532.85 26.1121 1541.2 26.1121 Q1545.33 26.1121 1548.98 26.7198 Q1552.62 27.3274 1555.7 28.5427 Z" fill="#000000" fill-rule="nonzero" fill-opacity="1"></path><path clip-path="url(#clip290)" d="M1570 27.2059 L1577.46 27.2059 L1577.46 72.576 L1570 72.576 L1570 27.2059 M1570 9.54393 L1577.46 9.54393 L1577.46 18.9825 L1570 18.9825 L1570 9.54393 Z" fill="#000000" fill-rule="nonzero" fill-opacity="1"></path><path clip-path="url(#clip290)" d="M1600.42 14.324 L1600.42 27.2059 L1615.78 27.2059 L1615.78 32.9987 L1600.42 32.9987 L1600.42 57.6282 Q1600.42 63.1779 1601.92 64.7578 Q1603.46 66.3376 1608.12 66.3376 L1615.78 66.3376 L1615.78 72.576 L1608.12 72.576 Q1599.49 72.576 1596.21 69.3758 Q1592.93 66.1351 1592.93 57.6282 L1592.93 32.9987 L1587.46 32.9987 L1587.46 27.2059 L1592.93 27.2059 L1592.93 14.324 L1600.42 14.324 Z" fill="#000000" fill-rule="nonzero" fill-opacity="1"></path><path clip-path="url(#clip290)" d="M1664.39 48.0275 L1664.39 51.6733 L1630.12 51.6733 Q1630.6 59.3701 1634.74 63.421 Q1638.91 67.4314 1646.32 67.4314 Q1650.61 67.4314 1654.63 66.3781 Q1658.68 65.3249 1662.65 63.2184 L1662.65 70.267 Q1658.64 71.9684 1654.42 72.8596 Q1650.21 73.7508 1645.88 73.7508 Q1635.02 73.7508 1628.66 67.4314 Q1622.34 61.1119 1622.34 50.3365 Q1622.34 39.1965 1628.33 32.6746 Q1634.37 26.1121 1644.58 26.1121 Q1653.73 26.1121 1659.04 32.0264 Q1664.39 37.9003 1664.39 48.0275 M1656.93 45.84 Q1656.85 39.7232 1653.49 36.0774 Q1650.17 32.4315 1644.66 32.4315 Q1638.42 32.4315 1634.65 35.9558 Q1630.93 39.4801 1630.36 45.8805 L1656.93 45.84 Z" fill="#000000" fill-rule="nonzero" fill-opacity="1"></path><path clip-path="url(#clip290)" d="M1705.54 28.5427 L1705.54 35.5912 Q1702.39 33.9709 1698.98 33.1607 Q1695.58 32.3505 1691.93 32.3505 Q1686.38 32.3505 1683.59 34.0519 Q1680.83 35.7533 1680.83 39.156 Q1680.83 41.7486 1682.82 43.2475 Q1684.8 44.7058 1690.8 46.0426 L1693.35 46.6097 Q1701.29 48.3111 1704.61 51.4303 Q1707.98 54.509 1707.98 60.0587 Q1707.98 66.3781 1702.95 70.0644 Q1697.97 73.7508 1689.22 73.7508 Q1685.57 73.7508 1681.6 73.0216 Q1677.67 72.3329 1673.3 70.9151 L1673.3 63.2184 Q1677.43 65.3654 1681.44 66.4591 Q1685.45 67.5124 1689.38 67.5124 Q1694.65 67.5124 1697.48 65.73 Q1700.32 63.9071 1700.32 60.6258 Q1700.32 57.5877 1698.25 55.9673 Q1696.23 54.3469 1689.3 52.8481 L1686.71 52.2405 Q1679.78 50.7821 1676.7 47.7845 Q1673.62 44.7463 1673.62 39.4801 Q1673.62 33.0797 1678.16 29.5959 Q1682.7 26.1121 1691.04 26.1121 Q1695.17 26.1121 1698.82 26.7198 Q1702.47 27.3274 1705.54 28.5427 Z" fill="#000000" fill-rule="nonzero" fill-opacity="1"></path><path clip-path="url(#clip290)" d="M1741.88 27.2059 L1749.34 27.2059 L1758.65 62.6108 L1767.93 27.2059 L1776.72 27.2059 L1786.04 62.6108 L1795.31 27.2059 L1802.77 27.2059 L1790.9 72.576 L1782.11 72.576 L1772.34 35.3887 L1762.54 72.576 L1753.75 72.576 L1741.88 27.2059 Z" fill="#000000" fill-rule="nonzero" fill-opacity="1"></path><path clip-path="url(#clip290)" d="M1814.07 27.2059 L1821.52 27.2059 L1821.52 72.576 L1814.07 72.576 L1814.07 27.2059 M1814.07 9.54393 L1821.52 9.54393 L1821.52 18.9825 L1814.07 18.9825 L1814.07 9.54393 Z" fill="#000000" fill-rule="nonzero" fill-opacity="1"></path><path clip-path="url(#clip290)" d="M1844.49 14.324 L1844.49 27.2059 L1859.84 27.2059 L1859.84 32.9987 L1844.49 32.9987 L1844.49 57.6282 Q1844.49 63.1779 1845.99 64.7578 Q1847.53 66.3376 1852.19 66.3376 L1859.84 66.3376 L1859.84 72.576 L1852.19 72.576 Q1843.56 72.576 1840.28 69.3758 Q1837 66.1351 1837 57.6282 L1837 32.9987 L1831.53 32.9987 L1831.53 27.2059 L1837 27.2059 L1837 14.324 L1844.49 14.324 Z" fill="#000000" fill-rule="nonzero" fill-opacity="1"></path><path clip-path="url(#clip290)" d="M1907.36 45.1919 L1907.36 72.576 L1899.91 72.576 L1899.91 45.4349 Q1899.91 38.994 1897.4 35.7938 Q1894.88 32.5936 1889.86 32.5936 Q1883.83 32.5936 1880.34 36.4419 Q1876.86 40.2903 1876.86 46.9338 L1876.86 72.576 L1869.36 72.576 L1869.36 9.54393 L1876.86 9.54393 L1876.86 34.2544 Q1879.53 30.163 1883.14 28.1376 Q1886.78 26.1121 1891.52 26.1121 Q1899.34 26.1121 1903.35 30.9732 Q1907.36 35.7938 1907.36 45.1919 Z" fill="#000000" fill-rule="nonzero" fill-opacity="1"></path><path clip-path="url(#clip290)" d="M1940.54 12.096 L1991.7 12.096 L1991.7 18.9825 L1970.23 18.9825 L1970.23 72.576 L1962.01 72.576 L1962.01 18.9825 L1940.54 18.9825 L1940.54 12.096 Z" fill="#000000" fill-rule="nonzero" fill-opacity="1"></path><path clip-path="url(#clip290)" d="M2000.25 34.9026 L2052.18 34.9026 L2052.18 41.7081 L2000.25 41.7081 L2000.25 34.9026 M2000.25 51.4303 L2052.18 51.4303 L2052.18 58.3168 L2000.25 58.3168 L2000.25 51.4303 Z" fill="#000000" fill-rule="nonzero" fill-opacity="1"></path><path clip-path="url(#clip290)" d="M2087.34 17.4837 Q2081.02 17.4837 2077.82 23.7221 Q2074.66 29.92 2074.66 42.3968 Q2074.66 54.833 2077.82 61.0714 Q2081.02 67.2693 2087.34 67.2693 Q2093.7 67.2693 2096.86 61.0714 Q2100.06 54.833 2100.06 42.3968 Q2100.06 29.92 2096.86 23.7221 Q2093.7 17.4837 2087.34 17.4837 M2087.34 11.0023 Q2097.51 11.0023 2102.86 19.0636 Q2108.25 27.0843 2108.25 42.3968 Q2108.25 57.6687 2102.86 65.73 Q2097.51 73.7508 2087.34 73.7508 Q2077.17 73.7508 2071.79 65.73 Q2066.44 57.6687 2066.44 42.3968 Q2066.44 27.0843 2071.79 19.0636 Q2077.17 11.0023 2087.34 11.0023 Z" fill="#000000" fill-rule="nonzero" fill-opacity="1"></path><path clip-path="url(#clip290)" d="M2122.63 62.2867 L2131.17 62.2867 L2131.17 72.576 L2122.63 72.576 L2122.63 62.2867 Z" fill="#000000" fill-rule="nonzero" fill-opacity="1"></path><path clip-path="url(#clip290)" d="M2150.42 65.6895 L2163.78 65.6895 L2163.78 19.5497 L2149.24 22.4663 L2149.24 15.0127 L2163.7 12.096 L2171.89 12.096 L2171.89 65.6895 L2185.25 65.6895 L2185.25 72.576 L2150.42 72.576 L2150.42 65.6895 Z" fill="#000000" fill-rule="nonzero" fill-opacity="1"></path><polyline clip-path="url(#clip292)" style="stroke:#009af9; stroke-linecap:round; stroke-linejoin:round; stroke-width:4; stroke-opacity:1; fill:none" points="334.366,1321.64 635.843,1386.4 937.32,1255.41 1238.8,1234.02 1540.27,1276.83 1841.75,1279.81 2143.23,1339.23 "></polyline>
<polyline clip-path="url(#clip292)" style="stroke:#e26f46; stroke-linecap:round; stroke-linejoin:round; stroke-width:4; stroke-opacity:1; fill:none" points="334.366,1172.12 635.843,1297.67 937.32,1231.37 1238.8,1200.58 1540.27,1182.58 1841.75,1151.18 2143.23,160.256 "></polyline>
<polyline clip-path="url(#clip292)" style="stroke:#3da44d; stroke-linecap:round; stroke-linejoin:round; stroke-width:4; stroke-opacity:1; fill:none" points="485.104,640.285 937.32,695.533 1389.54,734.089 1841.75,763.816 2293.97,787.981 "></polyline>
<path clip-path="url(#clip290)" d="M1848.39 374.156 L2283.52 374.156 L2283.52 166.796 L1848.39 166.796  Z" fill="#ffffff" fill-rule="evenodd" fill-opacity="1"></path>
<polyline clip-path="url(#clip290)" style="stroke:#000000; stroke-linecap:round; stroke-linejoin:round; stroke-width:4; stroke-opacity:1; fill:none" points="1848.39,374.156 2283.52,374.156 2283.52,166.796 1848.39,166.796 1848.39,374.156 "></polyline>
<polyline clip-path="url(#clip290)" style="stroke:#009af9; stroke-linecap:round; stroke-linejoin:round; stroke-width:4; stroke-opacity:1; fill:none" points="1871.47,218.636 2009.95,218.636 "></polyline>
<path clip-path="url(#clip290)" d="M2040.44 202.629 L2040.44 209.99 L2049.21 209.99 L2049.21 213.3 L2040.44 213.3 L2040.44 227.374 Q2040.44 230.545 2041.29 231.448 Q2042.17 232.351 2044.84 232.351 L2049.21 232.351 L2049.21 235.916 L2044.84 235.916 Q2039.91 235.916 2038.03 234.087 Q2036.16 232.235 2036.16 227.374 L2036.16 213.3 L2033.03 213.3 L2033.03 209.99 L2036.16 209.99 L2036.16 202.629 L2040.44 202.629 Z" fill="#000000" fill-rule="nonzero" fill-opacity="1"></path><path clip-path="url(#clip290)" d="M2069.84 213.971 Q2069.12 213.555 2068.26 213.37 Q2067.43 213.161 2066.41 213.161 Q2062.8 213.161 2060.85 215.522 Q2058.93 217.86 2058.93 222.258 L2058.93 235.916 L2054.65 235.916 L2054.65 209.99 L2058.93 209.99 L2058.93 214.018 Q2060.28 211.657 2062.43 210.522 Q2064.58 209.365 2067.66 209.365 Q2068.1 209.365 2068.63 209.434 Q2069.16 209.481 2069.81 209.596 L2069.84 213.971 Z" fill="#000000" fill-rule="nonzero" fill-opacity="1"></path><path clip-path="url(#clip290)" d="M2074.3 209.99 L2078.56 209.99 L2078.56 235.916 L2074.3 235.916 L2074.3 209.99 M2074.3 199.897 L2078.56 199.897 L2078.56 205.291 L2074.3 205.291 L2074.3 199.897 Z" fill="#000000" fill-rule="nonzero" fill-opacity="1"></path><path clip-path="url(#clip290)" d="M2099.26 222.883 Q2094.1 222.883 2092.1 224.064 Q2090.11 225.244 2090.11 228.092 Q2090.11 230.36 2091.6 231.703 Q2093.1 233.022 2095.67 233.022 Q2099.21 233.022 2101.34 230.522 Q2103.49 227.999 2103.49 223.832 L2103.49 222.883 L2099.26 222.883 M2107.75 221.124 L2107.75 235.916 L2103.49 235.916 L2103.49 231.981 Q2102.03 234.342 2099.86 235.476 Q2097.68 236.587 2094.53 236.587 Q2090.55 236.587 2088.19 234.365 Q2085.85 232.119 2085.85 228.369 Q2085.85 223.994 2088.77 221.772 Q2091.71 219.55 2097.52 219.55 L2103.49 219.55 L2103.49 219.133 Q2103.49 216.194 2101.55 214.596 Q2099.63 212.976 2096.13 212.976 Q2093.91 212.976 2091.8 213.508 Q2089.7 214.041 2087.75 215.106 L2087.75 211.17 Q2090.09 210.268 2092.29 209.828 Q2094.49 209.365 2096.57 209.365 Q2102.2 209.365 2104.97 212.282 Q2107.75 215.198 2107.75 221.124 Z" fill="#000000" fill-rule="nonzero" fill-opacity="1"></path><path clip-path="url(#clip290)" d="M2138.08 220.268 L2138.08 235.916 L2133.82 235.916 L2133.82 220.407 Q2133.82 216.726 2132.38 214.897 Q2130.95 213.069 2128.08 213.069 Q2124.63 213.069 2122.64 215.268 Q2120.65 217.467 2120.65 221.263 L2120.65 235.916 L2116.36 235.916 L2116.36 209.99 L2120.65 209.99 L2120.65 214.018 Q2122.17 211.68 2124.23 210.522 Q2126.32 209.365 2129.03 209.365 Q2133.49 209.365 2135.78 212.143 Q2138.08 214.897 2138.08 220.268 Z" fill="#000000" fill-rule="nonzero" fill-opacity="1"></path><path clip-path="url(#clip290)" d="M2163.63 222.652 Q2163.63 218.022 2161.71 215.476 Q2159.81 212.93 2156.36 212.93 Q2152.94 212.93 2151.02 215.476 Q2149.12 218.022 2149.12 222.652 Q2149.12 227.258 2151.02 229.805 Q2152.94 232.351 2156.36 232.351 Q2159.81 232.351 2161.71 229.805 Q2163.63 227.258 2163.63 222.652 M2167.89 232.698 Q2167.89 239.318 2164.95 242.536 Q2162.01 245.777 2155.95 245.777 Q2153.7 245.777 2151.71 245.43 Q2149.72 245.105 2147.84 244.411 L2147.84 240.268 Q2149.72 241.286 2151.55 241.772 Q2153.38 242.258 2155.28 242.258 Q2159.47 242.258 2161.55 240.059 Q2163.63 237.883 2163.63 233.462 L2163.63 231.356 Q2162.31 233.647 2160.25 234.781 Q2158.19 235.916 2155.32 235.916 Q2150.55 235.916 2147.64 232.281 Q2144.72 228.647 2144.72 222.652 Q2144.72 216.633 2147.64 212.999 Q2150.55 209.365 2155.32 209.365 Q2158.19 209.365 2160.25 210.499 Q2162.31 211.633 2163.63 213.925 L2163.63 209.99 L2167.89 209.99 L2167.89 232.698 Z" fill="#000000" fill-rule="nonzero" fill-opacity="1"></path><path clip-path="url(#clip290)" d="M2176.66 199.897 L2180.92 199.897 L2180.92 235.916 L2176.66 235.916 L2176.66 199.897 Z" fill="#000000" fill-rule="nonzero" fill-opacity="1"></path><path clip-path="url(#clip290)" d="M2212.01 221.888 L2212.01 223.971 L2192.43 223.971 Q2192.71 228.369 2195.07 230.684 Q2197.45 232.976 2201.69 232.976 Q2204.14 232.976 2206.43 232.374 Q2208.75 231.772 2211.02 230.569 L2211.02 234.596 Q2208.72 235.568 2206.32 236.078 Q2203.91 236.587 2201.43 236.587 Q2195.23 236.587 2191.59 232.976 Q2187.98 229.365 2187.98 223.207 Q2187.98 216.842 2191.41 213.115 Q2194.86 209.365 2200.69 209.365 Q2205.92 209.365 2208.96 212.745 Q2212.01 216.101 2212.01 221.888 M2207.75 220.638 Q2207.71 217.143 2205.78 215.059 Q2203.89 212.976 2200.74 212.976 Q2197.17 212.976 2195.02 214.99 Q2192.89 217.004 2192.57 220.661 L2207.75 220.638 Z" fill="#000000" fill-rule="nonzero" fill-opacity="1"></path><path clip-path="url(#clip290)" d="M2235.53 210.754 L2235.53 214.782 Q2233.72 213.856 2231.78 213.393 Q2229.84 212.93 2227.75 212.93 Q2224.58 212.93 2222.98 213.902 Q2221.41 214.874 2221.41 216.819 Q2221.41 218.3 2222.54 219.157 Q2223.68 219.99 2227.1 220.754 L2228.56 221.078 Q2233.1 222.05 2235 223.832 Q2236.92 225.592 2236.92 228.763 Q2236.92 232.374 2234.05 234.481 Q2231.2 236.587 2226.2 236.587 Q2224.12 236.587 2221.85 236.17 Q2219.6 235.777 2217.1 234.967 L2217.1 230.569 Q2219.46 231.795 2221.76 232.42 Q2224.05 233.022 2226.29 233.022 Q2229.3 233.022 2230.92 232.004 Q2232.54 230.962 2232.54 229.087 Q2232.54 227.351 2231.36 226.425 Q2230.21 225.499 2226.25 224.643 L2224.77 224.295 Q2220.81 223.462 2219.05 221.749 Q2217.29 220.013 2217.29 217.004 Q2217.29 213.346 2219.88 211.356 Q2222.47 209.365 2227.24 209.365 Q2229.6 209.365 2231.69 209.712 Q2233.77 210.059 2235.53 210.754 Z" fill="#000000" fill-rule="nonzero" fill-opacity="1"></path><polyline clip-path="url(#clip290)" style="stroke:#e26f46; stroke-linecap:round; stroke-linejoin:round; stroke-width:4; stroke-opacity:1; fill:none" points="1871.47,270.476 2009.95,270.476 "></polyline>
<path clip-path="url(#clip290)" d="M2051.46 262.594 L2051.46 266.622 Q2049.65 265.696 2047.71 265.233 Q2045.76 264.77 2043.68 264.77 Q2040.51 264.77 2038.91 265.742 Q2037.34 266.714 2037.34 268.659 Q2037.34 270.14 2038.47 270.997 Q2039.6 271.83 2043.03 272.594 L2044.49 272.918 Q2049.03 273.89 2050.92 275.672 Q2052.85 277.432 2052.85 280.603 Q2052.85 284.214 2049.98 286.321 Q2047.13 288.427 2042.13 288.427 Q2040.04 288.427 2037.78 288.01 Q2035.53 287.617 2033.03 286.807 L2033.03 282.409 Q2035.39 283.635 2037.68 284.26 Q2039.98 284.862 2042.22 284.862 Q2045.23 284.862 2046.85 283.844 Q2048.47 282.802 2048.47 280.927 Q2048.47 279.191 2047.29 278.265 Q2046.13 277.339 2042.17 276.483 L2040.69 276.135 Q2036.73 275.302 2034.98 273.589 Q2033.22 271.853 2033.22 268.844 Q2033.22 265.186 2035.81 263.196 Q2038.4 261.205 2043.17 261.205 Q2045.53 261.205 2047.61 261.552 Q2049.7 261.899 2051.46 262.594 Z" fill="#000000" fill-rule="nonzero" fill-opacity="1"></path><path clip-path="url(#clip290)" d="M2062.17 274.816 Q2062.17 279.515 2064.1 282.2 Q2066.04 284.862 2069.42 284.862 Q2072.8 284.862 2074.74 282.2 Q2076.69 279.515 2076.69 274.816 Q2076.69 270.117 2074.74 267.455 Q2072.8 264.77 2069.42 264.77 Q2066.04 264.77 2064.1 267.455 Q2062.17 270.117 2062.17 274.816 M2076.69 283.867 Q2075.35 286.182 2073.29 287.316 Q2071.25 288.427 2068.38 288.427 Q2063.68 288.427 2060.72 284.677 Q2057.78 280.927 2057.78 274.816 Q2057.78 268.705 2060.72 264.955 Q2063.68 261.205 2068.38 261.205 Q2071.25 261.205 2073.29 262.339 Q2075.35 263.45 2076.69 265.765 L2076.69 261.83 L2080.95 261.83 L2080.95 297.617 L2076.69 297.617 L2076.69 283.867 Z" fill="#000000" fill-rule="nonzero" fill-opacity="1"></path><path clip-path="url(#clip290)" d="M2089.28 277.524 L2089.28 261.83 L2093.54 261.83 L2093.54 277.362 Q2093.54 281.043 2094.97 282.895 Q2096.41 284.723 2099.28 284.723 Q2102.73 284.723 2104.72 282.524 Q2106.73 280.325 2106.73 276.529 L2106.73 261.83 L2110.99 261.83 L2110.99 287.756 L2106.73 287.756 L2106.73 283.774 Q2105.18 286.135 2103.12 287.293 Q2101.09 288.427 2098.38 288.427 Q2093.91 288.427 2091.6 285.649 Q2089.28 282.871 2089.28 277.524 M2100 261.205 L2100 261.205 Z" fill="#000000" fill-rule="nonzero" fill-opacity="1"></path><path clip-path="url(#clip290)" d="M2131.55 274.723 Q2126.39 274.723 2124.4 275.904 Q2122.41 277.084 2122.41 279.932 Q2122.41 282.2 2123.89 283.543 Q2125.39 284.862 2127.96 284.862 Q2131.5 284.862 2133.63 282.362 Q2135.78 279.839 2135.78 275.672 L2135.78 274.723 L2131.55 274.723 M2140.04 272.964 L2140.04 287.756 L2135.78 287.756 L2135.78 283.821 Q2134.33 286.182 2132.15 287.316 Q2129.97 288.427 2126.83 288.427 Q2122.85 288.427 2120.48 286.205 Q2118.15 283.959 2118.15 280.209 Q2118.15 275.834 2121.06 273.612 Q2124 271.39 2129.81 271.39 L2135.78 271.39 L2135.78 270.973 Q2135.78 268.034 2133.84 266.436 Q2131.92 264.816 2128.42 264.816 Q2126.2 264.816 2124.1 265.348 Q2121.99 265.881 2120.04 266.946 L2120.04 263.01 Q2122.38 262.108 2124.58 261.668 Q2126.78 261.205 2128.86 261.205 Q2134.49 261.205 2137.27 264.122 Q2140.04 267.038 2140.04 272.964 Z" fill="#000000" fill-rule="nonzero" fill-opacity="1"></path><path clip-path="url(#clip290)" d="M2163.84 265.811 Q2163.12 265.395 2162.27 265.21 Q2161.43 265.001 2160.41 265.001 Q2156.8 265.001 2154.86 267.362 Q2152.94 269.7 2152.94 274.098 L2152.94 287.756 L2148.66 287.756 L2148.66 261.83 L2152.94 261.83 L2152.94 265.858 Q2154.28 263.497 2156.43 262.362 Q2158.59 261.205 2161.66 261.205 Q2162.1 261.205 2162.64 261.274 Q2163.17 261.321 2163.82 261.436 L2163.84 265.811 Z" fill="#000000" fill-rule="nonzero" fill-opacity="1"></path><path clip-path="url(#clip290)" d="M2189.44 273.728 L2189.44 275.811 L2169.86 275.811 Q2170.14 280.209 2172.5 282.524 Q2174.88 284.816 2179.12 284.816 Q2181.57 284.816 2183.86 284.214 Q2186.18 283.612 2188.45 282.409 L2188.45 286.436 Q2186.15 287.408 2183.75 287.918 Q2181.34 288.427 2178.86 288.427 Q2172.66 288.427 2169.03 284.816 Q2165.41 281.205 2165.41 275.047 Q2165.41 268.682 2168.84 264.955 Q2172.29 261.205 2178.12 261.205 Q2183.35 261.205 2186.39 264.585 Q2189.44 267.941 2189.44 273.728 M2185.18 272.478 Q2185.14 268.983 2183.22 266.899 Q2181.32 264.816 2178.17 264.816 Q2174.6 264.816 2172.45 266.83 Q2170.32 268.844 2170 272.501 L2185.18 272.478 Z" fill="#000000" fill-rule="nonzero" fill-opacity="1"></path><path clip-path="url(#clip290)" d="M2212.96 262.594 L2212.96 266.622 Q2211.15 265.696 2209.21 265.233 Q2207.27 264.77 2205.18 264.77 Q2202.01 264.77 2200.41 265.742 Q2198.84 266.714 2198.84 268.659 Q2198.84 270.14 2199.97 270.997 Q2201.11 271.83 2204.53 272.594 L2205.99 272.918 Q2210.53 273.89 2212.43 275.672 Q2214.35 277.432 2214.35 280.603 Q2214.35 284.214 2211.48 286.321 Q2208.63 288.427 2203.63 288.427 Q2201.55 288.427 2199.28 288.01 Q2197.03 287.617 2194.53 286.807 L2194.53 282.409 Q2196.9 283.635 2199.19 284.26 Q2201.48 284.862 2203.72 284.862 Q2206.73 284.862 2208.35 283.844 Q2209.97 282.802 2209.97 280.927 Q2209.97 279.191 2208.79 278.265 Q2207.64 277.339 2203.68 276.483 L2202.2 276.135 Q2198.24 275.302 2196.48 273.589 Q2194.72 271.853 2194.72 268.844 Q2194.72 265.186 2197.31 263.196 Q2199.9 261.205 2204.67 261.205 Q2207.03 261.205 2209.12 261.552 Q2211.2 261.899 2212.96 262.594 Z" fill="#000000" fill-rule="nonzero" fill-opacity="1"></path><polyline clip-path="url(#clip290)" style="stroke:#3da44d; stroke-linecap:round; stroke-linejoin:round; stroke-width:4; stroke-opacity:1; fill:none" points="1871.47,322.316 2009.95,322.316 "></polyline>
<path clip-path="url(#clip290)" d="M2051.94 317.605 L2051.94 303.577 L2056.2 303.577 L2056.2 339.596 L2051.94 339.596 L2051.94 335.707 Q2050.6 338.022 2048.54 339.156 Q2046.5 340.267 2043.63 340.267 Q2038.93 340.267 2035.97 336.517 Q2033.03 332.767 2033.03 326.656 Q2033.03 320.545 2035.97 316.795 Q2038.93 313.045 2043.63 313.045 Q2046.5 313.045 2048.54 314.179 Q2050.6 315.29 2051.94 317.605 M2037.43 326.656 Q2037.43 331.355 2039.35 334.04 Q2041.29 336.702 2044.67 336.702 Q2048.05 336.702 2050 334.04 Q2051.94 331.355 2051.94 326.656 Q2051.94 321.957 2050 319.295 Q2048.05 316.61 2044.67 316.61 Q2041.29 316.61 2039.35 319.295 Q2037.43 321.957 2037.43 326.656 Z" fill="#000000" fill-rule="nonzero" fill-opacity="1"></path><path clip-path="url(#clip290)" d="M2064.97 313.67 L2069.23 313.67 L2069.23 339.596 L2064.97 339.596 L2064.97 313.67 M2064.97 303.577 L2069.23 303.577 L2069.23 308.971 L2064.97 308.971 L2064.97 303.577 Z" fill="#000000" fill-rule="nonzero" fill-opacity="1"></path><path clip-path="url(#clip290)" d="M2089.93 326.563 Q2084.77 326.563 2082.78 327.744 Q2080.79 328.924 2080.79 331.772 Q2080.79 334.04 2082.27 335.383 Q2083.77 336.702 2086.34 336.702 Q2089.88 336.702 2092.01 334.202 Q2094.16 331.679 2094.16 327.512 L2094.16 326.563 L2089.93 326.563 M2098.42 324.804 L2098.42 339.596 L2094.16 339.596 L2094.16 335.661 Q2092.71 338.022 2090.53 339.156 Q2088.35 340.267 2085.21 340.267 Q2081.22 340.267 2078.86 338.045 Q2076.53 335.799 2076.53 332.049 Q2076.53 327.674 2079.44 325.452 Q2082.38 323.23 2088.19 323.23 L2094.16 323.23 L2094.16 322.813 Q2094.16 319.874 2092.22 318.276 Q2090.3 316.656 2086.8 316.656 Q2084.58 316.656 2082.47 317.188 Q2080.37 317.721 2078.42 318.786 L2078.42 314.85 Q2080.76 313.948 2082.96 313.508 Q2085.16 313.045 2087.24 313.045 Q2092.87 313.045 2095.65 315.962 Q2098.42 318.878 2098.42 324.804 Z" fill="#000000" fill-rule="nonzero" fill-opacity="1"></path><path clip-path="url(#clip290)" d="M2127.38 318.647 Q2128.98 315.776 2131.2 314.411 Q2133.42 313.045 2136.43 313.045 Q2140.48 313.045 2142.68 315.892 Q2144.88 318.716 2144.88 323.948 L2144.88 339.596 L2140.6 339.596 L2140.6 324.087 Q2140.6 320.36 2139.28 318.554 Q2137.96 316.749 2135.25 316.749 Q2131.94 316.749 2130.02 318.948 Q2128.1 321.147 2128.1 324.943 L2128.1 339.596 L2123.82 339.596 L2123.82 324.087 Q2123.82 320.337 2122.5 318.554 Q2121.18 316.749 2118.42 316.749 Q2115.16 316.749 2113.24 318.971 Q2111.32 321.17 2111.32 324.943 L2111.32 339.596 L2107.03 339.596 L2107.03 313.67 L2111.32 313.67 L2111.32 317.698 Q2112.78 315.313 2114.81 314.179 Q2116.85 313.045 2119.65 313.045 Q2122.47 313.045 2124.44 314.48 Q2126.43 315.915 2127.38 318.647 Z" fill="#000000" fill-rule="nonzero" fill-opacity="1"></path><path clip-path="url(#clip290)" d="M2163.42 316.656 Q2160 316.656 2158.01 319.341 Q2156.02 322.003 2156.02 326.656 Q2156.02 331.309 2157.98 333.994 Q2159.97 336.656 2163.42 336.656 Q2166.83 336.656 2168.82 333.971 Q2170.81 331.286 2170.81 326.656 Q2170.81 322.05 2168.82 319.364 Q2166.83 316.656 2163.42 316.656 M2163.42 313.045 Q2168.98 313.045 2172.15 316.656 Q2175.32 320.267 2175.32 326.656 Q2175.32 333.022 2172.15 336.656 Q2168.98 340.267 2163.42 340.267 Q2157.84 340.267 2154.67 336.656 Q2151.53 333.022 2151.53 326.656 Q2151.53 320.267 2154.67 316.656 Q2157.84 313.045 2163.42 313.045 Z" fill="#000000" fill-rule="nonzero" fill-opacity="1"></path><path clip-path="url(#clip290)" d="M2203.93 323.948 L2203.93 339.596 L2199.67 339.596 L2199.67 324.087 Q2199.67 320.406 2198.24 318.577 Q2196.8 316.749 2193.93 316.749 Q2190.48 316.749 2188.49 318.948 Q2186.5 321.147 2186.5 324.943 L2186.5 339.596 L2182.22 339.596 L2182.22 313.67 L2186.5 313.67 L2186.5 317.698 Q2188.03 315.36 2190.09 314.202 Q2192.17 313.045 2194.88 313.045 Q2199.35 313.045 2201.64 315.823 Q2203.93 318.577 2203.93 323.948 Z" fill="#000000" fill-rule="nonzero" fill-opacity="1"></path><path clip-path="url(#clip290)" d="M2229.49 317.605 L2229.49 303.577 L2233.75 303.577 L2233.75 339.596 L2229.49 339.596 L2229.49 335.707 Q2228.15 338.022 2226.09 339.156 Q2224.05 340.267 2221.18 340.267 Q2216.48 340.267 2213.52 336.517 Q2210.58 332.767 2210.58 326.656 Q2210.58 320.545 2213.52 316.795 Q2216.48 313.045 2221.18 313.045 Q2224.05 313.045 2226.09 314.179 Q2228.15 315.29 2229.49 317.605 M2214.97 326.656 Q2214.97 331.355 2216.9 334.04 Q2218.84 336.702 2222.22 336.702 Q2225.6 336.702 2227.54 334.04 Q2229.49 331.355 2229.49 326.656 Q2229.49 321.957 2227.54 319.295 Q2225.6 316.61 2222.22 316.61 Q2218.84 316.61 2216.9 319.295 Q2214.97 321.957 2214.97 326.656 Z" fill="#000000" fill-rule="nonzero" fill-opacity="1"></path><path clip-path="url(#clip290)" d="M2259.05 314.434 L2259.05 318.462 Q2257.24 317.536 2255.3 317.073 Q2253.35 316.61 2251.27 316.61 Q2248.1 316.61 2246.5 317.582 Q2244.93 318.554 2244.93 320.499 Q2244.93 321.98 2246.06 322.837 Q2247.2 323.67 2250.62 324.434 L2252.08 324.758 Q2256.62 325.73 2258.52 327.512 Q2260.44 329.272 2260.44 332.443 Q2260.44 336.054 2257.57 338.161 Q2254.72 340.267 2249.72 340.267 Q2247.64 340.267 2245.37 339.85 Q2243.12 339.457 2240.62 338.647 L2240.62 334.249 Q2242.98 335.475 2245.27 336.1 Q2247.57 336.702 2249.81 336.702 Q2252.82 336.702 2254.44 335.684 Q2256.06 334.642 2256.06 332.767 Q2256.06 331.031 2254.88 330.105 Q2253.72 329.179 2249.77 328.323 L2248.28 327.975 Q2244.33 327.142 2242.57 325.429 Q2240.81 323.693 2240.81 320.684 Q2240.81 317.026 2243.4 315.036 Q2245.99 313.045 2250.76 313.045 Q2253.12 313.045 2255.21 313.392 Q2257.29 313.739 2259.05 314.434 Z" fill="#000000" fill-rule="nonzero" fill-opacity="1"></path></svg>