<svg xmlns="http://www.w3.org/2000/svg" xmlns:xlink="http://www.w3.org/1999/xlink" width="600" height="400" viewBox="0 0 2400 1600">
<defs>
  <clipPath id="clip230">
    <rect x="0" y="0" width="2400" height="1600"></rect>
  </clipPath>
</defs>
<path clip-path="url(#clip230)" d="M0 1600 L2400 1600 L2400 8.88178e-14 L0 8.88178e-14  Z" fill="#ffffff" fill-rule="evenodd" fill-opacity="1"></path>
<defs>
  <clipPath id="clip231">
    <rect x="480" y="0" width="1681" height="1600"></rect>
  </clipPath>
</defs>
<path clip-path="url(#clip230)" d="M424.284 1423.18 L2352.76 1423.18 L2352.76 123.472 L424.284 123.472  Z" fill="#ffffff" fill-rule="evenodd" fill-opacity="1"></path>
<defs>
  <clipPath id="clip232">
    <rect x="424" y="123" width="1929" height="1301"></rect>
  </clipPath>
</defs>
<polyline clip-path="url(#clip232)" style="stroke:#000000; stroke-linecap:round; stroke-linejoin:round; stroke-width:2; stroke-opacity:0.1; fill:none" points="688.784,1423.18 688.784,123.472 "></polyline>
<polyline clip-path="url(#clip232)" style="stroke:#000000; stroke-linecap:round; stroke-linejoin:round; stroke-width:2; stroke-opacity:0.1; fill:none" points="1038.65,1423.18 1038.65,123.472 "></polyline>
<polyline clip-path="url(#clip232)" style="stroke:#000000; stroke-linecap:round; stroke-linejoin:round; stroke-width:2; stroke-opacity:0.1; fill:none" points="1388.52,1423.18 1388.52,123.472 "></polyline>
<polyline clip-path="url(#clip232)" style="stroke:#000000; stroke-linecap:round; stroke-linejoin:round; stroke-width:2; stroke-opacity:0.1; fill:none" points="1738.39,1423.18 1738.39,123.472 "></polyline>
<polyline clip-path="url(#clip232)" style="stroke:#000000; stroke-linecap:round; stroke-linejoin:round; stroke-width:2; stroke-opacity:0.1; fill:none" points="2088.26,1423.18 2088.26,123.472 "></polyline>
<polyline clip-path="url(#clip232)" style="stroke:#000000; stroke-linecap:round; stroke-linejoin:round; stroke-width:2; stroke-opacity:0.1; fill:none" points="424.284,1386.4 2352.76,1386.4 "></polyline>
<polyline clip-path="url(#clip232)" style="stroke:#000000; stroke-linecap:round; stroke-linejoin:round; stroke-width:2; stroke-opacity:0.1; fill:none" points="424.284,1126.41 2352.76,1126.41 "></polyline>
<polyline clip-path="url(#clip232)" style="stroke:#000000; stroke-linecap:round; stroke-linejoin:round; stroke-width:2; stroke-opacity:0.1; fill:none" points="424.284,866.429 2352.76,866.429 "></polyline>
<polyline clip-path="url(#clip232)" style="stroke:#000000; stroke-linecap:round; stroke-linejoin:round; stroke-width:2; stroke-opacity:0.1; fill:none" points="424.284,606.446 2352.76,606.446 "></polyline>
<polyline clip-path="url(#clip232)" style="stroke:#000000; stroke-linecap:round; stroke-linejoin:round; stroke-width:2; stroke-opacity:0.1; fill:none" points="424.284,346.463 2352.76,346.463 "></polyline>
<polyline clip-path="url(#clip230)" style="stroke:#000000; stroke-linecap:round; stroke-linejoin:round; stroke-width:4; stroke-opacity:1; fill:none" points="424.284,1423.18 2352.76,1423.18 "></polyline>
<polyline clip-path="url(#clip230)" style="stroke:#000000; stroke-linecap:round; stroke-linejoin:round; stroke-width:4; stroke-opacity:1; fill:none" points="688.784,1423.18 688.784,1404.28 "></polyline>
<polyline clip-path="url(#clip230)" style="stroke:#000000; stroke-linecap:round; stroke-linejoin:round; stroke-width:4; stroke-opacity:1; fill:none" points="1038.65,1423.18 1038.65,1404.28 "></polyline>
<polyline clip-path="url(#clip230)" style="stroke:#000000; stroke-linecap:round; stroke-linejoin:round; stroke-width:4; stroke-opacity:1; fill:none" points="1388.52,1423.18 1388.52,1404.28 "></polyline>
<polyline clip-path="url(#clip230)" style="stroke:#000000; stroke-linecap:round; stroke-linejoin:round; stroke-width:4; stroke-opacity:1; fill:none" points="1738.39,1423.18 1738.39,1404.28 "></polyline>
<polyline clip-path="url(#clip230)" style="stroke:#000000; stroke-linecap:round; stroke-linejoin:round; stroke-width:4; stroke-opacity:1; fill:none" points="2088.26,1423.18 2088.26,1404.28 "></polyline>
<path clip-path="url(#clip230)" d="M655.103 1451.02 L677.325 1451.02 L677.325 1453.01 L664.779 1485.58 L659.895 1485.58 L671.701 1454.96 L655.103 1454.96 L655.103 1451.02 Z" fill="#000000" fill-rule="nonzero" fill-opacity="1"></path><path clip-path="url(#clip230)" d="M686.446 1479.7 L691.33 1479.7 L691.33 1485.58 L686.446 1485.58 L686.446 1479.7 Z" fill="#000000" fill-rule="nonzero" fill-opacity="1"></path><path clip-path="url(#clip230)" d="M701.561 1451.02 L719.918 1451.02 L719.918 1454.96 L705.844 1454.96 L705.844 1463.43 Q706.862 1463.08 707.881 1462.92 Q708.899 1462.73 709.918 1462.73 Q715.705 1462.73 719.085 1465.9 Q722.464 1469.08 722.464 1474.49 Q722.464 1480.07 718.992 1483.17 Q715.52 1486.25 709.2 1486.25 Q707.024 1486.25 704.756 1485.88 Q702.511 1485.51 700.103 1484.77 L700.103 1480.07 Q702.186 1481.2 704.409 1481.76 Q706.631 1482.32 709.108 1482.32 Q713.112 1482.32 715.45 1480.21 Q717.788 1478.1 717.788 1474.49 Q717.788 1470.88 715.45 1468.77 Q713.112 1466.67 709.108 1466.67 Q707.233 1466.67 705.358 1467.08 Q703.506 1467.5 701.561 1468.38 L701.561 1451.02 Z" fill="#000000" fill-rule="nonzero" fill-opacity="1"></path><path clip-path="url(#clip230)" d="M990.724 1481.64 L998.363 1481.64 L998.363 1455.28 L990.052 1456.95 L990.052 1452.69 L998.316 1451.02 L1002.99 1451.02 L1002.99 1481.64 L1010.63 1481.64 L1010.63 1485.58 L990.724 1485.58 L990.724 1481.64 Z" fill="#000000" fill-rule="nonzero" fill-opacity="1"></path><path clip-path="url(#clip230)" d="M1030.08 1454.1 Q1026.46 1454.1 1024.64 1457.66 Q1022.83 1461.2 1022.83 1468.33 Q1022.83 1475.44 1024.64 1479.01 Q1026.46 1482.55 1030.08 1482.55 Q1033.71 1482.55 1035.52 1479.01 Q1037.34 1475.44 1037.34 1468.33 Q1037.34 1461.2 1035.52 1457.66 Q1033.71 1454.1 1030.08 1454.1 M1030.08 1450.39 Q1035.89 1450.39 1038.94 1455 Q1042.02 1459.58 1042.02 1468.33 Q1042.02 1477.06 1038.94 1481.67 Q1035.89 1486.25 1030.08 1486.25 Q1024.27 1486.25 1021.19 1481.67 Q1018.13 1477.06 1018.13 1468.33 Q1018.13 1459.58 1021.19 1455 Q1024.27 1450.39 1030.08 1450.39 Z" fill="#000000" fill-rule="nonzero" fill-opacity="1"></path><path clip-path="url(#clip230)" d="M1050.24 1479.7 L1055.12 1479.7 L1055.12 1485.58 L1050.24 1485.58 L1050.24 1479.7 Z" fill="#000000" fill-rule="nonzero" fill-opacity="1"></path><path clip-path="url(#clip230)" d="M1075.31 1454.1 Q1071.7 1454.1 1069.87 1457.66 Q1068.06 1461.2 1068.06 1468.33 Q1068.06 1475.44 1069.87 1479.01 Q1071.7 1482.55 1075.31 1482.55 Q1078.94 1482.55 1080.75 1479.01 Q1082.58 1475.44 1082.58 1468.33 Q1082.58 1461.2 1080.75 1457.66 Q1078.94 1454.1 1075.31 1454.1 M1075.31 1450.39 Q1081.12 1450.39 1084.17 1455 Q1087.25 1459.58 1087.25 1468.33 Q1087.25 1477.06 1084.17 1481.67 Q1081.12 1486.25 1075.31 1486.25 Q1069.5 1486.25 1066.42 1481.67 Q1063.36 1477.06 1063.36 1468.33 Q1063.36 1459.58 1066.42 1455 Q1069.5 1450.39 1075.31 1450.39 Z" fill="#000000" fill-rule="nonzero" fill-opacity="1"></path><path clip-path="url(#clip230)" d="M1341.09 1481.64 L1348.73 1481.64 L1348.73 1455.28 L1340.42 1456.95 L1340.42 1452.69 L1348.68 1451.02 L1353.36 1451.02 L1353.36 1481.64 L1361 1481.64 L1361 1485.58 L1341.09 1485.58 L1341.09 1481.64 Z" fill="#000000" fill-rule="nonzero" fill-opacity="1"></path><path clip-path="url(#clip230)" d="M1374.47 1481.64 L1390.79 1481.64 L1390.79 1485.58 L1368.84 1485.58 L1368.84 1481.64 Q1371.51 1478.89 1376.09 1474.26 Q1380.7 1469.61 1381.88 1468.27 Q1384.12 1465.74 1385 1464.01 Q1385.9 1462.25 1385.9 1460.56 Q1385.9 1457.8 1383.96 1456.07 Q1382.04 1454.33 1378.94 1454.33 Q1376.74 1454.33 1374.28 1455.09 Q1371.85 1455.86 1369.08 1457.41 L1369.08 1452.69 Q1371.9 1451.55 1374.35 1450.97 Q1376.81 1450.39 1378.84 1450.39 Q1384.21 1450.39 1387.41 1453.08 Q1390.6 1455.77 1390.6 1460.26 Q1390.6 1462.39 1389.79 1464.31 Q1389.01 1466.2 1386.9 1468.8 Q1386.32 1469.47 1383.22 1472.69 Q1380.12 1475.88 1374.47 1481.64 Z" fill="#000000" fill-rule="nonzero" fill-opacity="1"></path><path clip-path="url(#clip230)" d="M1400.6 1479.7 L1405.49 1479.7 L1405.49 1485.58 L1400.6 1485.58 L1400.6 1479.7 Z" fill="#000000" fill-rule="nonzero" fill-opacity="1"></path><path clip-path="url(#clip230)" d="M1415.72 1451.02 L1434.08 1451.02 L1434.08 1454.96 L1420 1454.96 L1420 1463.43 Q1421.02 1463.08 1422.04 1462.92 Q1423.06 1462.73 1424.08 1462.73 Q1429.86 1462.73 1433.24 1465.9 Q1436.62 1469.08 1436.62 1474.49 Q1436.62 1480.07 1433.15 1483.17 Q1429.68 1486.25 1423.36 1486.25 Q1421.18 1486.25 1418.91 1485.88 Q1416.67 1485.51 1414.26 1484.77 L1414.26 1480.07 Q1416.34 1481.2 1418.57 1481.76 Q1420.79 1482.32 1423.26 1482.32 Q1427.27 1482.32 1429.61 1480.21 Q1431.95 1478.1 1431.95 1474.49 Q1431.95 1470.88 1429.61 1468.77 Q1427.27 1466.67 1423.26 1466.67 Q1421.39 1466.67 1419.51 1467.08 Q1417.66 1467.5 1415.72 1468.38 L1415.72 1451.02 Z" fill="#000000" fill-rule="nonzero" fill-opacity="1"></path><path clip-path="url(#clip230)" d="M1690.46 1481.64 L1698.1 1481.64 L1698.1 1455.28 L1689.79 1456.95 L1689.79 1452.69 L1698.05 1451.02 L1702.73 1451.02 L1702.73 1481.64 L1710.37 1481.64 L1710.37 1485.58 L1690.46 1485.58 L1690.46 1481.64 Z" fill="#000000" fill-rule="nonzero" fill-opacity="1"></path><path clip-path="url(#clip230)" d="M1719.86 1451.02 L1738.21 1451.02 L1738.21 1454.96 L1724.14 1454.96 L1724.14 1463.43 Q1725.16 1463.08 1726.18 1462.92 Q1727.2 1462.73 1728.21 1462.73 Q1734 1462.73 1737.38 1465.9 Q1740.76 1469.08 1740.76 1474.49 Q1740.76 1480.07 1737.29 1483.17 Q1733.82 1486.25 1727.5 1486.25 Q1725.32 1486.25 1723.05 1485.88 Q1720.81 1485.51 1718.4 1484.77 L1718.4 1480.07 Q1720.48 1481.2 1722.7 1481.76 Q1724.93 1482.32 1727.4 1482.32 Q1731.41 1482.32 1733.75 1480.21 Q1736.08 1478.1 1736.08 1474.49 Q1736.08 1470.88 1733.75 1468.77 Q1731.41 1466.67 1727.4 1466.67 Q1725.53 1466.67 1723.65 1467.08 Q1721.8 1467.5 1719.86 1468.38 L1719.86 1451.02 Z" fill="#000000" fill-rule="nonzero" fill-opacity="1"></path><path clip-path="url(#clip230)" d="M1749.97 1479.7 L1754.86 1479.7 L1754.86 1485.58 L1749.97 1485.58 L1749.97 1479.7 Z" fill="#000000" fill-rule="nonzero" fill-opacity="1"></path><path clip-path="url(#clip230)" d="M1775.04 1454.1 Q1771.43 1454.1 1769.6 1457.66 Q1767.8 1461.2 1767.8 1468.33 Q1767.8 1475.44 1769.6 1479.01 Q1771.43 1482.55 1775.04 1482.55 Q1778.68 1482.55 1780.48 1479.01 Q1782.31 1475.44 1782.31 1468.33 Q1782.31 1461.2 1780.48 1457.66 Q1778.68 1454.1 1775.04 1454.1 M1775.04 1450.39 Q1780.85 1450.39 1783.91 1455 Q1786.99 1459.58 1786.99 1468.33 Q1786.99 1477.06 1783.91 1481.67 Q1780.85 1486.25 1775.04 1486.25 Q1769.23 1486.25 1766.15 1481.67 Q1763.1 1477.06 1763.1 1468.33 Q1763.1 1459.58 1766.15 1455 Q1769.23 1450.39 1775.04 1450.39 Z" fill="#000000" fill-rule="nonzero" fill-opacity="1"></path><path clip-path="url(#clip230)" d="M2040.83 1481.64 L2048.46 1481.64 L2048.46 1455.28 L2040.15 1456.95 L2040.15 1452.69 L2048.42 1451.02 L2053.09 1451.02 L2053.09 1481.64 L2060.73 1481.64 L2060.73 1485.58 L2040.83 1485.58 L2040.83 1481.64 Z" fill="#000000" fill-rule="nonzero" fill-opacity="1"></path><path clip-path="url(#clip230)" d="M2069 1451.02 L2091.22 1451.02 L2091.22 1453.01 L2078.67 1485.58 L2073.79 1485.58 L2085.59 1454.96 L2069 1454.96 L2069 1451.02 Z" fill="#000000" fill-rule="nonzero" fill-opacity="1"></path><path clip-path="url(#clip230)" d="M2100.34 1479.7 L2105.22 1479.7 L2105.22 1485.58 L2100.34 1485.58 L2100.34 1479.7 Z" fill="#000000" fill-rule="nonzero" fill-opacity="1"></path><path clip-path="url(#clip230)" d="M2115.45 1451.02 L2133.81 1451.02 L2133.81 1454.96 L2119.74 1454.96 L2119.74 1463.43 Q2120.76 1463.08 2121.77 1462.92 Q2122.79 1462.73 2123.81 1462.73 Q2129.6 1462.73 2132.98 1465.9 Q2136.36 1469.08 2136.36 1474.49 Q2136.36 1480.07 2132.89 1483.17 Q2129.41 1486.25 2123.09 1486.25 Q2120.92 1486.25 2118.65 1485.88 Q2116.4 1485.51 2114 1484.77 L2114 1480.07 Q2116.08 1481.2 2118.3 1481.76 Q2120.52 1482.32 2123 1482.32 Q2127.01 1482.32 2129.34 1480.21 Q2131.68 1478.1 2131.68 1474.49 Q2131.68 1470.88 2129.34 1468.77 Q2127.01 1466.67 2123 1466.67 Q2121.13 1466.67 2119.25 1467.08 Q2117.4 1467.5 2115.45 1468.38 L2115.45 1451.02 Z" fill="#000000" fill-rule="nonzero" fill-opacity="1"></path><path clip-path="url(#clip230)" d="M1134.4 1520.52 L1143.06 1520.52 L1164.13 1560.28 L1164.13 1520.52 L1170.37 1520.52 L1170.37 1568.04 L1161.71 1568.04 L1140.64 1528.29 L1140.64 1568.04 L1134.4 1568.04 L1134.4 1520.52 Z" fill="#000000" fill-rule="nonzero" fill-opacity="1"></path><path clip-path="url(#clip230)" d="M1182.3 1553.98 L1182.3 1532.4 L1188.16 1532.4 L1188.16 1553.75 Q1188.16 1558.81 1190.13 1561.36 Q1192.11 1563.87 1196.05 1563.87 Q1200.8 1563.87 1203.53 1560.85 Q1206.3 1557.83 1206.3 1552.61 L1206.3 1532.4 L1212.16 1532.4 L1212.16 1568.04 L1206.3 1568.04 L1206.3 1562.57 Q1204.17 1565.82 1201.34 1567.41 Q1198.54 1568.97 1194.81 1568.97 Q1188.67 1568.97 1185.49 1565.15 Q1182.3 1561.33 1182.3 1553.98 M1197.04 1531.54 L1197.04 1531.54 Z" fill="#000000" fill-rule="nonzero" fill-opacity="1"></path><path clip-path="url(#clip230)" d="M1251.98 1539.24 Q1254.17 1535.29 1257.23 1533.41 Q1260.28 1531.54 1264.42 1531.54 Q1269.99 1531.54 1273.01 1535.45 Q1276.04 1539.33 1276.04 1546.53 L1276.04 1568.04 L1270.15 1568.04 L1270.15 1546.72 Q1270.15 1541.59 1268.34 1539.11 Q1266.52 1536.63 1262.8 1536.63 Q1258.25 1536.63 1255.6 1539.65 Q1252.96 1542.68 1252.96 1547.9 L1252.96 1568.04 L1247.07 1568.04 L1247.07 1546.72 Q1247.07 1541.56 1245.26 1539.11 Q1243.45 1536.63 1239.66 1536.63 Q1235.17 1536.63 1232.53 1539.68 Q1229.89 1542.71 1229.89 1547.9 L1229.89 1568.04 L1224 1568.04 L1224 1532.4 L1229.89 1532.4 L1229.89 1537.93 Q1231.89 1534.66 1234.69 1533.1 Q1237.49 1531.54 1241.34 1531.54 Q1245.23 1531.54 1247.93 1533.51 Q1250.67 1535.48 1251.98 1539.24 Z" fill="#000000" fill-rule="nonzero" fill-opacity="1"></path><path clip-path="url(#clip230)" d="M1313.31 1550.25 Q1313.31 1543.79 1310.64 1540.13 Q1307.99 1536.44 1303.35 1536.44 Q1298.7 1536.44 1296.03 1540.13 Q1293.38 1543.79 1293.38 1550.25 Q1293.38 1556.71 1296.03 1560.4 Q1298.7 1564.07 1303.35 1564.07 Q1307.99 1564.07 1310.64 1560.4 Q1313.31 1556.71 1313.31 1550.25 M1293.38 1537.81 Q1295.23 1534.62 1298.03 1533.1 Q1300.86 1531.54 1304.78 1531.54 Q1311.27 1531.54 1315.31 1536.69 Q1319.39 1541.85 1319.39 1550.25 Q1319.39 1558.65 1315.31 1563.81 Q1311.27 1568.97 1304.78 1568.97 Q1300.86 1568.97 1298.03 1567.44 Q1295.23 1565.88 1293.38 1562.7 L1293.38 1568.04 L1287.5 1568.04 L1287.5 1518.52 L1293.38 1518.52 L1293.38 1537.81 Z" fill="#000000" fill-rule="nonzero" fill-opacity="1"></path><path clip-path="url(#clip230)" d="M1359.59 1548.76 L1359.59 1551.62 L1332.66 1551.62 Q1333.04 1557.67 1336.29 1560.85 Q1339.57 1564 1345.39 1564 Q1348.77 1564 1351.92 1563.17 Q1355.1 1562.35 1358.22 1560.69 L1358.22 1566.23 Q1355.07 1567.57 1351.76 1568.27 Q1348.45 1568.97 1345.04 1568.97 Q1336.51 1568.97 1331.51 1564 Q1326.55 1559.04 1326.55 1550.57 Q1326.55 1541.82 1331.26 1536.69 Q1336 1531.54 1344.02 1531.54 Q1351.22 1531.54 1355.39 1536.18 Q1359.59 1540.8 1359.59 1548.76 M1353.73 1547.04 Q1353.67 1542.23 1351.03 1539.37 Q1348.42 1536.5 1344.09 1536.5 Q1339.19 1536.5 1336.23 1539.27 Q1333.3 1542.04 1332.85 1547.07 L1353.73 1547.04 Z" fill="#000000" fill-rule="nonzero" fill-opacity="1"></path><path clip-path="url(#clip230)" d="M1389.86 1537.87 Q1388.87 1537.3 1387.69 1537.04 Q1386.55 1536.76 1385.15 1536.76 Q1380.18 1536.76 1377.51 1540 Q1374.87 1543.22 1374.87 1549.27 L1374.87 1568.04 L1368.98 1568.04 L1368.98 1532.4 L1374.87 1532.4 L1374.87 1537.93 Q1376.71 1534.69 1379.67 1533.13 Q1382.63 1531.54 1386.86 1531.54 Q1387.47 1531.54 1388.2 1531.63 Q1388.93 1531.7 1389.82 1531.85 L1389.86 1537.87 Z" fill="#000000" fill-rule="nonzero" fill-opacity="1"></path><path clip-path="url(#clip230)" d="M1430.53 1536.5 Q1425.82 1536.5 1423.09 1540.19 Q1420.35 1543.85 1420.35 1550.25 Q1420.35 1556.65 1423.05 1560.34 Q1425.79 1564 1430.53 1564 Q1435.21 1564 1437.95 1560.31 Q1440.69 1556.62 1440.69 1550.25 Q1440.69 1543.92 1437.95 1540.23 Q1435.21 1536.5 1430.53 1536.5 M1430.53 1531.54 Q1438.17 1531.54 1442.53 1536.5 Q1446.89 1541.47 1446.89 1550.25 Q1446.89 1559 1442.53 1564 Q1438.17 1568.97 1430.53 1568.97 Q1422.86 1568.97 1418.5 1564 Q1414.17 1559 1414.17 1550.25 Q1414.17 1541.47 1418.5 1536.5 Q1422.86 1531.54 1430.53 1531.54 Z" fill="#000000" fill-rule="nonzero" fill-opacity="1"></path><path clip-path="url(#clip230)" d="M1474.65 1518.52 L1474.65 1523.39 L1469.05 1523.39 Q1465.89 1523.39 1464.65 1524.66 Q1463.44 1525.93 1463.44 1529.24 L1463.44 1532.4 L1473.09 1532.4 L1473.09 1536.95 L1463.44 1536.95 L1463.44 1568.04 L1457.56 1568.04 L1457.56 1536.95 L1451.95 1536.95 L1451.95 1532.4 L1457.56 1532.4 L1457.56 1529.91 Q1457.56 1523.96 1460.32 1521.26 Q1463.09 1518.52 1469.11 1518.52 L1474.65 1518.52 Z" fill="#000000" fill-rule="nonzero" fill-opacity="1"></path><path clip-path="url(#clip230)" d="M1523 1533.45 L1523 1538.98 Q1520.51 1537.71 1517.84 1537.07 Q1515.17 1536.44 1512.3 1536.44 Q1507.94 1536.44 1505.74 1537.77 Q1503.58 1539.11 1503.58 1541.79 Q1503.58 1543.82 1505.14 1545 Q1506.7 1546.15 1511.41 1547.2 L1513.41 1547.64 Q1519.65 1548.98 1522.26 1551.43 Q1524.91 1553.85 1524.91 1558.21 Q1524.91 1563.17 1520.96 1566.07 Q1517.04 1568.97 1510.17 1568.97 Q1507.3 1568.97 1504.18 1568.39 Q1501.1 1567.85 1497.66 1566.74 L1497.66 1560.69 Q1500.91 1562.38 1504.06 1563.24 Q1507.21 1564.07 1510.3 1564.07 Q1514.43 1564.07 1516.66 1562.66 Q1518.89 1561.23 1518.89 1558.65 Q1518.89 1556.27 1517.27 1554.99 Q1515.67 1553.72 1510.23 1552.54 L1508.2 1552.07 Q1502.75 1550.92 1500.33 1548.56 Q1497.91 1546.18 1497.91 1542.04 Q1497.91 1537.01 1501.48 1534.27 Q1505.04 1531.54 1511.6 1531.54 Q1514.85 1531.54 1517.71 1532.01 Q1520.58 1532.49 1523 1533.45 Z" fill="#000000" fill-rule="nonzero" fill-opacity="1"></path><path clip-path="url(#clip230)" d="M1534.23 1532.4 L1540.09 1532.4 L1540.09 1568.04 L1534.23 1568.04 L1534.23 1532.4 M1534.23 1518.52 L1540.09 1518.52 L1540.09 1525.93 L1534.23 1525.93 L1534.23 1518.52 Z" fill="#000000" fill-rule="nonzero" fill-opacity="1"></path><path clip-path="url(#clip230)" d="M1558.13 1522.27 L1558.13 1532.4 L1570.2 1532.4 L1570.2 1536.95 L1558.13 1536.95 L1558.13 1556.3 Q1558.13 1560.66 1559.31 1561.9 Q1560.52 1563.14 1564.18 1563.14 L1570.2 1563.14 L1570.2 1568.04 L1564.18 1568.04 Q1557.4 1568.04 1554.82 1565.53 Q1552.25 1562.98 1552.25 1556.3 L1552.25 1536.95 L1547.95 1536.95 L1547.95 1532.4 L1552.25 1532.4 L1552.25 1522.27 L1558.13 1522.27 Z" fill="#000000" fill-rule="nonzero" fill-opacity="1"></path><path clip-path="url(#clip230)" d="M1608.39 1548.76 L1608.39 1551.62 L1581.46 1551.62 Q1581.85 1557.67 1585.09 1560.85 Q1588.37 1564 1594.2 1564 Q1597.57 1564 1600.72 1563.17 Q1603.9 1562.35 1607.02 1560.69 L1607.02 1566.23 Q1603.87 1567.57 1600.56 1568.27 Q1597.25 1568.97 1593.85 1568.97 Q1585.32 1568.97 1580.32 1564 Q1575.35 1559.04 1575.35 1550.57 Q1575.35 1541.82 1580.06 1536.69 Q1584.81 1531.54 1592.83 1531.54 Q1600.02 1531.54 1604.19 1536.18 Q1608.39 1540.8 1608.39 1548.76 M1602.53 1547.04 Q1602.47 1542.23 1599.83 1539.37 Q1597.22 1536.5 1592.89 1536.5 Q1587.99 1536.5 1585.03 1539.27 Q1582.1 1542.04 1581.66 1547.07 L1602.53 1547.04 Z" fill="#000000" fill-rule="nonzero" fill-opacity="1"></path><path clip-path="url(#clip230)" d="M1640.73 1533.45 L1640.73 1538.98 Q1638.25 1537.71 1635.57 1537.07 Q1632.9 1536.44 1630.03 1536.44 Q1625.67 1536.44 1623.48 1537.77 Q1621.31 1539.11 1621.31 1541.79 Q1621.31 1543.82 1622.87 1545 Q1624.43 1546.15 1629.14 1547.2 L1631.15 1547.64 Q1637.39 1548.98 1640 1551.43 Q1642.64 1553.85 1642.64 1558.21 Q1642.64 1563.17 1638.69 1566.07 Q1634.78 1568.97 1627.9 1568.97 Q1625.04 1568.97 1621.92 1568.39 Q1618.83 1567.85 1615.39 1566.74 L1615.39 1560.69 Q1618.64 1562.38 1621.79 1563.24 Q1624.94 1564.07 1628.03 1564.07 Q1632.17 1564.07 1634.4 1562.66 Q1636.62 1561.23 1636.62 1558.65 Q1636.62 1556.27 1635 1554.99 Q1633.41 1553.72 1627.97 1552.54 L1625.93 1552.07 Q1620.49 1550.92 1618.07 1548.56 Q1615.65 1546.18 1615.65 1542.04 Q1615.65 1537.01 1619.21 1534.27 Q1622.78 1531.54 1629.33 1531.54 Q1632.58 1531.54 1635.45 1532.01 Q1638.31 1532.49 1640.73 1533.45 Z" fill="#000000" fill-rule="nonzero" fill-opacity="1"></path><polyline clip-path="url(#clip230)" style="stroke:#000000; stroke-linecap:round; stroke-linejoin:round; stroke-width:4; stroke-opacity:1; fill:none" points="424.284,1423.18 424.284,123.472 "></polyline>
<polyline clip-path="url(#clip230)" style="stroke:#000000; stroke-linecap:round; stroke-linejoin:round; stroke-width:4; stroke-opacity:1; fill:none" points="424.284,1386.4 443.181,1386.4 "></polyline>
<polyline clip-path="url(#clip230)" style="stroke:#000000; stroke-linecap:round; stroke-linejoin:round; stroke-width:4; stroke-opacity:1; fill:none" points="424.284,1126.41 443.181,1126.41 "></polyline>
<polyline clip-path="url(#clip230)" style="stroke:#000000; stroke-linecap:round; stroke-linejoin:round; stroke-width:4; stroke-opacity:1; fill:none" points="424.284,866.429 443.181,866.429 "></polyline>
<polyline clip-path="url(#clip230)" style="stroke:#000000; stroke-linecap:round; stroke-linejoin:round; stroke-width:4; stroke-opacity:1; fill:none" points="424.284,606.446 443.181,606.446 "></polyline>
<polyline clip-path="url(#clip230)" style="stroke:#000000; stroke-linecap:round; stroke-linejoin:round; stroke-width:4; stroke-opacity:1; fill:none" points="424.284,346.463 443.181,346.463 "></polyline>
<path clip-path="url(#clip230)" d="M376.339 1372.19 Q372.728 1372.19 370.899 1375.76 Q369.094 1379.3 369.094 1386.43 Q369.094 1393.54 370.899 1397.1 Q372.728 1400.64 376.339 1400.64 Q379.973 1400.64 381.779 1397.1 Q383.608 1393.54 383.608 1386.43 Q383.608 1379.3 381.779 1375.76 Q379.973 1372.19 376.339 1372.19 M376.339 1368.49 Q382.149 1368.49 385.205 1373.1 Q388.284 1377.68 388.284 1386.43 Q388.284 1395.16 385.205 1399.76 Q382.149 1404.35 376.339 1404.35 Q370.529 1404.35 367.45 1399.76 Q364.395 1395.16 364.395 1386.43 Q364.395 1377.68 367.45 1373.1 Q370.529 1368.49 376.339 1368.49 Z" fill="#000000" fill-rule="nonzero" fill-opacity="1"></path><path clip-path="url(#clip230)" d="M119.885 1146.21 L136.204 1146.21 L136.204 1150.14 L114.26 1150.14 L114.26 1146.21 Q116.922 1143.45 121.505 1138.82 Q126.112 1134.17 127.292 1132.83 Q129.538 1130.3 130.417 1128.57 Q131.32 1126.81 131.32 1125.12 Q131.32 1122.36 129.376 1120.63 Q127.455 1118.89 124.353 1118.89 Q122.154 1118.89 119.7 1119.65 Q117.269 1120.42 114.492 1121.97 L114.492 1117.25 Q117.316 1116.11 119.769 1115.53 Q122.223 1114.96 124.26 1114.96 Q129.63 1114.96 132.825 1117.64 Q136.019 1120.33 136.019 1124.82 Q136.019 1126.95 135.209 1128.87 Q134.422 1130.77 132.316 1133.36 Q131.737 1134.03 128.635 1137.25 Q125.533 1140.44 119.885 1146.21 Z" fill="#000000" fill-rule="nonzero" fill-opacity="1"></path><path clip-path="url(#clip230)" d="M146.019 1144.26 L150.903 1144.26 L150.903 1150.14 L146.019 1150.14 L146.019 1144.26 Z" fill="#000000" fill-rule="nonzero" fill-opacity="1"></path><path clip-path="url(#clip230)" d="M161.135 1115.58 L179.491 1115.58 L179.491 1119.52 L165.417 1119.52 L165.417 1127.99 Q166.436 1127.64 167.454 1127.48 Q168.473 1127.29 169.491 1127.29 Q175.278 1127.29 178.658 1130.46 Q182.038 1133.64 182.038 1139.05 Q182.038 1144.63 178.565 1147.73 Q175.093 1150.81 168.774 1150.81 Q166.598 1150.81 164.329 1150.44 Q162.084 1150.07 159.677 1149.33 L159.677 1144.63 Q161.76 1145.77 163.982 1146.32 Q166.204 1146.88 168.681 1146.88 Q172.686 1146.88 175.024 1144.77 Q177.362 1142.66 177.362 1139.05 Q177.362 1135.44 175.024 1133.33 Q172.686 1131.23 168.681 1131.23 Q166.806 1131.23 164.931 1131.64 Q163.079 1132.06 161.135 1132.94 L161.135 1115.58 Z" fill="#000000" fill-rule="nonzero" fill-opacity="1"></path><path clip-path="url(#clip230)" d="M201.25 1118.66 Q197.639 1118.66 195.811 1122.22 Q194.005 1125.77 194.005 1132.89 Q194.005 1140 195.811 1143.57 Q197.639 1147.11 201.25 1147.11 Q204.885 1147.11 206.69 1143.57 Q208.519 1140 208.519 1132.89 Q208.519 1125.77 206.69 1122.22 Q204.885 1118.66 201.25 1118.66 M201.25 1114.96 Q207.061 1114.96 210.116 1119.56 Q213.195 1124.14 213.195 1132.89 Q213.195 1141.62 210.116 1146.23 Q207.061 1150.81 201.25 1150.81 Q195.44 1150.81 192.362 1146.23 Q189.306 1141.62 189.306 1132.89 Q189.306 1124.14 192.362 1119.56 Q195.44 1114.96 201.25 1114.96 Z" fill="#000000" fill-rule="nonzero" fill-opacity="1"></path><path clip-path="url(#clip230)" d="M249.584 1124.68 L239.005 1135.3 L249.584 1145.88 L246.829 1148.68 L236.204 1138.06 L225.579 1148.68 L222.848 1145.88 L233.403 1135.3 L222.848 1124.68 L225.579 1121.88 L236.204 1132.5 L246.829 1121.88 L249.584 1124.68 Z" fill="#000000" fill-rule="nonzero" fill-opacity="1"></path><path clip-path="url(#clip230)" d="M261.945 1146.21 L269.583 1146.21 L269.583 1119.84 L261.273 1121.51 L261.273 1117.25 L269.537 1115.58 L274.213 1115.58 L274.213 1146.21 L281.852 1146.21 L281.852 1150.14 L261.945 1150.14 L261.945 1146.21 Z" fill="#000000" fill-rule="nonzero" fill-opacity="1"></path><path clip-path="url(#clip230)" d="M301.296 1118.66 Q297.685 1118.66 295.856 1122.22 Q294.051 1125.77 294.051 1132.89 Q294.051 1140 295.856 1143.57 Q297.685 1147.11 301.296 1147.11 Q304.93 1147.11 306.736 1143.57 Q308.565 1140 308.565 1132.89 Q308.565 1125.77 306.736 1122.22 Q304.93 1118.66 301.296 1118.66 M301.296 1114.96 Q307.106 1114.96 310.162 1119.56 Q313.241 1124.14 313.241 1132.89 Q313.241 1141.62 310.162 1146.23 Q307.106 1150.81 301.296 1150.81 Q295.486 1150.81 292.407 1146.23 Q289.352 1141.62 289.352 1132.89 Q289.352 1124.14 292.407 1119.56 Q295.486 1114.96 301.296 1114.96 Z" fill="#000000" fill-rule="nonzero" fill-opacity="1"></path><path clip-path="url(#clip230)" d="M313.241 1109.06 L337.352 1109.06 L337.352 1112.25 L313.241 1112.25 L313.241 1109.06 Z" fill="#000000" fill-rule="nonzero" fill-opacity="1"></path><path clip-path="url(#clip230)" d="M346.211 1119.53 L352.417 1119.53 L352.417 1098.11 L345.665 1099.46 L345.665 1096 L352.38 1094.65 L356.179 1094.65 L356.179 1119.53 L362.385 1119.53 L362.385 1122.73 L346.211 1122.73 L346.211 1119.53 Z" fill="#000000" fill-rule="nonzero" fill-opacity="1"></path><path clip-path="url(#clip230)" d="M380.497 1097.96 L370.905 1112.95 L380.497 1112.95 L380.497 1097.96 M379.5 1094.65 L384.278 1094.65 L384.278 1112.95 L388.284 1112.95 L388.284 1116.11 L384.278 1116.11 L384.278 1122.73 L380.497 1122.73 L380.497 1116.11 L367.821 1116.11 L367.821 1112.44 L379.5 1094.65 Z" fill="#000000" fill-rule="nonzero" fill-opacity="1"></path><path clip-path="url(#clip230)" d="M115.904 855.597 L134.26 855.597 L134.26 859.532 L120.186 859.532 L120.186 868.004 Q121.205 867.657 122.223 867.495 Q123.242 867.31 124.26 867.31 Q130.047 867.31 133.427 870.481 Q136.806 873.653 136.806 879.069 Q136.806 884.648 133.334 887.75 Q129.862 890.828 123.543 890.828 Q121.367 890.828 119.098 890.458 Q116.853 890.088 114.445 889.347 L114.445 884.648 Q116.529 885.782 118.751 886.338 Q120.973 886.893 123.45 886.893 Q127.455 886.893 129.792 884.787 Q132.13 882.68 132.13 879.069 Q132.13 875.458 129.792 873.352 Q127.455 871.245 123.45 871.245 Q121.575 871.245 119.7 871.662 Q117.848 872.078 115.904 872.958 L115.904 855.597 Z" fill="#000000" fill-rule="nonzero" fill-opacity="1"></path><path clip-path="url(#clip230)" d="M146.019 884.277 L150.903 884.277 L150.903 890.157 L146.019 890.157 L146.019 884.277 Z" fill="#000000" fill-rule="nonzero" fill-opacity="1"></path><path clip-path="url(#clip230)" d="M171.089 858.676 Q167.477 858.676 165.649 862.241 Q163.843 865.782 163.843 872.912 Q163.843 880.018 165.649 883.583 Q167.477 887.125 171.089 887.125 Q174.723 887.125 176.528 883.583 Q178.357 880.018 178.357 872.912 Q178.357 865.782 176.528 862.241 Q174.723 858.676 171.089 858.676 M171.089 854.972 Q176.899 854.972 179.954 859.579 Q183.033 864.162 183.033 872.912 Q183.033 881.639 179.954 886.245 Q176.899 890.828 171.089 890.828 Q165.278 890.828 162.2 886.245 Q159.144 881.639 159.144 872.912 Q159.144 864.162 162.2 859.579 Q165.278 854.972 171.089 854.972 Z" fill="#000000" fill-rule="nonzero" fill-opacity="1"></path><path clip-path="url(#clip230)" d="M201.25 858.676 Q197.639 858.676 195.811 862.241 Q194.005 865.782 194.005 872.912 Q194.005 880.018 195.811 883.583 Q197.639 887.125 201.25 887.125 Q204.885 887.125 206.69 883.583 Q208.519 880.018 208.519 872.912 Q208.519 865.782 206.69 862.241 Q204.885 858.676 201.25 858.676 M201.25 854.972 Q207.061 854.972 210.116 859.579 Q213.195 864.162 213.195 872.912 Q213.195 881.639 210.116 886.245 Q207.061 890.828 201.25 890.828 Q195.44 890.828 192.362 886.245 Q189.306 881.639 189.306 872.912 Q189.306 864.162 192.362 859.579 Q195.44 854.972 201.25 854.972 Z" fill="#000000" fill-rule="nonzero" fill-opacity="1"></path><path clip-path="url(#clip230)" d="M249.584 864.694 L239.005 875.319 L249.584 885.898 L246.829 888.699 L236.204 878.074 L225.579 888.699 L222.848 885.898 L233.403 875.319 L222.848 864.694 L225.579 861.893 L236.204 872.518 L246.829 861.893 L249.584 864.694 Z" fill="#000000" fill-rule="nonzero" fill-opacity="1"></path><path clip-path="url(#clip230)" d="M261.945 886.222 L269.583 886.222 L269.583 859.856 L261.273 861.523 L261.273 857.264 L269.537 855.597 L274.213 855.597 L274.213 886.222 L281.852 886.222 L281.852 890.157 L261.945 890.157 L261.945 886.222 Z" fill="#000000" fill-rule="nonzero" fill-opacity="1"></path><path clip-path="url(#clip230)" d="M301.296 858.676 Q297.685 858.676 295.856 862.241 Q294.051 865.782 294.051 872.912 Q294.051 880.018 295.856 883.583 Q297.685 887.125 301.296 887.125 Q304.93 887.125 306.736 883.583 Q308.565 880.018 308.565 872.912 Q308.565 865.782 306.736 862.241 Q304.93 858.676 301.296 858.676 M301.296 854.972 Q307.106 854.972 310.162 859.579 Q313.241 864.162 313.241 872.912 Q313.241 881.639 310.162 886.245 Q307.106 890.828 301.296 890.828 Q295.486 890.828 292.407 886.245 Q289.352 881.639 289.352 872.912 Q289.352 864.162 292.407 859.579 Q295.486 854.972 301.296 854.972 Z" fill="#000000" fill-rule="nonzero" fill-opacity="1"></path><path clip-path="url(#clip230)" d="M313.241 849.073 L337.352 849.073 L337.352 852.271 L313.241 852.271 L313.241 849.073 Z" fill="#000000" fill-rule="nonzero" fill-opacity="1"></path><path clip-path="url(#clip230)" d="M346.211 859.549 L352.417 859.549 L352.417 838.127 L345.665 839.481 L345.665 836.021 L352.38 834.667 L356.179 834.667 L356.179 859.549 L362.385 859.549 L362.385 862.747 L346.211 862.747 L346.211 859.549 Z" fill="#000000" fill-rule="nonzero" fill-opacity="1"></path><path clip-path="url(#clip230)" d="M380.497 837.977 L370.905 852.967 L380.497 852.967 L380.497 837.977 M379.5 834.667 L384.278 834.667 L384.278 852.967 L388.284 852.967 L388.284 856.126 L384.278 856.126 L384.278 862.747 L380.497 862.747 L380.497 856.126 L367.821 856.126 L367.821 852.459 L379.5 834.667 Z" fill="#000000" fill-rule="nonzero" fill-opacity="1"></path><path clip-path="url(#clip230)" d="M114.677 595.614 L136.899 595.614 L136.899 597.605 L124.353 630.174 L119.468 630.174 L131.274 599.549 L114.677 599.549 L114.677 595.614 Z" fill="#000000" fill-rule="nonzero" fill-opacity="1"></path><path clip-path="url(#clip230)" d="M146.019 624.294 L150.903 624.294 L150.903 630.174 L146.019 630.174 L146.019 624.294 Z" fill="#000000" fill-rule="nonzero" fill-opacity="1"></path><path clip-path="url(#clip230)" d="M161.135 595.614 L179.491 595.614 L179.491 599.549 L165.417 599.549 L165.417 608.021 Q166.436 607.674 167.454 607.512 Q168.473 607.327 169.491 607.327 Q175.278 607.327 178.658 610.498 Q182.038 613.669 182.038 619.086 Q182.038 624.665 178.565 627.767 Q175.093 630.845 168.774 630.845 Q166.598 630.845 164.329 630.475 Q162.084 630.105 159.677 629.364 L159.677 624.665 Q161.76 625.799 163.982 626.355 Q166.204 626.91 168.681 626.91 Q172.686 626.91 175.024 624.804 Q177.362 622.697 177.362 619.086 Q177.362 615.475 175.024 613.369 Q172.686 611.262 168.681 611.262 Q166.806 611.262 164.931 611.679 Q163.079 612.095 161.135 612.975 L161.135 595.614 Z" fill="#000000" fill-rule="nonzero" fill-opacity="1"></path><path clip-path="url(#clip230)" d="M201.25 598.693 Q197.639 598.693 195.811 602.257 Q194.005 605.799 194.005 612.929 Q194.005 620.035 195.811 623.6 Q197.639 627.142 201.25 627.142 Q204.885 627.142 206.69 623.6 Q208.519 620.035 208.519 612.929 Q208.519 605.799 206.69 602.257 Q204.885 598.693 201.25 598.693 M201.25 594.989 Q207.061 594.989 210.116 599.595 Q213.195 604.179 213.195 612.929 Q213.195 621.656 210.116 626.262 Q207.061 630.845 201.25 630.845 Q195.44 630.845 192.362 626.262 Q189.306 621.656 189.306 612.929 Q189.306 604.179 192.362 599.595 Q195.44 594.989 201.25 594.989 Z" fill="#000000" fill-rule="nonzero" fill-opacity="1"></path><path clip-path="url(#clip230)" d="M249.584 604.711 L239.005 615.336 L249.584 625.915 L246.829 628.716 L236.204 618.091 L225.579 628.716 L222.848 625.915 L233.403 615.336 L222.848 604.711 L225.579 601.91 L236.204 612.535 L246.829 601.91 L249.584 604.711 Z" fill="#000000" fill-rule="nonzero" fill-opacity="1"></path><path clip-path="url(#clip230)" d="M261.945 626.239 L269.583 626.239 L269.583 599.873 L261.273 601.54 L261.273 597.281 L269.537 595.614 L274.213 595.614 L274.213 626.239 L281.852 626.239 L281.852 630.174 L261.945 630.174 L261.945 626.239 Z" fill="#000000" fill-rule="nonzero" fill-opacity="1"></path><path clip-path="url(#clip230)" d="M301.296 598.693 Q297.685 598.693 295.856 602.257 Q294.051 605.799 294.051 612.929 Q294.051 620.035 295.856 623.6 Q297.685 627.142 301.296 627.142 Q304.93 627.142 306.736 623.6 Q308.565 620.035 308.565 612.929 Q308.565 605.799 306.736 602.257 Q304.93 598.693 301.296 598.693 M301.296 594.989 Q307.106 594.989 310.162 599.595 Q313.241 604.179 313.241 612.929 Q313.241 621.656 310.162 626.262 Q307.106 630.845 301.296 630.845 Q295.486 630.845 292.407 626.262 Q289.352 621.656 289.352 612.929 Q289.352 604.179 292.407 599.595 Q295.486 594.989 301.296 594.989 Z" fill="#000000" fill-rule="nonzero" fill-opacity="1"></path><path clip-path="url(#clip230)" d="M313.241 589.09 L337.352 589.09 L337.352 592.288 L313.241 592.288 L313.241 589.09 Z" fill="#000000" fill-rule="nonzero" fill-opacity="1"></path><path clip-path="url(#clip230)" d="M346.211 599.566 L352.417 599.566 L352.417 578.144 L345.665 579.498 L345.665 576.038 L352.38 574.684 L356.179 574.684 L356.179 599.566 L362.385 599.566 L362.385 602.764 L346.211 602.764 L346.211 599.566 Z" fill="#000000" fill-rule="nonzero" fill-opacity="1"></path><path clip-path="url(#clip230)" d="M380.497 577.994 L370.905 592.984 L380.497 592.984 L380.497 577.994 M379.5 574.684 L384.278 574.684 L384.278 592.984 L388.284 592.984 L388.284 596.143 L384.278 596.143 L384.278 602.764 L380.497 602.764 L380.497 596.143 L367.821 596.143 L367.821 592.476 L379.5 574.684 Z" fill="#000000" fill-rule="nonzero" fill-opacity="1"></path><path clip-path="url(#clip230)" d="M117.589 366.256 L125.228 366.256 L125.228 339.89 L116.918 341.557 L116.918 337.298 L125.182 335.631 L129.858 335.631 L129.858 366.256 L137.496 366.256 L137.496 370.191 L117.589 370.191 L117.589 366.256 Z" fill="#000000" fill-rule="nonzero" fill-opacity="1"></path><path clip-path="url(#clip230)" d="M146.941 364.311 L151.825 364.311 L151.825 370.191 L146.941 370.191 L146.941 364.311 Z" fill="#000000" fill-rule="nonzero" fill-opacity="1"></path><path clip-path="url(#clip230)" d="M172.01 338.71 Q168.399 338.71 166.57 342.274 Q164.765 345.816 164.765 352.946 Q164.765 360.052 166.57 363.617 Q168.399 367.159 172.01 367.159 Q175.644 367.159 177.45 363.617 Q179.279 360.052 179.279 352.946 Q179.279 345.816 177.45 342.274 Q175.644 338.71 172.01 338.71 M172.01 335.006 Q177.82 335.006 180.876 339.612 Q183.955 344.196 183.955 352.946 Q183.955 361.672 180.876 366.279 Q177.82 370.862 172.01 370.862 Q166.2 370.862 163.121 366.279 Q160.066 361.672 160.066 352.946 Q160.066 344.196 163.121 339.612 Q166.2 335.006 172.01 335.006 Z" fill="#000000" fill-rule="nonzero" fill-opacity="1"></path><path clip-path="url(#clip230)" d="M202.172 338.71 Q198.561 338.71 196.732 342.274 Q194.927 345.816 194.927 352.946 Q194.927 360.052 196.732 363.617 Q198.561 367.159 202.172 367.159 Q205.806 367.159 207.612 363.617 Q209.44 360.052 209.44 352.946 Q209.44 345.816 207.612 342.274 Q205.806 338.71 202.172 338.71 M202.172 335.006 Q207.982 335.006 211.038 339.612 Q214.116 344.196 214.116 352.946 Q214.116 361.672 211.038 366.279 Q207.982 370.862 202.172 370.862 Q196.362 370.862 193.283 366.279 Q190.228 361.672 190.228 352.946 Q190.228 344.196 193.283 339.612 Q196.362 335.006 202.172 335.006 Z" fill="#000000" fill-rule="nonzero" fill-opacity="1"></path><path clip-path="url(#clip230)" d="M250.505 344.728 L239.926 355.353 L250.505 365.932 L247.75 368.733 L237.126 358.108 L226.501 368.733 L223.769 365.932 L234.325 355.353 L223.769 344.728 L226.501 341.927 L237.126 352.552 L247.75 341.927 L250.505 344.728 Z" fill="#000000" fill-rule="nonzero" fill-opacity="1"></path><path clip-path="url(#clip230)" d="M262.866 366.256 L270.505 366.256 L270.505 339.89 L262.195 341.557 L262.195 337.298 L270.459 335.631 L275.135 335.631 L275.135 366.256 L282.773 366.256 L282.773 370.191 L262.866 370.191 L262.866 366.256 Z" fill="#000000" fill-rule="nonzero" fill-opacity="1"></path><path clip-path="url(#clip230)" d="M302.218 338.71 Q298.607 338.71 296.778 342.274 Q294.972 345.816 294.972 352.946 Q294.972 360.052 296.778 363.617 Q298.607 367.159 302.218 367.159 Q305.852 367.159 307.658 363.617 Q309.486 360.052 309.486 352.946 Q309.486 345.816 307.658 342.274 Q305.852 338.71 302.218 338.71 M302.218 335.006 Q308.028 335.006 311.083 339.612 Q314.162 344.196 314.162 352.946 Q314.162 361.672 311.083 366.279 Q308.028 370.862 302.218 370.862 Q296.408 370.862 293.329 366.279 Q290.273 361.672 290.273 352.946 Q290.273 344.196 293.329 339.612 Q296.408 335.006 302.218 335.006 Z" fill="#000000" fill-rule="nonzero" fill-opacity="1"></path><path clip-path="url(#clip230)" d="M314.162 329.107 L338.274 329.107 L338.274 332.305 L314.162 332.305 L314.162 329.107 Z" fill="#000000" fill-rule="nonzero" fill-opacity="1"></path><path clip-path="url(#clip230)" d="M347.132 339.583 L353.339 339.583 L353.339 318.161 L346.587 319.515 L346.587 316.055 L353.301 314.701 L357.1 314.701 L357.1 339.583 L363.307 339.583 L363.307 342.781 L347.132 342.781 L347.132 339.583 Z" fill="#000000" fill-rule="nonzero" fill-opacity="1"></path><path clip-path="url(#clip230)" d="M382.491 327.64 Q385.218 328.223 386.741 330.066 Q388.284 331.91 388.284 334.618 Q388.284 338.774 385.425 341.05 Q382.566 343.326 377.3 343.326 Q375.532 343.326 373.651 342.969 Q371.789 342.63 369.796 341.934 L369.796 338.267 Q371.375 339.188 373.256 339.658 Q375.137 340.129 377.187 340.129 Q380.76 340.129 382.622 338.718 Q384.503 337.307 384.503 334.618 Q384.503 332.135 382.754 330.744 Q381.024 329.333 377.92 329.333 L374.648 329.333 L374.648 326.211 L378.071 326.211 Q380.873 326.211 382.359 325.101 Q383.845 323.973 383.845 321.866 Q383.845 319.703 382.303 318.556 Q380.779 317.39 377.92 317.39 Q376.359 317.39 374.573 317.729 Q372.786 318.067 370.642 318.782 L370.642 315.396 Q372.805 314.795 374.686 314.494 Q376.585 314.193 378.259 314.193 Q382.585 314.193 385.105 316.168 Q387.625 318.124 387.625 321.471 Q387.625 323.803 386.29 325.421 Q384.955 327.02 382.491 327.64 Z" fill="#000000" fill-rule="nonzero" fill-opacity="1"></path><path clip-path="url(#clip230)" d="M16.4842 954.16 L16.4842 924.114 L21.895 924.114 L21.895 947.73 L35.9632 947.73 L35.9632 925.1 L41.3741 925.1 L41.3741 947.73 L58.5933 947.73 L58.5933 923.541 L64.0042 923.541 L64.0042 954.16 L16.4842 954.16 Z" fill="#000000" fill-rule="nonzero" fill-opacity="1"></path><path clip-path="url(#clip230)" d="M42.4881 883.596 L64.0042 883.596 L64.0042 889.452 L42.679 889.452 Q37.6183 889.452 35.1038 891.426 Q32.5894 893.399 32.5894 897.346 Q32.5894 902.088 35.6131 904.826 Q38.6368 907.563 43.8567 907.563 L64.0042 907.563 L64.0042 913.451 L28.3562 913.451 L28.3562 907.563 L33.8944 907.563 Q30.6797 905.462 29.0883 902.629 Q27.4968 899.765 27.4968 896.041 Q27.4968 889.898 31.3163 886.747 Q35.1038 883.596 42.4881 883.596 Z" fill="#000000" fill-rule="nonzero" fill-opacity="1"></path><path clip-path="url(#clip230)" d="M44.7161 841.423 L47.5806 841.423 L47.5806 868.35 Q53.6281 867.968 56.8109 864.722 Q59.9619 861.443 59.9619 855.619 Q59.9619 852.245 59.1344 849.094 Q58.3069 845.911 56.6518 842.792 L62.1899 842.792 Q63.5267 845.943 64.227 849.253 Q64.9272 852.563 64.9272 855.969 Q64.9272 864.499 59.9619 869.496 Q54.9967 874.461 46.5303 874.461 Q37.7774 874.461 32.6531 869.751 Q27.4968 865.008 27.4968 856.987 Q27.4968 849.794 32.1438 845.624 Q36.7589 841.423 44.7161 841.423 M42.9973 847.28 Q38.1912 847.343 35.3266 849.985 Q32.4621 852.595 32.4621 856.924 Q32.4621 861.825 35.2312 864.785 Q38.0002 867.713 43.0292 868.159 L42.9973 847.28 Z" fill="#000000" fill-rule="nonzero" fill-opacity="1"></path><path clip-path="url(#clip230)" d="M33.8307 811.154 Q33.2578 812.141 33.0032 813.319 Q32.7167 814.464 32.7167 815.865 Q32.7167 820.83 35.9632 823.504 Q39.1779 826.145 45.2253 826.145 L64.0042 826.145 L64.0042 832.034 L28.3562 832.034 L28.3562 826.145 L33.8944 826.145 Q30.6479 824.299 29.0883 821.339 Q27.4968 818.379 27.4968 814.146 Q27.4968 813.541 27.5923 812.809 Q27.656 812.077 27.8151 811.186 L33.8307 811.154 Z" fill="#000000" fill-rule="nonzero" fill-opacity="1"></path><path clip-path="url(#clip230)" d="M45.7664 782.699 Q39.4007 782.699 35.8996 785.341 Q32.3984 787.951 32.3984 792.694 Q32.3984 797.404 35.8996 800.046 Q39.4007 802.656 45.7664 802.656 Q52.1003 802.656 55.6014 800.046 Q59.1026 797.404 59.1026 792.694 Q59.1026 787.951 55.6014 785.341 Q52.1003 782.699 45.7664 782.699 M59.58 776.843 Q68.683 776.843 73.1071 780.885 Q77.5631 784.927 77.5631 793.267 Q77.5631 796.354 77.0857 799.091 Q76.6401 801.828 75.6852 804.407 L69.9879 804.407 Q71.3884 801.828 72.0568 799.314 Q72.7252 796.8 72.7252 794.19 Q72.7252 788.429 69.7015 785.564 Q66.7096 782.699 60.6303 782.699 L57.7339 782.699 Q60.885 784.514 62.4446 787.346 Q64.0042 790.179 64.0042 794.126 Q64.0042 800.683 59.0071 804.693 Q54.01 808.703 45.7664 808.703 Q37.491 808.703 32.4939 804.693 Q27.4968 800.683 27.4968 794.126 Q27.4968 790.179 29.0564 787.346 Q30.616 784.514 33.7671 782.699 L28.3562 782.699 L28.3562 776.843 L59.58 776.843 Z" fill="#000000" fill-rule="nonzero" fill-opacity="1"></path><path clip-path="url(#clip230)" d="M67.3143 749.948 Q73.68 752.431 75.6216 754.786 Q77.5631 757.141 77.5631 761.088 L77.5631 765.767 L72.6615 765.767 L72.6615 762.329 Q72.6615 759.91 71.5157 758.573 Q70.3699 757.237 66.1048 755.613 L63.4312 754.563 L28.3562 768.981 L28.3562 762.775 L56.238 751.635 L28.3562 740.495 L28.3562 734.288 L67.3143 749.948 Z" fill="#000000" fill-rule="nonzero" fill-opacity="1"></path><path clip-path="url(#clip230)" d="M45.7664 682.026 Q39.4007 682.026 35.8996 684.668 Q32.3984 687.278 32.3984 692.02 Q32.3984 696.731 35.8996 699.372 Q39.4007 701.982 45.7664 701.982 Q52.1003 701.982 55.6014 699.372 Q59.1026 696.731 59.1026 692.02 Q59.1026 687.278 55.6014 684.668 Q52.1003 682.026 45.7664 682.026 M59.58 676.169 Q68.683 676.169 73.1071 680.212 Q77.5631 684.254 77.5631 692.593 Q77.5631 695.68 77.0857 698.418 Q76.6401 701.155 75.6852 703.733 L69.9879 703.733 Q71.3884 701.155 72.0568 698.64 Q72.7252 696.126 72.7252 693.516 Q72.7252 687.755 69.7015 684.89 Q66.7096 682.026 60.6303 682.026 L57.7339 682.026 Q60.885 683.84 62.4446 686.673 Q64.0042 689.506 64.0042 693.452 Q64.0042 700.009 59.0071 704.019 Q54.01 708.03 45.7664 708.03 Q37.491 708.03 32.4939 704.019 Q27.4968 700.009 27.4968 693.452 Q27.4968 689.506 29.0564 686.673 Q30.616 683.84 33.7671 682.026 L28.3562 682.026 L28.3562 676.169 L59.58 676.169 Z" fill="#000000" fill-rule="nonzero" fill-opacity="1"></path><path clip-path="url(#clip230)" d="M46.0847 647.906 Q46.0847 655.003 47.7079 657.741 Q49.3312 660.478 53.2461 660.478 Q56.3653 660.478 58.2114 658.441 Q60.0256 656.372 60.0256 652.839 Q60.0256 647.969 56.5881 645.041 Q53.1188 642.081 47.3897 642.081 L46.0847 642.081 L46.0847 647.906 M43.6657 636.225 L64.0042 636.225 L64.0042 642.081 L58.5933 642.081 Q61.8398 644.086 63.3994 647.078 Q64.9272 650.07 64.9272 654.399 Q64.9272 659.873 61.8716 663.12 Q58.7843 666.334 53.6281 666.334 Q47.6125 666.334 44.5569 662.324 Q41.5014 658.282 41.5014 650.293 L41.5014 642.081 L40.9285 642.081 Q36.8862 642.081 34.6901 644.755 Q32.4621 647.396 32.4621 652.203 Q32.4621 655.258 33.1941 658.154 Q33.9262 661.051 35.3903 663.724 L29.9795 663.724 Q28.7381 660.51 28.1334 657.486 Q27.4968 654.462 27.4968 651.598 Q27.4968 643.863 31.5072 640.044 Q35.5176 636.225 43.6657 636.225 Z" fill="#000000" fill-rule="nonzero" fill-opacity="1"></path><path clip-path="url(#clip230)" d="M58.657 618.496 L77.5631 618.496 L77.5631 624.384 L28.3562 624.384 L28.3562 618.496 L33.7671 618.496 Q30.5842 616.65 29.0564 613.849 Q27.4968 611.016 27.4968 607.101 Q27.4968 600.608 32.6531 596.566 Q37.8093 592.492 46.212 592.492 Q54.6147 592.492 59.771 596.566 Q64.9272 600.608 64.9272 607.101 Q64.9272 611.016 63.3994 613.849 Q61.8398 616.65 58.657 618.496 M46.212 598.571 Q39.7508 598.571 36.0905 601.245 Q32.3984 603.887 32.3984 608.534 Q32.3984 613.181 36.0905 615.854 Q39.7508 618.496 46.212 618.496 Q52.6732 618.496 56.3653 615.854 Q60.0256 613.181 60.0256 608.534 Q60.0256 603.887 56.3653 601.245 Q52.6732 598.571 46.212 598.571 Z" fill="#000000" fill-rule="nonzero" fill-opacity="1"></path><path clip-path="url(#clip230)" d="M517.434 12.096 L555.674 12.096 L555.674 18.9825 L525.616 18.9825 L525.616 36.8875 L554.418 36.8875 L554.418 43.7741 L525.616 43.7741 L525.616 65.6895 L556.403 65.6895 L556.403 72.576 L517.434 72.576 L517.434 12.096 Z" fill="#000000" fill-rule="nonzero" fill-opacity="1"></path><path clip-path="url(#clip230)" d="M607.242 45.1919 L607.242 72.576 L599.788 72.576 L599.788 45.4349 Q599.788 38.994 597.277 35.7938 Q594.765 32.5936 589.742 32.5936 Q583.706 32.5936 580.223 36.4419 Q576.739 40.2903 576.739 46.9338 L576.739 72.576 L569.245 72.576 L569.245 27.2059 L576.739 27.2059 L576.739 34.2544 Q579.412 30.163 583.018 28.1376 Q586.664 26.1121 591.403 26.1121 Q599.221 26.1121 603.232 30.9732 Q607.242 35.7938 607.242 45.1919 Z" fill="#000000" fill-rule="nonzero" fill-opacity="1"></path><path clip-path="url(#clip230)" d="M660.917 48.0275 L660.917 51.6733 L626.646 51.6733 Q627.132 59.3701 631.264 63.421 Q635.436 67.4314 642.85 67.4314 Q647.144 67.4314 651.154 66.3781 Q655.205 65.3249 659.175 63.2184 L659.175 70.267 Q655.164 71.9684 650.951 72.8596 Q646.738 73.7508 642.404 73.7508 Q631.548 73.7508 625.188 67.4314 Q618.868 61.1119 618.868 50.3365 Q618.868 39.1965 624.864 32.6746 Q630.899 26.1121 641.108 26.1121 Q650.263 26.1121 655.569 32.0264 Q660.917 37.9003 660.917 48.0275 M653.463 45.84 Q653.382 39.7232 650.02 36.0774 Q646.698 32.4315 641.189 32.4315 Q634.95 32.4315 631.183 35.9558 Q627.456 39.4801 626.889 45.8805 L653.463 45.84 Z" fill="#000000" fill-rule="nonzero" fill-opacity="1"></path><path clip-path="url(#clip230)" d="M699.441 34.1734 Q698.185 33.4443 696.686 33.1202 Q695.228 32.7556 693.445 32.7556 Q687.126 32.7556 683.723 36.8875 Q680.361 40.9789 680.361 48.6757 L680.361 72.576 L672.867 72.576 L672.867 27.2059 L680.361 27.2059 L680.361 34.2544 Q682.71 30.1225 686.478 28.1376 Q690.245 26.1121 695.633 26.1121 Q696.402 26.1121 697.334 26.2337 Q698.266 26.3147 699.4 26.5172 L699.441 34.1734 Z" fill="#000000" fill-rule="nonzero" fill-opacity="1"></path><path clip-path="url(#clip230)" d="M735.656 49.3643 Q735.656 41.2625 732.294 36.8065 Q728.972 32.3505 722.936 32.3505 Q716.941 32.3505 713.578 36.8065 Q710.257 41.2625 710.257 49.3643 Q710.257 57.4256 713.578 61.8816 Q716.941 66.3376 722.936 66.3376 Q728.972 66.3376 732.294 61.8816 Q735.656 57.4256 735.656 49.3643 M743.109 66.9452 Q743.109 78.5308 737.965 84.1616 Q732.82 89.8329 722.207 89.8329 Q718.277 89.8329 714.794 89.2252 Q711.31 88.6581 708.029 87.4428 L708.029 80.1917 Q711.31 81.9741 714.51 82.8248 Q717.71 83.6755 721.032 83.6755 Q728.364 83.6755 732.01 79.8271 Q735.656 76.0193 735.656 68.282 L735.656 64.5957 Q733.347 68.6061 729.741 70.5911 Q726.136 72.576 721.113 72.576 Q712.768 72.576 707.664 66.2161 Q702.56 59.8562 702.56 49.3643 Q702.56 38.832 707.664 32.472 Q712.768 26.1121 721.113 26.1121 Q726.136 26.1121 729.741 28.0971 Q733.347 30.082 735.656 34.0924 L735.656 27.2059 L743.109 27.2059 L743.109 66.9452 Z" fill="#000000" fill-rule="nonzero" fill-opacity="1"></path><path clip-path="url(#clip230)" d="M777.34 76.7889 Q774.18 84.8907 771.182 87.3618 Q768.185 89.8329 763.161 89.8329 L757.207 89.8329 L757.207 83.5945 L761.582 83.5945 Q764.66 83.5945 766.362 82.1361 Q768.063 80.6778 770.129 75.2496 L771.466 71.8468 L753.115 27.2059 L761.014 27.2059 L775.193 62.6918 L789.371 27.2059 L797.27 27.2059 L777.34 76.7889 Z" fill="#000000" fill-rule="nonzero" fill-opacity="1"></path><path clip-path="url(#clip230)" d="M863.786 49.3643 Q863.786 41.2625 860.424 36.8065 Q857.102 32.3505 851.066 32.3505 Q845.071 32.3505 841.708 36.8065 Q838.387 41.2625 838.387 49.3643 Q838.387 57.4256 841.708 61.8816 Q845.071 66.3376 851.066 66.3376 Q857.102 66.3376 860.424 61.8816 Q863.786 57.4256 863.786 49.3643 M871.24 66.9452 Q871.24 78.5308 866.095 84.1616 Q860.95 89.8329 850.337 89.8329 Q846.407 89.8329 842.924 89.2252 Q839.44 88.6581 836.159 87.4428 L836.159 80.1917 Q839.44 81.9741 842.64 82.8248 Q845.84 83.6755 849.162 83.6755 Q856.494 83.6755 860.14 79.8271 Q863.786 76.0193 863.786 68.282 L863.786 64.5957 Q861.477 68.6061 857.872 70.5911 Q854.266 72.576 849.243 72.576 Q840.898 72.576 835.794 66.2161 Q830.69 59.8562 830.69 49.3643 Q830.69 38.832 835.794 32.472 Q840.898 26.1121 849.243 26.1121 Q854.266 26.1121 857.872 28.0971 Q861.477 30.082 863.786 34.0924 L863.786 27.2059 L871.24 27.2059 L871.24 66.9452 Z" fill="#000000" fill-rule="nonzero" fill-opacity="1"></path><path clip-path="url(#clip230)" d="M907.212 49.7694 Q898.178 49.7694 894.694 51.8354 Q891.21 53.9013 891.21 58.8839 Q891.21 62.8538 893.803 65.2034 Q896.436 67.5124 900.933 67.5124 Q907.131 67.5124 910.857 63.1374 Q914.625 58.7219 914.625 51.4303 L914.625 49.7694 L907.212 49.7694 M922.078 46.6907 L922.078 72.576 L914.625 72.576 L914.625 65.6895 Q912.073 69.8214 908.265 71.8063 Q904.457 73.7508 898.948 73.7508 Q891.98 73.7508 887.848 69.8619 Q883.757 65.9325 883.757 59.3701 Q883.757 51.7138 888.861 47.825 Q894.006 43.9361 904.173 43.9361 L914.625 43.9361 L914.625 43.2069 Q914.625 38.0623 911.222 35.2672 Q907.86 32.4315 901.743 32.4315 Q897.854 32.4315 894.168 33.3632 Q890.481 34.295 887.079 36.1584 L887.079 29.2718 Q891.17 27.692 895.018 26.9223 Q898.867 26.1121 902.513 26.1121 Q912.356 26.1121 917.217 31.2163 Q922.078 36.3204 922.078 46.6907 Z" fill="#000000" fill-rule="nonzero" fill-opacity="1"></path><path clip-path="url(#clip230)" d="M944.642 65.7705 L944.642 89.8329 L937.148 89.8329 L937.148 27.2059 L944.642 27.2059 L944.642 34.0924 Q946.991 30.0415 950.556 28.0971 Q954.162 26.1121 959.144 26.1121 Q967.408 26.1121 972.553 32.6746 Q977.738 39.2371 977.738 49.9314 Q977.738 60.6258 972.553 67.1883 Q967.408 73.7508 959.144 73.7508 Q954.162 73.7508 950.556 71.8063 Q946.991 69.8214 944.642 65.7705 M970.001 49.9314 Q970.001 41.7081 966.598 37.0496 Q963.236 32.3505 957.321 32.3505 Q951.407 32.3505 948.004 37.0496 Q944.642 41.7081 944.642 49.9314 Q944.642 58.1548 948.004 62.8538 Q951.407 67.5124 957.321 67.5124 Q963.236 67.5124 966.598 62.8538 Q970.001 58.1548 970.001 49.9314 Z" fill="#000000" fill-rule="nonzero" fill-opacity="1"></path><path clip-path="url(#clip230)" d="M1011.12 27.2059 L1019.02 27.2059 L1033.19 65.2844 L1047.37 27.2059 L1055.27 27.2059 L1038.26 72.576 L1028.13 72.576 L1011.12 27.2059 Z" fill="#000000" fill-rule="nonzero" fill-opacity="1"></path><path clip-path="url(#clip230)" d="M1094.48 28.5427 L1094.48 35.5912 Q1091.33 33.9709 1087.92 33.1607 Q1084.52 32.3505 1080.87 32.3505 Q1075.32 32.3505 1072.53 34.0519 Q1069.77 35.7533 1069.77 39.156 Q1069.77 41.7486 1071.76 43.2475 Q1073.74 44.7058 1079.74 46.0426 L1082.29 46.6097 Q1090.23 48.3111 1093.55 51.4303 Q1096.92 54.509 1096.92 60.0587 Q1096.92 66.3781 1091.89 70.0644 Q1086.91 73.7508 1078.16 73.7508 Q1074.51 73.7508 1070.54 73.0216 Q1066.61 72.3329 1062.24 70.9151 L1062.24 63.2184 Q1066.37 65.3654 1070.38 66.4591 Q1074.39 67.5124 1078.32 67.5124 Q1083.59 67.5124 1086.42 65.73 Q1089.26 63.9071 1089.26 60.6258 Q1089.26 57.5877 1087.19 55.9673 Q1085.17 54.3469 1078.24 52.8481 L1075.65 52.2405 Q1068.72 50.7821 1065.64 47.7845 Q1062.56 44.7463 1062.56 39.4801 Q1062.56 33.0797 1067.1 29.5959 Q1071.64 26.1121 1079.98 26.1121 Q1084.11 26.1121 1087.76 26.7198 Q1091.41 27.3274 1094.48 28.5427 Z" fill="#000000" fill-rule="nonzero" fill-opacity="1"></path><path clip-path="url(#clip230)" d="M1135.48 12.096 L1146.5 12.096 L1173.32 62.6918 L1173.32 12.096 L1181.26 12.096 L1181.26 72.576 L1170.24 72.576 L1143.42 21.9802 L1143.42 72.576 L1135.48 72.576 L1135.48 12.096 Z" fill="#000000" fill-rule="nonzero" fill-opacity="1"></path><path clip-path="url(#clip230)" d="M1196.45 54.671 L1196.45 27.2059 L1203.9 27.2059 L1203.9 54.3874 Q1203.9 60.8284 1206.41 64.0691 Q1208.92 67.2693 1213.95 67.2693 Q1219.98 67.2693 1223.47 63.421 Q1226.99 59.5726 1226.99 52.9291 L1226.99 27.2059 L1234.44 27.2059 L1234.44 72.576 L1226.99 72.576 L1226.99 65.6084 Q1224.28 69.7404 1220.67 71.7658 Q1217.11 73.7508 1212.37 73.7508 Q1204.55 73.7508 1200.5 68.8897 Q1196.45 64.0286 1196.45 54.671 M1215.2 26.1121 L1215.2 26.1121 Z" fill="#000000" fill-rule="nonzero" fill-opacity="1"></path><path clip-path="url(#clip230)" d="M1285.12 35.9153 Q1287.92 30.8922 1291.8 28.5022 Q1295.69 26.1121 1300.96 26.1121 Q1308.05 26.1121 1311.9 31.0947 Q1315.75 36.0368 1315.75 45.1919 L1315.75 72.576 L1308.25 72.576 L1308.25 45.4349 Q1308.25 38.913 1305.94 35.7533 Q1303.63 32.5936 1298.89 32.5936 Q1293.1 32.5936 1289.74 36.4419 Q1286.38 40.2903 1286.38 46.9338 L1286.38 72.576 L1278.88 72.576 L1278.88 45.4349 Q1278.88 38.8725 1276.57 35.7533 Q1274.26 32.5936 1269.44 32.5936 Q1263.73 32.5936 1260.37 36.4824 Q1257.01 40.3308 1257.01 46.9338 L1257.01 72.576 L1249.51 72.576 L1249.51 27.2059 L1257.01 27.2059 L1257.01 34.2544 Q1259.56 30.082 1263.12 28.0971 Q1266.69 26.1121 1271.59 26.1121 Q1276.53 26.1121 1279.98 28.6237 Q1283.46 31.1352 1285.12 35.9153 Z" fill="#000000" fill-rule="nonzero" fill-opacity="1"></path><path clip-path="url(#clip230)" d="M1363.18 49.9314 Q1363.18 41.7081 1359.78 37.0496 Q1356.42 32.3505 1350.5 32.3505 Q1344.59 32.3505 1341.18 37.0496 Q1337.82 41.7081 1337.82 49.9314 Q1337.82 58.1548 1341.18 62.8538 Q1344.59 67.5124 1350.5 67.5124 Q1356.42 67.5124 1359.78 62.8538 Q1363.18 58.1548 1363.18 49.9314 M1337.82 34.0924 Q1340.17 30.0415 1343.74 28.0971 Q1347.34 26.1121 1352.32 26.1121 Q1360.59 26.1121 1365.73 32.6746 Q1370.92 39.2371 1370.92 49.9314 Q1370.92 60.6258 1365.73 67.1883 Q1360.59 73.7508 1352.32 73.7508 Q1347.34 73.7508 1343.74 71.8063 Q1340.17 69.8214 1337.82 65.7705 L1337.82 72.576 L1330.33 72.576 L1330.33 9.54393 L1337.82 9.54393 L1337.82 34.0924 Z" fill="#000000" fill-rule="nonzero" fill-opacity="1"></path><path clip-path="url(#clip230)" d="M1422.08 48.0275 L1422.08 51.6733 L1387.81 51.6733 Q1388.3 59.3701 1392.43 63.421 Q1396.6 67.4314 1404.01 67.4314 Q1408.31 67.4314 1412.32 66.3781 Q1416.37 65.3249 1420.34 63.2184 L1420.34 70.267 Q1416.33 71.9684 1412.12 72.8596 Q1407.9 73.7508 1403.57 73.7508 Q1392.71 73.7508 1386.35 67.4314 Q1380.03 61.1119 1380.03 50.3365 Q1380.03 39.1965 1386.03 32.6746 Q1392.06 26.1121 1402.27 26.1121 Q1411.43 26.1121 1416.73 32.0264 Q1422.08 37.9003 1422.08 48.0275 M1414.63 45.84 Q1414.55 39.7232 1411.18 36.0774 Q1407.86 32.4315 1402.35 32.4315 Q1396.12 32.4315 1392.35 35.9558 Q1388.62 39.4801 1388.05 45.8805 L1414.63 45.84 Z" fill="#000000" fill-rule="nonzero" fill-opacity="1"></path><path clip-path="url(#clip230)" d="M1460.61 34.1734 Q1459.35 33.4443 1457.85 33.1202 Q1456.39 32.7556 1454.61 32.7556 Q1448.29 32.7556 1444.89 36.8875 Q1441.53 40.9789 1441.53 48.6757 L1441.53 72.576 L1434.03 72.576 L1434.03 27.2059 L1441.53 27.2059 L1441.53 34.2544 Q1443.88 30.1225 1447.64 28.1376 Q1451.41 26.1121 1456.8 26.1121 Q1457.57 26.1121 1458.5 26.2337 Q1459.43 26.3147 1460.57 26.5172 L1460.61 34.1734 Z" fill="#000000" fill-rule="nonzero" fill-opacity="1"></path><path clip-path="url(#clip230)" d="M1512.38 32.4315 Q1506.38 32.4315 1502.9 37.1306 Q1499.41 41.7891 1499.41 49.9314 Q1499.41 58.0738 1502.86 62.7728 Q1506.34 67.4314 1512.38 67.4314 Q1518.33 67.4314 1521.81 62.7323 Q1525.3 58.0333 1525.3 49.9314 Q1525.3 41.8701 1521.81 37.1711 Q1518.33 32.4315 1512.38 32.4315 M1512.38 26.1121 Q1522.1 26.1121 1527.65 32.4315 Q1533.2 38.7509 1533.2 49.9314 Q1533.2 61.0714 1527.65 67.4314 Q1522.1 73.7508 1512.38 73.7508 Q1502.61 73.7508 1497.06 67.4314 Q1491.55 61.0714 1491.55 49.9314 Q1491.55 38.7509 1497.06 32.4315 Q1502.61 26.1121 1512.38 26.1121 Z" fill="#000000" fill-rule="nonzero" fill-opacity="1"></path><path clip-path="url(#clip230)" d="M1568.52 9.54393 L1568.52 15.7418 L1561.39 15.7418 Q1557.38 15.7418 1555.8 17.3622 Q1554.26 18.9825 1554.26 23.1955 L1554.26 27.2059 L1566.54 27.2059 L1566.54 32.9987 L1554.26 32.9987 L1554.26 72.576 L1546.77 72.576 L1546.77 32.9987 L1539.64 32.9987 L1539.64 27.2059 L1546.77 27.2059 L1546.77 24.0462 Q1546.77 16.471 1550.29 13.0277 Q1553.82 9.54393 1561.47 9.54393 L1568.52 9.54393 Z" fill="#000000" fill-rule="nonzero" fill-opacity="1"></path><path clip-path="url(#clip230)" d="M1630.05 28.5427 L1630.05 35.5912 Q1626.9 33.9709 1623.49 33.1607 Q1620.09 32.3505 1616.44 32.3505 Q1610.89 32.3505 1608.1 34.0519 Q1605.34 35.7533 1605.34 39.156 Q1605.34 41.7486 1607.33 43.2475 Q1609.31 44.7058 1615.31 46.0426 L1617.86 46.6097 Q1625.8 48.3111 1629.12 51.4303 Q1632.49 54.509 1632.49 60.0587 Q1632.49 66.3781 1627.46 70.0644 Q1622.48 73.7508 1613.73 73.7508 Q1610.08 73.7508 1606.11 73.0216 Q1602.18 72.3329 1597.81 70.9151 L1597.81 63.2184 Q1601.94 65.3654 1605.95 66.4591 Q1609.96 67.5124 1613.89 67.5124 Q1619.16 67.5124 1621.99 65.73 Q1624.83 63.9071 1624.83 60.6258 Q1624.83 57.5877 1622.76 55.9673 Q1620.74 54.3469 1613.81 52.8481 L1611.22 52.2405 Q1604.29 50.7821 1601.21 47.7845 Q1598.13 44.7463 1598.13 39.4801 Q1598.13 33.0797 1602.67 29.5959 Q1607.21 26.1121 1615.55 26.1121 Q1619.68 26.1121 1623.33 26.7198 Q1626.98 27.3274 1630.05 28.5427 Z" fill="#000000" fill-rule="nonzero" fill-opacity="1"></path><path clip-path="url(#clip230)" d="M1644.35 27.2059 L1651.81 27.2059 L1651.81 72.576 L1644.35 72.576 L1644.35 27.2059 M1644.35 9.54393 L1651.81 9.54393 L1651.81 18.9825 L1644.35 18.9825 L1644.35 9.54393 Z" fill="#000000" fill-rule="nonzero" fill-opacity="1"></path><path clip-path="url(#clip230)" d="M1674.78 14.324 L1674.78 27.2059 L1690.13 27.2059 L1690.13 32.9987 L1674.78 32.9987 L1674.78 57.6282 Q1674.78 63.1779 1676.28 64.7578 Q1677.82 66.3376 1682.47 66.3376 L1690.13 66.3376 L1690.13 72.576 L1682.47 72.576 Q1673.85 72.576 1670.56 69.3758 Q1667.28 66.1351 1667.28 57.6282 L1667.28 32.9987 L1661.81 32.9987 L1661.81 27.2059 L1667.28 27.2059 L1667.28 14.324 L1674.78 14.324 Z" fill="#000000" fill-rule="nonzero" fill-opacity="1"></path><path clip-path="url(#clip230)" d="M1738.74 48.0275 L1738.74 51.6733 L1704.47 51.6733 Q1704.96 59.3701 1709.09 63.421 Q1713.26 67.4314 1720.67 67.4314 Q1724.97 67.4314 1728.98 66.3781 Q1733.03 65.3249 1737 63.2184 L1737 70.267 Q1732.99 71.9684 1728.78 72.8596 Q1724.56 73.7508 1720.23 73.7508 Q1709.37 73.7508 1703.01 67.4314 Q1696.69 61.1119 1696.69 50.3365 Q1696.69 39.1965 1702.69 32.6746 Q1708.72 26.1121 1718.93 26.1121 Q1728.09 26.1121 1733.39 32.0264 Q1738.74 37.9003 1738.74 48.0275 M1731.29 45.84 Q1731.21 39.7232 1727.84 36.0774 Q1724.52 32.4315 1719.01 32.4315 Q1712.77 32.4315 1709.01 35.9558 Q1705.28 39.4801 1704.71 45.8805 L1731.29 45.84 Z" fill="#000000" fill-rule="nonzero" fill-opacity="1"></path><path clip-path="url(#clip230)" d="M1779.9 28.5427 L1779.9 35.5912 Q1776.74 33.9709 1773.34 33.1607 Q1769.93 32.3505 1766.29 32.3505 Q1760.74 32.3505 1757.94 34.0519 Q1755.19 35.7533 1755.19 39.156 Q1755.19 41.7486 1757.17 43.2475 Q1759.16 44.7058 1765.15 46.0426 L1767.7 46.6097 Q1775.64 48.3111 1778.97 51.4303 Q1782.33 54.509 1782.33 60.0587 Q1782.33 66.3781 1777.31 70.0644 Q1772.32 73.7508 1763.57 73.7508 Q1759.93 73.7508 1755.96 73.0216 Q1752.03 72.3329 1747.65 70.9151 L1747.65 63.2184 Q1751.78 65.3654 1755.79 66.4591 Q1759.81 67.5124 1763.73 67.5124 Q1769 67.5124 1771.84 65.73 Q1774.67 63.9071 1774.67 60.6258 Q1774.67 57.5877 1772.61 55.9673 Q1770.58 54.3469 1763.65 52.8481 L1761.06 52.2405 Q1754.13 50.7821 1751.06 47.7845 Q1747.98 44.7463 1747.98 39.4801 Q1747.98 33.0797 1752.51 29.5959 Q1757.05 26.1121 1765.4 26.1121 Q1769.53 26.1121 1773.17 26.7198 Q1776.82 27.3274 1779.9 28.5427 Z" fill="#000000" fill-rule="nonzero" fill-opacity="1"></path><path clip-path="url(#clip230)" d="M1816.23 27.2059 L1823.69 27.2059 L1833.01 62.6108 L1842.28 27.2059 L1851.07 27.2059 L1860.39 62.6108 L1869.67 27.2059 L1877.12 27.2059 L1865.25 72.576 L1856.46 72.576 L1846.7 35.3887 L1836.89 72.576 L1828.1 72.576 L1816.23 27.2059 Z" fill="#000000" fill-rule="nonzero" fill-opacity="1"></path><path clip-path="url(#clip230)" d="M1888.42 27.2059 L1895.88 27.2059 L1895.88 72.576 L1888.42 72.576 L1888.42 27.2059 M1888.42 9.54393 L1895.88 9.54393 L1895.88 18.9825 L1888.42 18.9825 L1888.42 9.54393 Z" fill="#000000" fill-rule="nonzero" fill-opacity="1"></path><path clip-path="url(#clip230)" d="M1918.84 14.324 L1918.84 27.2059 L1934.2 27.2059 L1934.2 32.9987 L1918.84 32.9987 L1918.84 57.6282 Q1918.84 63.1779 1920.34 64.7578 Q1921.88 66.3376 1926.54 66.3376 L1934.2 66.3376 L1934.2 72.576 L1926.54 72.576 Q1917.91 72.576 1914.63 69.3758 Q1911.35 66.1351 1911.35 57.6282 L1911.35 32.9987 L1905.88 32.9987 L1905.88 27.2059 L1911.35 27.2059 L1911.35 14.324 L1918.84 14.324 Z" fill="#000000" fill-rule="nonzero" fill-opacity="1"></path><path clip-path="url(#clip230)" d="M1981.71 45.1919 L1981.71 72.576 L1974.26 72.576 L1974.26 45.4349 Q1974.26 38.994 1971.75 35.7938 Q1969.24 32.5936 1964.21 32.5936 Q1958.18 32.5936 1954.69 36.4419 Q1951.21 40.2903 1951.21 46.9338 L1951.21 72.576 L1943.72 72.576 L1943.72 9.54393 L1951.21 9.54393 L1951.21 34.2544 Q1953.88 30.163 1957.49 28.1376 Q1961.14 26.1121 1965.87 26.1121 Q1973.69 26.1121 1977.7 30.9732 Q1981.71 35.7938 1981.71 45.1919 Z" fill="#000000" fill-rule="nonzero" fill-opacity="1"></path><path clip-path="url(#clip230)" d="M2014.89 12.096 L2066.05 12.096 L2066.05 18.9825 L2044.58 18.9825 L2044.58 72.576 L2036.36 72.576 L2036.36 18.9825 L2014.89 18.9825 L2014.89 12.096 Z" fill="#000000" fill-rule="nonzero" fill-opacity="1"></path><path clip-path="url(#clip230)" d="M2074.6 34.9026 L2126.53 34.9026 L2126.53 41.7081 L2074.6 41.7081 L2074.6 34.9026 M2074.6 51.4303 L2126.53 51.4303 L2126.53 58.3168 L2074.6 58.3168 L2074.6 51.4303 Z" fill="#000000" fill-rule="nonzero" fill-opacity="1"></path><path clip-path="url(#clip230)" d="M2161.7 17.4837 Q2155.38 17.4837 2152.18 23.7221 Q2149.02 29.92 2149.02 42.3968 Q2149.02 54.833 2152.18 61.0714 Q2155.38 67.2693 2161.7 67.2693 Q2168.06 67.2693 2171.22 61.0714 Q2174.42 54.833 2174.42 42.3968 Q2174.42 29.92 2171.22 23.7221 Q2168.06 17.4837 2161.7 17.4837 M2161.7 11.0023 Q2171.86 11.0023 2177.21 19.0636 Q2182.6 27.0843 2182.6 42.3968 Q2182.6 57.6687 2177.21 65.73 Q2171.86 73.7508 2161.7 73.7508 Q2151.53 73.7508 2146.14 65.73 Q2140.79 57.6687 2140.79 42.3968 Q2140.79 27.0843 2146.14 19.0636 Q2151.53 11.0023 2161.7 11.0023 Z" fill="#000000" fill-rule="nonzero" fill-opacity="1"></path><path clip-path="url(#clip230)" d="M2196.98 62.2867 L2205.53 62.2867 L2205.53 72.576 L2196.98 72.576 L2196.98 62.2867 Z" fill="#000000" fill-rule="nonzero" fill-opacity="1"></path><path clip-path="url(#clip230)" d="M2224.77 65.6895 L2238.14 65.6895 L2238.14 19.5497 L2223.59 22.4663 L2223.59 15.0127 L2238.06 12.096 L2246.24 12.096 L2246.24 65.6895 L2259.61 65.6895 L2259.61 72.576 L2224.77 72.576 L2224.77 65.6895 Z" fill="#000000" fill-rule="nonzero" fill-opacity="1"></path><polyline clip-path="url(#clip232)" style="stroke:#009af9; stroke-linecap:round; stroke-linejoin:round; stroke-width:4; stroke-opacity:1; fill:none" points="478.863,1254.78 758.757,1321.74 1038.65,1321.74 1318.55,1363.3 1598.44,1156.64 1878.33,1123.16 2158.23,1386.4 "></polyline>
<polyline clip-path="url(#clip232)" style="stroke:#e26f46; stroke-linecap:round; stroke-linejoin:round; stroke-width:4; stroke-opacity:1; fill:none" points="478.863,1314.81 758.757,1384.09 1038.65,1356.38 1318.55,1312.5 1598.44,1203.98 1878.33,265.321 2158.23,160.256 "></polyline>
<polyline clip-path="url(#clip232)" style="stroke:#3da44d; stroke-linecap:round; stroke-linejoin:round; stroke-width:4; stroke-opacity:1; fill:none" points="618.81,1351.76 1038.65,1319.43 1458.49,1143.94 1878.33,1372.54 2298.18,1347.14 "></polyline>
<path clip-path="url(#clip230)" d="M488.566 374.156 L908.819 374.156 L908.819 166.796 L488.566 166.796  Z" fill="#ffffff" fill-rule="evenodd" fill-opacity="1"></path>
<polyline clip-path="url(#clip230)" style="stroke:#000000; stroke-linecap:round; stroke-linejoin:round; stroke-width:4; stroke-opacity:1; fill:none" points="488.566,374.156 908.819,374.156 908.819,166.796 488.566,166.796 488.566,374.156 "></polyline>
<polyline clip-path="url(#clip230)" style="stroke:#009af9; stroke-linecap:round; stroke-linejoin:round; stroke-width:4; stroke-opacity:1; fill:none" points="509.993,218.636 638.558,218.636 "></polyline>
<path clip-path="url(#clip230)" d="M667.393 202.629 L667.393 209.99 L676.166 209.99 L676.166 213.3 L667.393 213.3 L667.393 227.374 Q667.393 230.545 668.25 231.448 Q669.129 232.351 671.791 232.351 L676.166 232.351 L676.166 235.916 L671.791 235.916 Q666.861 235.916 664.986 234.087 Q663.111 232.235 663.111 227.374 L663.111 213.3 L659.986 213.3 L659.986 209.99 L663.111 209.99 L663.111 202.629 L667.393 202.629 Z" fill="#000000" fill-rule="nonzero" fill-opacity="1"></path><path clip-path="url(#clip230)" d="M696.791 213.971 Q696.074 213.555 695.217 213.37 Q694.384 213.161 693.365 213.161 Q689.754 213.161 687.81 215.522 Q685.888 217.86 685.888 222.258 L685.888 235.916 L681.606 235.916 L681.606 209.99 L685.888 209.99 L685.888 214.018 Q687.231 211.657 689.384 210.522 Q691.537 209.365 694.615 209.365 Q695.055 209.365 695.587 209.434 Q696.12 209.481 696.768 209.596 L696.791 213.971 Z" fill="#000000" fill-rule="nonzero" fill-opacity="1"></path><path clip-path="url(#clip230)" d="M701.259 209.99 L705.518 209.99 L705.518 235.916 L701.259 235.916 L701.259 209.99 M701.259 199.897 L705.518 199.897 L705.518 205.291 L701.259 205.291 L701.259 199.897 Z" fill="#000000" fill-rule="nonzero" fill-opacity="1"></path><path clip-path="url(#clip230)" d="M726.212 222.883 Q721.05 222.883 719.06 224.064 Q717.069 225.244 717.069 228.092 Q717.069 230.36 718.55 231.703 Q720.055 233.022 722.624 233.022 Q726.166 233.022 728.296 230.522 Q730.448 227.999 730.448 223.832 L730.448 222.883 L726.212 222.883 M734.708 221.124 L734.708 235.916 L730.448 235.916 L730.448 231.981 Q728.99 234.342 726.814 235.476 Q724.638 236.587 721.49 236.587 Q717.509 236.587 715.147 234.365 Q712.81 232.119 712.81 228.369 Q712.81 223.994 715.726 221.772 Q718.666 219.55 724.476 219.55 L730.448 219.55 L730.448 219.133 Q730.448 216.194 728.504 214.596 Q726.583 212.976 723.087 212.976 Q720.865 212.976 718.759 213.508 Q716.652 214.041 714.708 215.106 L714.708 211.17 Q717.046 210.268 719.245 209.828 Q721.444 209.365 723.527 209.365 Q729.152 209.365 731.93 212.282 Q734.708 215.198 734.708 221.124 Z" fill="#000000" fill-rule="nonzero" fill-opacity="1"></path><path clip-path="url(#clip230)" d="M765.031 220.268 L765.031 235.916 L760.772 235.916 L760.772 220.407 Q760.772 216.726 759.337 214.897 Q757.902 213.069 755.032 213.069 Q751.582 213.069 749.592 215.268 Q747.601 217.467 747.601 221.263 L747.601 235.916 L743.319 235.916 L743.319 209.99 L747.601 209.99 L747.601 214.018 Q749.129 211.68 751.189 210.522 Q753.272 209.365 755.981 209.365 Q760.448 209.365 762.74 212.143 Q765.031 214.897 765.031 220.268 Z" fill="#000000" fill-rule="nonzero" fill-opacity="1"></path><path clip-path="url(#clip230)" d="M790.587 222.652 Q790.587 218.022 788.666 215.476 Q786.767 212.93 783.318 212.93 Q779.893 212.93 777.971 215.476 Q776.073 218.022 776.073 222.652 Q776.073 227.258 777.971 229.805 Q779.893 232.351 783.318 232.351 Q786.767 232.351 788.666 229.805 Q790.587 227.258 790.587 222.652 M794.846 232.698 Q794.846 239.318 791.906 242.536 Q788.967 245.777 782.902 245.777 Q780.656 245.777 778.666 245.43 Q776.675 245.105 774.8 244.411 L774.8 240.268 Q776.675 241.286 778.504 241.772 Q780.332 242.258 782.23 242.258 Q786.42 242.258 788.504 240.059 Q790.587 237.883 790.587 233.462 L790.587 231.356 Q789.267 233.647 787.207 234.781 Q785.147 235.916 782.277 235.916 Q777.508 235.916 774.592 232.281 Q771.675 228.647 771.675 222.652 Q771.675 216.633 774.592 212.999 Q777.508 209.365 782.277 209.365 Q785.147 209.365 787.207 210.499 Q789.267 211.633 790.587 213.925 L790.587 209.99 L794.846 209.99 L794.846 232.698 Z" fill="#000000" fill-rule="nonzero" fill-opacity="1"></path><path clip-path="url(#clip230)" d="M803.619 199.897 L807.878 199.897 L807.878 235.916 L803.619 235.916 L803.619 199.897 Z" fill="#000000" fill-rule="nonzero" fill-opacity="1"></path><path clip-path="url(#clip230)" d="M838.966 221.888 L838.966 223.971 L819.383 223.971 Q819.661 228.369 822.022 230.684 Q824.406 232.976 828.642 232.976 Q831.096 232.976 833.388 232.374 Q835.702 231.772 837.971 230.569 L837.971 234.596 Q835.679 235.568 833.272 236.078 Q830.864 236.587 828.388 236.587 Q822.184 236.587 818.55 232.976 Q814.939 229.365 814.939 223.207 Q814.939 216.842 818.365 213.115 Q821.814 209.365 827.647 209.365 Q832.878 209.365 835.911 212.745 Q838.966 216.101 838.966 221.888 M834.707 220.638 Q834.661 217.143 832.739 215.059 Q830.841 212.976 827.693 212.976 Q824.128 212.976 821.976 214.99 Q819.846 217.004 819.522 220.661 L834.707 220.638 Z" fill="#000000" fill-rule="nonzero" fill-opacity="1"></path><path clip-path="url(#clip230)" d="M862.485 210.754 L862.485 214.782 Q860.679 213.856 858.735 213.393 Q856.79 212.93 854.707 212.93 Q851.536 212.93 849.938 213.902 Q848.364 214.874 848.364 216.819 Q848.364 218.3 849.499 219.157 Q850.633 219.99 854.059 220.754 L855.517 221.078 Q860.054 222.05 861.952 223.832 Q863.874 225.592 863.874 228.763 Q863.874 232.374 861.003 234.481 Q858.156 236.587 853.156 236.587 Q851.073 236.587 848.804 236.17 Q846.559 235.777 844.059 234.967 L844.059 230.569 Q846.42 231.795 848.712 232.42 Q851.003 233.022 853.249 233.022 Q856.258 233.022 857.878 232.004 Q859.499 230.962 859.499 229.087 Q859.499 227.351 858.318 226.425 Q857.161 225.499 853.202 224.643 L851.721 224.295 Q847.763 223.462 846.003 221.749 Q844.244 220.013 844.244 217.004 Q844.244 213.346 846.837 211.356 Q849.429 209.365 854.198 209.365 Q856.559 209.365 858.642 209.712 Q860.725 210.059 862.485 210.754 Z" fill="#000000" fill-rule="nonzero" fill-opacity="1"></path><polyline clip-path="url(#clip230)" style="stroke:#e26f46; stroke-linecap:round; stroke-linejoin:round; stroke-width:4; stroke-opacity:1; fill:none" points="509.993,270.476 638.558,270.476 "></polyline>
<path clip-path="url(#clip230)" d="M678.412 262.594 L678.412 266.622 Q676.606 265.696 674.662 265.233 Q672.717 264.77 670.634 264.77 Q667.463 264.77 665.865 265.742 Q664.291 266.714 664.291 268.659 Q664.291 270.14 665.426 270.997 Q666.56 271.83 669.986 272.594 L671.444 272.918 Q675.981 273.89 677.879 275.672 Q679.8 277.432 679.8 280.603 Q679.8 284.214 676.93 286.321 Q674.083 288.427 669.083 288.427 Q667 288.427 664.731 288.01 Q662.486 287.617 659.986 286.807 L659.986 282.409 Q662.347 283.635 664.639 284.26 Q666.93 284.862 669.176 284.862 Q672.185 284.862 673.805 283.844 Q675.425 282.802 675.425 280.927 Q675.425 279.191 674.245 278.265 Q673.088 277.339 669.129 276.483 L667.648 276.135 Q663.689 275.302 661.93 273.589 Q660.171 271.853 660.171 268.844 Q660.171 265.186 662.764 263.196 Q665.356 261.205 670.125 261.205 Q672.486 261.205 674.569 261.552 Q676.652 261.899 678.412 262.594 Z" fill="#000000" fill-rule="nonzero" fill-opacity="1"></path><path clip-path="url(#clip230)" d="M689.129 274.816 Q689.129 279.515 691.05 282.2 Q692.995 284.862 696.374 284.862 Q699.754 284.862 701.698 282.2 Q703.643 279.515 703.643 274.816 Q703.643 270.117 701.698 267.455 Q699.754 264.77 696.374 264.77 Q692.995 264.77 691.05 267.455 Q689.129 270.117 689.129 274.816 M703.643 283.867 Q702.3 286.182 700.24 287.316 Q698.203 288.427 695.333 288.427 Q690.634 288.427 687.671 284.677 Q684.731 280.927 684.731 274.816 Q684.731 268.705 687.671 264.955 Q690.634 261.205 695.333 261.205 Q698.203 261.205 700.24 262.339 Q702.3 263.45 703.643 265.765 L703.643 261.83 L707.902 261.83 L707.902 297.617 L703.643 297.617 L703.643 283.867 Z" fill="#000000" fill-rule="nonzero" fill-opacity="1"></path><path clip-path="url(#clip230)" d="M716.235 277.524 L716.235 261.83 L720.495 261.83 L720.495 277.362 Q720.495 281.043 721.93 282.895 Q723.365 284.723 726.235 284.723 Q729.684 284.723 731.675 282.524 Q733.689 280.325 733.689 276.529 L733.689 261.83 L737.948 261.83 L737.948 287.756 L733.689 287.756 L733.689 283.774 Q732.138 286.135 730.078 287.293 Q728.041 288.427 725.333 288.427 Q720.865 288.427 718.55 285.649 Q716.235 282.871 716.235 277.524 M726.953 261.205 L726.953 261.205 Z" fill="#000000" fill-rule="nonzero" fill-opacity="1"></path><path clip-path="url(#clip230)" d="M758.504 274.723 Q753.342 274.723 751.351 275.904 Q749.36 277.084 749.36 279.932 Q749.36 282.2 750.842 283.543 Q752.346 284.862 754.916 284.862 Q758.457 284.862 760.587 282.362 Q762.74 279.839 762.74 275.672 L762.74 274.723 L758.504 274.723 M766.999 272.964 L766.999 287.756 L762.74 287.756 L762.74 283.821 Q761.282 286.182 759.106 287.316 Q756.93 288.427 753.782 288.427 Q749.8 288.427 747.439 286.205 Q745.101 283.959 745.101 280.209 Q745.101 275.834 748.018 273.612 Q750.957 271.39 756.768 271.39 L762.74 271.39 L762.74 270.973 Q762.74 268.034 760.795 266.436 Q758.874 264.816 755.379 264.816 Q753.157 264.816 751.05 265.348 Q748.944 265.881 746.999 266.946 L746.999 263.01 Q749.337 262.108 751.536 261.668 Q753.735 261.205 755.819 261.205 Q761.444 261.205 764.221 264.122 Q766.999 267.038 766.999 272.964 Z" fill="#000000" fill-rule="nonzero" fill-opacity="1"></path><path clip-path="url(#clip230)" d="M790.795 265.811 Q790.078 265.395 789.221 265.21 Q788.388 265.001 787.369 265.001 Q783.758 265.001 781.814 267.362 Q779.893 269.7 779.893 274.098 L779.893 287.756 L775.61 287.756 L775.61 261.83 L779.893 261.83 L779.893 265.858 Q781.235 263.497 783.388 262.362 Q785.541 261.205 788.619 261.205 Q789.059 261.205 789.592 261.274 Q790.124 261.321 790.772 261.436 L790.795 265.811 Z" fill="#000000" fill-rule="nonzero" fill-opacity="1"></path><path clip-path="url(#clip230)" d="M816.397 273.728 L816.397 275.811 L796.814 275.811 Q797.091 280.209 799.453 282.524 Q801.837 284.816 806.073 284.816 Q808.527 284.816 810.818 284.214 Q813.133 283.612 815.402 282.409 L815.402 286.436 Q813.11 287.408 810.703 287.918 Q808.295 288.427 805.818 288.427 Q799.615 288.427 795.98 284.816 Q792.369 281.205 792.369 275.047 Q792.369 268.682 795.795 264.955 Q799.244 261.205 805.078 261.205 Q810.309 261.205 813.341 264.585 Q816.397 267.941 816.397 273.728 M812.138 272.478 Q812.091 268.983 810.17 266.899 Q808.272 264.816 805.124 264.816 Q801.559 264.816 799.406 266.83 Q797.277 268.844 796.953 272.501 L812.138 272.478 Z" fill="#000000" fill-rule="nonzero" fill-opacity="1"></path><path clip-path="url(#clip230)" d="M839.915 262.594 L839.915 266.622 Q838.11 265.696 836.165 265.233 Q834.221 264.77 832.138 264.77 Q828.966 264.77 827.369 265.742 Q825.795 266.714 825.795 268.659 Q825.795 270.14 826.929 270.997 Q828.064 271.83 831.489 272.594 L832.948 272.918 Q837.485 273.89 839.383 275.672 Q841.304 277.432 841.304 280.603 Q841.304 284.214 838.434 286.321 Q835.587 288.427 830.587 288.427 Q828.503 288.427 826.235 288.01 Q823.989 287.617 821.49 286.807 L821.49 282.409 Q823.851 283.635 826.142 284.26 Q828.434 284.862 830.679 284.862 Q833.689 284.862 835.309 283.844 Q836.929 282.802 836.929 280.927 Q836.929 279.191 835.749 278.265 Q834.591 277.339 830.633 276.483 L829.152 276.135 Q825.193 275.302 823.434 273.589 Q821.675 271.853 821.675 268.844 Q821.675 265.186 824.267 263.196 Q826.86 261.205 831.628 261.205 Q833.989 261.205 836.073 261.552 Q838.156 261.899 839.915 262.594 Z" fill="#000000" fill-rule="nonzero" fill-opacity="1"></path><polyline clip-path="url(#clip230)" style="stroke:#3da44d; stroke-linecap:round; stroke-linejoin:round; stroke-width:4; stroke-opacity:1; fill:none" points="509.993,322.316 638.558,322.316 "></polyline>
<path clip-path="url(#clip230)" d="M678.898 317.605 L678.898 303.577 L683.157 303.577 L683.157 339.596 L678.898 339.596 L678.898 335.707 Q677.555 338.022 675.495 339.156 Q673.458 340.267 670.588 340.267 Q665.888 340.267 662.926 336.517 Q659.986 332.767 659.986 326.656 Q659.986 320.545 662.926 316.795 Q665.888 313.045 670.588 313.045 Q673.458 313.045 675.495 314.179 Q677.555 315.29 678.898 317.605 M664.384 326.656 Q664.384 331.355 666.305 334.04 Q668.25 336.702 671.629 336.702 Q675.009 336.702 676.953 334.04 Q678.898 331.355 678.898 326.656 Q678.898 321.957 676.953 319.295 Q675.009 316.61 671.629 316.61 Q668.25 316.61 666.305 319.295 Q664.384 321.957 664.384 326.656 Z" fill="#000000" fill-rule="nonzero" fill-opacity="1"></path><path clip-path="url(#clip230)" d="M691.93 313.67 L696.189 313.67 L696.189 339.596 L691.93 339.596 L691.93 313.67 M691.93 303.577 L696.189 303.577 L696.189 308.971 L691.93 308.971 L691.93 303.577 Z" fill="#000000" fill-rule="nonzero" fill-opacity="1"></path><path clip-path="url(#clip230)" d="M716.884 326.563 Q711.722 326.563 709.731 327.744 Q707.74 328.924 707.74 331.772 Q707.74 334.04 709.222 335.383 Q710.726 336.702 713.296 336.702 Q716.837 336.702 718.967 334.202 Q721.12 331.679 721.12 327.512 L721.12 326.563 L716.884 326.563 M725.379 324.804 L725.379 339.596 L721.12 339.596 L721.12 335.661 Q719.661 338.022 717.485 339.156 Q715.31 340.267 712.161 340.267 Q708.18 340.267 705.819 338.045 Q703.481 335.799 703.481 332.049 Q703.481 327.674 706.398 325.452 Q709.337 323.23 715.147 323.23 L721.12 323.23 L721.12 322.813 Q721.12 319.874 719.175 318.276 Q717.254 316.656 713.759 316.656 Q711.536 316.656 709.43 317.188 Q707.323 317.721 705.379 318.786 L705.379 314.85 Q707.717 313.948 709.916 313.508 Q712.115 313.045 714.198 313.045 Q719.823 313.045 722.601 315.962 Q725.379 318.878 725.379 324.804 Z" fill="#000000" fill-rule="nonzero" fill-opacity="1"></path><path clip-path="url(#clip230)" d="M754.337 318.647 Q755.934 315.776 758.157 314.411 Q760.379 313.045 763.388 313.045 Q767.439 313.045 769.638 315.892 Q771.837 318.716 771.837 323.948 L771.837 339.596 L767.555 339.596 L767.555 324.087 Q767.555 320.36 766.235 318.554 Q764.916 316.749 762.207 316.749 Q758.897 316.749 756.976 318.948 Q755.055 321.147 755.055 324.943 L755.055 339.596 L750.772 339.596 L750.772 324.087 Q750.772 320.337 749.453 318.554 Q748.133 316.749 745.379 316.749 Q742.115 316.749 740.194 318.971 Q738.272 321.17 738.272 324.943 L738.272 339.596 L733.99 339.596 L733.99 313.67 L738.272 313.67 L738.272 317.698 Q739.731 315.313 741.768 314.179 Q743.805 313.045 746.606 313.045 Q749.43 313.045 751.397 314.48 Q753.388 315.915 754.337 318.647 Z" fill="#000000" fill-rule="nonzero" fill-opacity="1"></path><path clip-path="url(#clip230)" d="M790.379 316.656 Q786.953 316.656 784.962 319.341 Q782.971 322.003 782.971 326.656 Q782.971 331.309 784.939 333.994 Q786.93 336.656 790.379 336.656 Q793.781 336.656 795.772 333.971 Q797.763 331.286 797.763 326.656 Q797.763 322.05 795.772 319.364 Q793.781 316.656 790.379 316.656 M790.379 313.045 Q795.934 313.045 799.105 316.656 Q802.277 320.267 802.277 326.656 Q802.277 333.022 799.105 336.656 Q795.934 340.267 790.379 340.267 Q784.8 340.267 781.629 336.656 Q778.48 333.022 778.48 326.656 Q778.48 320.267 781.629 316.656 Q784.8 313.045 790.379 313.045 Z" fill="#000000" fill-rule="nonzero" fill-opacity="1"></path><path clip-path="url(#clip230)" d="M830.888 323.948 L830.888 339.596 L826.628 339.596 L826.628 324.087 Q826.628 320.406 825.193 318.577 Q823.758 316.749 820.888 316.749 Q817.439 316.749 815.448 318.948 Q813.457 321.147 813.457 324.943 L813.457 339.596 L809.175 339.596 L809.175 313.67 L813.457 313.67 L813.457 317.698 Q814.985 315.36 817.045 314.202 Q819.128 313.045 821.837 313.045 Q826.304 313.045 828.596 315.823 Q830.888 318.577 830.888 323.948 Z" fill="#000000" fill-rule="nonzero" fill-opacity="1"></path><path clip-path="url(#clip230)" d="M856.443 317.605 L856.443 303.577 L860.702 303.577 L860.702 339.596 L856.443 339.596 L856.443 335.707 Q855.1 338.022 853.04 339.156 Q851.003 340.267 848.133 340.267 Q843.434 340.267 840.471 336.517 Q837.531 332.767 837.531 326.656 Q837.531 320.545 840.471 316.795 Q843.434 313.045 848.133 313.045 Q851.003 313.045 853.04 314.179 Q855.1 315.29 856.443 317.605 M841.929 326.656 Q841.929 331.355 843.851 334.04 Q845.795 336.702 849.175 336.702 Q852.554 336.702 854.499 334.04 Q856.443 331.355 856.443 326.656 Q856.443 321.957 854.499 319.295 Q852.554 316.61 849.175 316.61 Q845.795 316.61 843.851 319.295 Q841.929 321.957 841.929 326.656 Z" fill="#000000" fill-rule="nonzero" fill-opacity="1"></path><path clip-path="url(#clip230)" d="M886.003 314.434 L886.003 318.462 Q884.198 317.536 882.253 317.073 Q880.309 316.61 878.225 316.61 Q875.054 316.61 873.457 317.582 Q871.883 318.554 871.883 320.499 Q871.883 321.98 873.017 322.837 Q874.151 323.67 877.577 324.434 L879.035 324.758 Q883.573 325.73 885.471 327.512 Q887.392 329.272 887.392 332.443 Q887.392 336.054 884.522 338.161 Q881.674 340.267 876.674 340.267 Q874.591 340.267 872.323 339.85 Q870.077 339.457 867.577 338.647 L867.577 334.249 Q869.938 335.475 872.23 336.1 Q874.522 336.702 876.767 336.702 Q879.776 336.702 881.397 335.684 Q883.017 334.642 883.017 332.767 Q883.017 331.031 881.836 330.105 Q880.679 329.179 876.721 328.323 L875.239 327.975 Q871.281 327.142 869.522 325.429 Q867.762 323.693 867.762 320.684 Q867.762 317.026 870.355 315.036 Q872.948 313.045 877.716 313.045 Q880.077 313.045 882.16 313.392 Q884.244 313.739 886.003 314.434 Z" fill="#000000" fill-rule="nonzero" fill-opacity="1"></path></svg>