<svg xmlns="http://www.w3.org/2000/svg" xmlns:xlink="http://www.w3.org/1999/xlink" width="600" height="400" viewBox="0 0 2400 1600">
<defs>
  <clipPath id="clip060">
    <rect x="0" y="0" width="2400" height="1600"></rect>
  </clipPath>
</defs>
<path clip-path="url(#clip060)" d="M0 1600 L2400 1600 L2400 8.88178e-14 L0 8.88178e-14  Z" fill="#ffffff" fill-rule="evenodd" fill-opacity="1"></path>
<defs>
  <clipPath id="clip061">
    <rect x="480" y="0" width="1681" height="1600"></rect>
  </clipPath>
</defs>
<path clip-path="url(#clip060)" d="M219.38 1423.18 L2352.76 1423.18 L2352.76 123.472 L219.38 123.472  Z" fill="#ffffff" fill-rule="evenodd" fill-opacity="1"></path>
<defs>
  <clipPath id="clip062">
    <rect x="219" y="123" width="2134" height="1301"></rect>
  </clipPath>
</defs>
<polyline clip-path="url(#clip062)" style="stroke:#000000; stroke-linecap:round; stroke-linejoin:round; stroke-width:2; stroke-opacity:0.1; fill:none" points="703.468,1423.18 703.468,123.472 "></polyline>
<polyline clip-path="url(#clip062)" style="stroke:#000000; stroke-linecap:round; stroke-linejoin:round; stroke-width:2; stroke-opacity:0.1; fill:none" points="1233.1,1423.18 1233.1,123.472 "></polyline>
<polyline clip-path="url(#clip062)" style="stroke:#000000; stroke-linecap:round; stroke-linejoin:round; stroke-width:2; stroke-opacity:0.1; fill:none" points="1762.74,1423.18 1762.74,123.472 "></polyline>
<polyline clip-path="url(#clip062)" style="stroke:#000000; stroke-linecap:round; stroke-linejoin:round; stroke-width:2; stroke-opacity:0.1; fill:none" points="2292.38,1423.18 2292.38,123.472 "></polyline>
<polyline clip-path="url(#clip062)" style="stroke:#000000; stroke-linecap:round; stroke-linejoin:round; stroke-width:2; stroke-opacity:0.1; fill:none" points="219.38,1391.73 2352.76,1391.73 "></polyline>
<polyline clip-path="url(#clip062)" style="stroke:#000000; stroke-linecap:round; stroke-linejoin:round; stroke-width:2; stroke-opacity:0.1; fill:none" points="219.38,1131.36 2352.76,1131.36 "></polyline>
<polyline clip-path="url(#clip062)" style="stroke:#000000; stroke-linecap:round; stroke-linejoin:round; stroke-width:2; stroke-opacity:0.1; fill:none" points="219.38,870.982 2352.76,870.982 "></polyline>
<polyline clip-path="url(#clip062)" style="stroke:#000000; stroke-linecap:round; stroke-linejoin:round; stroke-width:2; stroke-opacity:0.1; fill:none" points="219.38,610.609 2352.76,610.609 "></polyline>
<polyline clip-path="url(#clip062)" style="stroke:#000000; stroke-linecap:round; stroke-linejoin:round; stroke-width:2; stroke-opacity:0.1; fill:none" points="219.38,350.235 2352.76,350.235 "></polyline>
<polyline clip-path="url(#clip060)" style="stroke:#000000; stroke-linecap:round; stroke-linejoin:round; stroke-width:4; stroke-opacity:1; fill:none" points="219.38,1423.18 2352.76,1423.18 "></polyline>
<polyline clip-path="url(#clip060)" style="stroke:#000000; stroke-linecap:round; stroke-linejoin:round; stroke-width:4; stroke-opacity:1; fill:none" points="703.468,1423.18 703.468,1404.28 "></polyline>
<polyline clip-path="url(#clip060)" style="stroke:#000000; stroke-linecap:round; stroke-linejoin:round; stroke-width:4; stroke-opacity:1; fill:none" points="1233.1,1423.18 1233.1,1404.28 "></polyline>
<polyline clip-path="url(#clip060)" style="stroke:#000000; stroke-linecap:round; stroke-linejoin:round; stroke-width:4; stroke-opacity:1; fill:none" points="1762.74,1423.18 1762.74,1404.28 "></polyline>
<polyline clip-path="url(#clip060)" style="stroke:#000000; stroke-linecap:round; stroke-linejoin:round; stroke-width:4; stroke-opacity:1; fill:none" points="2292.38,1423.18 2292.38,1404.28 "></polyline>
<path clip-path="url(#clip060)" d="M681.35 1454.1 Q677.739 1454.1 675.91 1457.66 Q674.105 1461.2 674.105 1468.33 Q674.105 1475.44 675.91 1479.01 Q677.739 1482.55 681.35 1482.55 Q684.984 1482.55 686.79 1479.01 Q688.618 1475.44 688.618 1468.33 Q688.618 1461.2 686.79 1457.66 Q684.984 1454.1 681.35 1454.1 M681.35 1450.39 Q687.16 1450.39 690.216 1455 Q693.294 1459.58 693.294 1468.33 Q693.294 1477.06 690.216 1481.67 Q687.16 1486.25 681.35 1486.25 Q675.54 1486.25 672.461 1481.67 Q669.406 1477.06 669.406 1468.33 Q669.406 1459.58 672.461 1455 Q675.54 1450.39 681.35 1450.39 Z" fill="#000000" fill-rule="nonzero" fill-opacity="1"></path><path clip-path="url(#clip060)" d="M701.512 1479.7 L706.396 1479.7 L706.396 1485.58 L701.512 1485.58 L701.512 1479.7 Z" fill="#000000" fill-rule="nonzero" fill-opacity="1"></path><path clip-path="url(#clip060)" d="M716.628 1451.02 L734.984 1451.02 L734.984 1454.96 L720.91 1454.96 L720.91 1463.43 Q721.928 1463.08 722.947 1462.92 Q723.965 1462.73 724.984 1462.73 Q730.771 1462.73 734.151 1465.9 Q737.53 1469.08 737.53 1474.49 Q737.53 1480.07 734.058 1483.17 Q730.586 1486.25 724.266 1486.25 Q722.09 1486.25 719.822 1485.88 Q717.577 1485.51 715.169 1484.77 L715.169 1480.07 Q717.253 1481.2 719.475 1481.76 Q721.697 1482.32 724.174 1482.32 Q728.178 1482.32 730.516 1480.21 Q732.854 1478.1 732.854 1474.49 Q732.854 1470.88 730.516 1468.77 Q728.178 1466.67 724.174 1466.67 Q722.299 1466.67 720.424 1467.08 Q718.572 1467.5 716.628 1468.38 L716.628 1451.02 Z" fill="#000000" fill-rule="nonzero" fill-opacity="1"></path><path clip-path="url(#clip060)" d="M1200.26 1481.64 L1207.9 1481.64 L1207.9 1455.28 L1199.59 1456.95 L1199.59 1452.69 L1207.85 1451.02 L1212.53 1451.02 L1212.53 1481.64 L1220.16 1481.64 L1220.16 1485.58 L1200.26 1485.58 L1200.26 1481.64 Z" fill="#000000" fill-rule="nonzero" fill-opacity="1"></path><path clip-path="url(#clip060)" d="M1229.61 1479.7 L1234.49 1479.7 L1234.49 1485.58 L1229.61 1485.58 L1229.61 1479.7 Z" fill="#000000" fill-rule="nonzero" fill-opacity="1"></path><path clip-path="url(#clip060)" d="M1254.68 1454.1 Q1251.07 1454.1 1249.24 1457.66 Q1247.43 1461.2 1247.43 1468.33 Q1247.43 1475.44 1249.24 1479.01 Q1251.07 1482.55 1254.68 1482.55 Q1258.31 1482.55 1260.12 1479.01 Q1261.95 1475.44 1261.95 1468.33 Q1261.95 1461.2 1260.12 1457.66 Q1258.31 1454.1 1254.68 1454.1 M1254.68 1450.39 Q1260.49 1450.39 1263.54 1455 Q1266.62 1459.58 1266.62 1468.33 Q1266.62 1477.06 1263.54 1481.67 Q1260.49 1486.25 1254.68 1486.25 Q1248.87 1486.25 1245.79 1481.67 Q1242.73 1477.06 1242.73 1468.33 Q1242.73 1459.58 1245.79 1455 Q1248.87 1450.39 1254.68 1450.39 Z" fill="#000000" fill-rule="nonzero" fill-opacity="1"></path><path clip-path="url(#clip060)" d="M1730.39 1481.64 L1738.03 1481.64 L1738.03 1455.28 L1729.72 1456.95 L1729.72 1452.69 L1737.98 1451.02 L1742.66 1451.02 L1742.66 1481.64 L1750.3 1481.64 L1750.3 1485.58 L1730.39 1485.58 L1730.39 1481.64 Z" fill="#000000" fill-rule="nonzero" fill-opacity="1"></path><path clip-path="url(#clip060)" d="M1759.74 1479.7 L1764.63 1479.7 L1764.63 1485.58 L1759.74 1485.58 L1759.74 1479.7 Z" fill="#000000" fill-rule="nonzero" fill-opacity="1"></path><path clip-path="url(#clip060)" d="M1774.86 1451.02 L1793.22 1451.02 L1793.22 1454.96 L1779.14 1454.96 L1779.14 1463.43 Q1780.16 1463.08 1781.18 1462.92 Q1782.2 1462.73 1783.22 1462.73 Q1789 1462.73 1792.38 1465.9 Q1795.76 1469.08 1795.76 1474.49 Q1795.76 1480.07 1792.29 1483.17 Q1788.82 1486.25 1782.5 1486.25 Q1780.32 1486.25 1778.05 1485.88 Q1775.81 1485.51 1773.4 1484.77 L1773.4 1480.07 Q1775.48 1481.2 1777.71 1481.76 Q1779.93 1482.32 1782.41 1482.32 Q1786.41 1482.32 1788.75 1480.21 Q1791.09 1478.1 1791.09 1474.49 Q1791.09 1470.88 1788.75 1468.77 Q1786.41 1466.67 1782.41 1466.67 Q1780.53 1466.67 1778.66 1467.08 Q1776.8 1467.5 1774.86 1468.38 L1774.86 1451.02 Z" fill="#000000" fill-rule="nonzero" fill-opacity="1"></path><path clip-path="url(#clip060)" d="M2263.62 1481.64 L2279.94 1481.64 L2279.94 1485.58 L2257.99 1485.58 L2257.99 1481.64 Q2260.65 1478.89 2265.24 1474.26 Q2269.84 1469.61 2271.02 1468.27 Q2273.27 1465.74 2274.15 1464.01 Q2275.05 1462.25 2275.05 1460.56 Q2275.05 1457.8 2273.11 1456.07 Q2271.19 1454.33 2268.08 1454.33 Q2265.88 1454.33 2263.43 1455.09 Q2261 1455.86 2258.22 1457.41 L2258.22 1452.69 Q2261.05 1451.55 2263.5 1450.97 Q2265.95 1450.39 2267.99 1450.39 Q2273.36 1450.39 2276.56 1453.08 Q2279.75 1455.77 2279.75 1460.26 Q2279.75 1462.39 2278.94 1464.31 Q2278.15 1466.2 2276.05 1468.8 Q2275.47 1469.47 2272.37 1472.69 Q2269.26 1475.88 2263.62 1481.64 Z" fill="#000000" fill-rule="nonzero" fill-opacity="1"></path><path clip-path="url(#clip060)" d="M2289.75 1479.7 L2294.63 1479.7 L2294.63 1485.58 L2289.75 1485.58 L2289.75 1479.7 Z" fill="#000000" fill-rule="nonzero" fill-opacity="1"></path><path clip-path="url(#clip060)" d="M2314.82 1454.1 Q2311.21 1454.1 2309.38 1457.66 Q2307.57 1461.2 2307.57 1468.33 Q2307.57 1475.44 2309.38 1479.01 Q2311.21 1482.55 2314.82 1482.55 Q2318.45 1482.55 2320.26 1479.01 Q2322.09 1475.44 2322.09 1468.33 Q2322.09 1461.2 2320.26 1457.66 Q2318.45 1454.1 2314.82 1454.1 M2314.82 1450.39 Q2320.63 1450.39 2323.69 1455 Q2326.76 1459.58 2326.76 1468.33 Q2326.76 1477.06 2323.69 1481.67 Q2320.63 1486.25 2314.82 1486.25 Q2309.01 1486.25 2305.93 1481.67 Q2302.87 1477.06 2302.87 1468.33 Q2302.87 1459.58 2305.93 1455 Q2309.01 1450.39 2314.82 1450.39 Z" fill="#000000" fill-rule="nonzero" fill-opacity="1"></path><path clip-path="url(#clip060)" d="M1081.25 1520.52 L1121.45 1520.52 L1121.45 1525.93 L1104.58 1525.93 L1104.58 1568.04 L1098.12 1568.04 L1098.12 1525.93 L1081.25 1525.93 L1081.25 1520.52 Z" fill="#000000" fill-rule="nonzero" fill-opacity="1"></path><path clip-path="url(#clip060)" d="M1146.82 1548.76 L1146.82 1551.62 L1119.89 1551.62 Q1120.27 1557.67 1123.52 1560.85 Q1126.8 1564 1132.62 1564 Q1136 1564 1139.15 1563.17 Q1142.33 1562.35 1145.45 1560.69 L1145.45 1566.23 Q1142.3 1567.57 1138.99 1568.27 Q1135.68 1568.97 1132.27 1568.97 Q1123.74 1568.97 1118.75 1564 Q1113.78 1559.04 1113.78 1550.57 Q1113.78 1541.82 1118.49 1536.69 Q1123.23 1531.54 1131.25 1531.54 Q1138.45 1531.54 1142.62 1536.18 Q1146.82 1540.8 1146.82 1548.76 M1140.96 1547.04 Q1140.9 1542.23 1138.26 1539.37 Q1135.65 1536.5 1131.32 1536.5 Q1126.42 1536.5 1123.46 1539.27 Q1120.53 1542.04 1120.08 1547.07 L1140.96 1547.04 Z" fill="#000000" fill-rule="nonzero" fill-opacity="1"></path><path clip-path="url(#clip060)" d="M1184.18 1539.24 Q1186.38 1535.29 1189.44 1533.41 Q1192.49 1531.54 1196.63 1531.54 Q1202.2 1531.54 1205.22 1535.45 Q1208.25 1539.33 1208.25 1546.53 L1208.25 1568.04 L1202.36 1568.04 L1202.36 1546.72 Q1202.36 1541.59 1200.54 1539.11 Q1198.73 1536.63 1195.01 1536.63 Q1190.46 1536.63 1187.81 1539.65 Q1185.17 1542.68 1185.17 1547.9 L1185.17 1568.04 L1179.28 1568.04 L1179.28 1546.72 Q1179.28 1541.56 1177.47 1539.11 Q1175.65 1536.63 1171.87 1536.63 Q1167.38 1536.63 1164.74 1539.68 Q1162.1 1542.71 1162.1 1547.9 L1162.1 1568.04 L1156.21 1568.04 L1156.21 1532.4 L1162.1 1532.4 L1162.1 1537.93 Q1164.1 1534.66 1166.9 1533.1 Q1169.7 1531.54 1173.55 1531.54 Q1177.44 1531.54 1180.14 1533.51 Q1182.88 1535.48 1184.18 1539.24 Z" fill="#000000" fill-rule="nonzero" fill-opacity="1"></path><path clip-path="url(#clip060)" d="M1225.59 1562.7 L1225.59 1581.6 L1219.71 1581.6 L1219.71 1532.4 L1225.59 1532.4 L1225.59 1537.81 Q1227.44 1534.62 1230.24 1533.1 Q1233.07 1531.54 1236.99 1531.54 Q1243.48 1531.54 1247.52 1536.69 Q1251.6 1541.85 1251.6 1550.25 Q1251.6 1558.65 1247.52 1563.81 Q1243.48 1568.97 1236.99 1568.97 Q1233.07 1568.97 1230.24 1567.44 Q1227.44 1565.88 1225.59 1562.7 M1245.52 1550.25 Q1245.52 1543.79 1242.84 1540.13 Q1240.2 1536.44 1235.56 1536.44 Q1230.91 1536.44 1228.24 1540.13 Q1225.59 1543.79 1225.59 1550.25 Q1225.59 1556.71 1228.24 1560.4 Q1230.91 1564.07 1235.56 1564.07 Q1240.2 1564.07 1242.84 1560.4 Q1245.52 1556.71 1245.52 1550.25 Z" fill="#000000" fill-rule="nonzero" fill-opacity="1"></path><path clip-path="url(#clip060)" d="M1291.8 1548.76 L1291.8 1551.62 L1264.87 1551.62 Q1265.25 1557.67 1268.5 1560.85 Q1271.78 1564 1277.6 1564 Q1280.98 1564 1284.13 1563.17 Q1287.31 1562.35 1290.43 1560.69 L1290.43 1566.23 Q1287.28 1567.57 1283.97 1568.27 Q1280.66 1568.97 1277.25 1568.97 Q1268.72 1568.97 1263.72 1564 Q1258.76 1559.04 1258.76 1550.57 Q1258.76 1541.82 1263.47 1536.69 Q1268.21 1531.54 1276.23 1531.54 Q1283.43 1531.54 1287.6 1536.18 Q1291.8 1540.8 1291.8 1548.76 M1285.94 1547.04 Q1285.88 1542.23 1283.24 1539.37 Q1280.63 1536.5 1276.3 1536.5 Q1271.4 1536.5 1268.44 1539.27 Q1265.51 1542.04 1265.06 1547.07 L1285.94 1547.04 Z" fill="#000000" fill-rule="nonzero" fill-opacity="1"></path><path clip-path="url(#clip060)" d="M1322.07 1537.87 Q1321.08 1537.3 1319.9 1537.04 Q1318.76 1536.76 1317.36 1536.76 Q1312.39 1536.76 1309.72 1540 Q1307.07 1543.22 1307.07 1549.27 L1307.07 1568.04 L1301.19 1568.04 L1301.19 1532.4 L1307.07 1532.4 L1307.07 1537.93 Q1308.92 1534.69 1311.88 1533.13 Q1314.84 1531.54 1319.07 1531.54 Q1319.68 1531.54 1320.41 1531.63 Q1321.14 1531.7 1322.03 1531.85 L1322.07 1537.87 Z" fill="#000000" fill-rule="nonzero" fill-opacity="1"></path><path clip-path="url(#clip060)" d="M1344.41 1550.12 Q1337.31 1550.12 1334.57 1551.75 Q1331.84 1553.37 1331.84 1557.29 Q1331.84 1560.4 1333.87 1562.25 Q1335.94 1564.07 1339.48 1564.07 Q1344.35 1564.07 1347.27 1560.63 Q1350.23 1557.16 1350.23 1551.43 L1350.23 1550.12 L1344.41 1550.12 M1356.09 1547.71 L1356.09 1568.04 L1350.23 1568.04 L1350.23 1562.63 Q1348.23 1565.88 1345.24 1567.44 Q1342.25 1568.97 1337.92 1568.97 Q1332.44 1568.97 1329.2 1565.91 Q1325.98 1562.82 1325.98 1557.67 Q1325.98 1551.65 1329.99 1548.6 Q1334.03 1545.54 1342.02 1545.54 L1350.23 1545.54 L1350.23 1544.97 Q1350.23 1540.93 1347.56 1538.73 Q1344.92 1536.5 1340.11 1536.5 Q1337.06 1536.5 1334.16 1537.23 Q1331.26 1537.97 1328.59 1539.43 L1328.59 1534.02 Q1331.81 1532.78 1334.83 1532.17 Q1337.85 1531.54 1340.72 1531.54 Q1348.45 1531.54 1352.27 1535.55 Q1356.09 1539.56 1356.09 1547.71 Z" fill="#000000" fill-rule="nonzero" fill-opacity="1"></path><path clip-path="url(#clip060)" d="M1373.95 1522.27 L1373.95 1532.4 L1386.01 1532.4 L1386.01 1536.95 L1373.95 1536.95 L1373.95 1556.3 Q1373.95 1560.66 1375.12 1561.9 Q1376.33 1563.14 1379.99 1563.14 L1386.01 1563.14 L1386.01 1568.04 L1379.99 1568.04 Q1373.21 1568.04 1370.64 1565.53 Q1368.06 1562.98 1368.06 1556.3 L1368.06 1536.95 L1363.76 1536.95 L1363.76 1532.4 L1368.06 1532.4 L1368.06 1522.27 L1373.95 1522.27 Z" fill="#000000" fill-rule="nonzero" fill-opacity="1"></path><path clip-path="url(#clip060)" d="M1393.11 1553.98 L1393.11 1532.4 L1398.96 1532.4 L1398.96 1553.75 Q1398.96 1558.81 1400.94 1561.36 Q1402.91 1563.87 1406.86 1563.87 Q1411.6 1563.87 1414.34 1560.85 Q1417.11 1557.83 1417.11 1552.61 L1417.11 1532.4 L1422.96 1532.4 L1422.96 1568.04 L1417.11 1568.04 L1417.11 1562.57 Q1414.97 1565.82 1412.14 1567.41 Q1409.34 1568.97 1405.62 1568.97 Q1399.47 1568.97 1396.29 1565.15 Q1393.11 1561.33 1393.11 1553.98 M1407.84 1531.54 L1407.84 1531.54 Z" fill="#000000" fill-rule="nonzero" fill-opacity="1"></path><path clip-path="url(#clip060)" d="M1455.68 1537.87 Q1454.7 1537.3 1453.52 1537.04 Q1452.37 1536.76 1450.97 1536.76 Q1446.01 1536.76 1443.33 1540 Q1440.69 1543.22 1440.69 1549.27 L1440.69 1568.04 L1434.8 1568.04 L1434.8 1532.4 L1440.69 1532.4 L1440.69 1537.93 Q1442.54 1534.69 1445.5 1533.13 Q1448.46 1531.54 1452.69 1531.54 Q1453.3 1531.54 1454.03 1531.63 Q1454.76 1531.7 1455.65 1531.85 L1455.68 1537.87 Z" fill="#000000" fill-rule="nonzero" fill-opacity="1"></path><path clip-path="url(#clip060)" d="M1490.88 1548.76 L1490.88 1551.62 L1463.96 1551.62 Q1464.34 1557.67 1467.59 1560.85 Q1470.86 1564 1476.69 1564 Q1480.06 1564 1483.21 1563.17 Q1486.4 1562.35 1489.52 1560.69 L1489.52 1566.23 Q1486.36 1567.57 1483.05 1568.27 Q1479.74 1568.97 1476.34 1568.97 Q1467.81 1568.97 1462.81 1564 Q1457.85 1559.04 1457.85 1550.57 Q1457.85 1541.82 1462.56 1536.69 Q1467.3 1531.54 1475.32 1531.54 Q1482.51 1531.54 1486.68 1536.18 Q1490.88 1540.8 1490.88 1548.76 M1485.03 1547.04 Q1484.96 1542.23 1482.32 1539.37 Q1479.71 1536.5 1475.38 1536.5 Q1470.48 1536.5 1467.52 1539.27 Q1464.59 1542.04 1464.15 1547.07 L1485.03 1547.04 Z" fill="#000000" fill-rule="nonzero" fill-opacity="1"></path><polyline clip-path="url(#clip060)" style="stroke:#000000; stroke-linecap:round; stroke-linejoin:round; stroke-width:4; stroke-opacity:1; fill:none" points="219.38,1423.18 219.38,123.472 "></polyline>
<polyline clip-path="url(#clip060)" style="stroke:#000000; stroke-linecap:round; stroke-linejoin:round; stroke-width:4; stroke-opacity:1; fill:none" points="219.38,1391.73 238.278,1391.73 "></polyline>
<polyline clip-path="url(#clip060)" style="stroke:#000000; stroke-linecap:round; stroke-linejoin:round; stroke-width:4; stroke-opacity:1; fill:none" points="219.38,1131.36 238.278,1131.36 "></polyline>
<polyline clip-path="url(#clip060)" style="stroke:#000000; stroke-linecap:round; stroke-linejoin:round; stroke-width:4; stroke-opacity:1; fill:none" points="219.38,870.982 238.278,870.982 "></polyline>
<polyline clip-path="url(#clip060)" style="stroke:#000000; stroke-linecap:round; stroke-linejoin:round; stroke-width:4; stroke-opacity:1; fill:none" points="219.38,610.609 238.278,610.609 "></polyline>
<polyline clip-path="url(#clip060)" style="stroke:#000000; stroke-linecap:round; stroke-linejoin:round; stroke-width:4; stroke-opacity:1; fill:none" points="219.38,350.235 238.278,350.235 "></polyline>
<path clip-path="url(#clip060)" d="M126.205 1377.53 Q122.593 1377.53 120.765 1381.09 Q118.959 1384.63 118.959 1391.76 Q118.959 1398.87 120.765 1402.43 Q122.593 1405.98 126.205 1405.98 Q129.839 1405.98 131.644 1402.43 Q133.473 1398.87 133.473 1391.76 Q133.473 1384.63 131.644 1381.09 Q129.839 1377.53 126.205 1377.53 M126.205 1373.82 Q132.015 1373.82 135.07 1378.43 Q138.149 1383.01 138.149 1391.76 Q138.149 1400.49 135.07 1405.1 Q132.015 1409.68 126.205 1409.68 Q120.394 1409.68 117.316 1405.1 Q114.26 1400.49 114.26 1391.76 Q114.26 1383.01 117.316 1378.43 Q120.394 1373.82 126.205 1373.82 Z" fill="#000000" fill-rule="nonzero" fill-opacity="1"></path><path clip-path="url(#clip060)" d="M146.366 1403.13 L151.251 1403.13 L151.251 1409.01 L146.366 1409.01 L146.366 1403.13 Z" fill="#000000" fill-rule="nonzero" fill-opacity="1"></path><path clip-path="url(#clip060)" d="M171.436 1377.53 Q167.825 1377.53 165.996 1381.09 Q164.19 1384.63 164.19 1391.76 Q164.19 1398.87 165.996 1402.43 Q167.825 1405.98 171.436 1405.98 Q175.07 1405.98 176.876 1402.43 Q178.704 1398.87 178.704 1391.76 Q178.704 1384.63 176.876 1381.09 Q175.07 1377.53 171.436 1377.53 M171.436 1373.82 Q177.246 1373.82 180.301 1378.43 Q183.38 1383.01 183.38 1391.76 Q183.38 1400.49 180.301 1405.1 Q177.246 1409.68 171.436 1409.68 Q165.626 1409.68 162.547 1405.1 Q159.491 1400.49 159.491 1391.76 Q159.491 1383.01 162.547 1378.43 Q165.626 1373.82 171.436 1373.82 Z" fill="#000000" fill-rule="nonzero" fill-opacity="1"></path><path clip-path="url(#clip060)" d="M127.2 1117.15 Q123.589 1117.15 121.76 1120.72 Q119.955 1124.26 119.955 1131.39 Q119.955 1138.5 121.76 1142.06 Q123.589 1145.6 127.2 1145.6 Q130.834 1145.6 132.64 1142.06 Q134.468 1138.5 134.468 1131.39 Q134.468 1124.26 132.64 1120.72 Q130.834 1117.15 127.2 1117.15 M127.2 1113.45 Q133.01 1113.45 136.066 1118.06 Q139.144 1122.64 139.144 1131.39 Q139.144 1140.12 136.066 1144.72 Q133.01 1149.31 127.2 1149.31 Q121.39 1149.31 118.311 1144.72 Q115.256 1140.12 115.256 1131.39 Q115.256 1122.64 118.311 1118.06 Q121.39 1113.45 127.2 1113.45 Z" fill="#000000" fill-rule="nonzero" fill-opacity="1"></path><path clip-path="url(#clip060)" d="M147.362 1142.76 L152.246 1142.76 L152.246 1148.64 L147.362 1148.64 L147.362 1142.76 Z" fill="#000000" fill-rule="nonzero" fill-opacity="1"></path><path clip-path="url(#clip060)" d="M162.477 1114.08 L180.834 1114.08 L180.834 1118.01 L166.76 1118.01 L166.76 1126.48 Q167.778 1126.14 168.797 1125.97 Q169.815 1125.79 170.834 1125.79 Q176.621 1125.79 180.001 1128.96 Q183.38 1132.13 183.38 1137.55 Q183.38 1143.13 179.908 1146.23 Q176.436 1149.31 170.116 1149.31 Q167.94 1149.31 165.672 1148.94 Q163.427 1148.57 161.019 1147.83 L161.019 1143.13 Q163.102 1144.26 165.325 1144.82 Q167.547 1145.37 170.024 1145.37 Q174.028 1145.37 176.366 1143.27 Q178.704 1141.16 178.704 1137.55 Q178.704 1133.94 176.366 1131.83 Q174.028 1129.72 170.024 1129.72 Q168.149 1129.72 166.274 1130.14 Q164.422 1130.56 162.477 1131.44 L162.477 1114.08 Z" fill="#000000" fill-rule="nonzero" fill-opacity="1"></path><path clip-path="url(#clip060)" d="M117.015 884.327 L124.654 884.327 L124.654 857.961 L116.343 859.628 L116.343 855.369 L124.607 853.702 L129.283 853.702 L129.283 884.327 L136.922 884.327 L136.922 888.262 L117.015 888.262 L117.015 884.327 Z" fill="#000000" fill-rule="nonzero" fill-opacity="1"></path><path clip-path="url(#clip060)" d="M146.366 882.382 L151.251 882.382 L151.251 888.262 L146.366 888.262 L146.366 882.382 Z" fill="#000000" fill-rule="nonzero" fill-opacity="1"></path><path clip-path="url(#clip060)" d="M171.436 856.781 Q167.825 856.781 165.996 860.346 Q164.19 863.887 164.19 871.017 Q164.19 878.123 165.996 881.688 Q167.825 885.23 171.436 885.23 Q175.07 885.23 176.876 881.688 Q178.704 878.123 178.704 871.017 Q178.704 863.887 176.876 860.346 Q175.07 856.781 171.436 856.781 M171.436 853.077 Q177.246 853.077 180.301 857.684 Q183.38 862.267 183.38 871.017 Q183.38 879.744 180.301 884.35 Q177.246 888.933 171.436 888.933 Q165.626 888.933 162.547 884.35 Q159.491 879.744 159.491 871.017 Q159.491 862.267 162.547 857.684 Q165.626 853.077 171.436 853.077 Z" fill="#000000" fill-rule="nonzero" fill-opacity="1"></path><path clip-path="url(#clip060)" d="M118.01 623.953 L125.649 623.953 L125.649 597.588 L117.339 599.255 L117.339 594.995 L125.603 593.329 L130.279 593.329 L130.279 623.953 L137.917 623.953 L137.917 627.889 L118.01 627.889 L118.01 623.953 Z" fill="#000000" fill-rule="nonzero" fill-opacity="1"></path><path clip-path="url(#clip060)" d="M147.362 622.009 L152.246 622.009 L152.246 627.889 L147.362 627.889 L147.362 622.009 Z" fill="#000000" fill-rule="nonzero" fill-opacity="1"></path><path clip-path="url(#clip060)" d="M162.477 593.329 L180.834 593.329 L180.834 597.264 L166.76 597.264 L166.76 605.736 Q167.778 605.389 168.797 605.227 Q169.815 605.042 170.834 605.042 Q176.621 605.042 180.001 608.213 Q183.38 611.384 183.38 616.801 Q183.38 622.379 179.908 625.481 Q176.436 628.56 170.116 628.56 Q167.94 628.56 165.672 628.19 Q163.427 627.819 161.019 627.078 L161.019 622.379 Q163.102 623.514 165.325 624.069 Q167.547 624.625 170.024 624.625 Q174.028 624.625 176.366 622.518 Q178.704 620.412 178.704 616.801 Q178.704 613.19 176.366 611.083 Q174.028 608.977 170.024 608.977 Q168.149 608.977 166.274 609.393 Q164.422 609.81 162.477 610.69 L162.477 593.329 Z" fill="#000000" fill-rule="nonzero" fill-opacity="1"></path><path clip-path="url(#clip060)" d="M120.232 363.58 L136.552 363.58 L136.552 367.515 L114.607 367.515 L114.607 363.58 Q117.269 360.826 121.853 356.196 Q126.459 351.543 127.64 350.201 Q129.885 347.677 130.765 345.941 Q131.667 344.182 131.667 342.492 Q131.667 339.738 129.723 338.002 Q127.802 336.265 124.7 336.265 Q122.501 336.265 120.047 337.029 Q117.617 337.793 114.839 339.344 L114.839 334.622 Q117.663 333.488 120.117 332.909 Q122.57 332.33 124.607 332.33 Q129.978 332.33 133.172 335.015 Q136.367 337.701 136.367 342.191 Q136.367 344.321 135.556 346.242 Q134.769 348.14 132.663 350.733 Q132.084 351.404 128.982 354.622 Q125.88 357.816 120.232 363.58 Z" fill="#000000" fill-rule="nonzero" fill-opacity="1"></path><path clip-path="url(#clip060)" d="M146.366 361.636 L151.251 361.636 L151.251 367.515 L146.366 367.515 L146.366 361.636 Z" fill="#000000" fill-rule="nonzero" fill-opacity="1"></path><path clip-path="url(#clip060)" d="M171.436 336.034 Q167.825 336.034 165.996 339.599 Q164.19 343.14 164.19 350.27 Q164.19 357.376 165.996 360.941 Q167.825 364.483 171.436 364.483 Q175.07 364.483 176.876 360.941 Q178.704 357.376 178.704 350.27 Q178.704 343.14 176.876 339.599 Q175.07 336.034 171.436 336.034 M171.436 332.33 Q177.246 332.33 180.301 336.937 Q183.38 341.52 183.38 350.27 Q183.38 358.997 180.301 363.603 Q177.246 368.187 171.436 368.187 Q165.626 368.187 162.547 363.603 Q159.491 358.997 159.491 350.27 Q159.491 341.52 162.547 336.937 Q165.626 332.33 171.436 332.33 Z" fill="#000000" fill-rule="nonzero" fill-opacity="1"></path><path clip-path="url(#clip060)" d="M16.4842 954.16 L16.4842 924.114 L21.895 924.114 L21.895 947.73 L35.9632 947.73 L35.9632 925.1 L41.3741 925.1 L41.3741 947.73 L58.5933 947.73 L58.5933 923.541 L64.0042 923.541 L64.0042 954.16 L16.4842 954.16 Z" fill="#000000" fill-rule="nonzero" fill-opacity="1"></path><path clip-path="url(#clip060)" d="M42.4881 883.596 L64.0042 883.596 L64.0042 889.452 L42.679 889.452 Q37.6183 889.452 35.1038 891.426 Q32.5894 893.399 32.5894 897.346 Q32.5894 902.088 35.6131 904.826 Q38.6368 907.563 43.8567 907.563 L64.0042 907.563 L64.0042 913.451 L28.3562 913.451 L28.3562 907.563 L33.8944 907.563 Q30.6797 905.462 29.0883 902.629 Q27.4968 899.765 27.4968 896.041 Q27.4968 889.898 31.3163 886.747 Q35.1038 883.596 42.4881 883.596 Z" fill="#000000" fill-rule="nonzero" fill-opacity="1"></path><path clip-path="url(#clip060)" d="M44.7161 841.423 L47.5806 841.423 L47.5806 868.35 Q53.6281 867.968 56.8109 864.722 Q59.9619 861.443 59.9619 855.619 Q59.9619 852.245 59.1344 849.094 Q58.3069 845.911 56.6518 842.792 L62.1899 842.792 Q63.5267 845.943 64.227 849.253 Q64.9272 852.563 64.9272 855.969 Q64.9272 864.499 59.9619 869.496 Q54.9967 874.461 46.5303 874.461 Q37.7774 874.461 32.6531 869.751 Q27.4968 865.008 27.4968 856.987 Q27.4968 849.794 32.1438 845.624 Q36.7589 841.423 44.7161 841.423 M42.9973 847.28 Q38.1912 847.343 35.3266 849.985 Q32.4621 852.595 32.4621 856.924 Q32.4621 861.825 35.2312 864.785 Q38.0002 867.713 43.0292 868.159 L42.9973 847.28 Z" fill="#000000" fill-rule="nonzero" fill-opacity="1"></path><path clip-path="url(#clip060)" d="M33.8307 811.154 Q33.2578 812.141 33.0032 813.319 Q32.7167 814.464 32.7167 815.865 Q32.7167 820.83 35.9632 823.504 Q39.1779 826.145 45.2253 826.145 L64.0042 826.145 L64.0042 832.034 L28.3562 832.034 L28.3562 826.145 L33.8944 826.145 Q30.6479 824.299 29.0883 821.339 Q27.4968 818.379 27.4968 814.146 Q27.4968 813.541 27.5923 812.809 Q27.656 812.077 27.8151 811.186 L33.8307 811.154 Z" fill="#000000" fill-rule="nonzero" fill-opacity="1"></path><path clip-path="url(#clip060)" d="M45.7664 782.699 Q39.4007 782.699 35.8996 785.341 Q32.3984 787.951 32.3984 792.694 Q32.3984 797.404 35.8996 800.046 Q39.4007 802.656 45.7664 802.656 Q52.1003 802.656 55.6014 800.046 Q59.1026 797.404 59.1026 792.694 Q59.1026 787.951 55.6014 785.341 Q52.1003 782.699 45.7664 782.699 M59.58 776.843 Q68.683 776.843 73.1071 780.885 Q77.5631 784.927 77.5631 793.267 Q77.5631 796.354 77.0857 799.091 Q76.6401 801.828 75.6852 804.407 L69.9879 804.407 Q71.3884 801.828 72.0568 799.314 Q72.7252 796.8 72.7252 794.19 Q72.7252 788.429 69.7015 785.564 Q66.7096 782.699 60.6303 782.699 L57.7339 782.699 Q60.885 784.514 62.4446 787.346 Q64.0042 790.179 64.0042 794.126 Q64.0042 800.683 59.0071 804.693 Q54.01 808.703 45.7664 808.703 Q37.491 808.703 32.4939 804.693 Q27.4968 800.683 27.4968 794.126 Q27.4968 790.179 29.0564 787.346 Q30.616 784.514 33.7671 782.699 L28.3562 782.699 L28.3562 776.843 L59.58 776.843 Z" fill="#000000" fill-rule="nonzero" fill-opacity="1"></path><path clip-path="url(#clip060)" d="M67.3143 749.948 Q73.68 752.431 75.6216 754.786 Q77.5631 757.141 77.5631 761.088 L77.5631 765.767 L72.6615 765.767 L72.6615 762.329 Q72.6615 759.91 71.5157 758.573 Q70.3699 757.237 66.1048 755.613 L63.4312 754.563 L28.3562 768.981 L28.3562 762.775 L56.238 751.635 L28.3562 740.495 L28.3562 734.288 L67.3143 749.948 Z" fill="#000000" fill-rule="nonzero" fill-opacity="1"></path><path clip-path="url(#clip060)" d="M45.7664 682.026 Q39.4007 682.026 35.8996 684.668 Q32.3984 687.278 32.3984 692.02 Q32.3984 696.731 35.8996 699.372 Q39.4007 701.982 45.7664 701.982 Q52.1003 701.982 55.6014 699.372 Q59.1026 696.731 59.1026 692.02 Q59.1026 687.278 55.6014 684.668 Q52.1003 682.026 45.7664 682.026 M59.58 676.169 Q68.683 676.169 73.1071 680.212 Q77.5631 684.254 77.5631 692.593 Q77.5631 695.68 77.0857 698.418 Q76.6401 701.155 75.6852 703.733 L69.9879 703.733 Q71.3884 701.155 72.0568 698.64 Q72.7252 696.126 72.7252 693.516 Q72.7252 687.755 69.7015 684.89 Q66.7096 682.026 60.6303 682.026 L57.7339 682.026 Q60.885 683.84 62.4446 686.673 Q64.0042 689.506 64.0042 693.452 Q64.0042 700.009 59.0071 704.019 Q54.01 708.03 45.7664 708.03 Q37.491 708.03 32.4939 704.019 Q27.4968 700.009 27.4968 693.452 Q27.4968 689.506 29.0564 686.673 Q30.616 683.84 33.7671 682.026 L28.3562 682.026 L28.3562 676.169 L59.58 676.169 Z" fill="#000000" fill-rule="nonzero" fill-opacity="1"></path><path clip-path="url(#clip060)" d="M46.0847 647.906 Q46.0847 655.003 47.7079 657.741 Q49.3312 660.478 53.2461 660.478 Q56.3653 660.478 58.2114 658.441 Q60.0256 656.372 60.0256 652.839 Q60.0256 647.969 56.5881 645.041 Q53.1188 642.081 47.3897 642.081 L46.0847 642.081 L46.0847 647.906 M43.6657 636.225 L64.0042 636.225 L64.0042 642.081 L58.5933 642.081 Q61.8398 644.086 63.3994 647.078 Q64.9272 650.07 64.9272 654.399 Q64.9272 659.873 61.8716 663.12 Q58.7843 666.334 53.6281 666.334 Q47.6125 666.334 44.5569 662.324 Q41.5014 658.282 41.5014 650.293 L41.5014 642.081 L40.9285 642.081 Q36.8862 642.081 34.6901 644.755 Q32.4621 647.396 32.4621 652.203 Q32.4621 655.258 33.1941 658.154 Q33.9262 661.051 35.3903 663.724 L29.9795 663.724 Q28.7381 660.51 28.1334 657.486 Q27.4968 654.462 27.4968 651.598 Q27.4968 643.863 31.5072 640.044 Q35.5176 636.225 43.6657 636.225 Z" fill="#000000" fill-rule="nonzero" fill-opacity="1"></path><path clip-path="url(#clip060)" d="M58.657 618.496 L77.5631 618.496 L77.5631 624.384 L28.3562 624.384 L28.3562 618.496 L33.7671 618.496 Q30.5842 616.65 29.0564 613.849 Q27.4968 611.016 27.4968 607.101 Q27.4968 600.608 32.6531 596.566 Q37.8093 592.492 46.212 592.492 Q54.6147 592.492 59.771 596.566 Q64.9272 600.608 64.9272 607.101 Q64.9272 611.016 63.3994 613.849 Q61.8398 616.65 58.657 618.496 M46.212 598.571 Q39.7508 598.571 36.0905 601.245 Q32.3984 603.887 32.3984 608.534 Q32.3984 613.181 36.0905 615.854 Q39.7508 618.496 46.212 618.496 Q52.6732 618.496 56.3653 615.854 Q60.0256 613.181 60.0256 608.534 Q60.0256 603.887 56.3653 601.245 Q52.6732 598.571 46.212 598.571 Z" fill="#000000" fill-rule="nonzero" fill-opacity="1"></path><path clip-path="url(#clip060)" d="M720.562 12.096 L758.802 12.096 L758.802 18.9825 L728.745 18.9825 L728.745 36.8875 L757.547 36.8875 L757.547 43.7741 L728.745 43.7741 L728.745 65.6895 L759.532 65.6895 L759.532 72.576 L720.562 72.576 L720.562 12.096 Z" fill="#000000" fill-rule="nonzero" fill-opacity="1"></path><path clip-path="url(#clip060)" d="M810.37 45.1919 L810.37 72.576 L802.917 72.576 L802.917 45.4349 Q802.917 38.994 800.405 35.7938 Q797.894 32.5936 792.87 32.5936 Q786.835 32.5936 783.351 36.4419 Q779.867 40.2903 779.867 46.9338 L779.867 72.576 L772.373 72.576 L772.373 27.2059 L779.867 27.2059 L779.867 34.2544 Q782.541 30.163 786.146 28.1376 Q789.792 26.1121 794.531 26.1121 Q802.35 26.1121 806.36 30.9732 Q810.37 35.7938 810.37 45.1919 Z" fill="#000000" fill-rule="nonzero" fill-opacity="1"></path><path clip-path="url(#clip060)" d="M864.045 48.0275 L864.045 51.6733 L829.774 51.6733 Q830.26 59.3701 834.392 63.421 Q838.565 67.4314 845.978 67.4314 Q850.272 67.4314 854.282 66.3781 Q858.333 65.3249 862.303 63.2184 L862.303 70.267 Q858.293 71.9684 854.08 72.8596 Q849.867 73.7508 845.532 73.7508 Q834.676 73.7508 828.316 67.4314 Q821.996 61.1119 821.996 50.3365 Q821.996 39.1965 827.992 32.6746 Q834.028 26.1121 844.236 26.1121 Q853.391 26.1121 858.698 32.0264 Q864.045 37.9003 864.045 48.0275 M856.591 45.84 Q856.51 39.7232 853.148 36.0774 Q849.826 32.4315 844.317 32.4315 Q838.079 32.4315 834.311 35.9558 Q830.584 39.4801 830.017 45.8805 L856.591 45.84 Z" fill="#000000" fill-rule="nonzero" fill-opacity="1"></path><path clip-path="url(#clip060)" d="M902.569 34.1734 Q901.313 33.4443 899.814 33.1202 Q898.356 32.7556 896.574 32.7556 Q890.254 32.7556 886.851 36.8875 Q883.489 40.9789 883.489 48.6757 L883.489 72.576 L875.995 72.576 L875.995 27.2059 L883.489 27.2059 L883.489 34.2544 Q885.839 30.1225 889.606 28.1376 Q893.373 26.1121 898.761 26.1121 Q899.531 26.1121 900.462 26.2337 Q901.394 26.3147 902.528 26.5172 L902.569 34.1734 Z" fill="#000000" fill-rule="nonzero" fill-opacity="1"></path><path clip-path="url(#clip060)" d="M938.784 49.3643 Q938.784 41.2625 935.422 36.8065 Q932.1 32.3505 926.064 32.3505 Q920.069 32.3505 916.707 36.8065 Q913.385 41.2625 913.385 49.3643 Q913.385 57.4256 916.707 61.8816 Q920.069 66.3376 926.064 66.3376 Q932.1 66.3376 935.422 61.8816 Q938.784 57.4256 938.784 49.3643 M946.238 66.9452 Q946.238 78.5308 941.093 84.1616 Q935.948 89.8329 925.335 89.8329 Q921.406 89.8329 917.922 89.2252 Q914.438 88.6581 911.157 87.4428 L911.157 80.1917 Q914.438 81.9741 917.638 82.8248 Q920.839 83.6755 924.16 83.6755 Q931.492 83.6755 935.138 79.8271 Q938.784 76.0193 938.784 68.282 L938.784 64.5957 Q936.475 68.6061 932.87 70.5911 Q929.264 72.576 924.241 72.576 Q915.896 72.576 910.792 66.2161 Q905.688 59.8562 905.688 49.3643 Q905.688 38.832 910.792 32.472 Q915.896 26.1121 924.241 26.1121 Q929.264 26.1121 932.87 28.0971 Q936.475 30.082 938.784 34.0924 L938.784 27.2059 L946.238 27.2059 L946.238 66.9452 Z" fill="#000000" fill-rule="nonzero" fill-opacity="1"></path><path clip-path="url(#clip060)" d="M980.468 76.7889 Q977.308 84.8907 974.31 87.3618 Q971.313 89.8329 966.29 89.8329 L960.335 89.8329 L960.335 83.5945 L964.71 83.5945 Q967.788 83.5945 969.49 82.1361 Q971.191 80.6778 973.257 75.2496 L974.594 71.8468 L956.243 27.2059 L964.143 27.2059 L978.321 62.6918 L992.499 27.2059 L1000.4 27.2059 L980.468 76.7889 Z" fill="#000000" fill-rule="nonzero" fill-opacity="1"></path><path clip-path="url(#clip060)" d="M1066.91 49.3643 Q1066.91 41.2625 1063.55 36.8065 Q1060.23 32.3505 1054.19 32.3505 Q1048.2 32.3505 1044.84 36.8065 Q1041.51 41.2625 1041.51 49.3643 Q1041.51 57.4256 1044.84 61.8816 Q1048.2 66.3376 1054.19 66.3376 Q1060.23 66.3376 1063.55 61.8816 Q1066.91 57.4256 1066.91 49.3643 M1074.37 66.9452 Q1074.37 78.5308 1069.22 84.1616 Q1064.08 89.8329 1053.47 89.8329 Q1049.54 89.8329 1046.05 89.2252 Q1042.57 88.6581 1039.29 87.4428 L1039.29 80.1917 Q1042.57 81.9741 1045.77 82.8248 Q1048.97 83.6755 1052.29 83.6755 Q1059.62 83.6755 1063.27 79.8271 Q1066.91 76.0193 1066.91 68.282 L1066.91 64.5957 Q1064.61 68.6061 1061 70.5911 Q1057.39 72.576 1052.37 72.576 Q1044.03 72.576 1038.92 66.2161 Q1033.82 59.8562 1033.82 49.3643 Q1033.82 38.832 1038.92 32.472 Q1044.03 26.1121 1052.37 26.1121 Q1057.39 26.1121 1061 28.0971 Q1064.61 30.082 1066.91 34.0924 L1066.91 27.2059 L1074.37 27.2059 L1074.37 66.9452 Z" fill="#000000" fill-rule="nonzero" fill-opacity="1"></path><path clip-path="url(#clip060)" d="M1110.34 49.7694 Q1101.31 49.7694 1097.82 51.8354 Q1094.34 53.9013 1094.34 58.8839 Q1094.34 62.8538 1096.93 65.2034 Q1099.56 67.5124 1104.06 67.5124 Q1110.26 67.5124 1113.99 63.1374 Q1117.75 58.7219 1117.75 51.4303 L1117.75 49.7694 L1110.34 49.7694 M1125.21 46.6907 L1125.21 72.576 L1117.75 72.576 L1117.75 65.6895 Q1115.2 69.8214 1111.39 71.8063 Q1107.59 73.7508 1102.08 73.7508 Q1095.11 73.7508 1090.98 69.8619 Q1086.89 65.9325 1086.89 59.3701 Q1086.89 51.7138 1091.99 47.825 Q1097.13 43.9361 1107.3 43.9361 L1117.75 43.9361 L1117.75 43.2069 Q1117.75 38.0623 1114.35 35.2672 Q1110.99 32.4315 1104.87 32.4315 Q1100.98 32.4315 1097.3 33.3632 Q1093.61 34.295 1090.21 36.1584 L1090.21 29.2718 Q1094.3 27.692 1098.15 26.9223 Q1101.99 26.1121 1105.64 26.1121 Q1115.48 26.1121 1120.35 31.2163 Q1125.21 36.3204 1125.21 46.6907 Z" fill="#000000" fill-rule="nonzero" fill-opacity="1"></path><path clip-path="url(#clip060)" d="M1147.77 65.7705 L1147.77 89.8329 L1140.28 89.8329 L1140.28 27.2059 L1147.77 27.2059 L1147.77 34.0924 Q1150.12 30.0415 1153.68 28.0971 Q1157.29 26.1121 1162.27 26.1121 Q1170.54 26.1121 1175.68 32.6746 Q1180.87 39.2371 1180.87 49.9314 Q1180.87 60.6258 1175.68 67.1883 Q1170.54 73.7508 1162.27 73.7508 Q1157.29 73.7508 1153.68 71.8063 Q1150.12 69.8214 1147.77 65.7705 M1173.13 49.9314 Q1173.13 41.7081 1169.73 37.0496 Q1166.36 32.3505 1160.45 32.3505 Q1154.54 32.3505 1151.13 37.0496 Q1147.77 41.7081 1147.77 49.9314 Q1147.77 58.1548 1151.13 62.8538 Q1154.54 67.5124 1160.45 67.5124 Q1166.36 67.5124 1169.73 62.8538 Q1173.13 58.1548 1173.13 49.9314 Z" fill="#000000" fill-rule="nonzero" fill-opacity="1"></path><path clip-path="url(#clip060)" d="M1214.25 27.2059 L1222.14 27.2059 L1236.32 65.2844 L1250.5 27.2059 L1258.4 27.2059 L1241.39 72.576 L1231.26 72.576 L1214.25 27.2059 Z" fill="#000000" fill-rule="nonzero" fill-opacity="1"></path><path clip-path="url(#clip060)" d="M1297.61 28.5427 L1297.61 35.5912 Q1294.45 33.9709 1291.05 33.1607 Q1287.65 32.3505 1284 32.3505 Q1278.45 32.3505 1275.66 34.0519 Q1272.9 35.7533 1272.9 39.156 Q1272.9 41.7486 1274.89 43.2475 Q1276.87 44.7058 1282.87 46.0426 L1285.42 46.6097 Q1293.36 48.3111 1296.68 51.4303 Q1300.04 54.509 1300.04 60.0587 Q1300.04 66.3781 1295.02 70.0644 Q1290.04 73.7508 1281.29 73.7508 Q1277.64 73.7508 1273.67 73.0216 Q1269.74 72.3329 1265.37 70.9151 L1265.37 63.2184 Q1269.5 65.3654 1273.51 66.4591 Q1277.52 67.5124 1281.45 67.5124 Q1286.72 67.5124 1289.55 65.73 Q1292.39 63.9071 1292.39 60.6258 Q1292.39 57.5877 1290.32 55.9673 Q1288.3 54.3469 1281.37 52.8481 L1278.78 52.2405 Q1271.85 50.7821 1268.77 47.7845 Q1265.69 44.7463 1265.69 39.4801 Q1265.69 33.0797 1270.23 29.5959 Q1274.77 26.1121 1283.11 26.1121 Q1287.24 26.1121 1290.89 26.7198 Q1294.53 27.3274 1297.61 28.5427 Z" fill="#000000" fill-rule="nonzero" fill-opacity="1"></path><path clip-path="url(#clip060)" d="M1330.22 12.096 L1381.39 12.096 L1381.39 18.9825 L1359.92 18.9825 L1359.92 72.576 L1351.69 72.576 L1351.69 18.9825 L1330.22 18.9825 L1330.22 12.096 Z" fill="#000000" fill-rule="nonzero" fill-opacity="1"></path><path clip-path="url(#clip060)" d="M1413.67 48.0275 L1413.67 51.6733 L1379.4 51.6733 Q1379.89 59.3701 1384.02 63.421 Q1388.19 67.4314 1395.6 67.4314 Q1399.9 67.4314 1403.91 66.3781 Q1407.96 65.3249 1411.93 63.2184 L1411.93 70.267 Q1407.92 71.9684 1403.71 72.8596 Q1399.49 73.7508 1395.16 73.7508 Q1384.3 73.7508 1377.94 67.4314 Q1371.62 61.1119 1371.62 50.3365 Q1371.62 39.1965 1377.62 32.6746 Q1383.65 26.1121 1393.86 26.1121 Q1403.02 26.1121 1408.32 32.0264 Q1413.67 37.9003 1413.67 48.0275 M1406.22 45.84 Q1406.14 39.7232 1402.77 36.0774 Q1399.45 32.4315 1393.94 32.4315 Q1387.71 32.4315 1383.94 35.9558 Q1380.21 39.4801 1379.64 45.8805 L1406.22 45.84 Z" fill="#000000" fill-rule="nonzero" fill-opacity="1"></path><path clip-path="url(#clip060)" d="M1461.23 35.9153 Q1464.02 30.8922 1467.91 28.5022 Q1471.8 26.1121 1477.07 26.1121 Q1484.16 26.1121 1488.01 31.0947 Q1491.85 36.0368 1491.85 45.1919 L1491.85 72.576 L1484.36 72.576 L1484.36 45.4349 Q1484.36 38.913 1482.05 35.7533 Q1479.74 32.5936 1475 32.5936 Q1469.21 32.5936 1465.85 36.4419 Q1462.48 40.2903 1462.48 46.9338 L1462.48 72.576 L1454.99 72.576 L1454.99 45.4349 Q1454.99 38.8725 1452.68 35.7533 Q1450.37 32.5936 1445.55 32.5936 Q1439.84 32.5936 1436.48 36.4824 Q1433.12 40.3308 1433.12 46.9338 L1433.12 72.576 L1425.62 72.576 L1425.62 27.2059 L1433.12 27.2059 L1433.12 34.2544 Q1435.67 30.082 1439.23 28.0971 Q1442.8 26.1121 1447.7 26.1121 Q1452.64 26.1121 1456.08 28.6237 Q1459.57 31.1352 1461.23 35.9153 Z" fill="#000000" fill-rule="nonzero" fill-opacity="1"></path><path clip-path="url(#clip060)" d="M1513.93 65.7705 L1513.93 89.8329 L1506.44 89.8329 L1506.44 27.2059 L1513.93 27.2059 L1513.93 34.0924 Q1516.28 30.0415 1519.85 28.0971 Q1523.45 26.1121 1528.43 26.1121 Q1536.7 26.1121 1541.84 32.6746 Q1547.03 39.2371 1547.03 49.9314 Q1547.03 60.6258 1541.84 67.1883 Q1536.7 73.7508 1528.43 73.7508 Q1523.45 73.7508 1519.85 71.8063 Q1516.28 69.8214 1513.93 65.7705 M1539.29 49.9314 Q1539.29 41.7081 1535.89 37.0496 Q1532.53 32.3505 1526.61 32.3505 Q1520.7 32.3505 1517.29 37.0496 Q1513.93 41.7081 1513.93 49.9314 Q1513.93 58.1548 1517.29 62.8538 Q1520.7 67.5124 1526.61 67.5124 Q1532.53 67.5124 1535.89 62.8538 Q1539.29 58.1548 1539.29 49.9314 Z" fill="#000000" fill-rule="nonzero" fill-opacity="1"></path><path clip-path="url(#clip060)" d="M1598.19 48.0275 L1598.19 51.6733 L1563.92 51.6733 Q1564.41 59.3701 1568.54 63.421 Q1572.71 67.4314 1580.12 67.4314 Q1584.42 67.4314 1588.43 66.3781 Q1592.48 65.3249 1596.45 63.2184 L1596.45 70.267 Q1592.44 71.9684 1588.22 72.8596 Q1584.01 73.7508 1579.68 73.7508 Q1568.82 73.7508 1562.46 67.4314 Q1556.14 61.1119 1556.14 50.3365 Q1556.14 39.1965 1562.14 32.6746 Q1568.17 26.1121 1578.38 26.1121 Q1587.54 26.1121 1592.84 32.0264 Q1598.19 37.9003 1598.19 48.0275 M1590.74 45.84 Q1590.66 39.7232 1587.29 36.0774 Q1583.97 32.4315 1578.46 32.4315 Q1572.22 32.4315 1568.46 35.9558 Q1564.73 39.4801 1564.16 45.8805 L1590.74 45.84 Z" fill="#000000" fill-rule="nonzero" fill-opacity="1"></path><path clip-path="url(#clip060)" d="M1636.71 34.1734 Q1635.46 33.4443 1633.96 33.1202 Q1632.5 32.7556 1630.72 32.7556 Q1624.4 32.7556 1621 36.8875 Q1617.63 40.9789 1617.63 48.6757 L1617.63 72.576 L1610.14 72.576 L1610.14 27.2059 L1617.63 27.2059 L1617.63 34.2544 Q1619.98 30.1225 1623.75 28.1376 Q1627.52 26.1121 1632.91 26.1121 Q1633.68 26.1121 1634.61 26.2337 Q1635.54 26.3147 1636.67 26.5172 L1636.71 34.1734 Z" fill="#000000" fill-rule="nonzero" fill-opacity="1"></path><path clip-path="url(#clip060)" d="M1665.15 49.7694 Q1656.12 49.7694 1652.63 51.8354 Q1649.15 53.9013 1649.15 58.8839 Q1649.15 62.8538 1651.74 65.2034 Q1654.38 67.5124 1658.87 67.5124 Q1665.07 67.5124 1668.8 63.1374 Q1672.56 58.7219 1672.56 51.4303 L1672.56 49.7694 L1665.15 49.7694 M1680.02 46.6907 L1680.02 72.576 L1672.56 72.576 L1672.56 65.6895 Q1670.01 69.8214 1666.2 71.8063 Q1662.4 73.7508 1656.89 73.7508 Q1649.92 73.7508 1645.79 69.8619 Q1641.7 65.9325 1641.7 59.3701 Q1641.7 51.7138 1646.8 47.825 Q1651.95 43.9361 1662.11 43.9361 L1672.56 43.9361 L1672.56 43.2069 Q1672.56 38.0623 1669.16 35.2672 Q1665.8 32.4315 1659.68 32.4315 Q1655.79 32.4315 1652.11 33.3632 Q1648.42 34.295 1645.02 36.1584 L1645.02 29.2718 Q1649.11 27.692 1652.96 26.9223 Q1656.81 26.1121 1660.45 26.1121 Q1670.3 26.1121 1675.16 31.2163 Q1680.02 36.3204 1680.02 46.6907 Z" fill="#000000" fill-rule="nonzero" fill-opacity="1"></path><path clip-path="url(#clip060)" d="M1702.74 14.324 L1702.74 27.2059 L1718.1 27.2059 L1718.1 32.9987 L1702.74 32.9987 L1702.74 57.6282 Q1702.74 63.1779 1704.24 64.7578 Q1705.78 66.3376 1710.44 66.3376 L1718.1 66.3376 L1718.1 72.576 L1710.44 72.576 Q1701.81 72.576 1698.53 69.3758 Q1695.25 66.1351 1695.25 57.6282 L1695.25 32.9987 L1689.78 32.9987 L1689.78 27.2059 L1695.25 27.2059 L1695.25 14.324 L1702.74 14.324 Z" fill="#000000" fill-rule="nonzero" fill-opacity="1"></path><path clip-path="url(#clip060)" d="M1727.13 54.671 L1727.13 27.2059 L1734.58 27.2059 L1734.58 54.3874 Q1734.58 60.8284 1737.1 64.0691 Q1739.61 67.2693 1744.63 67.2693 Q1750.67 67.2693 1754.15 63.421 Q1757.67 59.5726 1757.67 52.9291 L1757.67 27.2059 L1765.13 27.2059 L1765.13 72.576 L1757.67 72.576 L1757.67 65.6084 Q1754.96 69.7404 1751.35 71.7658 Q1747.79 73.7508 1743.05 73.7508 Q1735.23 73.7508 1731.18 68.8897 Q1727.13 64.0286 1727.13 54.671 M1745.89 26.1121 L1745.89 26.1121 Z" fill="#000000" fill-rule="nonzero" fill-opacity="1"></path><path clip-path="url(#clip060)" d="M1806.77 34.1734 Q1805.52 33.4443 1804.02 33.1202 Q1802.56 32.7556 1800.78 32.7556 Q1794.46 32.7556 1791.05 36.8875 Q1787.69 40.9789 1787.69 48.6757 L1787.69 72.576 L1780.2 72.576 L1780.2 27.2059 L1787.69 27.2059 L1787.69 34.2544 Q1790.04 30.1225 1793.81 28.1376 Q1797.58 26.1121 1802.96 26.1121 Q1803.73 26.1121 1804.66 26.2337 Q1805.6 26.3147 1806.73 26.5172 L1806.77 34.1734 Z" fill="#000000" fill-rule="nonzero" fill-opacity="1"></path><path clip-path="url(#clip060)" d="M1851.57 48.0275 L1851.57 51.6733 L1817.3 51.6733 Q1817.79 59.3701 1821.92 63.421 Q1826.09 67.4314 1833.51 67.4314 Q1837.8 67.4314 1841.81 66.3781 Q1845.86 65.3249 1849.83 63.2184 L1849.83 70.267 Q1845.82 71.9684 1841.61 72.8596 Q1837.4 73.7508 1833.06 73.7508 Q1822.21 73.7508 1815.85 67.4314 Q1809.53 61.1119 1809.53 50.3365 Q1809.53 39.1965 1815.52 32.6746 Q1821.56 26.1121 1831.77 26.1121 Q1840.92 26.1121 1846.23 32.0264 Q1851.57 37.9003 1851.57 48.0275 M1844.12 45.84 Q1844.04 39.7232 1840.68 36.0774 Q1837.36 32.4315 1831.85 32.4315 Q1825.61 32.4315 1821.84 35.9558 Q1818.11 39.4801 1817.55 45.8805 L1844.12 45.84 Z" fill="#000000" fill-rule="nonzero" fill-opacity="1"></path><polyline clip-path="url(#clip062)" style="stroke:#009af9; stroke-linecap:round; stroke-linejoin:round; stroke-width:4; stroke-opacity:1; fill:none" points="279.759,276.413 385.686,843.756 491.613,682.88 597.541,708.864 703.468,622.189 809.395,421.747 915.322,475.588 1021.25,765.676 1127.18,1067.05 1233.1,1132.49 1339.03,861.686 1444.96,579.762 1550.89,534.539 1656.81,410.142 1762.74,379.952 1868.67,297.184 1974.6,971.768 2080.52,594.948 2186.45,1138.97 2292.38,1159.98 "></polyline>
<polyline clip-path="url(#clip062)" style="stroke:#e26f46; stroke-linecap:round; stroke-linejoin:round; stroke-width:4; stroke-opacity:1; fill:none" points="279.759,607.752 385.686,747.818 491.613,703.045 597.541,532.897 703.468,738.876 809.395,588.029 915.322,611.997 1021.25,761.585 1127.18,788.261 1233.1,564.372 1339.03,521.936 1444.96,767.34 1550.89,476.588 1656.81,408.205 1762.74,934.515 1868.67,160.256 1974.6,531.917 2080.52,224.827 2186.45,647.329 2292.38,385.63 "></polyline>
<polyline clip-path="url(#clip062)" style="stroke:#3da44d; stroke-linecap:round; stroke-linejoin:round; stroke-width:4; stroke-opacity:1; fill:none" points="279.759,1317.63 385.686,1164.52 491.613,1211.76 597.541,1384.78 703.468,1308.74 809.395,1299.24 915.322,1370.58 1021.25,1092.09 1127.18,1386.4 1233.1,1280.78 1339.03,1248.69 1444.96,1352.13 1550.89,1359.83 1656.81,1021.72 1762.74,1235.71 1868.67,1120.96 1974.6,816.188 2080.52,977.111 2186.45,1177.15 2292.38,1180.66 "></polyline>
<path clip-path="url(#clip060)" d="M290.493 374.156 L955.657 374.156 L955.657 166.796 L290.493 166.796  Z" fill="#ffffff" fill-rule="evenodd" fill-opacity="1"></path>
<polyline clip-path="url(#clip060)" style="stroke:#000000; stroke-linecap:round; stroke-linejoin:round; stroke-width:4; stroke-opacity:1; fill:none" points="290.493,374.156 955.657,374.156 955.657,166.796 290.493,166.796 290.493,374.156 "></polyline>
<polyline clip-path="url(#clip060)" style="stroke:#009af9; stroke-linecap:round; stroke-linejoin:round; stroke-width:4; stroke-opacity:1; fill:none" points="314.197,218.636 456.422,218.636 "></polyline>
<path clip-path="url(#clip060)" d="M487.533 202.629 L487.533 209.99 L496.307 209.99 L496.307 213.3 L487.533 213.3 L487.533 227.374 Q487.533 230.545 488.39 231.448 Q489.27 232.351 491.932 232.351 L496.307 232.351 L496.307 235.916 L491.932 235.916 Q487.001 235.916 485.126 234.087 Q483.251 232.235 483.251 227.374 L483.251 213.3 L480.126 213.3 L480.126 209.99 L483.251 209.99 L483.251 202.629 L487.533 202.629 Z" fill="#000000" fill-rule="nonzero" fill-opacity="1"></path><path clip-path="url(#clip060)" d="M516.931 213.971 Q516.214 213.555 515.357 213.37 Q514.524 213.161 513.506 213.161 Q509.894 213.161 507.95 215.522 Q506.029 217.86 506.029 222.258 L506.029 235.916 L501.746 235.916 L501.746 209.99 L506.029 209.99 L506.029 214.018 Q507.371 211.657 509.524 210.522 Q511.677 209.365 514.756 209.365 Q515.195 209.365 515.728 209.434 Q516.26 209.481 516.908 209.596 L516.931 213.971 Z" fill="#000000" fill-rule="nonzero" fill-opacity="1"></path><path clip-path="url(#clip060)" d="M521.399 209.99 L525.658 209.99 L525.658 235.916 L521.399 235.916 L521.399 209.99 M521.399 199.897 L525.658 199.897 L525.658 205.291 L521.399 205.291 L521.399 199.897 Z" fill="#000000" fill-rule="nonzero" fill-opacity="1"></path><path clip-path="url(#clip060)" d="M546.353 222.883 Q541.191 222.883 539.2 224.064 Q537.209 225.244 537.209 228.092 Q537.209 230.36 538.691 231.703 Q540.195 233.022 542.765 233.022 Q546.306 233.022 548.436 230.522 Q550.589 227.999 550.589 223.832 L550.589 222.883 L546.353 222.883 M554.848 221.124 L554.848 235.916 L550.589 235.916 L550.589 231.981 Q549.13 234.342 546.954 235.476 Q544.779 236.587 541.63 236.587 Q537.649 236.587 535.288 234.365 Q532.95 232.119 532.95 228.369 Q532.95 223.994 535.867 221.772 Q538.806 219.55 544.616 219.55 L550.589 219.55 L550.589 219.133 Q550.589 216.194 548.644 214.596 Q546.723 212.976 543.228 212.976 Q541.005 212.976 538.899 213.508 Q536.792 214.041 534.848 215.106 L534.848 211.17 Q537.186 210.268 539.385 209.828 Q541.584 209.365 543.667 209.365 Q549.292 209.365 552.07 212.282 Q554.848 215.198 554.848 221.124 Z" fill="#000000" fill-rule="nonzero" fill-opacity="1"></path><path clip-path="url(#clip060)" d="M585.172 220.268 L585.172 235.916 L580.913 235.916 L580.913 220.407 Q580.913 216.726 579.477 214.897 Q578.042 213.069 575.172 213.069 Q571.723 213.069 569.732 215.268 Q567.741 217.467 567.741 221.263 L567.741 235.916 L563.459 235.916 L563.459 209.99 L567.741 209.99 L567.741 214.018 Q569.269 211.68 571.329 210.522 Q573.413 209.365 576.121 209.365 Q580.589 209.365 582.88 212.143 Q585.172 214.897 585.172 220.268 Z" fill="#000000" fill-rule="nonzero" fill-opacity="1"></path><path clip-path="url(#clip060)" d="M610.727 222.652 Q610.727 218.022 608.806 215.476 Q606.908 212.93 603.459 212.93 Q600.033 212.93 598.112 215.476 Q596.213 218.022 596.213 222.652 Q596.213 227.258 598.112 229.805 Q600.033 232.351 603.459 232.351 Q606.908 232.351 608.806 229.805 Q610.727 227.258 610.727 222.652 M614.986 232.698 Q614.986 239.318 612.047 242.536 Q609.107 245.777 603.042 245.777 Q600.797 245.777 598.806 245.43 Q596.815 245.105 594.94 244.411 L594.94 240.268 Q596.815 241.286 598.644 241.772 Q600.473 242.258 602.371 242.258 Q606.561 242.258 608.644 240.059 Q610.727 237.883 610.727 233.462 L610.727 231.356 Q609.408 233.647 607.348 234.781 Q605.287 235.916 602.417 235.916 Q597.649 235.916 594.732 232.281 Q591.815 228.647 591.815 222.652 Q591.815 216.633 594.732 212.999 Q597.649 209.365 602.417 209.365 Q605.287 209.365 607.348 210.499 Q609.408 211.633 610.727 213.925 L610.727 209.99 L614.986 209.99 L614.986 232.698 Z" fill="#000000" fill-rule="nonzero" fill-opacity="1"></path><path clip-path="url(#clip060)" d="M623.76 199.897 L628.019 199.897 L628.019 235.916 L623.76 235.916 L623.76 199.897 Z" fill="#000000" fill-rule="nonzero" fill-opacity="1"></path><path clip-path="url(#clip060)" d="M659.107 221.888 L659.107 223.971 L639.523 223.971 Q639.801 228.369 642.162 230.684 Q644.546 232.976 648.783 232.976 Q651.236 232.976 653.528 232.374 Q655.843 231.772 658.111 230.569 L658.111 234.596 Q655.82 235.568 653.412 236.078 Q651.005 236.587 648.528 236.587 Q642.324 236.587 638.69 232.976 Q635.079 229.365 635.079 223.207 Q635.079 216.842 638.505 213.115 Q641.954 209.365 647.787 209.365 Q653.019 209.365 656.051 212.745 Q659.107 216.101 659.107 221.888 M654.847 220.638 Q654.801 217.143 652.88 215.059 Q650.982 212.976 647.834 212.976 Q644.269 212.976 642.116 214.99 Q639.986 217.004 639.662 220.661 L654.847 220.638 Z" fill="#000000" fill-rule="nonzero" fill-opacity="1"></path><path clip-path="url(#clip060)" d="M682.625 210.754 L682.625 214.782 Q680.819 213.856 678.875 213.393 Q676.931 212.93 674.847 212.93 Q671.676 212.93 670.079 213.902 Q668.505 214.874 668.505 216.819 Q668.505 218.3 669.639 219.157 Q670.773 219.99 674.199 220.754 L675.657 221.078 Q680.194 222.05 682.093 223.832 Q684.014 225.592 684.014 228.763 Q684.014 232.374 681.144 234.481 Q678.296 236.587 673.296 236.587 Q671.213 236.587 668.945 236.17 Q666.699 235.777 664.199 234.967 L664.199 230.569 Q666.56 231.795 668.852 232.42 Q671.144 233.022 673.389 233.022 Q676.398 233.022 678.019 232.004 Q679.639 230.962 679.639 229.087 Q679.639 227.351 678.458 226.425 Q677.301 225.499 673.343 224.643 L671.861 224.295 Q667.903 223.462 666.144 221.749 Q664.384 220.013 664.384 217.004 Q664.384 213.346 666.977 211.356 Q669.57 209.365 674.338 209.365 Q676.699 209.365 678.782 209.712 Q680.866 210.059 682.625 210.754 Z" fill="#000000" fill-rule="nonzero" fill-opacity="1"></path><path clip-path="url(#clip060)" d="M691.884 230.036 L696.768 230.036 L696.768 234.018 L692.972 241.425 L689.986 241.425 L691.884 234.018 L691.884 230.036 Z" fill="#000000" fill-rule="nonzero" fill-opacity="1"></path><path clip-path="url(#clip060)" d="M722.393 210.754 L722.393 214.782 Q720.588 213.856 718.643 213.393 Q716.699 212.93 714.616 212.93 Q711.444 212.93 709.847 213.902 Q708.273 214.874 708.273 216.819 Q708.273 218.3 709.407 219.157 Q710.542 219.99 713.967 220.754 L715.426 221.078 Q719.963 222.05 721.861 223.832 Q723.782 225.592 723.782 228.763 Q723.782 232.374 720.912 234.481 Q718.065 236.587 713.065 236.587 Q710.981 236.587 708.713 236.17 Q706.467 235.777 703.967 234.967 L703.967 230.569 Q706.329 231.795 708.62 232.42 Q710.912 233.022 713.157 233.022 Q716.166 233.022 717.787 232.004 Q719.407 230.962 719.407 229.087 Q719.407 227.351 718.227 226.425 Q717.069 225.499 713.111 224.643 L711.629 224.295 Q707.671 223.462 705.912 221.749 Q704.153 220.013 704.153 217.004 Q704.153 213.346 706.745 211.356 Q709.338 209.365 714.106 209.365 Q716.467 209.365 718.551 209.712 Q720.634 210.059 722.393 210.754 Z" fill="#000000" fill-rule="nonzero" fill-opacity="1"></path><path clip-path="url(#clip060)" d="M730.565 209.99 L734.824 209.99 L734.824 235.916 L730.565 235.916 L730.565 209.99 M730.565 199.897 L734.824 199.897 L734.824 205.291 L730.565 205.291 L730.565 199.897 Z" fill="#000000" fill-rule="nonzero" fill-opacity="1"></path><path clip-path="url(#clip060)" d="M747.949 202.629 L747.949 209.99 L756.722 209.99 L756.722 213.3 L747.949 213.3 L747.949 227.374 Q747.949 230.545 748.805 231.448 Q749.685 232.351 752.347 232.351 L756.722 232.351 L756.722 235.916 L752.347 235.916 Q747.416 235.916 745.541 234.087 Q743.666 232.235 743.666 227.374 L743.666 213.3 L740.541 213.3 L740.541 209.99 L743.666 209.99 L743.666 202.629 L747.949 202.629 Z" fill="#000000" fill-rule="nonzero" fill-opacity="1"></path><path clip-path="url(#clip060)" d="M784.499 221.888 L784.499 223.971 L764.916 223.971 Q765.194 228.369 767.555 230.684 Q769.939 232.976 774.175 232.976 Q776.629 232.976 778.921 232.374 Q781.236 231.772 783.504 230.569 L783.504 234.596 Q781.212 235.568 778.805 236.078 Q776.398 236.587 773.921 236.587 Q767.717 236.587 764.083 232.976 Q760.472 229.365 760.472 223.207 Q760.472 216.842 763.898 213.115 Q767.347 209.365 773.18 209.365 Q778.412 209.365 781.444 212.745 Q784.499 216.101 784.499 221.888 M780.24 220.638 Q780.194 217.143 778.273 215.059 Q776.374 212.976 773.226 212.976 Q769.662 212.976 767.509 214.99 Q765.379 217.004 765.055 220.661 L780.24 220.638 Z" fill="#000000" fill-rule="nonzero" fill-opacity="1"></path><path clip-path="url(#clip060)" d="M808.018 210.754 L808.018 214.782 Q806.212 213.856 804.268 213.393 Q802.323 212.93 800.24 212.93 Q797.069 212.93 795.472 213.902 Q793.898 214.874 793.898 216.819 Q793.898 218.3 795.032 219.157 Q796.166 219.99 799.592 220.754 L801.05 221.078 Q805.587 222.05 807.485 223.832 Q809.407 225.592 809.407 228.763 Q809.407 232.374 806.536 234.481 Q803.689 236.587 798.689 236.587 Q796.606 236.587 794.337 236.17 Q792.092 235.777 789.592 234.967 L789.592 230.569 Q791.953 231.795 794.245 232.42 Q796.536 233.022 798.782 233.022 Q801.791 233.022 803.411 232.004 Q805.032 230.962 805.032 229.087 Q805.032 227.351 803.851 226.425 Q802.694 225.499 798.735 224.643 L797.254 224.295 Q793.296 223.462 791.536 221.749 Q789.777 220.013 789.777 217.004 Q789.777 213.346 792.37 211.356 Q794.962 209.365 799.731 209.365 Q802.092 209.365 804.175 209.712 Q806.259 210.059 808.018 210.754 Z" fill="#000000" fill-rule="nonzero" fill-opacity="1"></path><path clip-path="url(#clip060)" d="M816.745 214.388 L846.42 214.388 L846.42 218.277 L816.745 218.277 L816.745 214.388 M816.745 223.832 L846.42 223.832 L846.42 227.768 L816.745 227.768 L816.745 223.832 Z" fill="#000000" fill-rule="nonzero" fill-opacity="1"></path><path clip-path="url(#clip060)" d="M857.323 231.981 L864.962 231.981 L864.962 205.615 L856.652 207.282 L856.652 203.022 L864.916 201.356 L869.592 201.356 L869.592 231.981 L877.23 231.981 L877.23 235.916 L857.323 235.916 L857.323 231.981 Z" fill="#000000" fill-rule="nonzero" fill-opacity="1"></path><path clip-path="url(#clip060)" d="M896.675 219.504 Q893.341 219.504 891.42 221.286 Q889.522 223.069 889.522 226.194 Q889.522 229.319 891.42 231.101 Q893.341 232.883 896.675 232.883 Q900.008 232.883 901.929 231.101 Q903.851 229.295 903.851 226.194 Q903.851 223.069 901.929 221.286 Q900.031 219.504 896.675 219.504 M891.999 217.513 Q888.99 216.772 887.3 214.712 Q885.633 212.652 885.633 209.689 Q885.633 205.546 888.573 203.138 Q891.536 200.731 896.675 200.731 Q901.837 200.731 904.777 203.138 Q907.716 205.546 907.716 209.689 Q907.716 212.652 906.027 214.712 Q904.36 216.772 901.374 217.513 Q904.753 218.3 906.628 220.592 Q908.527 222.883 908.527 226.194 Q908.527 231.217 905.448 233.902 Q902.392 236.587 896.675 236.587 Q890.957 236.587 887.879 233.902 Q884.823 231.217 884.823 226.194 Q884.823 222.883 886.721 220.592 Q888.619 218.3 891.999 217.513 M890.286 210.129 Q890.286 212.814 891.953 214.319 Q893.642 215.823 896.675 215.823 Q899.684 215.823 901.374 214.319 Q903.087 212.814 903.087 210.129 Q903.087 207.444 901.374 205.939 Q899.684 204.434 896.675 204.434 Q893.642 204.434 891.953 205.939 Q890.286 207.444 890.286 210.129 Z" fill="#000000" fill-rule="nonzero" fill-opacity="1"></path><polyline clip-path="url(#clip060)" style="stroke:#e26f46; stroke-linecap:round; stroke-linejoin:round; stroke-width:4; stroke-opacity:1; fill:none" points="314.197,270.476 456.422,270.476 "></polyline>
<path clip-path="url(#clip060)" d="M498.552 262.594 L498.552 266.622 Q496.746 265.696 494.802 265.233 Q492.857 264.77 490.774 264.77 Q487.603 264.77 486.006 265.742 Q484.432 266.714 484.432 268.659 Q484.432 270.14 485.566 270.997 Q486.7 271.83 490.126 272.594 L491.584 272.918 Q496.121 273.89 498.02 275.672 Q499.941 277.432 499.941 280.603 Q499.941 284.214 497.07 286.321 Q494.223 288.427 489.223 288.427 Q487.14 288.427 484.871 288.01 Q482.626 287.617 480.126 286.807 L480.126 282.409 Q482.487 283.635 484.779 284.26 Q487.07 284.862 489.316 284.862 Q492.325 284.862 493.945 283.844 Q495.566 282.802 495.566 280.927 Q495.566 279.191 494.385 278.265 Q493.228 277.339 489.27 276.483 L487.788 276.135 Q483.83 275.302 482.071 273.589 Q480.311 271.853 480.311 268.844 Q480.311 265.186 482.904 263.196 Q485.496 261.205 490.265 261.205 Q492.626 261.205 494.709 261.552 Q496.793 261.899 498.552 262.594 Z" fill="#000000" fill-rule="nonzero" fill-opacity="1"></path><path clip-path="url(#clip060)" d="M509.269 274.816 Q509.269 279.515 511.191 282.2 Q513.135 284.862 516.515 284.862 Q519.894 284.862 521.839 282.2 Q523.783 279.515 523.783 274.816 Q523.783 270.117 521.839 267.455 Q519.894 264.77 516.515 264.77 Q513.135 264.77 511.191 267.455 Q509.269 270.117 509.269 274.816 M523.783 283.867 Q522.441 286.182 520.38 287.316 Q518.343 288.427 515.473 288.427 Q510.774 288.427 507.811 284.677 Q504.871 280.927 504.871 274.816 Q504.871 268.705 507.811 264.955 Q510.774 261.205 515.473 261.205 Q518.343 261.205 520.38 262.339 Q522.441 263.45 523.783 265.765 L523.783 261.83 L528.042 261.83 L528.042 297.617 L523.783 297.617 L523.783 283.867 Z" fill="#000000" fill-rule="nonzero" fill-opacity="1"></path><path clip-path="url(#clip060)" d="M536.376 277.524 L536.376 261.83 L540.635 261.83 L540.635 277.362 Q540.635 281.043 542.07 282.895 Q543.505 284.723 546.376 284.723 Q549.825 284.723 551.816 282.524 Q553.829 280.325 553.829 276.529 L553.829 261.83 L558.089 261.83 L558.089 287.756 L553.829 287.756 L553.829 283.774 Q552.278 286.135 550.218 287.293 Q548.181 288.427 545.473 288.427 Q541.005 288.427 538.691 285.649 Q536.376 282.871 536.376 277.524 M547.093 261.205 L547.093 261.205 Z" fill="#000000" fill-rule="nonzero" fill-opacity="1"></path><path clip-path="url(#clip060)" d="M578.644 274.723 Q573.482 274.723 571.491 275.904 Q569.501 277.084 569.501 279.932 Q569.501 282.2 570.982 283.543 Q572.487 284.862 575.056 284.862 Q578.598 284.862 580.727 282.362 Q582.88 279.839 582.88 275.672 L582.88 274.723 L578.644 274.723 M587.139 272.964 L587.139 287.756 L582.88 287.756 L582.88 283.821 Q581.422 286.182 579.246 287.316 Q577.07 288.427 573.922 288.427 Q569.94 288.427 567.579 286.205 Q565.241 283.959 565.241 280.209 Q565.241 275.834 568.158 273.612 Q571.098 271.39 576.908 271.39 L582.88 271.39 L582.88 270.973 Q582.88 268.034 580.936 266.436 Q579.014 264.816 575.519 264.816 Q573.297 264.816 571.19 265.348 Q569.084 265.881 567.14 266.946 L567.14 263.01 Q569.477 262.108 571.677 261.668 Q573.876 261.205 575.959 261.205 Q581.584 261.205 584.362 264.122 Q587.139 267.038 587.139 272.964 Z" fill="#000000" fill-rule="nonzero" fill-opacity="1"></path><path clip-path="url(#clip060)" d="M610.936 265.811 Q610.218 265.395 609.362 265.21 Q608.528 265.001 607.51 265.001 Q603.899 265.001 601.954 267.362 Q600.033 269.7 600.033 274.098 L600.033 287.756 L595.75 287.756 L595.75 261.83 L600.033 261.83 L600.033 265.858 Q601.375 263.497 603.528 262.362 Q605.681 261.205 608.76 261.205 Q609.199 261.205 609.732 261.274 Q610.264 261.321 610.912 261.436 L610.936 265.811 Z" fill="#000000" fill-rule="nonzero" fill-opacity="1"></path><path clip-path="url(#clip060)" d="M636.537 273.728 L636.537 275.811 L616.954 275.811 Q617.232 280.209 619.593 282.524 Q621.977 284.816 626.213 284.816 Q628.667 284.816 630.959 284.214 Q633.273 283.612 635.542 282.409 L635.542 286.436 Q633.25 287.408 630.843 287.918 Q628.435 288.427 625.959 288.427 Q619.755 288.427 616.121 284.816 Q612.51 281.205 612.51 275.047 Q612.51 268.682 615.936 264.955 Q619.385 261.205 625.218 261.205 Q630.449 261.205 633.482 264.585 Q636.537 267.941 636.537 273.728 M632.278 272.478 Q632.232 268.983 630.31 266.899 Q628.412 264.816 625.264 264.816 Q621.699 264.816 619.547 266.83 Q617.417 268.844 617.093 272.501 L632.278 272.478 Z" fill="#000000" fill-rule="nonzero" fill-opacity="1"></path><path clip-path="url(#clip060)" d="M660.056 262.594 L660.056 266.622 Q658.25 265.696 656.306 265.233 Q654.361 264.77 652.278 264.77 Q649.107 264.77 647.509 265.742 Q645.935 266.714 645.935 268.659 Q645.935 270.14 647.07 270.997 Q648.204 271.83 651.63 272.594 L653.088 272.918 Q657.625 273.89 659.523 275.672 Q661.445 277.432 661.445 280.603 Q661.445 284.214 658.574 286.321 Q655.727 288.427 650.727 288.427 Q648.644 288.427 646.375 288.01 Q644.13 287.617 641.63 286.807 L641.63 282.409 Q643.991 283.635 646.283 284.26 Q648.574 284.862 650.82 284.862 Q653.829 284.862 655.449 283.844 Q657.07 282.802 657.07 280.927 Q657.07 279.191 655.889 278.265 Q654.732 277.339 650.773 276.483 L649.292 276.135 Q645.334 275.302 643.574 273.589 Q641.815 271.853 641.815 268.844 Q641.815 265.186 644.408 263.196 Q647 261.205 651.769 261.205 Q654.13 261.205 656.213 261.552 Q658.296 261.899 660.056 262.594 Z" fill="#000000" fill-rule="nonzero" fill-opacity="1"></path><path clip-path="url(#clip060)" d="M669.315 281.876 L674.199 281.876 L674.199 285.858 L670.403 293.265 L667.417 293.265 L669.315 285.858 L669.315 281.876 Z" fill="#000000" fill-rule="nonzero" fill-opacity="1"></path><path clip-path="url(#clip060)" d="M699.824 262.594 L699.824 266.622 Q698.018 265.696 696.074 265.233 Q694.13 264.77 692.046 264.77 Q688.875 264.77 687.278 265.742 Q685.704 266.714 685.704 268.659 Q685.704 270.14 686.838 270.997 Q687.972 271.83 691.398 272.594 L692.856 272.918 Q697.393 273.89 699.292 275.672 Q701.213 277.432 701.213 280.603 Q701.213 284.214 698.343 286.321 Q695.495 288.427 690.495 288.427 Q688.412 288.427 686.143 288.01 Q683.898 287.617 681.398 286.807 L681.398 282.409 Q683.759 283.635 686.051 284.26 Q688.343 284.862 690.588 284.862 Q693.597 284.862 695.218 283.844 Q696.838 282.802 696.838 280.927 Q696.838 279.191 695.657 278.265 Q694.5 277.339 690.542 276.483 L689.06 276.135 Q685.102 275.302 683.343 273.589 Q681.583 271.853 681.583 268.844 Q681.583 265.186 684.176 263.196 Q686.768 261.205 691.537 261.205 Q693.898 261.205 695.981 261.552 Q698.065 261.899 699.824 262.594 Z" fill="#000000" fill-rule="nonzero" fill-opacity="1"></path><path clip-path="url(#clip060)" d="M707.995 261.83 L712.254 261.83 L712.254 287.756 L707.995 287.756 L707.995 261.83 M707.995 251.737 L712.254 251.737 L712.254 257.131 L707.995 257.131 L707.995 251.737 Z" fill="#000000" fill-rule="nonzero" fill-opacity="1"></path><path clip-path="url(#clip060)" d="M725.379 254.469 L725.379 261.83 L734.152 261.83 L734.152 265.14 L725.379 265.14 L725.379 279.214 Q725.379 282.385 726.236 283.288 Q727.115 284.191 729.778 284.191 L734.152 284.191 L734.152 287.756 L729.778 287.756 Q724.847 287.756 722.972 285.927 Q721.097 284.075 721.097 279.214 L721.097 265.14 L717.972 265.14 L717.972 261.83 L721.097 261.83 L721.097 254.469 L725.379 254.469 Z" fill="#000000" fill-rule="nonzero" fill-opacity="1"></path><path clip-path="url(#clip060)" d="M761.93 273.728 L761.93 275.811 L742.347 275.811 Q742.625 280.209 744.986 282.524 Q747.37 284.816 751.606 284.816 Q754.06 284.816 756.351 284.214 Q758.666 283.612 760.935 282.409 L760.935 286.436 Q758.643 287.408 756.236 287.918 Q753.828 288.427 751.351 288.427 Q745.148 288.427 741.514 284.816 Q737.902 281.205 737.902 275.047 Q737.902 268.682 741.328 264.955 Q744.777 261.205 750.611 261.205 Q755.842 261.205 758.875 264.585 Q761.93 267.941 761.93 273.728 M757.671 272.478 Q757.625 268.983 755.703 266.899 Q753.805 264.816 750.657 264.816 Q747.092 264.816 744.939 266.83 Q742.81 268.844 742.486 272.501 L757.671 272.478 Z" fill="#000000" fill-rule="nonzero" fill-opacity="1"></path><path clip-path="url(#clip060)" d="M785.449 262.594 L785.449 266.622 Q783.643 265.696 781.699 265.233 Q779.754 264.77 777.671 264.77 Q774.5 264.77 772.902 265.742 Q771.328 266.714 771.328 268.659 Q771.328 270.14 772.462 270.997 Q773.597 271.83 777.023 272.594 L778.481 272.918 Q783.018 273.89 784.916 275.672 Q786.837 277.432 786.837 280.603 Q786.837 284.214 783.967 286.321 Q781.12 288.427 776.12 288.427 Q774.037 288.427 771.768 288.01 Q769.523 287.617 767.023 286.807 L767.023 282.409 Q769.384 283.635 771.675 284.26 Q773.967 284.862 776.212 284.862 Q779.222 284.862 780.842 283.844 Q782.462 282.802 782.462 280.927 Q782.462 279.191 781.282 278.265 Q780.124 277.339 776.166 276.483 L774.685 276.135 Q770.726 275.302 768.967 273.589 Q767.208 271.853 767.208 268.844 Q767.208 265.186 769.8 263.196 Q772.393 261.205 777.162 261.205 Q779.523 261.205 781.606 261.552 Q783.689 261.899 785.449 262.594 Z" fill="#000000" fill-rule="nonzero" fill-opacity="1"></path><path clip-path="url(#clip060)" d="M794.175 266.228 L823.851 266.228 L823.851 270.117 L794.175 270.117 L794.175 266.228 M794.175 275.672 L823.851 275.672 L823.851 279.608 L794.175 279.608 L794.175 275.672 Z" fill="#000000" fill-rule="nonzero" fill-opacity="1"></path><path clip-path="url(#clip060)" d="M834.754 283.821 L842.393 283.821 L842.393 257.455 L834.083 259.122 L834.083 254.862 L842.346 253.196 L847.022 253.196 L847.022 283.821 L854.661 283.821 L854.661 287.756 L834.754 287.756 L834.754 283.821 Z" fill="#000000" fill-rule="nonzero" fill-opacity="1"></path><path clip-path="url(#clip060)" d="M874.105 271.344 Q870.772 271.344 868.851 273.126 Q866.953 274.909 866.953 278.034 Q866.953 281.159 868.851 282.941 Q870.772 284.723 874.105 284.723 Q877.439 284.723 879.36 282.941 Q881.281 281.135 881.281 278.034 Q881.281 274.909 879.36 273.126 Q877.462 271.344 874.105 271.344 M869.43 269.353 Q866.42 268.612 864.731 266.552 Q863.064 264.492 863.064 261.529 Q863.064 257.386 866.004 254.978 Q868.967 252.571 874.105 252.571 Q879.267 252.571 882.207 254.978 Q885.147 257.386 885.147 261.529 Q885.147 264.492 883.457 266.552 Q881.791 268.612 878.805 269.353 Q882.184 270.14 884.059 272.432 Q885.957 274.723 885.957 278.034 Q885.957 283.057 882.879 285.742 Q879.823 288.427 874.105 288.427 Q868.388 288.427 865.309 285.742 Q862.254 283.057 862.254 278.034 Q862.254 274.723 864.152 272.432 Q866.05 270.14 869.43 269.353 M867.717 261.969 Q867.717 264.654 869.383 266.159 Q871.073 267.663 874.105 267.663 Q877.115 267.663 878.805 266.159 Q880.517 264.654 880.517 261.969 Q880.517 259.284 878.805 257.779 Q877.115 256.274 874.105 256.274 Q871.073 256.274 869.383 257.779 Q867.717 259.284 867.717 261.969 Z" fill="#000000" fill-rule="nonzero" fill-opacity="1"></path><polyline clip-path="url(#clip060)" style="stroke:#3da44d; stroke-linecap:round; stroke-linejoin:round; stroke-width:4; stroke-opacity:1; fill:none" points="314.197,322.316 456.422,322.316 "></polyline>
<path clip-path="url(#clip060)" d="M499.038 317.605 L499.038 303.577 L503.297 303.577 L503.297 339.596 L499.038 339.596 L499.038 335.707 Q497.695 338.022 495.635 339.156 Q493.598 340.267 490.728 340.267 Q486.029 340.267 483.066 336.517 Q480.126 332.767 480.126 326.656 Q480.126 320.545 483.066 316.795 Q486.029 313.045 490.728 313.045 Q493.598 313.045 495.635 314.179 Q497.695 315.29 499.038 317.605 M484.524 326.656 Q484.524 331.355 486.445 334.04 Q488.39 336.702 491.77 336.702 Q495.149 336.702 497.094 334.04 Q499.038 331.355 499.038 326.656 Q499.038 321.957 497.094 319.295 Q495.149 316.61 491.77 316.61 Q488.39 316.61 486.445 319.295 Q484.524 321.957 484.524 326.656 Z" fill="#000000" fill-rule="nonzero" fill-opacity="1"></path><path clip-path="url(#clip060)" d="M512.07 313.67 L516.33 313.67 L516.33 339.596 L512.07 339.596 L512.07 313.67 M512.07 303.577 L516.33 303.577 L516.33 308.971 L512.07 308.971 L512.07 303.577 Z" fill="#000000" fill-rule="nonzero" fill-opacity="1"></path><path clip-path="url(#clip060)" d="M537.024 326.563 Q531.862 326.563 529.871 327.744 Q527.88 328.924 527.88 331.772 Q527.88 334.04 529.362 335.383 Q530.867 336.702 533.436 336.702 Q536.978 336.702 539.107 334.202 Q541.26 331.679 541.26 327.512 L541.26 326.563 L537.024 326.563 M545.519 324.804 L545.519 339.596 L541.26 339.596 L541.26 335.661 Q539.802 338.022 537.626 339.156 Q535.45 340.267 532.302 340.267 Q528.32 340.267 525.959 338.045 Q523.621 335.799 523.621 332.049 Q523.621 327.674 526.538 325.452 Q529.478 323.23 535.288 323.23 L541.26 323.23 L541.26 322.813 Q541.26 319.874 539.316 318.276 Q537.394 316.656 533.899 316.656 Q531.677 316.656 529.57 317.188 Q527.464 317.721 525.519 318.786 L525.519 314.85 Q527.857 313.948 530.056 313.508 Q532.255 313.045 534.339 313.045 Q539.964 313.045 542.741 315.962 Q545.519 318.878 545.519 324.804 Z" fill="#000000" fill-rule="nonzero" fill-opacity="1"></path><path clip-path="url(#clip060)" d="M574.477 318.647 Q576.075 315.776 578.297 314.411 Q580.519 313.045 583.528 313.045 Q587.579 313.045 589.778 315.892 Q591.977 318.716 591.977 323.948 L591.977 339.596 L587.695 339.596 L587.695 324.087 Q587.695 320.36 586.376 318.554 Q585.056 316.749 582.348 316.749 Q579.038 316.749 577.116 318.948 Q575.195 321.147 575.195 324.943 L575.195 339.596 L570.913 339.596 L570.913 324.087 Q570.913 320.337 569.593 318.554 Q568.274 316.749 565.519 316.749 Q562.255 316.749 560.334 318.971 Q558.413 321.17 558.413 324.943 L558.413 339.596 L554.13 339.596 L554.13 313.67 L558.413 313.67 L558.413 317.698 Q559.871 315.313 561.908 314.179 Q563.945 313.045 566.746 313.045 Q569.57 313.045 571.538 314.48 Q573.528 315.915 574.477 318.647 Z" fill="#000000" fill-rule="nonzero" fill-opacity="1"></path><path clip-path="url(#clip060)" d="M610.519 316.656 Q607.093 316.656 605.102 319.341 Q603.112 322.003 603.112 326.656 Q603.112 331.309 605.079 333.994 Q607.07 336.656 610.519 336.656 Q613.922 336.656 615.912 333.971 Q617.903 331.286 617.903 326.656 Q617.903 322.05 615.912 319.364 Q613.922 316.656 610.519 316.656 M610.519 313.045 Q616.074 313.045 619.246 316.656 Q622.417 320.267 622.417 326.656 Q622.417 333.022 619.246 336.656 Q616.074 340.267 610.519 340.267 Q604.94 340.267 601.769 336.656 Q598.621 333.022 598.621 326.656 Q598.621 320.267 601.769 316.656 Q604.94 313.045 610.519 313.045 Z" fill="#000000" fill-rule="nonzero" fill-opacity="1"></path><path clip-path="url(#clip060)" d="M651.028 323.948 L651.028 339.596 L646.769 339.596 L646.769 324.087 Q646.769 320.406 645.334 318.577 Q643.898 316.749 641.028 316.749 Q637.579 316.749 635.588 318.948 Q633.597 321.147 633.597 324.943 L633.597 339.596 L629.315 339.596 L629.315 313.67 L633.597 313.67 L633.597 317.698 Q635.125 315.36 637.185 314.202 Q639.269 313.045 641.977 313.045 Q646.445 313.045 648.736 315.823 Q651.028 318.577 651.028 323.948 Z" fill="#000000" fill-rule="nonzero" fill-opacity="1"></path><path clip-path="url(#clip060)" d="M676.583 317.605 L676.583 303.577 L680.843 303.577 L680.843 339.596 L676.583 339.596 L676.583 335.707 Q675.241 338.022 673.181 339.156 Q671.144 340.267 668.273 340.267 Q663.574 340.267 660.611 336.517 Q657.671 332.767 657.671 326.656 Q657.671 320.545 660.611 316.795 Q663.574 313.045 668.273 313.045 Q671.144 313.045 673.181 314.179 Q675.241 315.29 676.583 317.605 M662.07 326.656 Q662.07 331.355 663.991 334.04 Q665.935 336.702 669.315 336.702 Q672.694 336.702 674.639 334.04 Q676.583 331.355 676.583 326.656 Q676.583 321.957 674.639 319.295 Q672.694 316.61 669.315 316.61 Q665.935 316.61 663.991 319.295 Q662.07 321.957 662.07 326.656 Z" fill="#000000" fill-rule="nonzero" fill-opacity="1"></path><path clip-path="url(#clip060)" d="M706.143 314.434 L706.143 318.462 Q704.338 317.536 702.393 317.073 Q700.449 316.61 698.366 316.61 Q695.194 316.61 693.597 317.582 Q692.023 318.554 692.023 320.499 Q692.023 321.98 693.157 322.837 Q694.292 323.67 697.718 324.434 L699.176 324.758 Q703.713 325.73 705.611 327.512 Q707.532 329.272 707.532 332.443 Q707.532 336.054 704.662 338.161 Q701.815 340.267 696.815 340.267 Q694.731 340.267 692.463 339.85 Q690.218 339.457 687.718 338.647 L687.718 334.249 Q690.079 335.475 692.37 336.1 Q694.662 336.702 696.907 336.702 Q699.917 336.702 701.537 335.684 Q703.157 334.642 703.157 332.767 Q703.157 331.031 701.977 330.105 Q700.819 329.179 696.861 328.323 L695.38 327.975 Q691.421 327.142 689.662 325.429 Q687.903 323.693 687.903 320.684 Q687.903 317.026 690.495 315.036 Q693.088 313.045 697.856 313.045 Q700.217 313.045 702.301 313.392 Q704.384 313.739 706.143 314.434 Z" fill="#000000" fill-rule="nonzero" fill-opacity="1"></path><path clip-path="url(#clip060)" d="M715.403 333.716 L720.287 333.716 L720.287 337.698 L716.491 345.105 L713.504 345.105 L715.403 337.698 L715.403 333.716 Z" fill="#000000" fill-rule="nonzero" fill-opacity="1"></path><path clip-path="url(#clip060)" d="M745.912 314.434 L745.912 318.462 Q744.106 317.536 742.162 317.073 Q740.217 316.61 738.134 316.61 Q734.963 316.61 733.365 317.582 Q731.791 318.554 731.791 320.499 Q731.791 321.98 732.926 322.837 Q734.06 323.67 737.486 324.434 L738.944 324.758 Q743.481 325.73 745.379 327.512 Q747.301 329.272 747.301 332.443 Q747.301 336.054 744.43 338.161 Q741.583 340.267 736.583 340.267 Q734.5 340.267 732.231 339.85 Q729.986 339.457 727.486 338.647 L727.486 334.249 Q729.847 335.475 732.139 336.1 Q734.43 336.702 736.676 336.702 Q739.685 336.702 741.305 335.684 Q742.926 334.642 742.926 332.767 Q742.926 331.031 741.745 330.105 Q740.588 329.179 736.629 328.323 L735.148 327.975 Q731.19 327.142 729.43 325.429 Q727.671 323.693 727.671 320.684 Q727.671 317.026 730.264 315.036 Q732.856 313.045 737.625 313.045 Q739.986 313.045 742.069 313.392 Q744.152 313.739 745.912 314.434 Z" fill="#000000" fill-rule="nonzero" fill-opacity="1"></path><path clip-path="url(#clip060)" d="M754.083 313.67 L758.342 313.67 L758.342 339.596 L754.083 339.596 L754.083 313.67 M754.083 303.577 L758.342 303.577 L758.342 308.971 L754.083 308.971 L754.083 303.577 Z" fill="#000000" fill-rule="nonzero" fill-opacity="1"></path><path clip-path="url(#clip060)" d="M771.467 306.309 L771.467 313.67 L780.24 313.67 L780.24 316.98 L771.467 316.98 L771.467 331.054 Q771.467 334.225 772.324 335.128 Q773.203 336.031 775.865 336.031 L780.24 336.031 L780.24 339.596 L775.865 339.596 Q770.935 339.596 769.06 337.767 Q767.185 335.915 767.185 331.054 L767.185 316.98 L764.06 316.98 L764.06 313.67 L767.185 313.67 L767.185 306.309 L771.467 306.309 Z" fill="#000000" fill-rule="nonzero" fill-opacity="1"></path><path clip-path="url(#clip060)" d="M808.018 325.568 L808.018 327.651 L788.435 327.651 Q788.712 332.049 791.073 334.364 Q793.458 336.656 797.694 336.656 Q800.148 336.656 802.439 336.054 Q804.754 335.452 807.022 334.249 L807.022 338.276 Q804.731 339.248 802.323 339.758 Q799.916 340.267 797.439 340.267 Q791.236 340.267 787.601 336.656 Q783.99 333.045 783.99 326.887 Q783.99 320.522 787.416 316.795 Q790.865 313.045 796.698 313.045 Q801.93 313.045 804.962 316.425 Q808.018 319.781 808.018 325.568 M803.759 324.318 Q803.712 320.823 801.791 318.739 Q799.893 316.656 796.745 316.656 Q793.18 316.656 791.027 318.67 Q788.898 320.684 788.574 324.341 L803.759 324.318 Z" fill="#000000" fill-rule="nonzero" fill-opacity="1"></path><path clip-path="url(#clip060)" d="M831.536 314.434 L831.536 318.462 Q829.731 317.536 827.786 317.073 Q825.842 316.61 823.759 316.61 Q820.587 316.61 818.99 317.582 Q817.416 318.554 817.416 320.499 Q817.416 321.98 818.55 322.837 Q819.684 323.67 823.11 324.434 L824.569 324.758 Q829.106 325.73 831.004 327.512 Q832.925 329.272 832.925 332.443 Q832.925 336.054 830.055 338.161 Q827.208 340.267 822.208 340.267 Q820.124 340.267 817.856 339.85 Q815.61 339.457 813.11 338.647 L813.11 334.249 Q815.472 335.475 817.763 336.1 Q820.055 336.702 822.3 336.702 Q825.309 336.702 826.93 335.684 Q828.55 334.642 828.55 332.767 Q828.55 331.031 827.37 330.105 Q826.212 329.179 822.254 328.323 L820.772 327.975 Q816.814 327.142 815.055 325.429 Q813.296 323.693 813.296 320.684 Q813.296 317.026 815.888 315.036 Q818.481 313.045 823.249 313.045 Q825.61 313.045 827.694 313.392 Q829.777 313.739 831.536 314.434 Z" fill="#000000" fill-rule="nonzero" fill-opacity="1"></path><path clip-path="url(#clip060)" d="M840.263 318.068 L869.939 318.068 L869.939 321.957 L840.263 321.957 L840.263 318.068 M840.263 327.512 L869.939 327.512 L869.939 331.448 L840.263 331.448 L840.263 327.512 Z" fill="#000000" fill-rule="nonzero" fill-opacity="1"></path><path clip-path="url(#clip060)" d="M880.842 335.661 L888.48 335.661 L888.48 309.295 L880.17 310.962 L880.17 306.702 L888.434 305.036 L893.11 305.036 L893.11 335.661 L900.749 335.661 L900.749 339.596 L880.842 339.596 L880.842 335.661 Z" fill="#000000" fill-rule="nonzero" fill-opacity="1"></path><path clip-path="url(#clip060)" d="M910.332 338.878 L910.332 334.619 Q912.091 335.452 913.897 335.892 Q915.702 336.332 917.439 336.332 Q922.068 336.332 924.499 333.23 Q926.952 330.105 927.3 323.762 Q925.957 325.753 923.897 326.818 Q921.837 327.883 919.337 327.883 Q914.152 327.883 911.119 324.758 Q908.11 321.61 908.11 316.17 Q908.11 310.846 911.258 307.628 Q914.406 304.411 919.638 304.411 Q925.633 304.411 928.781 309.017 Q931.952 313.6 931.952 322.35 Q931.952 330.522 928.063 335.406 Q924.198 340.267 917.647 340.267 Q915.888 340.267 914.082 339.92 Q912.277 339.573 910.332 338.878 M919.638 324.225 Q922.786 324.225 924.614 322.073 Q926.466 319.92 926.466 316.17 Q926.466 312.443 924.614 310.29 Q922.786 308.114 919.638 308.114 Q916.489 308.114 914.638 310.29 Q912.809 312.443 912.809 316.17 Q912.809 319.92 914.638 322.073 Q916.489 324.225 919.638 324.225 Z" fill="#000000" fill-rule="nonzero" fill-opacity="1"></path></svg>